<?xml version="1.0" encoding="utf-8"?>
<!-- Generator: Adobe Illustrator 23.0.1, SVG Export Plug-In . SVG Version: 6.00 Build 0)  -->
<svg version="1.1" id="Ebene_1" xmlns="http://www.w3.org/2000/svg" x="0px" y="0px"
	 viewBox="0 0 77.7 14.2" style="enable-background:new 0 0 77.7 14.2;" xml:space="preserve">
<style type="text/css">
	.st0{fill:#8C8C8C;}
	.st1{fill:#24B5BC;}
</style>
	<title>obese</title>
	<g>
	<g id="Ebene_1-2">
		<g>
			<path class="st0" d="M2,14.2l-2-0.3l0.4-2.4l0.9,0c21.8-0.3,35-4.3,43.7-7c3.2-1,5.7-1.8,7.8-2.1C55.3,2,72.7-0.4,75.1,0
				c1,0.1,1.9,0.6,2.6,1.3l-1.5,1.4c-0.4-0.4-0.9-0.6-1.4-0.7C73.2,1.7,59.6,3.4,53,4.4c-1.9,0.3-4.4,1-7.5,2
				c-8.7,2.7-21.9,6.7-43.4,7.1L2,14.2z"/>
		</g>
		<g>
			<path class="st1" d="M26,11.3l-0.3-2C34,7.8,40.4,5.9,45,4.5c3.2-1,5.7-1.7,7.7-2C55.3,2,72.7-0.4,75.1,0c1,0.1,1.9,0.6,2.6,1.3
				l-1.5,1.4c-0.4-0.4-0.9-0.6-1.4-0.7C73.2,1.7,59.6,3.4,53,4.4c-1.9,0.3-4.3,1-7.4,2C40.9,7.8,34.5,9.8,26,11.3z"/>
		</g>
	</g>
</g>
</svg>
