<?xml version="1.0" encoding="utf-8"?>
<!-- Generator: Adobe Illustrator 23.0.1, SVG Export Plug-In . SVG Version: 6.00 Build 0)  -->
<svg version="1.1" id="Ebene_1" xmlns="http://www.w3.org/2000/svg" x="0px" y="0px"
	 viewBox="0 0 73.6 27.2" style="enable-background:new 0 0 73.6 27.2;" xml:space="preserve">
<style type="text/css">
	.st0{fill:#8C8C8C;}
	.st1{fill:#24B5BC;}
</style>
	<title>thin</title>
	<g>
	<g id="Ebene_1-2">
		<g>
			<path class="st0" d="M2,27.2L0,27l0.5-3.7l0.9,0C21.8,23,33.2,13.9,40.7,7.9c3.5-2.8,6.2-5,8.9-5.6C50.1,2.2,64.2-0.9,68,0.3
				l0.1,0c2.3,1,4.1,2.7,5.4,4.8l-1.7,1c-1.1-1.8-2.6-3.1-4.5-4C65.1,1.5,56.7,2.8,50,4.3c-2.2,0.5-4.8,2.5-8,5.2
				c-7.6,6.1-19.1,15.3-39.7,15.8L2,27.2z"/>
		</g>
		<g>
			<path class="st1" d="M26.1,19.8L25.3,18c6.6-3.1,11.5-7,15.4-10.1c3.5-2.8,6.3-5,8.9-5.6c0.6-0.1,14.7-3.2,18.5-2
				c0.7,0.2,1.2,0.5,1.7,0.9l-1.1,1.6c-0.4-0.3-0.8-0.5-1.2-0.6c-2.1-0.6-10.6,0.6-17.4,2.1c-2.2,0.5-4.8,2.5-8.1,5.2
				C37.9,12.7,32.9,16.7,26.1,19.8z"/>
		</g>
	</g>
</g>
</svg>
