<?xml version="1.0" encoding="utf-8"?>
<!-- Generator: Adobe Illustrator 23.0.1, SVG Export Plug-In . SVG Version: 6.00 Build 0)  -->
<svg version="1.1" id="Ebene_1" xmlns="http://www.w3.org/2000/svg" x="0px" y="0px"
	 viewBox="0 0 78.9 7.8" style="enable-background:new 0 0 78.9 7.8;" xml:space="preserve">
<style type="text/css">
	.st0{fill:#8C8C8C;}
	.st1{fill:#24B5BC;}
</style>
	<title>ultra_obese</title>
	<g>
	<g id="Ebene_1-2">
		<g>
			<path class="st0" d="M0.2,7.8c-0.1,0-0.2,0-0.2,0l0-2c2.5,0,8-0.2,14.2-0.5c10-0.5,21.2-1,26.6-0.7C49.6,5,69,3.4,78.2,0l0.7,1.9
				C69.5,5.4,49.7,7,40.7,6.5c-5.2-0.3-17,0.3-26.4,0.7C8.2,7.5,2.9,7.8,0.2,7.8z"/>
		</g>
		<g>
			<path class="st1" d="M24.9,6.8l-0.1-2c7.9-0.3,13-0.4,16-0.2C49.6,5,69,3.4,78.2,0l0.7,1.9C69.5,5.4,49.7,7,40.7,6.5
				C37.8,6.4,32.8,6.5,24.9,6.8z"/>
		</g>
	</g>
</g>
</svg>
