<?xml version="1.0" encoding="utf-8"?>
<!-- Generator: Adobe Illustrator 23.0.1, SVG Export Plug-In . SVG Version: 6.00 Build 0)  -->
<svg version="1.1" id="Ebene_1" xmlns="http://www.w3.org/2000/svg" x="0px" y="0px"
	 viewBox="0 0 73.6 30" style="enable-background:new 0 0 73.6 30;" xml:space="preserve">
<style type="text/css">
	.st0{fill:#8C8C8C;}
	.st1{fill:#24B5BC;}
</style>
	<title>ultra-obese</title>
	<g>
	<g id="Ebene_1-2">
		<g>
			<path class="st0" d="M2,30l-2-0.3l0.6-4.6l0.9,0C21.8,25,32.8,15,40.2,8.5c3.5-3.1,6.2-5.6,8.9-6.1c0.6-0.1,14.7-3.2,18.5-2
				c1.7,0.5,5.6,6.8,6.1,7.7l-1.7,1c-1.4-2.5-4.2-6.3-5-6.8c-2.1-0.6-10.6,0.6-17.4,2.1c-2.2,0.5-4.7,2.8-8,5.7
				c-7.4,6.7-18.6,16.7-39.1,17.2L2,30z"/>
		</g>
		<g>
			<path class="st1" d="M26,21.3l-0.9-1.8c6.4-3.3,11.2-7.6,15-11c3.5-3.1,6.2-5.6,8.9-6.2c0.6-0.1,14.7-3.2,18.5-2l0.3,0.1
				C68.7,1,69.4,1.7,70,2.6l-1.7,1.1c-0.4-0.6-0.9-1.1-1.5-1.5c-2.4-0.6-10.6,0.6-17.4,2.1c-2.2,0.5-4.8,2.8-8,5.7
				C37.6,13.5,32.7,17.8,26,21.3z"/>
		</g>
	</g>
</g>
</svg>
