<?xml version="1.0" encoding="utf-8"?>
<!-- Generator: Adobe Illustrator 19.2.0, SVG Export Plug-In . SVG Version: 6.00 Build 0)  -->
<svg version="1.1" id="Forschen" xmlns="http://www.w3.org/2000/svg" xmlns:xlink="http://www.w3.org/1999/xlink" x="0px" y="0px"
	 viewBox="0 0 77.8 77" style="enable-background:new 0 0 77.8 77;" xml:space="preserve">
<style type="text/css">
	.st0{fill:none;stroke:#656463;stroke-width:1.8;stroke-linecap:round;stroke-linejoin:round;stroke-miterlimit:10;}
</style>
<g>
	<g transform="matrix(1, 0, 0, 1, 33, 335)">
		<path id="Rechteck_1878-2" class="st0" d="M5.7-333.8L5.7-333.8c20.6,0,37.3,16.7,37.3,37.3v0c0,20.6-16.7,37.3-37.3,37.3h0
			c-20.6,0-37.3-16.7-37.3-37.3v0C-31.6-317.1-14.9-333.8,5.7-333.8z"/>
	</g>
	<g id="Gruppe_10169" transform="translate(193.383 343.394)">
		<g id="Gruppe_10169-2" transform="translate(4.798 4.228)">
			<path id="Pfad_9861" class="st0" d="M-158.3-314l-5.3,5.3L-179-324l5.3-5.3L-158.3-314z"/>
			<line id="Linie_2640" class="st0" x1="-160.7" y1="-311" x2="-155.3" y2="-305.7"/>
		</g>
		<path id="Pfad_9862" class="st0" d="M-145.9-288c-2.8,2.1-6.2,3.3-9.7,3.3l0,0c-8.9,0-16-7.2-16.1-16v-3c0-1.2,0.1-2.4,0.4-3.6"/>
		<line id="Linie_2641" class="st0" x1="-151.4" y1="-294.5" x2="-135.7" y2="-294.5"/>
		<line id="Linie_2642" class="st0" x1="-174.8" y1="-284.7" x2="-134.5" y2="-284.7"/>
		<ellipse id="Ellipse_2106" class="st0" cx="-170.2" cy="-310.9" rx="3.3" ry="3.3"/>
		<ellipse id="Ellipse_2107" class="st0" cx="-142.7" cy="-290.7" rx="3.7" ry="3.7"/>
	</g>
</g>
</svg>
