<?xml version="1.0" encoding="utf-8"?>
<!-- Generator: Adobe Illustrator 19.2.0, SVG Export Plug-In . SVG Version: 6.00 Build 0)  -->
<svg version="1.1" id="Füttern" xmlns="http://www.w3.org/2000/svg" xmlns:xlink="http://www.w3.org/1999/xlink" x="0px" y="0px"
	 viewBox="0 0 77.8 77" style="enable-background:new 0 0 77.8 77;" xml:space="preserve">
<style type="text/css">
	.st0{fill:none;stroke:#656463;stroke-width:1.8;stroke-linecap:round;stroke-linejoin:round;stroke-miterlimit:10;}
</style>
<g>
	<g transform="matrix(1, 0, 0, 1, 33, 335)">
		<path id="Rechteck_1875-2" class="st0" d="M5.7-333.8L5.7-333.8c20.6,0,37.3,16.7,37.3,37.3v0c0,20.6-16.7,37.3-37.3,37.3h0
			c-20.6,0-37.3-16.7-37.3-37.3v0C-31.6-317.1-14.9-333.8,5.7-333.8z"/>
	</g>
	<path id="Pfad_8336" class="st0" d="M53.2,25L53.2,25c0.3-2.1-0.4-4.3-1.9-5.8c-2.4-2.4-6.3-2.4-8.8,0c-2.4,2.4-2.4,6.3,0,8.8
		c0.3,0.3,0.5,0.5,0.8,0.5L27.7,44.2c-0.3-0.3-0.3-0.5-0.5-0.8c-2.4-2.4-6.3-2.4-8.8,0c-2.4,2.4-2.4,6.3,0,8.8
		c1.5,1.5,3.8,2.1,5.8,1.6c-0.6,2.1,0,4.3,1.6,5.8c2.4,2.5,6.3,2.5,8.8,0.1c2.5-2.4,2.5-6.3,0.1-8.8c0,0-0.1-0.1-0.1-0.1
		c-0.3,0-0.5-0.3-0.8-0.3l15.9-15.9c0.3,0.3,0.3,0.5,0.5,0.8c2.4,2.5,6.3,2.5,8.8,0.1c2.5-2.4,2.5-6.3,0.1-8.8c0,0-0.1-0.1-0.1-0.1
		C57.5,25.1,55.3,24.5,53.2,25z"/>
</g>
</svg>
