<?xml version="1.0" encoding="utf-8"?>
<!-- Generator: Adobe Illustrator 19.2.0, SVG Export Plug-In . SVG Version: 6.00 Build 0)  -->
<svg version="1.1" xmlns="http://www.w3.org/2000/svg" xmlns:xlink="http://www.w3.org/1999/xlink" x="0px" y="0px"
	 viewBox="0 0 77.8 77" style="enable-background:new 0 0 77.8 77;" xml:space="preserve">
<style type="text/css">
	.st0{fill:none;stroke:#656463;stroke-width:1.8;stroke-linecap:round;stroke-linejoin:round;stroke-miterlimit:10;}
	.st1{display:none;}
	.st2{display:inline;}
</style>
<g id="Verarzten">
	<g>
		<g transform="matrix(1, 0, 0, 1, 33, 335)">
			<path id="Rechteck_1885-2" class="st0" d="M5.7-333.8L5.7-333.8c20.6,0,37.3,16.7,37.3,37.3v0c0,20.6-16.7,37.3-37.3,37.3h0
				c-20.6,0-37.3-16.7-37.3-37.3v0C-31.6-317.1-14.9-333.8,5.7-333.8z"/>
		</g>
		<g id="Gruppe_7765" transform="translate(274.5 347.5)">
			<circle id="Ellipse_1751" class="st0" cx="-221.5" cy="-300.2" r="4.2"/>
			<g id="Gruppe_7764" transform="translate(0.5 0.5)">
				<path id="Pfad_8288" class="st0" d="M-228.7-326.4v9.8c-0.1,7.2-5.9,13-13,13l0,0c-7.2-0.1-13-5.9-13-13v-9.8"/>
				<path id="Pfad_8289" class="st0" d="M-250.5-319.3h-2.7c-0.8-0.1-1.5-0.7-1.5-1.5v-6.9c0.1-0.8,0.7-1.5,1.5-1.5h2.7
					c0.8,0.1,1.5,0.7,1.5,1.5v6.9C-249.1-320.1-249.7-319.4-250.5-319.3z"/>
				<path id="Pfad_8290" class="st0" d="M-230.2-319.3h-2.7c-0.8-0.1-1.5-0.7-1.5-1.5v-6.9c0.1-0.8,0.7-1.5,1.5-1.5h2.7
					c0.8,0.1,1.5,0.7,1.5,1.5v6.9C-228.7-320-229.3-319.4-230.2-319.3C-230.2-319.3-230.2-319.3-230.2-319.3z"/>
			</g>
			<path id="Pfad_8291" class="st0" d="M-221.5-295.1c0,5.4-4.4,9.8-9.8,9.8l0,0c-5.4,0-9.8-4.4-9.8-9.8v-7.3"/>
		</g>
	</g>
</g>
<g id="Forschen" class="st1">
	<g class="st2">
		<g transform="matrix(1, 0, 0, 1, 33, 335)">
			<path id="Rechteck_1878-2" class="st0" d="M5.7-333.8L5.7-333.8c20.6,0,37.3,16.7,37.3,37.3v0c0,20.6-16.7,37.3-37.3,37.3h0
				c-20.6,0-37.3-16.7-37.3-37.3v0C-31.6-317.1-14.9-333.8,5.7-333.8z"/>
		</g>
		<g id="Gruppe_10169" transform="translate(193.383 343.394)">
			<g id="Gruppe_10169-2" transform="translate(4.798 4.228)">
				<path id="Pfad_9861" class="st0" d="M-158.3-314l-5.3,5.3L-179-324l5.3-5.3L-158.3-314z"/>
				<line id="Linie_2640" class="st0" x1="-160.7" y1="-311" x2="-155.3" y2="-305.7"/>
			</g>
			<path id="Pfad_9862" class="st0" d="M-145.9-288c-2.8,2.1-6.2,3.3-9.7,3.3l0,0c-8.9,0-16-7.2-16.1-16v-3c0-1.2,0.1-2.4,0.4-3.6"
				/>
			<line id="Linie_2641" class="st0" x1="-151.4" y1="-294.5" x2="-135.7" y2="-294.5"/>
			<line id="Linie_2642" class="st0" x1="-174.8" y1="-284.7" x2="-134.5" y2="-284.7"/>
			<ellipse id="Ellipse_2106" class="st0" cx="-170.2" cy="-310.9" rx="3.3" ry="3.3"/>
			<ellipse id="Ellipse_2107" class="st0" cx="-142.7" cy="-290.7" rx="3.7" ry="3.7"/>
		</g>
	</g>
</g>
<g id="Füttern" class="st1">
	<g class="st2">
		<g transform="matrix(1, 0, 0, 1, 33, 335)">
			<path id="Rechteck_1875-2" class="st0" d="M5.7-333.8L5.7-333.8c20.6,0,37.3,16.7,37.3,37.3v0c0,20.6-16.7,37.3-37.3,37.3h0
				c-20.6,0-37.3-16.7-37.3-37.3v0C-31.6-317.1-14.9-333.8,5.7-333.8z"/>
		</g>
		<path id="Pfad_8336" class="st0" d="M53.2,25L53.2,25c0.3-2.1-0.4-4.3-1.9-5.8c-2.4-2.4-6.3-2.4-8.8,0c-2.4,2.4-2.4,6.3,0,8.8
			c0.3,0.3,0.5,0.5,0.8,0.5L27.7,44.2c-0.3-0.3-0.3-0.5-0.5-0.8c-2.4-2.4-6.3-2.4-8.8,0c-2.4,2.4-2.4,6.3,0,8.8
			c1.5,1.5,3.8,2.1,5.8,1.6c-0.6,2.1,0,4.3,1.6,5.8c2.4,2.5,6.3,2.5,8.8,0.1c2.5-2.4,2.5-6.3,0.1-8.8c0,0-0.1-0.1-0.1-0.1
			c-0.3,0-0.5-0.3-0.8-0.3l15.9-15.9c0.3,0.3,0.3,0.5,0.5,0.8c2.4,2.5,6.3,2.5,8.8,0.1c2.5-2.4,2.5-6.3,0.1-8.8c0,0-0.1-0.1-0.1-0.1
			C57.5,25.1,55.3,24.5,53.2,25z"/>
	</g>
</g>
</svg>
