<?xml version="1.0" encoding="utf-8"?>
<!-- Generator: Adobe Illustrator 19.2.0, SVG Export Plug-In . SVG Version: 6.00 Build 0)  -->
<svg version="1.1" id="Versorgen" xmlns="http://www.w3.org/2000/svg" xmlns:xlink="http://www.w3.org/1999/xlink" x="0px" y="0px"
	 viewBox="0 0 77.8 77" style="enable-background:new 0 0 77.8 77;" xml:space="preserve">
<style type="text/css">
	.st0{fill:none;stroke:#656463;stroke-width:1.8;stroke-linecap:round;stroke-linejoin:round;stroke-miterlimit:10;}
</style>
<g>
	<g transform="matrix(1, 0, 0, 1, 33, 335)">
		<path id="Rechteck_1877-2" class="st0" d="M5.7-333.8L5.7-333.8c20.6,0,37.3,16.7,37.3,37.3v0c0,20.6-16.7,37.3-37.3,37.3h0
			c-20.6,0-37.3-16.7-37.3-37.3v0C-31.6-317.1-14.9-333.8,5.7-333.8z"/>
	</g>
	<g id="Gruppe_10226" transform="translate(137.515 44.156)">
		<g id="Gruppe_10226-2" transform="translate(-90.331 326.537)">
			<path id="Pfad_9910" class="st0" d="M-31.5-312.1c0,0,10.1-5,12.2-5.1c2.2,0,10.7,2.4,14.7,2.4c3.1,0,17.5-6.7,18.6-7.3
				c1.9-1.1,1.6-3.3-1.6-2.9c-4.4,0.5-12.6,2.5-12.6,2.5"/>
			<path id="Pfad_9911" class="st0" d="M-32.1-323.4c0,0,4.2-1.1,4.7-1.3c0.5-0.2,4.2-4.9,9-4.9s15.3,5.2,17.2,6.4
				c2.3,1.5,1.6,4.3-1.8,3.3c-3.8-1.2-9.4-2.6-10.9-2.3"/>
		</g>
		<path id="Pfad_9912" class="st0" d="M-81-19.3h-6.2v-6.2h-6.2v6.2h-6.2v6.2h6.2v6.2h6.2v-6.2h6.2V-19.3z"/>
	</g>
</g>
</svg>
