<?xml version="1.0" encoding="utf-8"?>
<!-- Generator: Adobe Illustrator 19.2.0, SVG Export Plug-In . SVG Version: 6.00 Build 0)  -->
<svg version="1.1" id="Versichern" xmlns="http://www.w3.org/2000/svg" xmlns:xlink="http://www.w3.org/1999/xlink" x="0px" y="0px"
	 viewBox="0 0 77.8 77" style="enable-background:new 0 0 77.8 77;" xml:space="preserve">
<style type="text/css">
	.st0{fill:none;stroke:#656463;stroke-width:1.8;stroke-linecap:round;stroke-linejoin:round;stroke-miterlimit:10;}
	.st1{fill:#656463;}
</style>
<g>
	<g transform="matrix(1, 0, 0, 1, 33, 335)">
		<path id="Rechteck_1887-2" class="st0" d="M5.7-333.8L5.7-333.8c20.6,0,37.3,16.7,37.3,37.3v0c0,20.6-16.7,37.3-37.3,37.3h0
			c-20.6,0-37.3-16.7-37.3-37.3v0C-31.6-317.1-14.9-333.8,5.7-333.8z"/>
	</g>
	<g id="Heart" transform="translate(-738 -542)">
		<path id="Pfad_53" class="st0" d="M787,570.2c-7.2-0.2-9.5,4.7-10.2,6.1c-1.8-4-5.9-6.5-10.2-6.1c-7.9,0.3-14.3,10.6-3.4,21.5
			c10.2,10.2,13.5,11.4,13.5,11.4s3.4-1.1,13.6-11.4C801.3,580.8,794.8,570.5,787,570.2z"/>
		<g id="Gruppe_359" transform="translate(803.681 1002.062)">
			<ellipse id="Ellipse_21" class="st0" cx="-26.9" cy="-416.8" rx="2.7" ry="2.7"/>
		</g>
		<path id="Pfad_54" class="st1" d="M775.9,588.9c0-0.5,0.3-0.9,0.8-0.9c0.5,0,0.9,0.3,0.9,0.8c0,0,0,0.1,0,0.1v4.4
			c0,0.5-0.3,0.9-0.8,0.9c-0.5,0-0.9-0.3-0.9-0.8c0,0,0-0.1,0-0.1V588.9z"/>
		<path id="Pfad_55" class="st0" d="M767.1,570.1v-3c0-5.3,4.3-9.7,9.7-9.7c0,0,0,0,0,0l0,0c5.3,0,9.7,4.3,9.7,9.7c0,0,0,0,0,0v3"/>
	</g>
</g>
</svg>
