<?xml version="1.0" encoding="utf-8"?>
<!-- Generator: Adobe Illustrator 23.1.1, SVG Export Plug-In . SVG Version: 6.00 Build 0)  -->
<svg id="Ebene_1" style="enable-background:new 0 0 265 65;" version="1.1" viewBox="0 0 265 65" x="0px"
		 xml:space="preserve" xmlns="http://www.w3.org/2000/svg" y="0px">
<style type="text/css">
	.st0 {
		fill: none;
		stroke: #8C8C8C;
		stroke-width: 2;
		stroke-miterlimit: 10;
	}

	.st1 {
		fill: none;
		stroke: #24B5BC;
		stroke-width: 2;
		stroke-miterlimit: 10;
	}

	.st2 {
		fill: none;
		stroke: #000000;
		stroke-linecap: round;
		stroke-linejoin: round;
		stroke-miterlimit: 10;
	}
</style>
	<g>
	<path class="st0" d="M54.3,48.8c-1.5,3-4,7.3-6.5,7c-3.7-0.5-10.2-3.5-11.4-4.6c-1.2-1.2-1.9-3-3.9-3.7c-2.1-0.7-8.5-3.5-10.2-5.5
		C20.6,40,7.9,39.1,4.2,37.2c-1.4-0.7-1.5-2.6-1.5-4.5v-0.5c0-1.9,0-3.7,1.5-4.5C7.9,25.9,20.6,25,22.3,23c1.7-1.9,8.1-4.8,10.2-5.5
		c2.1-0.7,2.8-2.6,3.9-3.7c1.2-1.2,7.7-4.2,11.4-4.6c2.4-0.3,5,4,6.5,7l1.3,1.2c4.1,0.9,6.5-1.4,11.1-2.8s6.2-2.8,16.7-5.3
		C90.3,7.7,97.2,9.1,99,8.7s16.9-3.1,34.3-1.3s31.5-0.2,37,0.2c5.5,0.5,21.9,1.9,31.7,4.6c14,3.8,16.4,14.5,16.4,14.5
		s6.7,1.7,12.7,2.5c6.1,0.8,31.2,3.3,31.2,4.8c0,1.5-25.5,2.8-31.5,3.1c-6.1,0.3-12.3,1.3-12.3,1.3s-1,10.6-16.4,15.2
		c-9.7,2.9-26.2,3.4-31.7,3.9s-19.7-1.6-37,0.2s-32.5-0.9-34.3-1.3s-8.8,1-15.7-0.6c-10.5-2.5-12.1-3.9-16.7-5.3s-7-3.7-11.1-2.8
		L54.3,48.8z"/>
</g>
	<path class="st1" d="M140.2,7.9c13.7,0.7,24.6-0.8,29.2-0.4c1.9,0.2,5.1,0.4,8.9,0.9"/>
	<path class="st1" d="M178.3,56.8c-3.8,0.3-7,0.4-8.9,0.6c-4.6,0.4-15.5-1-29.2-0.4"/>
</svg>
