<?xml version="1.0" encoding="utf-8"?>
<!-- Generator: Adobe Illustrator 23.1.1, SVG Export Plug-In . SVG Version: 6.00 Build 0)  -->
<svg id="Ebene_1" style="enable-background:new 0 0 265 65;" version="1.1" viewBox="0 0 265 65" x="0px"
		 xml:space="preserve" xmlns="http://www.w3.org/2000/svg" y="0px">
<style type="text/css">
	.st0 {
		fill: none;
		stroke: #8C8C8C;
		stroke-width: 2;
		stroke-miterlimit: 10;
	}

	.st1 {
		fill: none;
		stroke: #24B5BC;
		stroke-width: 2;
		stroke-miterlimit: 10;
	}

	.st2 {
		fill: none;
		stroke: #000000;
		stroke-linecap: round;
		stroke-linejoin: round;
		stroke-miterlimit: 10;
	}
</style>
	<path class="st0" d="M219.8,36.9c0,0,4.8,0.5,10.9,0.2c6.1-0.3,31.6-1.6,31.5-3.1c0-1.5-25.1-4-31.2-4.8c-6-0.8-11.3-1-11.3-1
	s-9.6-12.2-19.3-15.2c-20.5-6.3-24.7,4.4-30.2,4c-4.8-0.4-15.9-3.6-30.5-6.2c-0.9-0.2-1.9,0-2.8-0.2c-0.9-0.2-1.8-0.5-2.7-0.8
	c-1.1-0.3-2.5-0.1-3.5-0.2c-1-0.1-2.7-0.6-3.7-0.7c-1.2-0.1-2.3,0.2-3.4,0.2c-1.3,0-2.6-0.4-3.8-0.4c-1.4,0-2.8,0.5-4.1,0.6
	c-1.4,0.1-3.6-0.3-4.9-0.2c-1.6,0.2-2.8,0.9-4.2,1.1c-1.4,0.2-2.9,0.1-4,0.4c-1.3,0.4-3.2,0.8-3.7,1c-1.8,0.5-8.8-1.7-15.7-0.1
	c-10.5,2.5-12.1,5.4-16.7,6.7c-4.6,1.4-7,3.7-11.1,2.8l-1.3-4.8c-1.5-3-4-7.3-6.5-7c-3.7,0.5-10.2,3.5-11.4,4.6
	c-1.2,1.2-1.9,3-3.9,3.7c-2.1,0.7-8.5,3.5-10.2,5.5C20.6,25,7.9,25.9,4.2,27.8c-1.4,0.7-1.5,2.6-1.5,4.5v0.5c0,1.9,0,3.7,1.5,4.5
	C7.9,39.1,20.6,40,22.3,42c1.7,1.9,8.1,4.8,10.2,5.5c2.1,0.7,2.8,2.6,3.9,3.7s7.7,4.2,11.4,4.6c2.4,0.3,5-4,6.5-7l1.3-4.8
	c4.1-0.9,6.5,1.4,11.1,2.8c4.6,1.4,6.2,4.2,16.7,6.7c0,0,0,0,0,0l0,0c6.9,1.6,13.8-0.6,15.7-0.1c0.5,0.1,2.4,0.6,3.7,1
	c1.1,0.3,2.6,0.2,4,0.4c1.4,0.2,2.6,0.9,4.2,1.1c1.3,0.1,3.5-0.3,4.9-0.2c1.3,0.1,2.7,0.6,4.1,0.6c1.2,0,2.5-0.4,3.8-0.4
	c1.1,0,2.2,0.3,3.4,0.2c1-0.1,2.7-0.6,3.7-0.7c1-0.1,2.4,0.1,3.5-0.2c0.9-0.3,1.8-0.6,2.7-0.8c0.9-0.2,1.9,0,2.8-0.2
	c14.6-2.7,23.1-4.9,30.5-6.2c4.6-0.9,9.7,12.4,30.7,5.4C210.9,50.2,219,38.5,219.8,36.9z"/>
	<path class="st1" d="M146.4,53.1c4.3-0.8,7.9-1.6,11.2-2.3c5-1.1,9-2,12.7-2.7c2.8-0.5,5.8,4.2,12.5,6.4"/>
	<path class="st1" d="M182.7,11.7c-6.2,1.7-9.1,5.5-12.4,5.2c-2.8-0.2-7.9-1.4-14.5-2.9c-2.8-0.6-6-1.3-9.4-2"/>
</svg>
