<?xml version="1.0" encoding="utf-8"?>
<!-- Generator: Adobe Illustrator 23.1.1, SVG Export Plug-In . SVG Version: 6.00 Build 0)  -->
<svg id="Ebene_1" style="enable-background:new 0 0 265 65;" version="1.1" viewBox="0 0 265 65" x="0px"
		 xml:space="preserve" xmlns="http://www.w3.org/2000/svg" y="0px">
<style type="text/css">
	.st0 {
		fill: none;
		stroke: #8C8C8C;
		stroke-width: 2;
		stroke-miterlimit: 10;
	}

	.st1 {
		fill: none;
		stroke: #24B5BC;
		stroke-width: 2;
		stroke-miterlimit: 10;
	}

	.st2 {
		fill: none;
		stroke: #000000;
		stroke-linecap: round;
		stroke-linejoin: round;
		stroke-miterlimit: 10;
	}
</style>
	<g>
	<g>
		<path class="st0" d="M52.1,52.2c-1.3,1.9-2.8,3.4-4.3,3.2c-3.7-0.5-10.2-3.5-11.4-4.6c-1.2-1.2-1.9-3-3.9-3.7
			c-2.1-0.7-8.5-3.5-10.2-5.5c-1.7-1.9-14.4-2.9-18.1-4.7c-1.4-0.7-1.5-2.6-1.5-4.5v-0.5c0-1.9,0-3.7,1.5-4.5
			c3.7-1.9,16.4-2.8,18.1-4.7c1.7-1.9,8.1-4.8,10.2-5.5c2.1-0.7,2.8-2.6,3.9-3.7c1.2-1.2,7.7-4.2,11.4-4.6c1.6-0.2,3.3,1.6,4.6,3.7
			c0.7,1.1,6.2-1.7,10.7-3s10.7,1.2,12.2,0.2C82.3,5.2,97.2,6.6,99,6.1c1.8-0.5,16.8-4.9,34.3-4.9c16.5,0,31.5,2.6,37,3.1
			s21.9-0.9,31.7,1.7c14,3.8,17.8,20.2,17.8,20.2s5.3,1.7,11.3,2.5c6.1,0.8,31.2,3.3,31.2,4.8c0,1.5-25.5,2.8-31.5,3.1
			c-6.1,0.3-10.9,1.3-10.9,1.3s-2.4,16.3-17.8,20.9c-9.7,2.9-26.2,1.3-31.7,1.7s-19.9,3.8-37,3.1c-17.4-0.8-32.5-5.1-34.3-5.6
			s-13.5,2.2-23.2-1.4c-1.8-0.7-7.2,0.9-11.6-1.1C59.9,53.6,52.5,51.6,52.1,52.2z"/>
	</g>
		<path class="st1" d="M175.9,60.5c-2.3,0-4.2,0-5.5,0.1c-5,0.4-17.5,3.3-32.7,3.2"/>
		<path class="st1" d="M137.7,1.3c14.8,0.4,27.7,2.6,32.7,3c1.3,0.1,3.2,0.1,5.5,0.1"/>
</g>
</svg>
