<?xml version="1.0" encoding="utf-8"?>
<!-- Generator: Adobe Illustrator 23.1.1, SVG Export Plug-In . SVG Version: 6.00 Build 0)  -->
<svg id="Ebene_1" style="enable-background:new 0 0 265 65;" version="1.1" viewBox="0 0 265 65" x="0px"
		 xml:space="preserve" xmlns="http://www.w3.org/2000/svg" y="0px">
<style type="text/css">
	.st0 {
		fill: none;
		stroke: #8C8C8C;
		stroke-width: 2;
		stroke-miterlimit: 10;
	}

	.st1 {
		fill: none;
		stroke: #24B5BC;
		stroke-width: 2;
		stroke-miterlimit: 10;
	}

	.st2 {
		fill: none;
		stroke: #000000;
		stroke-linecap: round;
		stroke-linejoin: round;
		stroke-miterlimit: 10;
	}
</style>
	<path class="st0" d="M231.1,29.9c-6-0.8-11.3-1-11.3-1s-9.5-11.1-19.3-13.8c-28-7.8-27.6,3.7-33.1,3.3c-4.7-0.4-12.2-1.2-26.2-4.6
	c-0.8-0.2-2-0.3-3-0.5c-1-0.2-2.1-1-3.2-1.2c-1-0.2-2.2,0-3.1-0.2c-1.2-0.3-2.1-1-3.8-1.2c-1.1-0.2-2.2,0.4-3.3,0.3
	c-1.2-0.1-2.2-1.1-3.4-1c-0.9,0.1-1.9,0.7-2.8,0.7c-1.2,0-2.2-0.9-3.6-0.6c-1.1,0.2-1.9,0.9-2.8,1c-1.1,0.1-2.2-0.5-3.1-0.3
	c-1.3,0.2-2,1.1-2.9,1.2c-1.4,0.3-2.5,0-3.6,0.1c-1.4,0.2-3.2,0.9-3.7,1c-1.8,0.5-4.5-3.2-11.4-1.5c-1.8,0.4-6.1,2.6-9,2.9
	c-6.9,0.8-8.2,4.8-12,6c-4.6,1.4-7,2.3-11.1,1.4l-1.3-5.5c-1.5-3-4-7.3-6.5-7c-3.7,0.5-10.2,3.5-11.4,4.6s-1.9,3-3.9,3.7
	c-2.1,0.7-8.5,3.5-10.2,5.5S7.9,25.9,4.2,27.8c-1.4,0.7-1.5,2.6-1.5,4.5v0.5c0,1.9,0,3.7,1.5,4.5C7.9,39.1,20.6,40,22.3,42
	s8.1,4.8,10.2,5.5c2.1,0.7,2.8,2.6,3.9,3.7c1.2,1.2,7.7,4.2,11.4,4.6c2.4,0.3,5-4,6.5-7l1.3-5.5c4.1-0.9,6.5,0,11.1,1.4
	c4,1.2,5.3,6.2,13,6.3c2.6,0,6.6,2.2,8,2.5c6.9,1.6,9.5-2,11.4-1.5l0.1,0c0.5,0.1,2.3,0.8,3.6,1c1,0.1,2.2-0.2,3.6,0.1
	c0.9,0.2,1.6,1,2.9,1.2c0.9,0.2,2-0.4,3.1-0.3c0.9,0.1,1.7,0.7,2.8,1c1.4,0.3,2.4-0.6,3.6-0.6c0.9,0,1.9,0.5,2.8,0.7
	c1.2,0.2,2.3-0.8,3.4-1c1.1-0.1,2.2,0.5,3.3,0.3c1.7-0.3,2.5-0.9,3.8-1.2c1-0.2,2.2,0,3.1-0.2c1.1-0.2,2.2-1.1,3.2-1.2
	c1-0.2,2.1-0.3,3-0.5c12.3-3,19.6-4,24.3-4.4l1.9-0.1c5.5-0.5,2.9,11.1,33.1,3.3c9.8-2.6,19.3-13.8,19.3-13.8s4.8,0.5,10.9,0.2
	c6.1-0.3,31.6-0.8,31.5-2.4C262.2,32.4,237.1,30.7,231.1,29.9z"/>
	<path class="st1" d="M179.3,12.8c-7.2,1.4-8.3,5.8-11.8,5.5c-4.7-0.4-12.2-1.2-26.3-4.6"/>
	<path class="st1" d="M141.3,51.3c12.3-3,19.6-4,24.4-4.4l1.9-0.1c3.6-0.3,3.7,4.6,11.8,5.8"/>
</svg>
