<svg id="Gruppe_11416" data-name="Gruppe 11416" xmlns="http://www.w3.org/2000/svg" width="14.912" height="12.116" viewBox="0 0 14.912 12.116">
  <path id="Pfad_10746" data-name="Pfad 10746" d="M14.912,49.434a6.374,6.374,0,0,1-1.761.483,3.04,3.04,0,0,0,1.345-1.69,6.109,6.109,0,0,1-1.939.74,3.057,3.057,0,0,0-5.288,2.09,3.148,3.148,0,0,0,.071.7,8.653,8.653,0,0,1-6.3-3.2,3.058,3.058,0,0,0,.939,4.086A3.019,3.019,0,0,1,.6,52.267V52.3a3.071,3.071,0,0,0,2.449,3,3.051,3.051,0,0,1-.8.1,2.7,2.7,0,0,1-.579-.052,3.086,3.086,0,0,0,2.857,2.13,6.143,6.143,0,0,1-3.79,1.3A5.726,5.726,0,0,1,0,58.744a8.606,8.606,0,0,0,4.69,1.372,8.641,8.641,0,0,0,8.7-8.7c0-.135,0-.266-.011-.4A6.1,6.1,0,0,0,14.912,49.434Z" transform="translate(0 -48)" fill="#424242"/>
</svg>
