<svg xmlns="http://www.w3.org/2000/svg" width="30" height="19.957" viewBox="0 0 30 19.957">
    <g id="Gruppe_8955" data-name="Gruppe 8955" transform="translate(0.25 0.25)">
        <path id="Pfad_8285" data-name="Pfad 8285" d="M29,17.27H.5L3.513,7.1H25.987Z" transform="translate(0 1.687)"
              fill="none" stroke="#8e8e8e" stroke-linecap="round" stroke-linejoin="round" stroke-miterlimit="10"
              stroke-width="1.5"/>
        <path id="Pfad_8286" data-name="Pfad 8286"
              d="M22.933,8.41a2.524,2.524,0,0,0,.5-1.632A2.652,2.652,0,0,0,20.8,4.141a2.387,2.387,0,0,0-1.632.628,3.666,3.666,0,0,0,.251-1.13,3.1,3.1,0,0,0-6.152-.628A2.755,2.755,0,0,0,10.378.751,2.841,2.841,0,0,0,7.49,3.639a2.121,2.121,0,0,0,.377,1.256,2.413,2.413,0,0,0-1.507-.5A2.251,2.251,0,0,0,4.1,6.652,2.2,2.2,0,0,0,4.979,8.41"
              transform="translate(0.92 0)" fill="none" stroke="#8e8e8e" stroke-linecap="round" stroke-linejoin="round"
              stroke-miterlimit="10" stroke-width="1.5"/>
    </g>
</svg>
