<svg xmlns="http://www.w3.org/2000/svg" width="286.994" height="283.807" viewBox="0 0 286.994 283.807">
  <g id="Gruppe_4805" data-name="Gruppe 4805" transform="translate(0.317 0.498)">
    <path id="Pfad_4152" data-name="Pfad 4152"
          d="M249.631,317.952c-6.465-.857-12.307-1.168-12.307-1.168s-10.437-13.319-21.03-16.591c-22.432-6.932-27.028,4.829-32.948,4.362-5.219-.467-17.292-3.895-33.259-6.776-.935-.156-2.025,0-3.038-.156a21.179,21.179,0,0,1-2.96-.857c-1.246-.389-2.726-.078-3.894-.234-1.09-.156-2.96-.7-4.05-.779-1.324-.078-2.493.234-3.739.234-1.4,0-2.8-.467-4.128-.389-1.48,0-3.038.623-4.44.7-1.558.078-3.972-.312-5.374-.156-1.791.234-3.038.935-4.6,1.168s-3.193.078-4.362.389c-1.4.389-3.427.935-3.972,1.013-2.025.467-9.58-1.869-17.058-.078-11.45,2.726-13.241,5.842-18.226,7.322s-7.555,4.05-12.073,3.116l-1.4-5.219c-1.636-3.271-4.44-7.945-7.01-7.633-4.05.545-11.138,3.817-12.385,5.063s-2.025,3.271-4.284,4.05-9.269,3.895-11.138,5.92c-1.869,2.1-15.656,3.116-19.706,5.141C.694,317.173.616,319.2.694,321.3v.545c0,2.025,0,4.05,1.558,4.907,4.05,2.025,17.837,3.038,19.706,5.141s8.879,5.219,11.138,5.92c2.259.779,3.038,2.8,4.284,4.05s8.334,4.6,12.385,5.063c2.648.312,5.452-4.362,7.01-7.633l1.4-5.219c4.518-1.013,7.088,1.558,12.073,3.116,4.985,1.48,6.776,4.6,18.226,7.322h0c7.555,1.792,15.111-.623,17.058-.078.545.156,2.57.623,3.972,1.013,1.168.312,2.882.156,4.362.389s2.8,1.013,4.6,1.168c1.4.156,3.817-.312,5.374-.156,1.4.078,2.96.623,4.44.7,1.324,0,2.726-.389,4.128-.389,1.246,0,2.415.312,3.739.234,1.09-.078,2.882-.623,4.05-.779,1.09-.156,2.648.156,3.894-.234a21.179,21.179,0,0,1,2.96-.857c.935-.156,2.1,0,3.038-.156,15.89-2.96,28.04-6.387,33.259-6.776a5.145,5.145,0,0,1,1.09.078c3.739.623,6.309,5.764,16.2,6.309,4.05.389,9.113,0,15.734-2.025h0c10.671-2.8,21.03-16.591,21.03-16.591a82.367,82.367,0,0,0,11.917.156c6.621-.389,34.427-1.714,34.427-3.349C283.669,321.535,256.252,318.809,249.631,317.952Z"
          transform="translate(0 -65.241)" fill="none" stroke="#33c5ff" stroke-miterlimit="10" stroke-width="2"/>
    <g id="Gruppe_4804" data-name="Gruppe 4804" transform="translate(7.068 0.512)">
      <path id="Pfad_4153" data-name="Pfad 4153"
            d="M52.748.659c9.58-.935,18.538,2.648,21.03,9.814,2.492,7.088,4.518,10.515,7.088,17.058S82.424,40.3,87.8,44.277s23.912,14.488,32.792,14.176c22.51-.623,61.144-.312,68.543,1.869,16.357,4.751,20.407,6.153,26.093,5.608s32.636-6.776,44.008-12.7,25.081-16.513,28.118-16.746c1.947-.156-17.525,19.55-26.4,24.068-15.344,7.867-41.438,13.4-42.294,14.488-.857,1.168,4.44,4.751,5.219,12.852.389,3.972,1.246,21.965,2.648,32.792s5.686,25.081,8.646,31c5.141,10.437,12.462,9.269,12.462,14.02,0,4.829-.234,31.39.312,34.817.156,1.168-2.259,5.452-3.116,6.854s-11.839,1.791-14.332,1.246c-.779-.156-2.648-2.415-1.168-3.427,3.038-2.259,9.658-7.477,9.347-8.646s.545-16.98-5.608-26.171c-5.063-7.633-23.756-25.937-27.339-29.52-10.281-10.281-15.422-31.468-18.3-33.96-2.8-2.57-27.573-3.739-42.917,2.8-14.643,6.231-22.666,13.709-40.659,14.8-8.8.545-14.41.779-14.41.779s-.545,4.829-1.714,12.774-1.246,24.38-3.193,29.52C82.5,172.718,83.359,190.243,82.5,191.1s-2.259,1.714-2.8,5.374-1.48,11.917-3.739,11.917H61.706c-.779,0-2.025-4.128-.545-4.829,3.116-1.636,9.191-6.231,9.5-7.945s1.947-15.033,1.4-19.55,1.714-19.862,1.246-24.38c-.545-5.219-2.648-24.3-4.05-28.274s-9.191-18.382-11.216-31.7c-1.714-11.06-1.4-12.618-2.57-15.111-1.168-2.57-3.817-13.787-4.128-22.2-.312-7.945-4.751-16.279-11.839-18.226C32.419,34.151,21.67,33.139,19.1,31.97S8.507,21.066,8.9,16.237c.234-2.57,4.6-2.57,7.166-2.648,6.075-.312,17.214-2.57,18.772-4.05C38.962,5.566,35.69,2.372,52.748.659Z"
            transform="translate(-8.882 -0.512)" fill="none" stroke="#33c5ff" stroke-miterlimit="10" stroke-width="2"/>
    </g>
  </g>
</svg>
