<svg xmlns="http://www.w3.org/2000/svg" width="13.232" height="13.231" viewBox="0 0 13.232 13.231">
  <g id="Gruppe_13916" data-name="Gruppe 13916" transform="translate(459.673 488.129)">
    <g id="Gruppe_13914" data-name="Gruppe 13914" transform="translate(-459.673 -488.129)">
      <path id="Pfad_12944" data-name="Pfad 12944" d="M-457.48-475.33a7.507,7.507,0,0,1,0-10.606,7.508,7.508,0,0,1,10.606,0l-.5.5a6.8,6.8,0,0,0-9.608,0,6.8,6.8,0,0,0,0,9.608Z" transform="translate(459.673 488.129)" fill="#ffbc00"/>
    </g>
    <g id="Gruppe_13915" data-name="Gruppe 13915" transform="translate(-457.912 -486.368)">
      <path id="Pfad_12945" data-name="Pfad 12945" d="M-448.947-483.139a5.735,5.735,0,0,0-5.736,5.736,5.735,5.735,0,0,0,5.736,5.735,5.735,5.735,0,0,0,5.736-5.735A5.735,5.735,0,0,0-448.947-483.139Zm-.218,5.12h-.969a1.053,1.053,0,0,0-.187-.621.7.7,0,0,0-.567-.2.62.62,0,0,0-.533.273,1.2,1.2,0,0,0-.194.714v.9a1.143,1.143,0,0,0,.212.719.7.7,0,0,0,.583.274.61.61,0,0,0,.509-.191,1.077,1.077,0,0,0,.171-.61h.969l.006.018a1.61,1.61,0,0,1-.446,1.152,1.687,1.687,0,0,1-1.209.4,1.767,1.767,0,0,1-1.293-.489,1.7,1.7,0,0,1-.5-1.27v-.9a1.737,1.737,0,0,1,.479-1.268,1.66,1.66,0,0,1,1.244-.491,1.736,1.736,0,0,1,1.243.409,1.717,1.717,0,0,1,.486,1.163Zm3.882,1.063a1.7,1.7,0,0,1-.5,1.27,1.767,1.767,0,0,1-1.293.489,1.688,1.688,0,0,1-1.209-.4,1.611,1.611,0,0,1-.446-1.152l.006-.018h.969a1.079,1.079,0,0,0,.171.61.611.611,0,0,0,.51.191.7.7,0,0,0,.583-.274,1.143,1.143,0,0,0,.212-.719v-.9a1.2,1.2,0,0,0-.194-.714.62.62,0,0,0-.533-.273.7.7,0,0,0-.567.2,1.053,1.053,0,0,0-.187.621h-.969l-.006-.018a1.717,1.717,0,0,1,.486-1.163,1.736,1.736,0,0,1,1.243-.409,1.66,1.66,0,0,1,1.244.491,1.737,1.737,0,0,1,.479,1.268Z" transform="translate(454.683 483.139)" fill="#ffbc00"/>
    </g>
  </g>
</svg>
