<svg id="Ebene_1" data-name="Ebene 1" xmlns="http://www.w3.org/2000/svg" viewBox="0 0 360 91.51"><defs><style>.cls-1{fill:#ffbc00;}</style></defs><path class="cls-1" d="M0,88.94v.81a1.81,1.81,0,0,0,.33-.44C.45,89.12.27,89,0,88.94Z" transform="translate(0 0)"/><path class="cls-1" d="M243.72,87.46c.52-.12,1.37.17,1.4-.41,0-.43-.71-.61-1.25-.54s-1.76.06-1.69.67S243.24,87.29,243.72,87.46Z" transform="translate(0 0)"/><path class="cls-1" d="M223,87.7c3.18-.19,6.31.31,9.49.11a3.66,3.66,0,0,1,1.19,0c2.2.8,3.69,0,5.21-.91.26-.14.43-.29.26-.46-.4-.37-1-.22-1.94-.15-1.43-.7-3.49-.08-5.33-.37-3-.47-6,.32-8.94.44-.58,0-1.45.38-1.45.85S222.41,87.73,223,87.7Z" transform="translate(0 0)"/><path class="cls-1" d="M289.58,88.49c.62-.38.83-1,1.69-1.24.27-.09.42-.4.05-.57a.52.52,0,0,0-.67.21c-.21.69-1.78.23-1.91,1-.89.41-.93-.33-1.46-.4-.1-.69-1-.57-1.72-.67a10,10,0,0,0-6.26.88,5,5,0,0,1-5.1,0,4.54,4.54,0,0,0-4.51,0,3.57,3.57,0,0,1-1.83.21c-1.93,0-3.29-.83-4.82-1.38a2.51,2.51,0,0,0-1.41-.15,27.34,27.34,0,0,1-6.94.29,6.77,6.77,0,0,0-2.57.26,1,1,0,0,0-.84,1.13c0,.5.75.4,1.19.43.86.06,1.74,0,2.62,0,.28,0,.55,0,.66-.26.36-.71.93-.83,1.56-.24a2,2,0,0,0,2,.49c1.18-.26,1.92.35,2.9.5a33.81,33.81,0,0,0,7.39,0,1.11,1.11,0,0,1,.17,0c2,.87,4.51.38,6.72.7a22.12,22.12,0,0,0,4.53.06c2.17.36,4.19-.47,6.32-.46,1.17,0,2,.7,3.28.58.66-.07,1.31-.1,1.56-.58a.16.16,0,0,0,0-.07.42.42,0,0,0-.2-.54.88.88,0,0,0-.92.11c-.26.13-.36.41-.77.41a2.45,2.45,0,0,1-1-.12C289.16,88.86,289.36,88.62,289.58,88.49Z" transform="translate(0 0)"/><path class="cls-1" d="M157.32,87c.88-.11,1.87-.48,1.85-1s-1.12-.35-1.48-.35c-1.27-.1-1.41.34-1.49.74S156.72,87.06,157.32,87Z" transform="translate(0 0)"/><path class="cls-1" d="M42.11,89.83c0,.25.18.43.64.49.66.09,1.32.16,2.15.26.17-1-1.2-.93-2.14-1.1A.53.53,0,0,0,42.11,89.83Z" transform="translate(0 0)"/><path class="cls-1" d="M35.47,89c1.09-.66,1.16-1.13-.79-1.19-1.41.32-1.76.77-.75,1.39.2.52-.49,1.07,0,1.58l.85,0,.46.17c.63.69,2,.49,3.08.56.64,0,1.09-.34.7-.71s-1.1-.84.67-.72c.47,0,.82-.15.78-.41s-.5-.42-.88-.29c-.8.25-2.08-.39-2.59.51-.18.33-1,.09-1.37-.11S34.93,89.36,35.47,89Z" transform="translate(0 0)"/><path class="cls-1" d="M3.28,88.43a1.8,1.8,0,0,1,.57.1c.73.19,1-.31,1.52-.4.67.77-1.12.4-1.16.82-.69.61-1.77,1.31,1,1a6.43,6.43,0,0,1,1.52.24.87.87,0,0,0,.81-.26c.08-.19-.3-.29-.62-.37a.41.41,0,0,1,.33-.46c1.57-.26,2.47.48,3.78.61a11.31,11.31,0,0,0,3,0c-.59-.91-1.54-1.43-3.52-.82-1,.17-.47-.51-1.09-.56,0-.24.38-.37.68-.51.91-.16,1.12-.58.61-.84a3.15,3.15,0,0,0-2.26-.17l-.88.29h0c-.94-.41-1.08-1.21-2.82-1.3a4.33,4.33,0,0,0-2.3.34c-.36-.74,1.18-1.25,1.06-2,0-.21.12-.43-.29-.55-.65-.21-.76.21-1.15.31-.72-.41.28-.75.27-1.14.24-.6-.53-.59-1.31-.68A5.26,5.26,0,0,1,0,82v3a3.48,3.48,0,0,0,.79,0c-.1.09-.27,0-.4.07a1,1,0,0,0-.39.19v.41c.13.13.31.27.35.41A1.81,1.81,0,0,1,0,86v2.3A5.25,5.25,0,0,0,3.28,88.43Z" transform="translate(0 0)"/><polygon class="cls-1" points="36.32 81.45 36.32 81.45 36.32 81.45 36.32 81.45"/><path class="cls-1" d="M44.58,87.92c.09-.2-.16-.33-.56-.36-.6.06-.71.31-.73.57s0,.43.42.43A.77.77,0,0,0,44.58,87.92Z" transform="translate(0 0)"/><path class="cls-1" d="M109.27,89.29c1.63-.08,3.16-.91,3.24-1.77,0-.16,0-.32-.3-.35a1.71,1.71,0,0,0-.77.12,2.36,2.36,0,0,1-1.67.57c-2-.14-1.72.69-1.8,1.24C107.86,89.82,108.92,89.09,109.27,89.29Z" transform="translate(0 0)"/><path class="cls-1" d="M32.52,89.64c-.57.22-.27.51-.27.78h.4c.5-.17,1-.35.55-.68A.67.67,0,0,0,32.52,89.64Z" transform="translate(0 0)"/><path class="cls-1" d="M321.6,83.59a1.17,1.17,0,0,0-1.14.34c0,.33.39.34.72.34s1,.06,1.13-.33C322.38,83.7,322,83.61,321.6,83.59Z" transform="translate(0 0)"/><path class="cls-1" d="M359.21,81.47c.31.58.5.89.79,1V0H0V81.68l.19-.14a7.18,7.18,0,0,0,2.17,0c.45,0,.74-.67,1-.27.45.67,4,.2,2.16,1.69.54-.26,2.69.58,1.49-.7H7c1,0,1.79.87,2.88,0,.42-.36.64-.88,1.81-.52a2.08,2.08,0,0,0,1.69-.16,3.14,3.14,0,0,1,1.58,0,7.09,7.09,0,0,0,2.57.51l.1.24-.05.4c.49.78,2.06.47,3,.79a6.46,6.46,0,0,1,2.54.34.36.36,0,0,1,0-.41,1.14,1.14,0,0,1,0,.41c1.86.14,3.09-.91,4.91-.85.46.05,1.08,0,1.06-.23-.14-1.15,1.06-.65,2-.51-.26.2-.76.38-.37.66-.11.23-.12.7-.69.51-1.87-.63-.41.48-1,.48l-.46.4a1,1,0,0,0-.82.28c-1.17.1-2.19.28-1.24,1,.68.54-.92.57-.77,1l-.35.15c-2.84-.42-2.61.89-3.37,1.65-.77,0-1.26-.11-1.14-.63.21-.91-.69-1.22-2.34-1-1.41-.59-3.21.07-4.72-.27a.72.72,0,0,0-.74.33c-.09.26.2.44.66.46a7.51,7.51,0,0,0,3.06,0c.11.73.27,1.47-1.94,1.19-.42-.06-1,0-.78.32,0,0,0,0,0,.06a1.27,1.27,0,0,0,1.61.76c1-.24.76,0,.8.3-.62.11-1.36.55-1,.62.78.15,1.61.7,2.66.2,1.79-.94,1.79-1-.54-1.74,2.39,0,4,.24,5.09,1.32.51-1.14,2.48-.41,3.48-1-.55-.46-.38-1.07-1-1.53-.31-.21.29-.34.6-.47a6.67,6.67,0,0,0,3.32-.1c.81,0,.93.29.86.63-.33.18-1.08.2-1,.52s.78.22,1.24.21.83-.12,1.15.09c0,.11.17.17.38.18.45,0,1.07-.1.72-.28-.57-.32-.54-.93-1.62-1a23.3,23.3,0,0,1,3.6-1.35l.15.33c.66.15.5.9,1.73.63a.77.77,0,0,1,.37,0c-.31.62.11,1,1.33,1a4.47,4.47,0,0,1,.79.31c.29.2.45.5,1,.41.77-.11.59-.55.81-.83s-.44-.36-.87-.39-.75-.13-.86-.37a22.81,22.81,0,0,1,4.51-.42c1.72.13,2.61.68,3,1.5a8.16,8.16,0,0,0,2,2,2,2,0,0,0,.6,0H50c2,.9,3.68-.19,5.5-.4a.53.53,0,0,1,.28-.07c1.91-.61.77-1.61,1.34-2.39a3.32,3.32,0,0,1,2.05-.35c.33.12,1.25-.13,1.09.24-.54,1.19,1,.72,2,.73h.28l1.83,0,1.66.37c.44.77-.81.39-1.29.53-1-.07-1.93.61-2.91,0a1,1,0,0,0-1.18.12c-.23.29.17.48.66.56a7.2,7.2,0,0,1,2,.47,1.34,1.34,0,0,0,2-.76l1.88-.08c1.51-.06,1.34-.4.27-.93,1.49.13,1.8.46,1.33,1s-.21.57.92.61a49.54,49.54,0,0,0,5,.16c.66,0,1.42.09,1.91-.31l1.63-.49a2.75,2.75,0,0,1,2.8-.6,1.14,1.14,0,0,0,1-.19c1.3-.46,2.25-1.21,4-1.32.51,0,.68-.34.59-.62.69-.46.86.22,1.38.14A8,8,0,0,0,92.2,87l.77-.06,2.18-.06A6.08,6.08,0,0,0,94.79,88c0,.35-.31.86,1,.8A2.3,2.3,0,0,0,97.53,88a3.27,3.27,0,0,1,3.29-1,4.81,4.81,0,0,0,1.88-.29c.84-.26,1.35-.85,2.13.12.39.49,1.46,0,1.62-.58l.07-.45a2.58,2.58,0,0,0,1.29.12,8,8,0,0,0,6.6-.59h.49l.91.13c.44.32,1.12,0,1.64.14l3.26-.11h1.46c-1,.9-3,1.19-3.82,2.06-.34.35-1.07-.12-1.66-.12-.87-.73-1.81.06-2.72.07a.79.79,0,0,0-.77.72c-.07.38.49.47,1,.6,1.42.37,1.32-.59,2.16-.72l3-.13a2.05,2.05,0,0,0,2.44.47,2.6,2.6,0,0,1,1.51-.06c1.28.34,1.56,0,1.55-.75.62.54.4,1.2,1.68,1.22a4,4,0,0,0,2.84-1.2.27.27,0,0,1,.11.18,1.49,1.49,0,0,0,2-.28c.51-1.18,2-1.25,3.75-1.19-.1.23-.19.46-.28.69,0,.43.24.93,1.13.79s.87-.68.47-1.11a1.27,1.27,0,0,0,.63-.77,6.83,6.83,0,0,0,3.64-.27.72.72,0,0,1,.77.1,2.86,2.86,0,0,0,.5.42s0,.07,0,.11c-.26.31-.86.53-.84.91-.89.48-1.12,1-.07,1.41a4.85,4.85,0,0,0,4,.06,3.21,3.21,0,0,1,3-.16,6.4,6.4,0,0,0,3.36-.24c.47-.1.61-.67.9-1-.88,0-1.59-.56-2.58-.24a1.4,1.4,0,0,1-1.1.09c-.38-.2.12-.4.17-.6a1.62,1.62,0,0,1,.1-.18c.3.33,1,.07,1.33-.07A18.14,18.14,0,0,1,156.55,85h.13l1-.08a11.42,11.42,0,0,0,1.54-.22c.19.33.63.72.78,1s1.22.21,1.78,0,.85-.23,1,.13a4.19,4.19,0,0,0,.7.09h.08a4.66,4.66,0,0,0-.51.72c-.27.45.49.46,1,.47a3.32,3.32,0,0,0,2.26-.9,10.9,10.9,0,0,0,2.35-.11.74.74,0,0,1,.36,0,7.19,7.19,0,0,0,1.68-.06c-.41.09-.81.2-1.21.33s-1.34-.08-1.17.55.61.75,1.46.69h.66a3.4,3.4,0,0,0,1.55-.21,3.65,3.65,0,0,1,.73-.23c.72.06,1.41.13,2.11.12a3.84,3.84,0,0,0,1.61-.22c.4.46.8,1,2,.27a5.66,5.66,0,0,1,1.73-.45c1.26-.32,1.45-.77.52-1.37-.28-.18-.79-.41-.48-.54l.06,0a4.23,4.23,0,0,0,2.8-.32,30.92,30.92,0,0,1,5.27-.15,2.78,2.78,0,0,0,.95.2c.25.13.26.34-.11.73a1.27,1.27,0,0,0-.26.36,6.09,6.09,0,0,0-1.7-.15c-1.05,0-2.1.06-3.15.12-.45,0-1,0-1,.42s.26.45.72.48c-.26.11-.47.26-.47.58s.13.58.72.62a5,5,0,0,0,1.55-1.27,2.4,2.4,0,0,1,1.09.23c-.11.39-1.15.32-1.23.73a3.26,3.26,0,0,0,1.72.18c.93,0,2.2.29,2.61-.39a2.6,2.6,0,0,0,1,0c.7-.12.44-.45.4-.72-.25-1.87.13-2.09,3.07-2a46.92,46.92,0,0,0,5.81,0c-.14.06-.24.14-.22.28.06.33.69.26,1.18.24a2.07,2.07,0,0,1,.61,0c1.86,1.65,5,.64,7.52.78,1.3.08,2.61,0,3.91.08a1.39,1.39,0,0,0-.66.46c-.5.09-.92.3-.77.61s.66.22,1.07.18,1-.13,1.49-.19a1.58,1.58,0,0,1,1.22-.11l.1,0a.68.68,0,0,0,.83-.49.34.34,0,0,0-.17-.42c.39,0,.77,0,1.16,0a6.29,6.29,0,0,0,3.27-.68c.85-.56,2-.13,2.89-.23,2.59-.28,5.17-.22,7.74-.36a45.62,45.62,0,0,1,5.09.33A4.45,4.45,0,0,0,238.8,85a8.32,8.32,0,0,1,1.83-.59c2.93,0,6-.45,8.76.41a.47.47,0,0,0,.17,0c2.17-.67,4.43-.15,6.63-.32a12.19,12.19,0,0,1,2.26,0c2.7.25,5.47.19,8.16.42,5.21.45,10.52.06,15.75.57a43,43,0,0,0,8,0,11.4,11.4,0,0,1,2.48.8l.12.38c.83.43,0,1.56,1.7,1.63,0,.29,1.18.08.6.65-.32.32-1.19.64-.47,1.13a2.66,2.66,0,0,0,2.25.24c1.78-.82,3.48-.19,5.2-.18.29,0,.59,0,.87,0a20.21,20.21,0,0,1,4.85-.16c1.59.29,3.14-.45,4.77-.43.95-.26,1.91-.56,2.79-.85,1.67-.55-.13-.79-.75-1.27.77-.09,1.4-.17,2-.23s1.36,0,1.6-.63c.16-.44,1-.3,1.52-.34,1-.08,2-.1,3-.15.66-.07,1.35.21,2-.08.37,0,.72.22,1.12,0h.3a.51.51,0,0,1,.09.16c-1.19,1-1.19,1,.6,1.18.39.27.7.66-.25.55s-1.89.12-2.8-.06c-1.24.16-2.35,1-3.75.32a.67.67,0,0,0-.7.23c-.13.23.09.36.37.42s.77.11,1.14.17c.17.36-.34.35-.6.45-.73.3-1.32.62-.48,1.12.52.32.74,1,2,.33s3.08-.31,4.59-.29,2.8-.51,4.27,0c.52.19.86-.6,1.35-.91.69-.45,1.08-1.46,2.22-.11a4.71,4.71,0,0,0,3.74,1.07,51.78,51.78,0,0,1,5.71,0,28.57,28.57,0,0,0,7.56.11c2.21-.24,4.41-.21,6.6-.42.66,0,1.33,0,2,0v-6c-1.75-1.22-4-1.3-6.44-1.16a3.2,3.2,0,0,0-1.85.56h-.41a3,3,0,0,0-2.24,0,.86.86,0,0,1-.23.06c-.29,0-.59,0-.89-.07l-.39-.1a4.41,4.41,0,0,0-2.22-.15l-.13,0a3.22,3.22,0,0,0-.77.19,6.85,6.85,0,0,1-3.65-.07c-1.57-.07-1,.43-.64.88-.32.32-1.32.3-1.1.87a1.13,1.13,0,0,1-1-.07,1.06,1.06,0,0,0-.91-.21h0c-1.37.12-2.67.2-2.63-1.05a4.26,4.26,0,0,1-4-.07h1.19c1.09.28,2.08.36,2.55-.57l-.44-.43a13.69,13.69,0,0,1,2.7-.36l2.14,0c.78,0,1.55,0,2.32,0l.45,0a3.72,3.72,0,0,0,.66-.08,2.54,2.54,0,0,0,1.13-.33l.31-.12a20.57,20.57,0,0,1,4.11-1.48,3.85,3.85,0,0,1,2,0c.28.17.55.35.83.51a2.14,2.14,0,0,1,.17.3c.27.64.47.7,1.27.14l.19-.12a3.86,3.86,0,0,0,.76-.2.65.65,0,0,1,.63.09.88.88,0,0,1,.25.54c0,.28.16.52.64.57a1.53,1.53,0,0,0,1.31-.45,4,4,0,0,1,.41-.41,3.1,3.1,0,0,1,.73-.23,1.14,1.14,0,0,1,.47.72,1,1,0,0,0,1.26.72c.6-.12.31-.58.24-.87a.83.83,0,0,1,0-.56ZM5.09,77.91h0Zm26.54,5.38.3,0h0c0,.08.16.13.35.16C31.8,83.61,31.7,83.46,31.63,83.29Zm4.69-1.84h-.13a.3.3,0,0,0,.08-.08.11.11,0,0,1,0,.09l0,0v0Zm1.7-.06.1-.1.08,0Zm2,3.92h-.15l.17-.07h0Zm8.78,3.48h0Zm4.46-2.35A.73.73,0,0,1,53.4,86C53.55,86.18,53.57,86.32,53.28,86.44Zm20.2,1.17.06.07a.31.31,0,0,0-.09-.07Zm-.22,1.08c.17-.33.45-.61.38-.86C73.77,88.09,73.64,88.36,73.26,88.69Zm17.39-3.62a1.43,1.43,0,0,0,.49.21h0C90.85,85.27,90.71,85.19,90.65,85.07Zm52.68.39c.14-.34.19-.72.82-.77h0a.85.85,0,0,1,.32,0A7.66,7.66,0,0,1,143.33,85.46Zm32.93,0c-.49.22-.81.49-.75.75a1.63,1.63,0,0,0-1.25.4,4.34,4.34,0,0,0-1.24-.25,2.25,2.25,0,0,0-1.86-.42L171,86a1.35,1.35,0,0,0,1.11-1.28h.13c2,1.61,2.94,0,4.28-.42l.17,0s0,0,0,0C177.42,84.4,177.24,85,176.26,85.43Zm26.51-1.21c.31-.07.62-.11.93-.21a3.7,3.7,0,0,1,1.87-.06s.11,0,.14.09h0A12.09,12.09,0,0,1,202.77,84.22Zm91.36-1.47h0c-.11-.09-.05-.2.11-.32A1.73,1.73,0,0,0,294.13,82.75Zm2.33,6.1a.49.49,0,0,0,0-.12l.11,0Zm42.19-1.65a.67.67,0,0,0-.11.07l-.09,0Zm-1,3.27-.08,0-.05,0ZM311,88.3a1.76,1.76,0,0,0-.3-.1,9.63,9.63,0,0,0-2.32-.45,10.46,10.46,0,0,0-2.37.14h0c-.85-.06-1.07-.39-.48-1,.25-.24.18-.5.25-.74h.12l.81,0c.35,0,.69,0,1,0s1,.06,1.47.08l.82.09a3,3,0,0,1,.82.27.31.31,0,0,0-.05.1,2.48,2.48,0,0,0,.33,1.36C311.21,88.26,311.1,88.3,311,88.3Zm17.5-3.66h0a1.24,1.24,0,0,1-.27,0l.36-.14C328.6,84.56,328.61,84.6,328.46,84.64Zm2,2.68.16-.11c1.05,0,1.2-.26.88-.69l.26.06c.86,0,1.72,0,2.57-.06h.05c-.11.6.33,1.1.73,1.61h-.38c-1.1-.69-2.54-.3-3.85-.26h0a5,5,0,0,0-.66.08.61.61,0,0,0,.52-.58Zm-1.08-3.63-.48,0,0,0c-1.64-.48-2.4-.19-3.09,1.16l0,.08c-1.66,0-3.29-.23-4.95-.21l-.07,0a.86.86,0,0,0-.45,0l0,0a12,12,0,0,0-4.28.6,10.17,10.17,0,0,1-2.7-.06c.21-.66,1.3-.69,2-1a3.39,3.39,0,0,1,.45-.15l.2-.06,1.28-.07c.42,0,1.07.16,1.11-.28s-.6-.39-1-.51a5.38,5.38,0,0,0-1.79,0,3.3,3.3,0,0,1-.86-.22h0a5.55,5.55,0,0,0-2.4-.06,20.26,20.26,0,0,1,8.41-.67,8.22,8.22,0,0,0,3.45-.3c2.34-.81,4.85-.37,7.44-.89-.62.92-.6,1.59.73,2l.27,0c.34.08.81,0,1,.23C332.29,83.37,330.65,82.8,329.41,83.69Z" transform="translate(0 0)"/></svg>