<?xml version="1.0" encoding="utf-8"?>
<!-- Generator: Adobe Illustrator 24.0.1, SVG Export Plug-In . SVG Version: 6.00 Build 0)  -->
<svg version="1.1" id="Ebene_1" xmlns="http://www.w3.org/2000/svg" xmlns:xlink="http://www.w3.org/1999/xlink" x="0px" y="0px"
	 viewBox="0 0 360 90" style="enable-background:new 0 0 360 90;" xml:space="preserve">
<style type="text/css">
	.st0{clip-path:url(#SVGID_2_);}
	.st1{fill:#FCBA00;}
	.st2{fill:#FFBC00;}
	.st3{fill:#FFA700;}
</style>
<g>
	<g>
		<path class="st3" d="M40.5,86.2c0.9,0.1,1.2-0.3,1.7-0.6c0.2-0.1,0.5-0.1,0.8-0.1c0.3,0,0.3,0.2,0.3,0.3c-0.1,0.8-1.6,1.7-3.2,1.7
			c-0.3-0.2-1.4,0.5-1.3-0.2C38.8,86.9,38.5,86.1,40.5,86.2z"/>
		<path class="st3" d="M181.2,85.4c0.8-0.2,1.7-0.3,2.5-0.3c2.3,0.2,4.6,0.1,6.9-0.3c0.6-0.1,0.9,0,1.4,0.1c1.5,0.5,2.8,1.3,4.8,1.4
			c0.7,0,1.2,0.1,1.8-0.2c1.5-0.8,2.9-0.8,4.5,0c1.8,0.9,3.3,1,5,0c1.9-1,3.9-1.2,6.2-0.9c0.7,0.1,1.6,0,1.7,0.7
			c0.5,0.1,0.6,0.8,1.4,0.4c0.1-0.7,1.7-0.3,1.9-0.9c0.1-0.2,0.4-0.3,0.7-0.2c0.4,0.2,0.2,0.5,0,0.6c-0.8,0.3-1.1,0.8-1.7,1.2
			c-0.2,0.1-0.4,0.4-0.2,0.5c0.2,0.1,0.6,0.1,1,0.1c0.4,0,0.5-0.3,0.8-0.4c0.3-0.1,0.6-0.3,0.9-0.1c0.3,0.2,0.3,0.4,0.2,0.6
			c-0.2,0.5-0.9,0.5-1.5,0.6c-1.2,0.1-2.1-0.5-3.2-0.6c-2.1,0-4.1,0.8-6.2,0.4c-1.5,0.1-3,0.1-4.5-0.1c-2.2-0.3-4.6,0.2-6.6-0.7
			c0,0-0.1,0-0.2,0c-2.4,0.2-4.9,0.3-7.3,0c-1-0.1-1.7-0.8-2.9-0.5c-0.9,0.2-1.4,0-2-0.5c-0.6-0.6-1.2-0.5-1.5,0.2
			c-0.1,0.2-0.4,0.3-0.7,0.3c-0.9,0-1.7,0.1-2.6,0c-0.4,0-1.2,0.1-1.2-0.4C180.4,86.1,180.4,85.6,181.2,85.4z"/>
		<path class="st3" d="M152.3,84.9c2.9-0.1,5.8-0.9,8.8-0.4c1.8,0.3,3.9-0.3,5.3,0.4c0.9-0.1,1.5-0.2,1.9,0.2c0.2,0.2,0,0.3-0.3,0.5
			c-1.5,0.9-3,1.7-5.2,0.9c-0.3-0.1-0.8,0-1.2,0c-3.1,0.2-6.2-0.3-9.4-0.1c-0.6,0-1.5,0-1.5-0.5C150.9,85.2,151.8,84.9,152.3,84.9z"
			/>
		<path class="st3" d="M318.2,81.6c0-0.2,0-0.3,0.2-0.4c-0.7,0-1.3,0.3-1.8,0.6C317.1,81.7,317.6,81.6,318.2,81.6z"/>
		<path class="st3" d="M266.6,85.9C266.6,85.9,266.6,85.9,266.6,85.9c0.1,0,0.2,0,0.2,0C266.7,85.9,266.7,85.9,266.6,85.9
			C266.6,85.9,266.6,85.9,266.6,85.9C266.6,85.9,266.6,85.9,266.6,85.9z"/>
		<path class="st3" d="M265.7,89.1C265.7,89.1,265.7,89.1,265.7,89.1C265.7,89.1,265.7,89.1,265.7,89.1
			C265.6,89.1,265.7,89.1,265.7,89.1z"/>
		<path class="st3" d="M256.7,83.3c0.1,0,0.1-0.1,0.1-0.1c-0.1,0.1-0.2,0.1-0.4,0.1C256.5,83.3,256.6,83.3,256.7,83.3z"/>
		<polygon class="st3" points="223.4,86.8 223.4,86.8 223.4,86.8 		"/>
		<path class="st3" d="M222.8,81.4c0-0.1,0.1-0.2,0.1-0.3C222.7,81.2,222.7,81.3,222.8,81.4z"/>
		<path class="st3" d="M4.5,85.9C4.6,86,4.6,86,4.5,85.9C4.6,86,4.6,86,4.5,85.9C4.6,85.9,4.6,85.9,4.5,85.9z"/>
		<path class="st3" d="M74.5,83.1c-0.6,0-0.7,0.4-0.8,0.8c0.4-0.2,0.8-0.5,1.1-0.7C74.7,83.1,74.6,83.1,74.5,83.1z"/>
		<path class="st3" d="M135.3,82.6c0,0-0.1-0.1-0.1-0.1c-0.6-0.1-1.2-0.1-1.8,0.1c-0.3,0.1-0.6,0.1-0.9,0.2
			C133.4,82.7,134.4,82.8,135.3,82.6z"/>
		<path class="st3" d="M22,83.7c-0.2-0.1-0.4-0.1-0.5-0.2C21.6,83.6,21.8,83.6,22,83.7z"/>
		<path class="st3" d="M4.7,86c0.3,0.3-0.1,0.6-0.3,1C4.8,86.6,4.9,86.3,4.7,86z"/>
		<path class="st3" d="M87.8,84.1c0.4,0,1.5-0.1,1.5,0.4c0,0.5-1,0.9-1.8,1c-0.6,0.1-1.2-0.1-1.1-0.6C86.4,84.4,86.6,84,87.8,84.1z"
			/>
		<path class="st3" d="M173.1,85.1c0.5-0.1,1.3,0.1,1.2,0.5c0,0.6-0.9,0.3-1.4,0.4c-0.5-0.2-1.5,0.3-1.5-0.3
			C171.3,85.1,172.4,85.1,173.1,85.1z"/>
		<path class="st3" d="M354.1,89.1c0.1,0.4-0.5,0.3-0.9,0.4c-0.2-0.1-0.7,0-0.6-0.3c0.1-0.2,0.3-0.4,0.7-0.4
			C353.7,88.7,354,88.8,354.1,89.1z"/>
		<polygon class="st3" points="316.3,82 316.3,82 316.3,82 		"/>
		<path class="st3" d="M360.1,69.8H0.1v17c0.2,0,0.4,0,0.7,0c1.7,0.1,3.3,0.3,5,0.2c0.7,0,1.4,0.1,1.9-0.3c0.5-0.2,1.1-0.3,1.6-0.5
			c0.7-0.6,1.4-0.9,2.8-0.6c0.4,0.1,0.8,0,1-0.2c1.3-0.5,2.2-1.2,4-1.3c0.5,0,0.7-0.3,0.6-0.6c0.7-0.5,0.9,0.2,1.4,0.1c0,0,0,0,0,0
			c1.3,0.2,2.6,0.6,4.1,0.1c0.3,0,0.5,0,0.8,0c0.7,0,1.4,0,2.2-0.1c-0.1,0.4-0.3,0.8-0.4,1.2c0,0.4-0.3,0.9,0.9,0.8
			c1,0,1.3-0.5,1.8-0.8c0.8-0.6,1.4-1.3,3.2-0.9c0.5,0.1,1.3-0.1,1.9-0.3c0.8-0.3,1.3-0.8,2.1,0.1c0.4,0.5,1.4,0,1.6-0.6
			c0-0.2,0-0.3,0.1-0.5c0.4,0.1,0.8,0.3,1.3,0.1c2.4,0.7,4.6,0.5,6.5-0.6c0.2,0,0.3,0,0.5,0c0.3,0,0.6,0.1,0.9,0.1
			c0.4,0.3,1.1,0,1.6,0.1h0c1,0,2.1-0.1,3.2-0.1c0.5,0,1,0,1.4,0c-1,0.9-2.9,1.2-3.8,2c-0.3,0.3-1.1-0.1-1.6-0.1
			c-0.9-0.7-1.8,0.1-2.7,0.1c-0.5,0-0.7,0.4-0.8,0.7c-0.1,0.4,0.5,0.5,1,0.6c1.4,0.4,1.3-0.6,2.1-0.7c1,0,2-0.1,3-0.1
			c0.5,0.6,1.3,0.9,2.4,0.5c0.6-0.2,1.2-0.1,1.5,0c1.3,0.3,1.5,0,1.5-0.7c0.6,0.5,0.4,1.2,1.7,1.2c1.6,0,2.1-0.7,2.8-1.2
			c0.1,0.1,0.1,0.1,0.1,0.2c0.9,0.5,1.8,0.2,2-0.3c0.5-1.2,2-1.2,3.7-1.2c-0.1,0.2-0.2,0.5-0.3,0.7c0,0,0,0,0,0
			c0,0.4,0.2,0.9,1.1,0.8c0.9-0.1,0.9-0.7,0.5-1.1c0.4-0.3,0.6-0.5,0.6-0.8c1.2,0.2,2.4,0.2,3.6-0.3c0.3-0.1,0.6-0.1,0.8,0.1
			c0.2,0.2,0.3,0.3,0.5,0.4c0,0,0,0.1,0,0.1c-0.3,0.3-0.8,0.5-0.8,0.9c-0.9,0.5-1.1,1-0.1,1.4c1.2,0.5,2.8,0.7,3.9,0.1
			c1.2-0.7,1.9-0.5,3-0.2c1.1,0.4,2.3,0,3.3-0.2c0.5-0.1,0.6-0.7,0.9-1c-0.9,0-1.6-0.6-2.5-0.2c-0.4,0.1-0.7,0.3-1.1,0.1
			c-0.4-0.2,0.1-0.4,0.2-0.6c0-0.1,0.1-0.1,0.1-0.2c0.3,0.3,1,0.1,1.3-0.1c1.9-0.9,4-1.1,6.1-1.3c0,0,0.1,0,0.1,0
			c0.3,0,0.7-0.1,1-0.1c0.6,0,1.1-0.1,1.5-0.2c0.2,0.3,0.6,0.7,0.8,1c0.2,0.4,1.2,0.2,1.8,0c0.6-0.2,0.8-0.2,1,0.1
			c0.2,0,0.5,0.1,0.7,0.1c0,0,0.1,0,0.1,0c-0.2,0.2-0.4,0.5-0.5,0.7c-0.3,0.4,0.5,0.5,1,0.5c0.9,0,1.8-0.4,2.2-0.9
			c0.8,0,1.5,0,2.3-0.1c0.1,0,0.2-0.1,0.4,0c0.7,0,1.2,0,1.7-0.1c-0.4,0.1-0.8,0.2-1.2,0.3c-0.4,0.1-1.3-0.1-1.2,0.5
			c0.1,0.5,0.6,0.7,1.4,0.7c0.3,0,0.6,0,0.7,0c0.7,0,1.1,0,1.5-0.2c0.2-0.1,0.5-0.2,0.7-0.2c0.7,0.1,1.4,0.1,2.1,0.1
			c0.6,0,1.2,0,1.6-0.2c0.4,0.5,0.8,1,2,0.3c0.6-0.3,1.1-0.3,1.7-0.4c1.3-0.3,1.4-0.8,0.5-1.4c-0.3-0.2-0.8-0.4-0.5-0.5
			c0,0,0,0,0.1,0c0.9,0.1,2.1,0.2,2.8-0.3c1.7-0.2,3.5-0.3,5.2-0.1c0.3,0.1,0.6,0.2,0.9,0.2c0.2,0.1,0.3,0.3-0.1,0.7
			c-0.1,0.1-0.2,0.2-0.3,0.4c-0.4-0.1-1-0.2-1.7-0.1c-1,0-2.1,0.1-3.1,0.1c-0.4,0-1,0-1,0.4c0,0.3,0.3,0.4,0.7,0.5
			c-0.3,0.1-0.5,0.3-0.5,0.6c0,0.3,0.1,0.6,0.7,0.6c0.2,0,1.2-0.9,1.5-1.3c0.4,0,0.7,0.1,1.1,0.2c-0.1,0.4-1.1,0.3-1.2,0.7
			c0.4,0.3,1.1,0.2,1.7,0.2c0.9,0,2.2,0.3,2.6-0.4c0.3,0.1,0.7,0,1,0c0.7-0.1,0.4-0.4,0.4-0.7c-0.2-1.8,0.1-2.1,3-1.9
			c1.9,0.1,3.8,0.2,5.7,0c-0.1,0.1-0.2,0.1-0.2,0.3c0.1,0.3,0.7,0.3,1.2,0.2c0.2,0,0.5,0,0.6,0c1.8,1.6,4.9,0.6,7.4,0.8
			c1.3,0.1,2.6,0.1,3.9,0.1c-0.2,0.1-0.5,0.2-0.7,0.4c-0.5,0.1-0.9,0.3-0.8,0.6c0.1,0.2,0.7,0.2,1.1,0.2c0.5,0,1-0.1,1.5-0.2
			c0.4-0.1,0.7-0.3,1.2-0.1c0.5,0.2,0.8-0.1,0.9-0.4c0-0.2,0-0.3-0.2-0.4c0.4,0,0.8,0,1.1,0c1.1,0,2.4-0.1,3.2-0.7
			c0.8-0.6,1.9-0.1,2.9-0.2c2.6-0.3,5.1-0.2,7.6-0.4c1.8-0.1,3.4,0.3,5,0.3c0.9,0,1.6,0.2,2.4-0.2c0.5-0.3,1.2-0.4,1.8-0.6
			c2.9,0,5.9-0.4,8.7,0.4c0,0,0.1,0,0.2,0c2.2-0.7,4.4-0.1,6.6-0.3c0.8-0.1,1.5,0,2.2,0c2.7,0.3,5.4,0.2,8.1,0.4
			c5.2,0.4,10.4,0.1,15.6,0.6c2.5,0.2,5.3,0.3,7.9,0.1c0.8,0.3,1.8,0.3,2.5,0.8l0,0c0,0.1,0.1,0.3,0.1,0.4c0.8,0.4,0,1.5,1.7,1.6
			c0,0.3,1.2,0.1,0.6,0.6c-0.3,0.3-1.2,0.6-0.5,1.1c0.6,0.4,1.7,0.5,2.2,0.2c1.8-0.8,3.4-0.2,5.1-0.2c0.3,0,0.6,0,0.9,0
			c1.6-0.1,3.1-0.5,4.8-0.2c1.6,0.3,3.1-0.4,4.7-0.4c0.9-0.3,1.9-0.6,2.8-0.8c1.7-0.5-0.1-0.8-0.7-1.3c0.8-0.1,1.4-0.2,2-0.2
			c0.7-0.1,1.3,0,1.6-0.6c0.2-0.4,1-0.3,1.5-0.3c1-0.1,1.9-0.1,2.9-0.1c0.7-0.1,1.3,0.2,2-0.1c0.4,0,0.7,0.2,1.1,0l0.2,0l0.2,0
			c0,0.1,0.1,0.1,0.1,0.2c-1.2,1-1.2,1,0.6,1.2c0,0,0,0,0,0c0.4,0.3,0.7,0.7-0.3,0.5c-0.9-0.1-1.9,0.1-2.8-0.1
			c-1.2,0.2-2.3,1-3.7,0.3c-0.2-0.1-0.6,0-0.7,0.2c-0.1,0.2,0.1,0.4,0.4,0.4c0.4,0.1,0.8,0.1,1.1,0.2c0.2,0.4-0.3,0.3-0.6,0.4
			c-0.7,0.3-1.3,0.6-0.5,1.1c0.5,0.3,0.7,1,2,0.3c1.3-0.7,3-0.3,4.5-0.3c1.4,0,2.8-0.5,4.2,0c0.5,0.2,0.9-0.6,1.3-0.9
			c0.7-0.4,1.1-1.4,2.2-0.1c0.5,0.6,1.9,1.2,3.7,1.1c1.8-0.2,3.8,0,5.6,0c2.5,0.4,5,0.4,7.5,0.1c2.2-0.2,4.4-0.2,6.5-0.4
			c2.7,0,5.3,0.2,7.9,0.5c1.2,0.1,2.4-0.2,3.7-0.2c0.7,0,1.3,0.1,2,0.3c1.4,0.4,2.6-0.4,3.9-0.4c0.9,0,1.8-0.1,2.6,0.2
			c0.7,0.3,1.3,0.1,1.6-0.3c0.6-0.9,1.5-1.8,1-2.8c-0.1-0.2,0.2-0.5-0.3-0.6c-0.5-0.1-0.5,0.2-0.7,0.4c-0.3,0.2-0.7,0.4-1,0.6
			c0,0,0,0,0,0c-0.7,0-1.6,0.1-0.8-0.6c0.6-0.5-0.1-0.7-0.6-0.9c1-0.4,2.1-0.2,3.1-0.3c0.7,0,1.4,0,2.1,0c0.7,0,1.3,0.3,1,0.6
			c-0.8,1,0.4,1,1.5,1.1c-0.9,0.4-1.6,0.5-2.5,0.6c-0.5,0-1.1,0-1,0.5v0c-0.3,0.4-0.7,0.8-0.1,1.2c0.4,0.3,1.1,0.3,1.6-0.1
			c2.1-0.2,4.2-0.3,6.1,0.5c0.5,0.2,1.2,0.3,1.5-0.1c0.4-0.8,1.2-0.4,1.9-0.3c1.5,0.2,2.9,0.7,4.2-0.4c0.2-0.2,0.9-0.2,1.3-0.1
			c1.6,0.2,2.6-0.2,3.6-1c1-0.8,3.3-1,4.7-0.6c0,0,0,0.1-0.1,0.2c-1,0.5-0.9,1.4-1.7,2c-0.6,0.5,0.2,0.5,0.7,0.4
			c1.4-0.4,2.8-0.6,4.2-0.4c0.3,0,0.5,0,0.6-0.3c0.1-0.7,0.5-0.8,1.2-0.2c0.1,0.1,0.3,0.1,0.4,0.2c1.1-1,1.7,0.1,2.5,0.1
			c1.2,0,2.4-0.5,3.6-0.2c0.4,0.2,0.8,0,1.4-0.1c-1.5-0.5-0.8-1.8,0.1-1c0.9,0.8,2.6,0.8,3.9,0.8c2-1,2,0,5.4,0.2
			c-0.4,0.4-0.5,0.7,0.3,0.9c0.6,0.1,1.4,0.2,1.9-0.2c0.4-0.3,0.1-0.5-1.5-0.7c1-0.2,1.9,0,2.8-0.2V69.8z M106.2,83.9
			c-0.5,0.2-0.8,0.5-0.7,0.7c-0.5,0-0.9,0.1-1.2,0.4c-0.4-0.1-0.8-0.2-1.2-0.3c-0.4-0.4-1.1-0.5-1.8-0.4c-0.1,0-0.1,0-0.2,0
			c0.7-0.2,1-0.6,1.1-1.3c0,0,0.1,0,0.1,0c1.9,1.6,2.9,0,4.2-0.4c0.1,0,0.1,0,0.2-0.1c0,0,0,0,0-0.1
			C107.4,82.9,107.2,83.5,106.2,83.9z M225.1,87.4c0,0,0-0.1,0-0.1c0,0,0.1,0,0.1,0C225.1,87.4,225.1,87.4,225.1,87.4z M239.4,86.9
			c-0.1,0-0.2-0.1-0.3-0.1c-0.7-0.2-1.5-0.4-2.3-0.5c-0.8,0-1.6,0-2.3,0.1c-0.8-0.1-1.1-0.4-0.5-0.9c0.2-0.2,0.2-0.5,0.3-0.7
			c0,0,0.1,0,0.1,0c0.3,0,0.5,0,0.8,0c0.3,0,0.7,0,1,0c0.5,0.1,1,0.1,1.5,0.1c0.3,0,0.5,0.1,0.8,0.1c0.3,0.1,0.6,0.1,0.8,0.3
			c0,0,0,0.1-0.1,0.1c0,0.5,0.1,0.9,0.3,1.3C239.7,86.9,239.5,86.9,239.4,86.9z M257.7,82.4c-0.2,0-0.3,0-0.5,0c0,0,0,0,0,0
			c-1.6-0.5-2.4-0.2-3.1,1.1c0,0,0,0.1,0,0.1c-1.6,0-3.2-0.2-4.9-0.2c0,0,0,0-0.1,0c-0.2,0-0.3,0-0.4,0l0,0
			c-1.5-0.2-2.9,0.3-4.2,0.6c-0.9,0.1-1.8,0-2.7-0.1c0.2-0.7,1.3-0.7,2-1c0.1-0.1,0.3-0.1,0.5-0.2c0.1,0,0.1,0,0.2-0.1
			c0.4,0,0.8,0,1.3-0.1c0.4,0,1.1,0.2,1.1-0.3c0-0.3-0.6-0.4-1-0.5c-0.6-0.2-1.2-0.1-1.8,0c-0.3,0-0.6-0.1-0.8-0.2
			c-0.7-0.3-1.5-0.1-2.4-0.1c2.8-0.9,5.5-1,8.3-0.7c1.1,0.1,2.4,0,3.4-0.3c2.3-0.8,4.8-0.4,7.4-0.9c-0.6,0.9-0.6,1.6,0.7,1.9
			c0.1,0,0.2,0,0.3,0c0.3,0.1,0.8,0,1,0.2C260.5,82.1,258.9,81.5,257.7,82.4C257.7,82.4,257.7,82.4,257.7,82.4z M263,86.8
			C263,86.8,263,86.8,263,86.8c-1.2-0.7-2.6-0.3-3.9-0.3c-0.2,0-0.4,0-0.7,0.1c0.3-0.1,0.5-0.3,0.5-0.6c-0.1,0-0.2,0-0.3-0.1
			c0.1,0,0.1-0.1,0.2-0.1c1,0,1.2-0.3,0.9-0.7c0.1,0,0.2,0,0.3,0.1c0.9,0,1.7,0,2.5-0.1c0,0,0,0,0.1,0c-0.1,0.6,0.3,1.1,0.7,1.6
			C263.2,86.8,263.1,86.8,263,86.8z M316,82.3c-0.2,0-0.3,0.1-0.5,0.1c-0.3,0-0.5,0.1-0.7,0.1c-0.3,0.1-0.7,0.1-1,0.3
			c-0.6,0.3-1.5,0.6-2.2-0.2c-0.3-0.4-1.3-0.7-2.2-0.6c-0.5,0.1-0.7,0.3-0.8,0.6c-0.1,0.1-0.2,0.2-0.3,0.3c-1.1,1-3.1,1.3-5,0.6
			c-1.1-0.4-2-0.5-3.2,0c-0.8,0.4-1.8,0.3-2.7,0.2c-1.8-0.1-3.7,0-5.5,0.1c0,0,0.1,0,0.2-0.1c0.9-0.3,1.8-0.7,1.7-1.4
			c-0.1-0.4-1.9-0.7-3-0.4c-1,0.3-2.1,0.6-2.4,1.6c-1.8-1.6-4.2-1.7-6.9-1.5c-0.8,0-1.4,0.2-1.8,0.5c-0.1,0-0.3,0-0.4,0
			c-0.6-0.2-1.3-0.4-2.2,0c-0.1,0-0.1,0-0.2,0.1c-0.3,0-0.6,0-0.9-0.1c-0.1,0-0.3-0.1-0.4-0.1c-0.7-0.2-1.5-0.4-2.2-0.2
			c0,0-0.1,0-0.1,0c-0.3,0-0.5,0.1-0.8,0.2c-1.2,0.3-2.4,0.3-3.6-0.1c-1.5-0.1-1,0.4-0.6,0.9c-0.3,0.3-1.3,0.3-1.1,0.9
			c-0.4,0.1-0.7,0.1-1-0.1c-0.2-0.2-0.6-0.2-0.9-0.2c-1.4,0.1-2.6,0.2-2.6-1c-1.4,0.7-2.7,0.5-4-0.1c0.4,0,0.8,0,1.2,0
			c1.1,0.3,2.1,0.4,2.5-0.6c-0.1-0.1-0.3-0.3-0.4-0.4c0.9-0.2,1.8-0.3,2.7-0.4c0.7,0,1.4,0,2.1,0c0.8,0,1.5,0,2.3,0
			c0.1,0,0.3,0,0.4,0c0.2,0,0.4,0,0.7-0.1c0.4,0,0.8-0.1,1.1-0.3c0.1,0,0.2-0.1,0.3-0.1c1.3-0.6,2.6-1.1,4.1-1.5
			c0.7-0.2,1.3-0.2,2,0c0.3,0.2,0.5,0.3,0.8,0.5c0.1,0.1,0.1,0.2,0.2,0.3c0.3,0.6,0.5,0.7,1.3,0.1c0.1,0,0.1-0.1,0.2-0.1
			c0.2,0,0.5-0.1,0.8-0.2c0.2-0.1,0.5,0,0.6,0.1c0.1,0.1,0.2,0.3,0.2,0.5c0,0.3,0.2,0.5,0.6,0.6c0.6,0.1,1-0.1,1.3-0.4
			c0.1-0.2,0.3-0.3,0.4-0.4c0.2-0.1,0.5-0.2,0.7-0.2c0.2,0.1,0.3,0.3,0.5,0.7c0.1,0.3,0.5,0.9,1.2,0.7c0.6-0.1,0.3-0.6,0.2-0.9
			c-0.1-0.2-0.1-0.4,0-0.6c0.2,0,0.3,0,0.5,0.1c0.7,1.3,0.8,1.3,2.8,0.7c0.2-0.1,0.4-0.1,0.6-0.1c1.4,0.4,2.6,0,3.7-0.5
			c0.6-0.3,1.2-0.4,2-0.3c0.8,0.1,1.5,0,2.2-0.2c0.7-0.2,1.3-0.2,2,0c1.2,0.4,2.3,0.4,3.4-0.2c0.6-0.3,1.3-0.4,1.9-0.1
			c1.6,0.7,3.5,0.6,5.1,0.2c1.9-0.5,3.4-0.4,4.9,0.3c0.3,0.2,0.1,0.3-0.1,0.3c-0.9,0-1.5,0.3-2.1,0.6c0,0.2,0.2,0.3,0.3,0.4
			c-0.3-0.1-0.3-0.3-0.3-0.4c-0.4,0-0.9-0.1-0.9,0.3c0,0.3,0.3,0.5,0.9,0.6c1,0.1,1.9,0.2,2.8,0.3c0,0,0,0,0,0c0,0,0,0,0,0
			c0,0.1,0,0.2,0,0.3C316.2,82.2,316.1,82.3,316,82.3z"/>
	</g>
	<g>
		<path class="st2" d="M40.5,78.2c0.9,0.1,1.2-0.3,1.7-0.6c0.2-0.1,0.5-0.1,0.8-0.1c0.3,0,0.3,0.2,0.3,0.3c-0.1,0.8-1.6,1.7-3.2,1.7
			c-0.3-0.2-1.4,0.5-1.3-0.2C38.8,78.9,38.5,78.1,40.5,78.2z"/>
		<path class="st2" d="M181.2,77.4c0.8-0.2,1.7-0.3,2.5-0.3c2.3,0.2,4.6,0.1,6.9-0.3c0.6-0.1,0.9,0,1.4,0.1c1.5,0.5,2.8,1.3,4.8,1.4
			c0.7,0,1.2,0.1,1.8-0.2c1.5-0.8,2.9-0.8,4.5,0c1.8,0.9,3.3,1,5,0c1.9-1,3.9-1.2,6.2-0.9c0.7,0.1,1.6,0,1.7,0.7
			c0.5,0.1,0.6,0.8,1.4,0.4c0.1-0.7,1.7-0.3,1.9-0.9c0.1-0.2,0.4-0.3,0.7-0.2c0.4,0.2,0.2,0.5,0,0.6c-0.8,0.3-1.1,0.8-1.7,1.2
			c-0.2,0.1-0.4,0.4-0.2,0.5c0.2,0.1,0.6,0.1,1,0.1c0.4,0,0.5-0.3,0.8-0.4c0.3-0.1,0.6-0.3,0.9-0.1c0.3,0.2,0.3,0.4,0.2,0.6
			c-0.2,0.5-0.9,0.5-1.5,0.6c-1.2,0.1-2.1-0.5-3.2-0.6c-2.1,0-4.1,0.8-6.2,0.4c-1.5,0.1-3,0.1-4.5-0.1c-2.2-0.3-4.6,0.2-6.6-0.7
			c0,0-0.1,0-0.2,0c-2.4,0.2-4.9,0.3-7.3,0c-1-0.1-1.7-0.8-2.9-0.5c-0.9,0.2-1.4,0-2-0.5c-0.6-0.6-1.2-0.5-1.5,0.2
			c-0.1,0.2-0.4,0.3-0.7,0.3c-0.9,0-1.7,0.1-2.6,0c-0.4,0-1.2,0.1-1.2-0.4C180.4,78.1,180.4,77.6,181.2,77.4z"/>
		<path class="st2" d="M152.3,76.9c2.9-0.1,5.8-0.9,8.8-0.4c1.8,0.3,3.9-0.3,5.3,0.4c0.9-0.1,1.5-0.2,1.9,0.2c0.2,0.2,0,0.3-0.3,0.5
			c-1.5,0.9-3,1.7-5.2,0.9c-0.3-0.1-0.8,0-1.2,0c-3.1,0.2-6.2-0.3-9.4-0.1c-0.6,0-1.5,0-1.5-0.5C150.9,77.2,151.8,76.9,152.3,76.9z"
			/>
		<path class="st2" d="M318.2,73.6c0-0.2,0-0.3,0.2-0.4c-0.7,0-1.3,0.3-1.8,0.6C317.1,73.7,317.6,73.6,318.2,73.6z"/>
		<path class="st2" d="M266.6,77.9C266.6,77.9,266.6,77.9,266.6,77.9c0.1,0,0.2,0,0.2,0C266.7,77.9,266.7,77.9,266.6,77.9
			C266.6,77.9,266.6,77.9,266.6,77.9C266.6,77.9,266.6,77.9,266.6,77.9z"/>
		<path class="st2" d="M265.7,81.1C265.7,81.1,265.7,81.1,265.7,81.1C265.7,81.1,265.7,81.1,265.7,81.1
			C265.6,81.1,265.7,81.1,265.7,81.1z"/>
		<path class="st2" d="M256.7,75.3c0.1,0,0.1-0.1,0.1-0.1c-0.1,0.1-0.2,0.1-0.4,0.1C256.5,75.3,256.6,75.3,256.7,75.3z"/>
		<polygon class="st2" points="223.4,78.8 223.4,78.8 223.4,78.8 		"/>
		<path class="st2" d="M222.8,73.4c0-0.1,0.1-0.2,0.1-0.3C222.7,73.2,222.7,73.3,222.8,73.4z"/>
		<path class="st2" d="M4.5,77.9C4.6,78,4.6,78,4.5,77.9C4.6,78,4.6,78,4.5,77.9C4.6,77.9,4.6,77.9,4.5,77.9z"/>
		<path class="st2" d="M74.5,75.1c-0.6,0-0.7,0.4-0.8,0.8c0.4-0.2,0.8-0.5,1.1-0.7C74.7,75.1,74.6,75.1,74.5,75.1z"/>
		<path class="st2" d="M135.3,74.6c0,0-0.1-0.1-0.1-0.1c-0.6-0.1-1.2-0.1-1.8,0.1c-0.3,0.1-0.6,0.1-0.9,0.2
			C133.4,74.7,134.4,74.8,135.3,74.6z"/>
		<path class="st2" d="M22,75.7c-0.2-0.1-0.4-0.1-0.5-0.2C21.6,75.6,21.8,75.6,22,75.7z"/>
		<path class="st2" d="M4.7,78c0.3,0.3-0.1,0.6-0.3,1C4.8,78.6,4.9,78.3,4.7,78z"/>
		<path class="st2" d="M87.8,76.1c0.4,0,1.5-0.1,1.5,0.4c0,0.5-1,0.9-1.8,1c-0.6,0.1-1.2-0.1-1.1-0.6C86.4,76.4,86.6,76,87.8,76.1z"
			/>
		<path class="st2" d="M173.1,77.1c0.5-0.1,1.3,0.1,1.2,0.5c0,0.6-0.9,0.3-1.4,0.4c-0.5-0.2-1.5,0.3-1.5-0.3
			C171.3,77.1,172.4,77.1,173.1,77.1z"/>
		<path class="st2" d="M354.1,81.1c0.1,0.4-0.5,0.3-0.9,0.4c-0.2-0.1-0.7,0-0.6-0.3c0.1-0.2,0.3-0.4,0.7-0.4
			C353.7,80.7,354,80.8,354.1,81.1z"/>
		<polygon class="st2" points="316.3,74 316.3,74 316.3,74 		"/>
		<path class="st2" d="M360.1-0.2H0.1v79c0.2,0,0.4,0,0.7,0c1.7,0.1,3.3,0.3,5,0.2c0.7,0,1.4,0.1,1.9-0.3c0.5-0.2,1.1-0.3,1.6-0.5
			c0.7-0.6,1.4-0.9,2.8-0.6c0.4,0.1,0.8,0,1-0.2c1.3-0.5,2.2-1.2,4-1.3c0.5,0,0.7-0.3,0.6-0.6c0.7-0.5,0.9,0.2,1.4,0.1c0,0,0,0,0,0
			c1.3,0.2,2.6,0.6,4.1,0.1c0.3,0,0.5,0,0.8,0c0.7,0,1.4,0,2.2-0.1c-0.1,0.4-0.3,0.8-0.4,1.2c0,0.4-0.3,0.9,0.9,0.8
			c1,0,1.3-0.5,1.8-0.8c0.8-0.6,1.4-1.3,3.2-0.9c0.5,0.1,1.3-0.1,1.9-0.3c0.8-0.3,1.3-0.8,2.1,0.1c0.4,0.5,1.4,0,1.6-0.6
			c0-0.2,0-0.3,0.1-0.5c0.4,0.1,0.8,0.3,1.3,0.1c2.4,0.7,4.6,0.5,6.5-0.6c0.2,0,0.3,0,0.5,0c0.3,0,0.6,0.1,0.9,0.1
			c0.4,0.3,1.1,0,1.6,0.1h0c1,0,2.1-0.1,3.2-0.1c0.5,0,1,0,1.4,0c-1,0.9-2.9,1.2-3.8,2c-0.3,0.3-1.1-0.1-1.6-0.1
			c-0.9-0.7-1.8,0.1-2.7,0.1c-0.5,0-0.7,0.4-0.8,0.7c-0.1,0.4,0.5,0.5,1,0.6c1.4,0.4,1.3-0.6,2.1-0.7c1,0,2-0.1,3-0.1
			c0.5,0.6,1.3,0.9,2.4,0.5c0.6-0.2,1.2-0.1,1.5,0c1.3,0.3,1.5,0,1.5-0.7c0.6,0.5,0.4,1.2,1.7,1.2c1.6,0,2.1-0.7,2.8-1.2
			c0.1,0.1,0.1,0.1,0.1,0.2c0.9,0.5,1.8,0.2,2-0.3c0.5-1.2,2-1.2,3.7-1.2c-0.1,0.2-0.2,0.5-0.3,0.7c0,0,0,0,0,0
			c0,0.4,0.2,0.9,1.1,0.8c0.9-0.1,0.9-0.7,0.5-1.1c0.4-0.3,0.6-0.5,0.6-0.8c1.2,0.2,2.4,0.2,3.6-0.3c0.3-0.1,0.6-0.1,0.8,0.1
			c0.2,0.2,0.3,0.3,0.5,0.4c0,0,0,0.1,0,0.1c-0.3,0.3-0.8,0.5-0.8,0.9c-0.9,0.5-1.1,1-0.1,1.4c1.2,0.5,2.8,0.7,3.9,0.1
			c1.2-0.7,1.9-0.5,3-0.2c1.1,0.4,2.3,0,3.3-0.2c0.5-0.1,0.6-0.7,0.9-1c-0.9,0-1.6-0.6-2.5-0.2c-0.4,0.1-0.7,0.3-1.1,0.1
			c-0.4-0.2,0.1-0.4,0.2-0.6c0-0.1,0.1-0.1,0.1-0.2c0.3,0.3,1,0.1,1.3-0.1c1.9-0.9,4-1.1,6.1-1.3c0,0,0.1,0,0.1,0
			c0.3,0,0.7-0.1,1-0.1c0.6,0,1.1-0.1,1.5-0.2c0.2,0.3,0.6,0.7,0.8,1c0.2,0.4,1.2,0.2,1.8,0c0.6-0.2,0.8-0.2,1,0.1
			c0.2,0,0.5,0.1,0.7,0.1c0,0,0.1,0,0.1,0c-0.2,0.2-0.4,0.5-0.5,0.7c-0.3,0.4,0.5,0.5,1,0.5c0.9,0,1.8-0.4,2.2-0.9
			c0.8,0,1.5,0,2.3-0.1c0.1,0,0.2-0.1,0.4,0c0.7,0,1.2,0,1.7-0.1c-0.4,0.1-0.8,0.2-1.2,0.3c-0.4,0.1-1.3-0.1-1.2,0.5
			c0.1,0.5,0.6,0.7,1.4,0.7c0.3,0,0.6,0,0.7,0c0.7,0,1.1,0,1.5-0.2c0.2-0.1,0.5-0.2,0.7-0.2c0.7,0.1,1.4,0.1,2.1,0.1
			c0.6,0,1.2,0,1.6-0.2c0.4,0.5,0.8,1,2,0.3c0.6-0.3,1.1-0.3,1.7-0.4c1.3-0.3,1.4-0.8,0.5-1.4c-0.3-0.2-0.8-0.4-0.5-0.5
			c0,0,0,0,0.1,0c0.9,0.1,2.1,0.2,2.8-0.3c1.7-0.2,3.5-0.3,5.2-0.1c0.3,0.1,0.6,0.2,0.9,0.2c0.2,0.1,0.3,0.3-0.1,0.7
			c-0.1,0.1-0.2,0.2-0.3,0.4c-0.4-0.1-1-0.2-1.7-0.1c-1,0-2.1,0.1-3.1,0.1c-0.4,0-1,0-1,0.4c0,0.3,0.3,0.4,0.7,0.5
			c-0.3,0.1-0.5,0.3-0.5,0.6c0,0.3,0.1,0.6,0.7,0.6c0.2,0,1.2-0.9,1.5-1.3c0.4,0,0.7,0.1,1.1,0.2c-0.1,0.4-1.1,0.3-1.2,0.7
			c0.4,0.3,1.1,0.2,1.7,0.2c0.9,0,2.2,0.3,2.6-0.4c0.3,0.1,0.7,0,1,0c0.7-0.1,0.4-0.4,0.4-0.7c-0.2-1.8,0.1-2.1,3-1.9
			c1.9,0.1,3.8,0.2,5.7,0c-0.1,0.1-0.2,0.1-0.2,0.3c0.1,0.3,0.7,0.3,1.2,0.2c0.2,0,0.5,0,0.6,0c1.8,1.6,4.9,0.6,7.4,0.8
			c1.3,0.1,2.6,0.1,3.9,0.1c-0.2,0.1-0.5,0.2-0.7,0.4c-0.5,0.1-0.9,0.3-0.8,0.6c0.1,0.2,0.7,0.2,1.1,0.2c0.5,0,1-0.1,1.5-0.2
			c0.4-0.1,0.7-0.3,1.2-0.1c0.5,0.2,0.8-0.1,0.9-0.4c0-0.2,0-0.3-0.2-0.4c0.4,0,0.8,0,1.1,0c1.1,0,2.4-0.1,3.2-0.7
			c0.8-0.6,1.9-0.1,2.9-0.2c2.6-0.3,5.1-0.2,7.6-0.4c1.8-0.1,3.4,0.3,5,0.3c0.9,0,1.6,0.2,2.4-0.2c0.5-0.3,1.2-0.4,1.8-0.6
			c2.9,0,5.9-0.4,8.7,0.4c0,0,0.1,0,0.2,0c2.2-0.7,4.4-0.1,6.6-0.3c0.8-0.1,1.5,0,2.2,0c2.7,0.3,5.4,0.2,8.1,0.4
			c5.2,0.4,10.4,0.1,15.6,0.6c2.5,0.2,5.3,0.3,7.9,0.1c0.8,0.3,1.8,0.3,2.5,0.8l0,0c0,0.1,0.1,0.3,0.1,0.4c0.8,0.4,0,1.5,1.7,1.6
			c0,0.3,1.2,0.1,0.6,0.6c-0.3,0.3-1.2,0.6-0.5,1.1c0.6,0.4,1.7,0.5,2.2,0.2c1.8-0.8,3.4-0.2,5.1-0.2c0.3,0,0.6,0,0.9,0
			c1.6-0.1,3.1-0.5,4.8-0.2c1.6,0.3,3.1-0.4,4.7-0.4c0.9-0.3,1.9-0.6,2.8-0.8c1.7-0.5-0.1-0.8-0.7-1.3c0.8-0.1,1.4-0.2,2-0.2
			c0.7-0.1,1.3,0,1.6-0.6c0.2-0.4,1-0.3,1.5-0.3c1-0.1,1.9-0.1,2.9-0.1c0.7-0.1,1.3,0.2,2-0.1c0.4,0,0.7,0.2,1.1,0l0.2,0l0.2,0
			c0,0.1,0.1,0.1,0.1,0.2c-1.2,1-1.2,1,0.6,1.2c0,0,0,0,0,0c0.4,0.3,0.7,0.7-0.3,0.5c-0.9-0.1-1.9,0.1-2.8-0.1
			c-1.2,0.2-2.3,1-3.7,0.3c-0.2-0.1-0.6,0-0.7,0.2c-0.1,0.2,0.1,0.4,0.4,0.4c0.4,0.1,0.8,0.1,1.1,0.2c0.2,0.4-0.3,0.3-0.6,0.4
			c-0.7,0.3-1.3,0.6-0.5,1.1c0.5,0.3,0.7,1,2,0.3c1.3-0.7,3-0.3,4.5-0.3c1.4,0,2.8-0.5,4.2,0c0.5,0.2,0.9-0.6,1.3-0.9
			c0.7-0.4,1.1-1.4,2.2-0.1c0.5,0.6,1.9,1.2,3.7,1.1c1.8-0.2,3.8,0,5.6,0c2.5,0.4,5,0.4,7.5,0.1c2.2-0.2,4.4-0.2,6.5-0.4
			c2.7,0,5.3,0.2,7.9,0.5c1.2,0.1,2.4-0.2,3.7-0.2c0.7,0,1.3,0.1,2,0.3c1.4,0.4,2.6-0.4,3.9-0.4c0.9,0,1.8-0.1,2.6,0.2
			c0.7,0.3,1.3,0.1,1.6-0.3c0.6-0.9,1.5-1.8,1-2.8c-0.1-0.2,0.2-0.5-0.3-0.6c-0.5-0.1-0.5,0.2-0.7,0.4c-0.3,0.2-0.7,0.4-1,0.6
			c0,0,0,0,0,0c-0.7,0-1.6,0.1-0.8-0.6c0.6-0.5-0.1-0.7-0.6-0.9c1-0.4,2.1-0.2,3.1-0.3c0.7,0,1.4,0,2.1,0c0.7,0,1.3,0.3,1,0.6
			c-0.8,1,0.4,1,1.5,1.1c-0.9,0.4-1.6,0.5-2.5,0.6c-0.5,0-1.1,0-1,0.5v0c-0.3,0.4-0.7,0.8-0.1,1.2c0.4,0.3,1.1,0.3,1.6-0.1
			c2.1-0.2,4.2-0.3,6.1,0.5c0.5,0.2,1.2,0.3,1.5-0.1c0.4-0.8,1.2-0.4,1.9-0.3c1.5,0.2,2.9,0.7,4.2-0.4c0.2-0.2,0.9-0.2,1.3-0.1
			c1.6,0.2,2.6-0.2,3.6-1c1-0.8,3.3-1,4.7-0.6c0,0,0,0.1-0.1,0.2c-1,0.5-0.9,1.4-1.7,2c-0.6,0.5,0.2,0.5,0.7,0.4
			c1.4-0.4,2.8-0.6,4.2-0.4c0.3,0,0.5,0,0.6-0.3c0.1-0.7,0.5-0.8,1.2-0.2c0.1,0.1,0.3,0.1,0.4,0.2c1.1-1,1.7,0.1,2.5,0.1
			c1.2,0,2.4-0.5,3.6-0.2c0.4,0.2,0.8,0,1.4-0.1c-1.5-0.5-0.8-1.8,0.1-1c0.9,0.8,2.6,0.8,3.9,0.8c2-1,2,0,5.4,0.2
			c-0.4,0.4-0.5,0.7,0.3,0.9c0.6,0.1,1.4,0.2,1.9-0.2c0.4-0.3,0.1-0.5-1.5-0.7c1-0.2,1.9,0,2.8-0.2V-0.2z M106.2,75.9
			c-0.5,0.2-0.8,0.5-0.7,0.7c-0.5,0-0.9,0.1-1.2,0.4c-0.4-0.1-0.8-0.2-1.2-0.3c-0.4-0.4-1.1-0.5-1.8-0.4c-0.1,0-0.1,0-0.2,0
			c0.7-0.2,1-0.6,1.1-1.3c0,0,0.1,0,0.1,0c1.9,1.6,2.9,0,4.2-0.4c0.1,0,0.1,0,0.2-0.1c0,0,0,0,0-0.1
			C107.4,74.9,107.2,75.5,106.2,75.9z M225.1,79.4c0,0,0-0.1,0-0.1c0,0,0.1,0,0.1,0C225.1,79.4,225.1,79.4,225.1,79.4z M239.4,78.9
			c-0.1,0-0.2-0.1-0.3-0.1c-0.7-0.2-1.5-0.4-2.3-0.5c-0.8,0-1.6,0-2.3,0.1c-0.8-0.1-1.1-0.4-0.5-0.9c0.2-0.2,0.2-0.5,0.3-0.7
			c0,0,0.1,0,0.1,0c0.3,0,0.5,0,0.8,0c0.3,0,0.7,0,1,0c0.5,0.1,1,0.1,1.5,0.1c0.3,0,0.5,0.1,0.8,0.1c0.3,0.1,0.6,0.1,0.8,0.3
			c0,0,0,0.1-0.1,0.1c0,0.5,0.1,0.9,0.3,1.3C239.7,78.9,239.5,78.9,239.4,78.9z M257.7,74.4c-0.2,0-0.3,0-0.5,0c0,0,0,0,0,0
			c-1.6-0.5-2.4-0.2-3.1,1.1c0,0,0,0.1,0,0.1c-1.6,0-3.2-0.2-4.9-0.2c0,0,0,0-0.1,0c-0.2,0-0.3,0-0.4,0l0,0
			c-1.5-0.2-2.9,0.3-4.2,0.6c-0.9,0.1-1.8,0-2.7-0.1c0.2-0.7,1.3-0.7,2-1c0.1-0.1,0.3-0.1,0.5-0.2c0.1,0,0.1,0,0.2-0.1
			c0.4,0,0.8,0,1.3-0.1c0.4,0,1.1,0.2,1.1-0.3c0-0.3-0.6-0.4-1-0.5c-0.6-0.2-1.2-0.1-1.8,0c-0.3,0-0.6-0.1-0.8-0.2
			c-0.7-0.3-1.5-0.1-2.4-0.1c2.8-0.9,5.5-1,8.3-0.7c1.1,0.1,2.4,0,3.4-0.3c2.3-0.8,4.8-0.4,7.4-0.9c-0.6,0.9-0.6,1.6,0.7,1.9
			c0.1,0,0.2,0,0.3,0c0.3,0.1,0.8,0,1,0.2C260.5,74.1,258.9,73.5,257.7,74.4C257.7,74.4,257.7,74.4,257.7,74.4z M263,78.8
			C263,78.8,263,78.8,263,78.8c-1.2-0.7-2.6-0.3-3.9-0.3c-0.2,0-0.4,0-0.7,0.1c0.3-0.1,0.5-0.3,0.5-0.6c-0.1,0-0.2,0-0.3-0.1
			c0.1,0,0.1-0.1,0.2-0.1c1,0,1.2-0.3,0.9-0.7c0.1,0,0.2,0,0.3,0.1c0.9,0,1.7,0,2.5-0.1c0,0,0,0,0.1,0c-0.1,0.6,0.3,1.1,0.7,1.6
			C263.2,78.8,263.1,78.8,263,78.8z M316,74.3c-0.2,0-0.3,0.1-0.5,0.1c-0.3,0-0.5,0.1-0.7,0.1c-0.3,0.1-0.7,0.1-1,0.3
			c-0.6,0.3-1.5,0.6-2.2-0.2c-0.3-0.4-1.3-0.7-2.2-0.6c-0.5,0.1-0.7,0.3-0.8,0.6c-0.1,0.1-0.2,0.2-0.3,0.3c-1.1,1-3.1,1.3-5,0.6
			c-1.1-0.4-2-0.5-3.2,0c-0.8,0.4-1.8,0.3-2.7,0.2c-1.8-0.1-3.7,0-5.5,0.1c0,0,0.1,0,0.2-0.1c0.9-0.3,1.8-0.7,1.7-1.4
			c-0.1-0.4-1.9-0.7-3-0.4c-1,0.3-2.1,0.6-2.4,1.6c-1.8-1.6-4.2-1.7-6.9-1.5c-0.8,0-1.4,0.2-1.8,0.5c-0.1,0-0.3,0-0.4,0
			c-0.6-0.2-1.3-0.4-2.2,0c-0.1,0-0.1,0-0.2,0.1c-0.3,0-0.6,0-0.9-0.1c-0.1,0-0.3-0.1-0.4-0.1c-0.7-0.2-1.5-0.4-2.2-0.2
			c0,0-0.1,0-0.1,0c-0.3,0-0.5,0.1-0.8,0.2c-1.2,0.3-2.4,0.3-3.6-0.1c-1.5-0.1-1,0.4-0.6,0.9c-0.3,0.3-1.3,0.3-1.1,0.9
			c-0.4,0.1-0.7,0.1-1-0.1c-0.2-0.2-0.6-0.2-0.9-0.2c-1.4,0.1-2.6,0.2-2.6-1c-1.4,0.7-2.7,0.5-4-0.1c0.4,0,0.8,0,1.2,0
			c1.1,0.3,2.1,0.4,2.5-0.6c-0.1-0.1-0.3-0.3-0.4-0.4c0.9-0.2,1.8-0.3,2.7-0.4c0.7,0,1.4,0,2.1,0c0.8,0,1.5,0,2.3,0
			c0.1,0,0.3,0,0.4,0c0.2,0,0.4,0,0.7-0.1c0.4,0,0.8-0.1,1.1-0.3c0.1,0,0.2-0.1,0.3-0.1c1.3-0.6,2.6-1.1,4.1-1.5
			c0.7-0.2,1.3-0.2,2,0c0.3,0.2,0.5,0.3,0.8,0.5c0.1,0.1,0.1,0.2,0.2,0.3c0.3,0.6,0.5,0.7,1.3,0.1c0.1,0,0.1-0.1,0.2-0.1
			c0.2,0,0.5-0.1,0.8-0.2c0.2-0.1,0.5,0,0.6,0.1c0.1,0.1,0.2,0.3,0.2,0.5c0,0.3,0.2,0.5,0.6,0.6c0.6,0.1,1-0.1,1.3-0.4
			c0.1-0.2,0.3-0.3,0.4-0.4c0.2-0.1,0.5-0.2,0.7-0.2c0.2,0.1,0.3,0.3,0.5,0.7c0.1,0.3,0.5,0.9,1.2,0.7c0.6-0.1,0.3-0.6,0.2-0.9
			c-0.1-0.2-0.1-0.4,0-0.6c0.2,0,0.3,0,0.5,0.1c0.7,1.3,0.8,1.3,2.8,0.7c0.2-0.1,0.4-0.1,0.6-0.1c1.4,0.4,2.6,0,3.7-0.5
			c0.6-0.3,1.2-0.4,2-0.3c0.8,0.1,1.5,0,2.2-0.2c0.7-0.2,1.3-0.2,2,0c1.2,0.4,2.3,0.4,3.4-0.2c0.6-0.3,1.3-0.4,1.9-0.1
			c1.6,0.7,3.5,0.6,5.1,0.2c1.9-0.5,3.4-0.4,4.9,0.3c0.3,0.2,0.1,0.3-0.1,0.3c-0.9,0-1.5,0.3-2.1,0.6c0,0.2,0.2,0.3,0.3,0.4
			c-0.3-0.1-0.3-0.3-0.3-0.4c-0.4,0-0.9-0.1-0.9,0.3c0,0.3,0.3,0.5,0.9,0.6c1,0.1,1.9,0.2,2.8,0.3c0,0,0,0,0,0c0,0,0,0,0,0
			c0,0.1,0,0.2,0,0.3C316.2,74.2,316.1,74.3,316,74.3z"/>
	</g>
</g>
</svg>
