<?xml version="1.0" encoding="utf-8"?>
<!-- Generator: Adobe Illustrator 24.0.1, SVG Export Plug-In . SVG Version: 6.00 Build 0)  -->
<svg version="1.1" id="Ebene_1" xmlns="http://www.w3.org/2000/svg" xmlns:xlink="http://www.w3.org/1999/xlink" x="0px" y="0px"
	 viewBox="0 0 360 13.6" style="enable-background:new 0 0 360 13.6;" xml:space="preserve">
<style type="text/css">
	.st0{clip-path:url(#SVGID_2_);}
	.st1{fill:#FCBA00;}
	.st2{fill:#FFBC00;}
	.st3{fill:#FFA700;}
</style>
<g>
	<path class="st2" d="M40.3,10.4c0.9,0.1,1.2-0.3,1.7-0.6c0.2-0.1,0.5-0.1,0.8-0.1c0.3,0,0.3,0.2,0.3,0.3c-0.1,0.8-1.6,1.7-3.2,1.7
		c-0.3-0.2-1.4,0.5-1.3-0.2C38.6,11.1,38.4,10.2,40.3,10.4z"/>
	<path class="st2" d="M181.1,9.5c0.8-0.2,1.7-0.3,2.5-0.3c2.3,0.2,4.6,0.1,6.9-0.3c0.6-0.1,0.9,0,1.4,0.1c1.5,0.5,2.8,1.3,4.8,1.4
		c0.7,0,1.2,0.1,1.8-0.2c1.5-0.8,2.9-0.8,4.5,0c1.8,0.9,3.3,1,5,0c1.9-1,3.9-1.2,6.2-0.9c0.7,0.1,1.6,0,1.7,0.7
		c0.5,0.1,0.6,0.8,1.4,0.4c0.1-0.7,1.7-0.3,1.9-0.9c0.1-0.2,0.4-0.3,0.7-0.2c0.4,0.2,0.2,0.5,0,0.6c-0.8,0.3-1.1,0.8-1.7,1.2
		c-0.2,0.1-0.4,0.4-0.2,0.5c0.2,0.1,0.6,0.1,1,0.1c0.4,0,0.5-0.3,0.8-0.4c0.3-0.1,0.6-0.3,0.9-0.1c0.3,0.2,0.3,0.4,0.2,0.6
		c-0.2,0.5-0.9,0.5-1.5,0.6c-1.2,0.1-2.1-0.5-3.2-0.6c-2.1,0-4.1,0.8-6.2,0.4c-1.5,0.1-3,0.1-4.5-0.1c-2.2-0.3-4.6,0.2-6.6-0.7
		c0,0-0.1,0-0.2,0c-2.4,0.2-4.9,0.3-7.3,0c-1-0.1-1.7-0.8-2.9-0.5c-0.9,0.2-1.4,0-2-0.5c-0.6-0.6-1.2-0.5-1.5,0.2
		c-0.1,0.2-0.4,0.3-0.7,0.3c-0.9,0-1.7,0.1-2.6,0c-0.4,0-1.2,0.1-1.2-0.4C180.3,10.2,180.2,9.8,181.1,9.5z"/>
	<path class="st2" d="M152.2,9c2.9-0.1,5.8-0.9,8.8-0.4c1.8,0.3,3.9-0.3,5.3,0.4c0.9-0.1,1.5-0.2,1.9,0.2c0.2,0.2,0,0.3-0.3,0.5
		c-1.5,0.9-3,1.7-5.2,0.9c-0.3-0.1-0.8,0-1.2,0c-3.1,0.2-6.2-0.3-9.4-0.1c-0.6,0-1.5,0-1.5-0.5C150.8,9.4,151.6,9.1,152.2,9z"/>
	<path class="st2" d="M318,5.8c0-0.2,0-0.3,0.2-0.4c-0.7,0-1.3,0.3-1.8,0.6C316.9,5.8,317.5,5.7,318,5.8z"/>
	<path class="st2" d="M266.5,10C266.5,10,266.5,10.1,266.5,10c0.1,0,0.2,0,0.2,0C266.6,10,266.5,10,266.5,10
		C266.5,10,266.5,10,266.5,10C266.5,10,266.5,10,266.5,10z"/>
	<path class="st2" d="M265.5,13.3C265.6,13.3,265.6,13.3,265.5,13.3C265.6,13.2,265.5,13.2,265.5,13.3
		C265.5,13.2,265.5,13.3,265.5,13.3z"/>
	<path class="st2" d="M256.6,7.5c0.1,0,0.1-0.1,0.1-0.1c-0.1,0.1-0.2,0.1-0.4,0.1C256.4,7.5,256.5,7.5,256.6,7.5z"/>
	<polygon class="st2" points="223.3,11 223.3,11 223.3,11 	"/>
	<path class="st2" d="M222.6,5.6c0-0.1,0.1-0.2,0.1-0.3C222.6,5.4,222.5,5.5,222.6,5.6z"/>
	<path class="st2" d="M4.4,10.1C4.4,10.1,4.5,10.1,4.4,10.1C4.5,10.1,4.5,10.1,4.4,10.1C4.4,10.1,4.4,10.1,4.4,10.1z"/>
	<path class="st2" d="M74.3,7.3c-0.6,0-0.7,0.4-0.8,0.8c0.4-0.2,0.8-0.5,1.1-0.7C74.6,7.3,74.5,7.3,74.3,7.3z"/>
	<path class="st2" d="M135.2,6.7c0,0-0.1-0.1-0.1-0.1c-0.6-0.1-1.2-0.1-1.8,0.1c-0.3,0.1-0.6,0.1-0.9,0.2
		C133.3,6.9,134.3,7,135.2,6.7z"/>
	<path class="st2" d="M21.9,7.8c-0.2-0.1-0.4-0.1-0.5-0.2C21.5,7.7,21.6,7.8,21.9,7.8z"/>
	<path class="st2" d="M4.5,10.2c0.3,0.3-0.1,0.6-0.3,1C4.7,10.8,4.8,10.5,4.5,10.2z"/>
	<path class="st2" d="M87.7,8.2c0.4,0,1.5-0.1,1.5,0.4c0,0.5-1,0.9-1.8,1c-0.6,0.1-1.2-0.1-1.1-0.6C86.3,8.6,86.5,8.1,87.7,8.2z"/>
	<path class="st2" d="M172.9,9.2c0.5-0.1,1.3,0.1,1.2,0.5c0,0.6-0.9,0.3-1.4,0.4c-0.5-0.2-1.5,0.3-1.5-0.3
		C171.2,9.3,172.3,9.3,172.9,9.2z"/>
	<path class="st2" d="M353.9,13.2c0.1,0.4-0.5,0.3-0.9,0.4c-0.2-0.1-0.7,0-0.6-0.3c0.1-0.2,0.3-0.4,0.7-0.4
		C353.5,12.9,353.9,13,353.9,13.2z"/>
	<polygon class="st2" points="316.2,6.1 316.2,6.1 316.2,6.1 	"/>
	<path class="st2" d="M360,0H0v11c0.2,0,0.4,0,0.7,0c1.7,0.1,3.3,0.3,5,0.2c0.7,0,1.4,0.1,1.9-0.3c0.5-0.2,1.1-0.3,1.6-0.5
		c0.7-0.6,1.4-0.9,2.8-0.6c0.4,0.1,0.8,0,1-0.2c1.3-0.5,2.2-1.2,4-1.3c0.5,0,0.7-0.3,0.6-0.6c0.7-0.5,0.9,0.2,1.4,0.1c0,0,0,0,0,0
		c1.3,0.2,2.6,0.6,4.1,0.1c0.3,0,0.5,0,0.8,0c0.7,0,1.4,0,2.2-0.1c-0.1,0.4-0.3,0.8-0.4,1.2c0,0.4-0.3,0.9,0.9,0.8
		c1,0,1.3-0.5,1.8-0.8c0.8-0.6,1.4-1.3,3.2-0.9c0.5,0.1,1.3-0.1,1.9-0.3c0.8-0.3,1.3-0.8,2.1,0.1c0.4,0.5,1.4,0,1.6-0.6
		c0-0.2,0-0.3,0.1-0.5C37.5,7,37.9,7.2,38.4,7c2.4,0.7,4.6,0.5,6.5-0.6c0.2,0,0.3,0,0.5,0c0.3,0,0.6,0.1,0.9,0.1
		c0.4,0.3,1.1,0,1.6,0.1h0c1,0,2.1-0.1,3.2-0.1c0.5,0,1,0,1.4,0c-1,0.9-2.9,1.2-3.8,2c-0.3,0.3-1.1-0.1-1.6-0.1
		c-0.9-0.7-1.8,0.1-2.7,0.1c-0.5,0-0.7,0.4-0.8,0.7c-0.1,0.4,0.5,0.5,1,0.6c1.4,0.4,1.3-0.6,2.1-0.7c1,0,2-0.1,3-0.1
		c0.5,0.6,1.3,0.9,2.4,0.5c0.6-0.2,1.2-0.1,1.5,0c1.3,0.3,1.5,0,1.5-0.7c0.6,0.5,0.4,1.2,1.7,1.2c1.6,0,2.1-0.7,2.8-1.2
		c0.1,0.1,0.1,0.1,0.1,0.2c0.9,0.5,1.8,0.2,2-0.3c0.5-1.2,2-1.2,3.7-1.2c-0.1,0.2-0.2,0.5-0.3,0.7c0,0,0,0,0,0
		c0,0.4,0.2,0.9,1.1,0.8c0.9-0.1,0.9-0.7,0.5-1.1c0.4-0.3,0.6-0.5,0.6-0.8c1.2,0.2,2.4,0.2,3.6-0.3c0.3-0.1,0.6-0.1,0.8,0.1
		c0.2,0.2,0.3,0.3,0.5,0.4c0,0,0,0.1,0,0.1C72,7.8,71.4,8,71.5,8.3c-0.9,0.5-1.1,1-0.1,1.4c1.2,0.5,2.8,0.7,3.9,0.1
		c1.2-0.7,1.9-0.5,3-0.2c1.1,0.4,2.3,0,3.3-0.2c0.5-0.1,0.6-0.7,0.9-1c-0.9,0-1.6-0.6-2.5-0.2c-0.4,0.1-0.7,0.3-1.1,0.1
		C78.5,8,79,7.8,79.1,7.6c0-0.1,0.1-0.1,0.1-0.2c0.3,0.3,1,0.1,1.3-0.1c1.9-0.9,4-1.1,6.1-1.3c0,0,0.1,0,0.1,0c0.3,0,0.7-0.1,1-0.1
		c0.6,0,1.1-0.1,1.5-0.2c0.2,0.3,0.6,0.7,0.8,1c0.2,0.4,1.2,0.2,1.8,0c0.6-0.2,0.8-0.2,1,0.1C93,7,93.2,7,93.5,7c0,0,0.1,0,0.1,0
		c-0.2,0.2-0.4,0.5-0.5,0.7c-0.3,0.4,0.5,0.5,1,0.5c0.9,0,1.8-0.4,2.2-0.9c0.8,0,1.5,0,2.3-0.1c0.1,0,0.2-0.1,0.4,0
		c0.7,0,1.2,0,1.7-0.1c-0.4,0.1-0.8,0.2-1.2,0.3C99,7.6,98.1,7.4,98.3,8c0.1,0.5,0.6,0.7,1.4,0.7c0.3,0,0.6,0,0.7,0
		c0.7,0,1.1,0,1.5-0.2c0.2-0.1,0.5-0.2,0.7-0.2c0.7,0.1,1.4,0.1,2.1,0.1c0.6,0,1.2,0,1.6-0.2c0.4,0.5,0.8,1,2,0.3
		c0.6-0.3,1.1-0.3,1.7-0.4c1.3-0.3,1.4-0.8,0.5-1.4c-0.3-0.2-0.8-0.4-0.5-0.5c0,0,0,0,0.1,0c0.9,0.1,2.1,0.2,2.8-0.3
		c1.7-0.2,3.5-0.3,5.2-0.1c0.3,0.1,0.6,0.2,0.9,0.2c0.2,0.1,0.3,0.3-0.1,0.7c-0.1,0.1-0.2,0.2-0.3,0.4c-0.4-0.1-1-0.2-1.7-0.1
		c-1,0-2.1,0.1-3.1,0.1c-0.4,0-1,0-1,0.4c0,0.3,0.3,0.4,0.7,0.5c-0.3,0.1-0.5,0.3-0.5,0.6c0,0.3,0.1,0.6,0.7,0.6
		c0.2,0,1.2-0.9,1.5-1.3c0.4,0,0.7,0.1,1.1,0.2c-0.1,0.4-1.1,0.3-1.2,0.7c0.4,0.3,1.1,0.2,1.7,0.2c0.9,0,2.2,0.3,2.6-0.4
		c0.3,0.1,0.7,0,1,0c0.7-0.1,0.4-0.4,0.4-0.7c-0.2-1.8,0.1-2.1,3-1.9c1.9,0.1,3.8,0.2,5.7,0c-0.1,0.1-0.2,0.1-0.2,0.3
		c0.1,0.3,0.7,0.3,1.2,0.2c0.2,0,0.5,0,0.6,0c1.8,1.6,4.9,0.6,7.4,0.8c1.3,0.1,2.6,0.1,3.9,0.1c-0.2,0.1-0.5,0.2-0.7,0.4
		c-0.5,0.1-0.9,0.3-0.8,0.6c0.1,0.2,0.7,0.2,1.1,0.2c0.5,0,1-0.1,1.5-0.2c0.4-0.1,0.7-0.3,1.2-0.1c0.5,0.2,0.8-0.1,0.9-0.4
		c0-0.2,0-0.3-0.2-0.4c0.4,0,0.8,0,1.1,0c1.1,0,2.4-0.1,3.2-0.7c0.8-0.6,1.9-0.1,2.9-0.2c2.6-0.3,5.1-0.2,7.6-0.4
		c1.8-0.1,3.4,0.3,5,0.3c0.9,0,1.6,0.2,2.4-0.2c0.5-0.3,1.2-0.4,1.8-0.6c2.9,0,5.9-0.4,8.7,0.4c0,0,0.1,0,0.2,0
		c2.2-0.7,4.4-0.1,6.6-0.3c0.8-0.1,1.5,0,2.2,0c2.7,0.3,5.4,0.2,8.1,0.4c5.2,0.4,10.4,0.1,15.6,0.6c2.5,0.2,5.3,0.3,7.9,0.1
		c0.8,0.3,1.8,0.3,2.5,0.8l0,0c0,0.1,0.1,0.3,0.1,0.4c0.8,0.4,0,1.5,1.7,1.6c0,0.3,1.2,0.1,0.6,0.6c-0.3,0.3-1.2,0.6-0.5,1.1
		c0.6,0.4,1.7,0.5,2.2,0.2c1.8-0.8,3.4-0.2,5.1-0.2c0.3,0,0.6,0,0.9,0c1.6-0.1,3.1-0.5,4.8-0.2c1.6,0.3,3.1-0.4,4.7-0.4
		c0.9-0.3,1.9-0.6,2.8-0.8c1.7-0.5-0.1-0.8-0.7-1.3c0.8-0.1,1.4-0.2,2-0.2c0.7-0.1,1.3,0,1.6-0.6c0.2-0.4,1-0.3,1.5-0.3
		c1-0.1,1.9-0.1,2.9-0.1c0.7-0.1,1.3,0.2,2-0.1c0.4,0,0.7,0.2,1.1,0l0.2,0l0.2,0c0,0.1,0.1,0.1,0.1,0.2c-1.2,1-1.2,1,0.6,1.2
		c0,0,0,0,0,0c0.4,0.3,0.7,0.7-0.3,0.5c-0.9-0.1-1.9,0.1-2.8-0.1c-1.2,0.2-2.3,1-3.7,0.3c-0.2-0.1-0.6,0-0.7,0.2
		c-0.1,0.2,0.1,0.4,0.4,0.4c0.4,0.1,0.8,0.1,1.1,0.2c0.2,0.4-0.3,0.3-0.6,0.4c-0.7,0.3-1.3,0.6-0.5,1.1c0.5,0.3,0.7,1,2,0.3
		c1.3-0.7,3-0.3,4.5-0.3c1.4,0,2.8-0.5,4.2,0c0.5,0.2,0.9-0.6,1.3-0.9c0.7-0.4,1.1-1.4,2.2-0.1c0.5,0.6,1.9,1.2,3.7,1.1
		c1.8-0.2,3.8,0,5.6,0c2.5,0.4,5,0.4,7.5,0.1c2.2-0.2,4.4-0.2,6.5-0.4c2.7,0,5.3,0.2,7.9,0.5c1.2,0.1,2.4-0.2,3.7-0.2
		c0.7,0,1.3,0.1,2,0.3c1.4,0.4,2.6-0.4,3.9-0.4c0.9,0,1.8-0.1,2.6,0.2c0.7,0.3,1.3,0.1,1.6-0.3c0.6-0.9,1.5-1.8,1-2.8
		c-0.1-0.2,0.2-0.5-0.3-0.6c-0.5-0.1-0.5,0.2-0.7,0.4c-0.3,0.2-0.7,0.4-1,0.6c0,0,0,0,0,0c-0.7,0-1.6,0.1-0.8-0.6
		c0.6-0.5-0.1-0.7-0.6-0.9c1-0.4,2.1-0.2,3.1-0.3c0.7,0,1.4,0,2.1,0c0.7,0,1.3,0.3,1,0.6c-0.8,1,0.4,1,1.5,1.1
		c-0.9,0.4-1.6,0.5-2.5,0.6c-0.5,0-1.1,0-1,0.5v0c-0.3,0.4-0.7,0.8-0.1,1.2c0.4,0.3,1.1,0.3,1.6-0.1c2.1-0.2,4.2-0.3,6.1,0.5
		c0.5,0.2,1.2,0.3,1.5-0.1c0.4-0.8,1.2-0.4,1.9-0.3c1.5,0.2,2.9,0.7,4.2-0.4c0.2-0.2,0.9-0.2,1.3-0.1c1.6,0.2,2.6-0.2,3.6-1
		c1-0.8,3.3-1,4.7-0.6c0,0,0,0.1-0.1,0.2c-1,0.5-0.9,1.4-1.7,2c-0.6,0.5,0.2,0.5,0.7,0.4c1.4-0.4,2.8-0.6,4.2-0.4
		c0.3,0,0.5,0,0.6-0.3c0.1-0.7,0.5-0.8,1.2-0.2c0.1,0.1,0.3,0.1,0.4,0.2c1.1-1,1.7,0.1,2.5,0.1c1.2,0,2.4-0.5,3.6-0.2
		c0.4,0.2,0.8,0,1.4-0.1c-1.5-0.5-0.8-1.8,0.1-1C348,11,349.7,11,351,11c2-1,2,0,5.4,0.2c-0.4,0.4-0.5,0.7,0.3,0.9
		c0.6,0.1,1.4,0.2,1.9-0.2c0.4-0.3,0.1-0.5-1.5-0.7c1-0.2,1.9,0,2.8-0.2V0z M106.1,8.1c-0.5,0.2-0.8,0.5-0.7,0.7
		c-0.5,0-0.9,0.1-1.2,0.4c-0.4-0.1-0.8-0.2-1.2-0.3c-0.4-0.4-1.1-0.5-1.8-0.4c-0.1,0-0.1,0-0.2,0c0.7-0.2,1-0.6,1.1-1.3
		c0,0,0.1,0,0.1,0c1.9,1.6,2.9,0,4.2-0.4c0.1,0,0.1,0,0.2-0.1c0,0,0,0,0-0.1C107.2,7,107.1,7.6,106.1,8.1z M224.9,11.6
		c0,0,0-0.1,0-0.1c0,0,0.1,0,0.1,0C225,11.5,225,11.6,224.9,11.6z M239.3,11.1c-0.1,0-0.2-0.1-0.3-0.1c-0.7-0.2-1.5-0.4-2.3-0.5
		c-0.8,0-1.6,0-2.3,0.1c-0.8-0.1-1.1-0.4-0.5-0.9c0.2-0.2,0.2-0.5,0.3-0.7c0,0,0.1,0,0.1,0c0.3,0,0.5,0,0.8,0c0.3,0,0.7,0,1,0
		c0.5,0.1,1,0.1,1.5,0.1c0.3,0,0.5,0.1,0.8,0.1c0.3,0.1,0.6,0.1,0.8,0.3c0,0,0,0.1-0.1,0.1c0,0.5,0.1,0.9,0.3,1.3
		C239.5,11,239.4,11.1,239.3,11.1z M257.5,6.5c-0.2,0-0.3,0-0.5,0c0,0,0,0,0,0c-1.6-0.5-2.4-0.2-3.1,1.1c0,0,0,0.1,0,0.1
		c-1.6,0-3.2-0.2-4.9-0.2c0,0,0,0-0.1,0c-0.2,0-0.3,0-0.4,0l0,0c-1.5-0.2-2.9,0.3-4.2,0.6c-0.9,0.1-1.8,0-2.7-0.1
		c0.2-0.7,1.3-0.7,2-1c0.1-0.1,0.3-0.1,0.5-0.2c0.1,0,0.1,0,0.2-0.1c0.4,0,0.8,0,1.3-0.1c0.4,0,1.1,0.2,1.1-0.3c0-0.3-0.6-0.4-1-0.5
		c-0.6-0.2-1.2-0.1-1.8,0c-0.3,0-0.6-0.1-0.8-0.2c-0.7-0.3-1.5-0.1-2.4-0.1c2.8-0.9,5.5-1,8.3-0.7c1.1,0.1,2.4,0,3.4-0.3
		c2.3-0.8,4.8-0.4,7.4-0.9c-0.6,0.9-0.6,1.6,0.7,1.9c0.1,0,0.2,0,0.3,0c0.3,0.1,0.8,0,1,0.2C260.4,6.2,258.7,5.6,257.5,6.5
		C257.5,6.5,257.5,6.5,257.5,6.5z M262.9,10.9C262.9,10.9,262.8,10.9,262.9,10.9c-1.2-0.7-2.6-0.3-3.9-0.3c-0.2,0-0.4,0-0.7,0.1
		c0.3-0.1,0.5-0.3,0.5-0.6c-0.1,0-0.2,0-0.3-0.1c0.1,0,0.1-0.1,0.2-0.1c1,0,1.2-0.3,0.9-0.7c0.1,0,0.2,0,0.3,0.1
		c0.9,0,1.7,0,2.5-0.1c0,0,0,0,0.1,0c-0.1,0.6,0.3,1.1,0.7,1.6C263.1,10.9,263,10.9,262.9,10.9z M315.9,6.4c-0.2,0-0.3,0.1-0.5,0.1
		c-0.3,0-0.5,0.1-0.7,0.1c-0.3,0.1-0.7,0.1-1,0.3c-0.6,0.3-1.5,0.6-2.2-0.2c-0.3-0.4-1.3-0.7-2.2-0.6c-0.5,0.1-0.7,0.3-0.8,0.6
		c-0.1,0.1-0.2,0.2-0.3,0.3c-1.1,1-3.1,1.3-5,0.6c-1.1-0.4-2-0.5-3.2,0c-0.8,0.4-1.8,0.3-2.7,0.2c-1.8-0.1-3.7,0-5.5,0.1
		c0,0,0.1,0,0.2-0.1c0.9-0.3,1.8-0.7,1.7-1.4c-0.1-0.4-1.9-0.7-3-0.4c-1,0.3-2.1,0.6-2.4,1.6c-1.8-1.6-4.2-1.7-6.9-1.5
		c-0.8,0-1.4,0.2-1.8,0.5c-0.1,0-0.3,0-0.4,0c-0.6-0.2-1.3-0.4-2.2,0c-0.1,0-0.1,0-0.2,0.1c-0.3,0-0.6,0-0.9-0.1
		c-0.1,0-0.3-0.1-0.4-0.1c-0.7-0.2-1.5-0.4-2.2-0.2c0,0-0.1,0-0.1,0c-0.3,0-0.5,0.1-0.8,0.2C271.2,7,270,7,268.8,6.6
		c-1.5-0.1-1,0.4-0.6,0.9c-0.3,0.3-1.3,0.3-1.1,0.9c-0.4,0.1-0.7,0.1-1-0.1c-0.2-0.2-0.6-0.2-0.9-0.2c-1.4,0.1-2.6,0.2-2.6-1
		c-1.4,0.7-2.7,0.5-4-0.1c0.4,0,0.8,0,1.2,0c1.1,0.3,2.1,0.4,2.5-0.6c-0.1-0.1-0.3-0.3-0.4-0.4c0.9-0.2,1.8-0.3,2.7-0.4
		c0.7,0,1.4,0,2.1,0c0.8,0,1.5,0,2.3,0c0.1,0,0.3,0,0.4,0c0.2,0,0.4,0,0.7-0.1c0.4,0,0.8-0.1,1.1-0.3c0.1,0,0.2-0.1,0.3-0.1
		c1.3-0.6,2.6-1.1,4.1-1.5c0.7-0.2,1.3-0.2,2,0c0.3,0.2,0.5,0.3,0.8,0.5c0.1,0.1,0.1,0.2,0.2,0.3c0.3,0.6,0.5,0.7,1.3,0.1
		c0.1,0,0.1-0.1,0.2-0.1c0.2,0,0.5-0.1,0.8-0.2c0.2-0.1,0.5,0,0.6,0.1c0.1,0.1,0.2,0.3,0.2,0.5c0,0.3,0.2,0.5,0.6,0.6
		c0.6,0.1,1-0.1,1.3-0.4c0.1-0.2,0.3-0.3,0.4-0.4c0.2-0.1,0.5-0.2,0.7-0.2c0.2,0.1,0.3,0.3,0.5,0.7c0.1,0.3,0.5,0.9,1.2,0.7
		c0.6-0.1,0.3-0.6,0.2-0.9c-0.1-0.2-0.1-0.4,0-0.6c0.2,0,0.3,0,0.5,0.1c0.7,1.3,0.8,1.3,2.8,0.7c0.2-0.1,0.4-0.1,0.6-0.1
		c1.4,0.4,2.6,0,3.7-0.5c0.6-0.3,1.2-0.4,2-0.3c0.8,0.1,1.5,0,2.2-0.2c0.7-0.2,1.3-0.2,2,0c1.2,0.4,2.3,0.4,3.4-0.2
		c0.6-0.3,1.3-0.4,1.9-0.1c1.6,0.7,3.5,0.6,5.1,0.2c1.9-0.5,3.4-0.4,4.9,0.3c0.3,0.2,0.1,0.3-0.1,0.3c-0.9,0-1.5,0.3-2.1,0.6
		c0,0.2,0.2,0.3,0.3,0.4c-0.3-0.1-0.3-0.3-0.3-0.4c-0.4,0-0.9-0.1-0.9,0.3c0,0.3,0.3,0.5,0.9,0.6c1,0.1,1.9,0.2,2.8,0.3c0,0,0,0,0,0
		c0,0,0,0,0,0c0,0.1,0,0.2,0,0.3C316.1,6.4,316,6.4,315.9,6.4z"/>
</g>
</svg>
