<?xml version="1.0" encoding="utf-8"?>
<!-- Generator: Adobe Illustrator 24.0.1, SVG Export Plug-In . SVG Version: 6.00 Build 0)  -->
<svg version="1.1" id="ic_settings_24px" xmlns="http://www.w3.org/2000/svg" xmlns:xlink="http://www.w3.org/1999/xlink" x="0px"
	 y="0px" viewBox="0 0 24 24" style="enable-background:new 0 0 24 24;" xml:space="preserve">
<style type="text/css">
	.st0{fill:none;}
	.st1{fill:#FFFFFF;}
</style>
<path id="Pfad_1076" class="st0" d="M0,0h24v24H0V0z"/>
<g>
	<path class="st1" d="M15.2,17.7c-0.9,0-1.6,0.7-1.6,1.6s0.7,1.6,1.6,1.6s1.6-0.7,1.6-1.6S16.1,17.7,15.2,17.7z"/>
	<path class="st1" d="M8.2,17.7c-0.9,0-1.6,0.7-1.6,1.6s0.7,1.6,1.6,1.6s1.6-0.7,1.6-1.6S9.1,17.7,8.2,17.7z"/>
	<path class="st1" d="M20.2,5.8C20.2,5.7,20.2,5.7,20.2,5.8c-0.2-0.2-0.4-0.3-0.7-0.3H7L6.6,4.1C6.6,3.8,6.3,3.6,5.9,3.6H3.7
		c-0.4,0-0.8,0.3-0.8,0.8s0.3,0.8,0.8,0.8h1.7l2.3,7.4l-1,2.8c-0.1,0.2-0.1,0.5,0.1,0.7s0.4,0.3,0.6,0.3h9.1c0.4,0,0.8-0.3,0.8-0.8
		s-0.3-0.8-0.8-0.8h-8l0.5-1.3h7.5c0,0,0,0,0,0c0.2,0,0.5-0.1,0.7-0.2c0.2-0.1,0.4-0.2,0.6-0.4c0.1-0.1,0.1-0.2,0.2-0.3
		c0-0.1,0.1-0.1,0.1-0.2l2.3-5.9C20.4,6.2,20.4,5.9,20.2,5.8z M16.5,11.8c0,0.1-0.1,0.1-0.2,0.1H9.1L7.5,6.9h11L16.5,11.8z"/>
</g>
</svg>
