<svg xmlns="http://www.w3.org/2000/svg" width="88.188" height="88.188" viewBox="0 0 88.188 88.188">
  <g id="Gruppe_13906" data-name="Gruppe 13906" transform="translate(-136 -320)">
    <g id="Gruppe_8173" data-name="Gruppe 8173" transform="translate(0 165)">
      <g id="Gruppe_8172" data-name="Gruppe 8172" transform="translate(0 -3)">
        <g id="Pfad_4179" data-name="Pfad 4179" transform="translate(136 158)" fill="none">
          <path d="M44.094,0A44.094,44.094,0,1,1,0,44.094,44.094,44.094,0,0,1,44.094,0Z" stroke="none"/>
          <path d="M 44.09423828125 1.999992370605469 C 38.41066360473633 1.999992370605469 32.89817047119141 3.1126708984375 27.70987701416016 5.307144165039062 C 22.69755554199219 7.427169799804688 18.19562530517578 10.46259307861328 14.32911682128906 14.3291015625 C 10.46260833740234 18.19561004638672 7.42718505859375 22.69754028320312 5.307144165039062 27.70986175537109 C 3.112693786621094 32.89815521240234 2 38.41064834594727 2 44.09420776367188 C 2 49.77776718139648 3.112693786621094 55.29026031494141 5.307144165039062 60.47855377197266 C 7.42718505859375 65.49085998535156 10.46260833740234 69.9927978515625 14.32911682128906 73.85929870605469 C 18.19562530517578 77.72580718994141 22.69755554199219 80.76123046875 27.70987701416016 82.88126373291016 C 32.89817047119141 85.07572937011719 38.41066360473633 86.18840789794922 44.09423828125 86.18840789794922 C 49.77781295776367 86.18840789794922 55.29030609130859 85.07572937011719 60.47859954833984 82.88126373291016 C 65.49092102050781 80.76123046875 69.99285125732422 77.72580718994141 73.85935974121094 73.85929870605469 C 77.72586822509766 69.9927978515625 80.76129150390625 65.49085998535156 82.88133239746094 60.47855377197266 C 85.07578277587891 55.29026031494141 86.1884765625 49.77776718139648 86.1884765625 44.09420776367188 C 86.1884765625 38.41064834594727 85.07578277587891 32.89815521240234 82.88133239746094 27.70986175537109 C 80.76129150390625 22.69754028320312 77.72586822509766 18.19561004638672 73.85935974121094 14.3291015625 C 69.99285125732422 10.46259307861328 65.49092102050781 7.427169799804688 60.47859954833984 5.307144165039062 C 55.29030609130859 3.1126708984375 49.77781295776367 1.999992370605469 44.09423828125 1.999992370605469 M 44.09423828125 -7.62939453125e-06 C 68.44680786132812 -7.62939453125e-06 88.1884765625 19.74164581298828 88.1884765625 44.09420776367188 C 88.1884765625 68.44676971435547 68.44680786132812 88.18840789794922 44.09423828125 88.18840789794922 C 19.74166870117188 88.18840789794922 0 68.44676971435547 0 44.09420776367188 C 0 19.74164581298828 19.74166870117188 -7.62939453125e-06 44.09423828125 -7.62939453125e-06 Z" stroke="none" fill="#8e8e8e"/>
        </g>
      </g>
    </g>
    <path id="Pfad_12945" data-name="Pfad 12945" d="M180.094,332.99v25.9" transform="translate(0 15)" fill="none" stroke="#8e8e8e" stroke-linecap="round" stroke-width="2"/>
    <circle id="Ellipse_2117" data-name="Ellipse 2117" cx="1.1" cy="1.1" r="1.1" transform="translate(179 378)" fill="#8e8e8e"/>
  </g>
</svg>
