<?xml version="1.0" encoding="utf-8"?>
<!-- Generator: Adobe Illustrator 24.3.0, SVG Export Plug-In . SVG Version: 6.00 Build 0)  -->
<svg version="1.1" id="Ebene_1" xmlns="http://www.w3.org/2000/svg" xmlns:xlink="http://www.w3.org/1999/xlink" x="0px" y="0px"
	 viewBox="0 0 302 152" style="enable-background:new 0 0 302 152;" xml:space="preserve">
<style type="text/css">
	.st0{clip-path:url(#SVGID_2_);}
	.st1{fill:#F4F4F4;}
	.st2{opacity:0.52;}
	.st3{fill:none;stroke:#DFDFDF;stroke-width:2;stroke-linecap:round;stroke-linejoin:round;stroke-miterlimit:10;}
	.st4{fill:#DFDFDF;}
</style>
<g>
	<defs>
		<rect id="SVGID_1_" x="0" y="0" width="302" height="152"/>
	</defs>
	<clipPath id="SVGID_2_">
		<use xlink:href="#SVGID_1_"  style="overflow:visible;"/>
	</clipPath>
	<g class="st0">
		<rect id="Rechteck_3723_1_" x="-63.4" y="-5.1" class="st1" width="372.2" height="162.2"/>
		<g class="st2">
			<g>
				<g>
					<g>
						<g>
							<path id="Icon-32_2_" class="st3" d="M-155.7-4.5c-1.7-3.8-5.4-6.3-9.6-6.4c-5.2-0.1-9.5,4-9.6,9.2c0,0.1,0,0.2,0,0.3
								c0,7.5,8.1,13.4,19.2,24.5c11.1-11.1,19.2-17.1,19.2-24.5c0.1-5.2-4-9.5-9.2-9.6c-0.1,0-0.2,0-0.3,0
								C-150.3-10.8-154-8.3-155.7-4.5z"/>
							<path id="Icon-32_1_" class="st3" d="M-164.6-5.2c-2.4,0-4.3,1.8-4.4,4.2c0,0.1,0,0.1,0,0.2c0,1.3,0.5,2.4,1.4,3.7"/>
						</g>
						<g>
							<g>
								<path class="st3" d="M-48.7,10.2c0,7.2-5.9,13.1-13.1,13.1s-13.1-5.9-13.1-13.1S-61.8-11-61.8-11S-48.7,3-48.7,10.2z"/>
							</g>
							<g>
								<path class="st3" d="M-64.8,18.7c-2.7-1.6-5.4-4-5.4-8.4c0-3.1,3.5-7.4,6.2-11.3"/>
							</g>
						</g>
						<g>
							<g>
								<path class="st3" d="M103.9-7l1.1,5.9c0.3,1.5-0.7,2.9-2.2,3.2l-0.5,0.1c-1.5,0.3-2.9-0.7-3.2-2.2"/>
								<path class="st3" d="M100.9,24.3V13.9c1-0.7,1.3-1.8,1.6-2.9c0,0,1.2-4.8,1.2-4.8"/>
								<path class="st3" d="M74.7,24.3l-0.1-4.7l5.7-7.7c4.9-1.9,7.1,2.3,14.4,2.9l0.1,9.6"/>
								<path class="st3" d="M109.4-0.6c2.9,0.6,3.8-2.4,5-4.6c0.3-0.5,0-0.9-0.8-1.3c-1.1-0.5-2.6-1.1-4.3-1.7
									c-0.5-1.7-1.7-3.1-4.1-3.6c-3.2-0.7-5.1,1.1-6.7,3.3c-0.5,0.8-2,5.3-3,6.5l-2,1.6c0,0-19.1,0.9-19.1,0.9
									c-2.4,0.2-3.5,1.8-3.5,1.8c-0.4,0.4-1.1,1.5-1.6,3.1c-0.5,1.8,0.2,4.9,2,8.5l-2.3,4l0.3,6.5"/>
							</g>
							<path class="st3" d="M74,0.5c0,0-9.8-0.2-8.3-8.5"/>
						</g>
						<g>
							<g>
								<line class="st3" x1="-1.8" y1="-7.5" x2="-11.2" y2="1.9"/>
							</g>
							<g>
								<polyline class="st3" points="-5.2,-10.8 -16.3,0.3 -16.3,23.1 								"/>
							</g>
							<g>
								<line class="st3" x1="-36.5" y1="-7.5" x2="-27.1" y2="1.9"/>
							</g>
							<g>
								<polyline class="st3" points="-33.1,-10.8 -22,0.3 -22,23.1 								"/>
							</g>
						</g>
						<g>
							<circle class="st3" cx="29.3" cy="6.3" r="12.9"/>
							<g>
								<line class="st3" x1="29.3" y1="-7" x2="29.3" y2="-10.8"/>
								<circle class="st4" cx="29.3" cy="-13" r="1.9"/>
							</g>
							<g>
								<line class="st3" x1="39.9" y1="-1.7" x2="42.5" y2="-4.4"/>
								<circle class="st4" cx="44.1" cy="-5.9" r="1.9"/>
							</g>
							<g>
								<line class="st3" x1="42.5" y1="6.3" x2="46.3" y2="6.3"/>
								<circle class="st4" cx="48.5" cy="6.3" r="1.9"/>
							</g>
							<g>
								<line class="st3" x1="18.8" y1="-1.4" x2="16.1" y2="-4"/>
								<circle class="st4" cx="14.6" cy="-5.6" r="1.9"/>
							</g>
							<g>
								<line class="st3" x1="29.3" y1="19.3" x2="29.3" y2="23.1"/>
								<circle class="st4" cx="29.3" cy="25.3" r="1.9"/>
							</g>
							<g>
								<line class="st3" x1="18.8" y1="14" x2="16.1" y2="16.7"/>
								<circle class="st4" cx="14.6" cy="18.2" r="1.9"/>
							</g>
							<g>
								<line class="st3" x1="40.1" y1="13.9" x2="42.8" y2="16.6"/>
								<circle class="st4" cx="44.3" cy="18.2" r="1.9"/>
							</g>
							<g>
								<line class="st3" x1="16.2" y1="6.6" x2="12.4" y2="6.6"/>
								<circle class="st4" cx="10.1" cy="6.6" r="1.9"/>
							</g>
							<circle class="st4" cx="33.4" cy="1.9" r="1.9"/>
							<circle class="st4" cx="32.2" cy="12.1" r="1.9"/>
							<circle class="st4" cx="23.6" cy="4.7" r="1.9"/>
						</g>
						<g>
							<g>
								<g>
									
										<rect x="-114.3" y="-4" transform="matrix(-0.7071 -0.7071 0.7071 -0.7071 -190.7374 -63.9038)" class="st3" width="11.3" height="23"/>
									<line class="st3" x1="-116.7" y1="15.7" x2="-124.4" y2="23.3"/>
									<line class="st3" x1="-100.2" y1="-0.8" x2="-94.6" y2="-6.5"/>
									<line class="st3" x1="-90" y1="-2.3" x2="-98.7" y2="-11"/>
								</g>
							</g>
							<line class="st3" x1="-120.7" y1="11.7" x2="-104.9" y2="11.7"/>
						</g>
					</g>
				</g>
				<g>
					<g>
						<g>
							<path id="Icon-32_14_" class="st3" d="M145.3-4.5c-1.7-3.8-5.4-6.3-9.6-6.4c-5.2-0.1-9.5,4-9.6,9.2c0,0.1,0,0.2,0,0.3
								c0,7.5,8.1,13.4,19.2,24.5c11.1-11.1,19.2-17.1,19.2-24.5c0.1-5.2-4-9.5-9.2-9.6c-0.1,0-0.2,0-0.3,0
								C150.7-10.8,147-8.3,145.3-4.5z"/>
							<path id="Icon-32_13_" class="st3" d="M136.4-5.2c-2.4,0-4.3,1.8-4.4,4.2c0,0.1,0,0.1,0,0.2c0,1.3,0.5,2.4,1.4,3.7"/>
						</g>
						<g>
							<g>
								<path class="st3" d="M252.3,10.2c0,7.2-5.9,13.1-13.1,13.1c-7.2,0-13.1-5.9-13.1-13.1S239.2-11,239.2-11S252.3,3,252.3,10.2
									z"/>
							</g>
							<g>
								<path class="st3" d="M236.2,18.7c-2.7-1.6-5.4-4-5.4-8.4c0-3.1,3.5-7.4,6.2-11.3"/>
							</g>
						</g>
						<g>
							<g>
								<path class="st3" d="M404.9-7l1.1,5.9c0.3,1.5-0.7,2.9-2.2,3.2l-0.5,0.1c-1.5,0.3-2.9-0.7-3.2-2.2"/>
								<path class="st3" d="M401.9,24.3V13.9c1-0.7,1.3-1.8,1.6-2.9c0,0,1.2-4.8,1.2-4.8"/>
								<path class="st3" d="M375.7,24.3l-0.1-4.7l5.7-7.7c4.9-1.9,7.1,2.3,14.4,2.9l0.1,9.6"/>
								<path class="st3" d="M410.4-0.6c2.9,0.6,3.8-2.4,5-4.6c0.3-0.5,0-0.9-0.8-1.3c-1.1-0.5-2.6-1.1-4.3-1.7
									c-0.5-1.7-1.7-3.1-4.1-3.6c-3.2-0.7-5.1,1.1-6.7,3.3c-0.5,0.8-2,5.3-3,6.5l-2,1.6c0,0-19.1,0.9-19.1,0.9
									c-2.4,0.2-3.5,1.8-3.5,1.8c-0.4,0.4-1.1,1.5-1.6,3.1c-0.5,1.8,0.2,4.9,2,8.5l-2.3,4l0.3,6.5"/>
							</g>
							<path class="st3" d="M375,0.5c0,0-9.8-0.2-8.3-8.5"/>
						</g>
						<g>
							<g>
								<line class="st3" x1="299.2" y1="-7.5" x2="289.8" y2="1.9"/>
							</g>
							<g>
								<polyline class="st3" points="295.8,-10.8 284.7,0.3 284.7,23.1 								"/>
							</g>
							<g>
								<line class="st3" x1="264.5" y1="-7.5" x2="273.9" y2="1.9"/>
							</g>
							<g>
								<polyline class="st3" points="267.9,-10.8 279,0.3 279,23.1 								"/>
							</g>
						</g>
						<g>
							<circle class="st3" cx="330.3" cy="6.3" r="12.9"/>
							<g>
								<line class="st3" x1="330.3" y1="-7" x2="330.3" y2="-10.8"/>
								<circle class="st4" cx="330.3" cy="-13" r="1.9"/>
							</g>
							<g>
								<line class="st3" x1="340.9" y1="-1.7" x2="343.5" y2="-4.4"/>
								<circle class="st4" cx="345.1" cy="-5.9" r="1.9"/>
							</g>
							<g>
								<line class="st3" x1="343.5" y1="6.3" x2="347.3" y2="6.3"/>
								<circle class="st4" cx="349.5" cy="6.3" r="1.9"/>
							</g>
							<g>
								<line class="st3" x1="319.8" y1="-1.4" x2="317.1" y2="-4"/>
								<circle class="st4" cx="315.6" cy="-5.6" r="1.9"/>
							</g>
							<g>
								<line class="st3" x1="330.3" y1="19.3" x2="330.3" y2="23.1"/>
								<circle class="st4" cx="330.3" cy="25.3" r="1.9"/>
							</g>
							<g>
								<line class="st3" x1="319.8" y1="14" x2="317.1" y2="16.7"/>
								<circle class="st4" cx="315.6" cy="18.2" r="1.9"/>
							</g>
							<g>
								<line class="st3" x1="341.1" y1="13.9" x2="343.8" y2="16.6"/>
								<circle class="st4" cx="345.3" cy="18.2" r="1.9"/>
							</g>
							<g>
								<line class="st3" x1="317.2" y1="6.6" x2="313.4" y2="6.6"/>
								<circle class="st4" cx="311.1" cy="6.6" r="1.9"/>
							</g>
							<circle class="st4" cx="334.4" cy="1.9" r="1.9"/>
							<circle class="st4" cx="333.2" cy="12.1" r="1.9"/>
							<circle class="st4" cx="324.6" cy="4.7" r="1.9"/>
						</g>
						<g>
							<g>
								<g>
									
										<rect x="186.7" y="-4" transform="matrix(-0.7071 -0.7071 0.7071 -0.7071 323.1017 148.9353)" class="st3" width="11.3" height="23"/>
									<line class="st3" x1="184.3" y1="15.7" x2="176.6" y2="23.3"/>
									<line class="st3" x1="200.8" y1="-0.8" x2="206.4" y2="-6.5"/>
									<line class="st3" x1="211" y1="-2.3" x2="202.3" y2="-11"/>
								</g>
							</g>
							<line class="st3" x1="180.3" y1="11.7" x2="196.1" y2="11.7"/>
						</g>
					</g>
				</g>
			</g>
			<g>
				<g>
					<g>
						<g>
							<g>
								<path id="Icon-32_20_" class="st3" d="M-301,41.7c-1.7-3.8-5.4-6.3-9.6-6.4c-5.2-0.1-9.5,4-9.6,9.2c0,0.1,0,0.2,0,0.3
									c0,7.5,8.1,13.4,19.2,24.5c11.1-11.1,19.2-17.1,19.2-24.5c0.1-5.2-4-9.5-9.2-9.6c-0.1,0-0.2,0-0.3,0
									C-295.6,35.3-299.3,37.9-301,41.7z"/>
								<path id="Icon-32_19_" class="st3" d="M-309.9,41c-2.4,0-4.3,1.8-4.4,4.2c0,0.1,0,0.1,0,0.2c0,1.3,0.5,2.4,1.4,3.7"/>
							</g>
							<g>
								<g>
									<path class="st3" d="M-194,56.4c0,7.2-5.9,13.1-13.1,13.1s-13.1-5.9-13.1-13.1s13.1-21.2,13.1-21.2S-194,49.2-194,56.4z"/>
								</g>
								<g>
									<path class="st3" d="M-210.2,64.9c-2.7-1.6-5.4-4-5.4-8.4c0-3.1,3.5-7.4,6.2-11.3"/>
								</g>
							</g>
							<g>
								<g>
									<path class="st3" d="M-41.4,39.2l1.1,5.9c0.3,1.5-0.7,2.9-2.2,3.2l-0.5,0.1c-1.5,0.3-2.9-0.7-3.2-2.2"/>
									<path class="st3" d="M-44.4,70.5V60.1c1-0.7,1.3-1.8,1.6-2.9c0,0,1.2-4.8,1.2-4.8"/>
									<path class="st3" d="M-70.6,70.5l-0.1-4.7l5.7-7.7c4.9-1.9,7.1,2.3,14.4,2.9l0.1,9.6"/>
									<path class="st3" d="M-35.9,45.6c2.9,0.6,3.8-2.4,5-4.6c0.3-0.5,0-0.9-0.8-1.3c-1.1-0.5-2.6-1.1-4.3-1.7
										c-0.5-1.7-1.7-3.1-4.1-3.6c-3.2-0.7-5.1,1.1-6.7,3.3c-0.5,0.8-2,5.3-3,6.5l-2,1.6c0,0-19.1,0.9-19.1,0.9
										c-2.4,0.2-3.5,1.8-3.5,1.8c-0.4,0.4-1.1,1.5-1.6,3.1c-0.5,1.8,0.2,4.9,2,8.5l-2.3,4l0.3,6.5"/>
								</g>
								<path class="st3" d="M-71.3,46.7c0,0-9.8-0.2-8.3-8.5"/>
							</g>
							<g>
								<g>
									<line class="st3" x1="-147.1" y1="38.7" x2="-156.5" y2="48.1"/>
								</g>
								<g>
									<polyline class="st3" points="-150.5,35.4 -161.6,46.5 -161.6,69.3 									"/>
								</g>
								<g>
									<line class="st3" x1="-181.8" y1="38.7" x2="-172.4" y2="48.1"/>
								</g>
								<g>
									<polyline class="st3" points="-178.4,35.4 -167.3,46.5 -167.3,69.3 									"/>
								</g>
							</g>
							<g>
								<circle class="st3" cx="-116" cy="52.5" r="12.9"/>
								<g>
									<line class="st3" x1="-116" y1="39.2" x2="-116" y2="35.4"/>
									<circle class="st4" cx="-116" cy="33.2" r="1.9"/>
								</g>
								<g>
									<line class="st3" x1="-105.5" y1="44.5" x2="-102.8" y2="41.8"/>
									<circle class="st4" cx="-101.2" cy="40.3" r="1.9"/>
								</g>
								<g>
									<line class="st3" x1="-102.8" y1="52.5" x2="-99" y2="52.5"/>
									<circle class="st4" cx="-96.8" cy="52.5" r="1.9"/>
								</g>
								<g>
									<line class="st3" x1="-126.5" y1="44.8" x2="-129.2" y2="42.1"/>
									<circle class="st4" cx="-130.7" cy="40.6" r="1.9"/>
								</g>
								<g>
									<line class="st3" x1="-116" y1="65.5" x2="-116" y2="69.3"/>
									<circle class="st4" cx="-116" cy="71.5" r="1.9"/>
								</g>
								<g>
									<line class="st3" x1="-126.5" y1="60.2" x2="-129.2" y2="62.9"/>
									<circle class="st4" cx="-130.7" cy="64.4" r="1.9"/>
								</g>
								<g>
									<line class="st3" x1="-105.2" y1="60.1" x2="-102.5" y2="62.8"/>
									<circle class="st4" cx="-101" cy="64.4" r="1.9"/>
								</g>
								<g>
									<line class="st3" x1="-129.1" y1="52.8" x2="-132.9" y2="52.8"/>
									<circle class="st4" cx="-135.2" cy="52.8" r="1.9"/>
								</g>
								<circle class="st4" cx="-111.9" cy="48.1" r="1.9"/>
								<circle class="st4" cx="-113.2" cy="58.3" r="1.9"/>
								<circle class="st4" cx="-121.7" cy="50.9" r="1.9"/>
							</g>
							<g>
								<g>
									<g>
										
											<rect x="-259.6" y="42.2" transform="matrix(-0.7071 -0.7071 0.7071 -0.7071 -471.455 -87.7911)" class="st3" width="11.3" height="23"/>
										<line class="st3" x1="-262" y1="61.9" x2="-269.7" y2="69.5"/>
										<line class="st3" x1="-245.5" y1="45.3" x2="-239.9" y2="39.7"/>
										<line class="st3" x1="-235.3" y1="43.9" x2="-244.1" y2="35.2"/>
									</g>
								</g>
								<line class="st3" x1="-266" y1="57.9" x2="-250.2" y2="57.9"/>
							</g>
						</g>
					</g>
					<g>
						<g>
							<g>
								<path id="Icon-32_16_" class="st3" d="M0,41.7c-1.7-3.8-5.4-6.3-9.6-6.4c-5.2-0.1-9.5,4-9.6,9.2c0,0.1,0,0.2,0,0.3
									c0,7.5,8.1,13.4,19.2,24.5c11.1-11.1,19.2-17.1,19.2-24.5c0.1-5.2-4-9.5-9.2-9.6c-0.1,0-0.2,0-0.3,0
									C5.4,35.3,1.7,37.9,0,41.7z"/>
								<path id="Icon-32_15_" class="st3" d="M-8.9,41c-2.4,0-4.3,1.8-4.4,4.2c0,0.1,0,0.1,0,0.2c0,1.3,0.5,2.4,1.4,3.7"/>
							</g>
							<g>
								<g>
									<path class="st3" d="M107,56.4c0,7.2-5.9,13.1-13.1,13.1s-13.1-5.9-13.1-13.1s13.1-21.2,13.1-21.2S107,49.2,107,56.4z"/>
								</g>
								<g>
									<path class="st3" d="M90.8,64.9c-2.7-1.6-5.4-4-5.4-8.4c0-3.1,3.5-7.4,6.2-11.3"/>
								</g>
							</g>
							<g>
								<g>
									<path class="st3" d="M259.6,39.2l1.1,5.9c0.3,1.5-0.7,2.9-2.2,3.2l-0.5,0.1c-1.5,0.3-2.9-0.7-3.2-2.2"/>
									<path class="st3" d="M256.6,70.5V60.1c1-0.7,1.3-1.8,1.6-2.9c0,0,1.2-4.8,1.2-4.8"/>
									<path class="st3" d="M230.4,70.5l-0.1-4.7l5.7-7.7c4.9-1.9,7.1,2.3,14.4,2.9l0.1,9.6"/>
									<path class="st3" d="M265.1,45.6c2.9,0.6,3.8-2.4,5-4.6c0.3-0.5,0-0.9-0.8-1.3c-1.1-0.5-2.6-1.1-4.3-1.7
										c-0.5-1.7-1.7-3.1-4.1-3.6c-3.2-0.7-5.1,1.1-6.7,3.3c-0.5,0.8-2,5.3-3,6.5l-2,1.6c0,0-19.1,0.9-19.1,0.9
										c-2.4,0.2-3.5,1.8-3.5,1.8c-0.4,0.4-1.1,1.5-1.6,3.1c-0.5,1.8,0.2,4.9,2,8.5l-2.3,4l0.3,6.5"/>
								</g>
								<path class="st3" d="M229.7,46.7c0,0-9.8-0.2-8.3-8.5"/>
							</g>
							<g>
								<g>
									<line class="st3" x1="153.9" y1="38.7" x2="144.5" y2="48.1"/>
								</g>
								<g>
									<polyline class="st3" points="150.5,35.4 139.4,46.5 139.4,69.3 									"/>
								</g>
								<g>
									<line class="st3" x1="119.2" y1="38.7" x2="128.6" y2="48.1"/>
								</g>
								<g>
									<polyline class="st3" points="122.6,35.4 133.7,46.5 133.7,69.3 									"/>
								</g>
							</g>
							<g>
								<circle class="st3" cx="185" cy="52.5" r="12.9"/>
								<g>
									<line class="st3" x1="185" y1="39.2" x2="185" y2="35.4"/>
									<circle class="st4" cx="185" cy="33.2" r="1.9"/>
								</g>
								<g>
									<line class="st3" x1="195.5" y1="44.5" x2="198.2" y2="41.8"/>
									<circle class="st4" cx="199.8" cy="40.3" r="1.9"/>
								</g>
								<g>
									<line class="st3" x1="198.2" y1="52.5" x2="202" y2="52.5"/>
									<circle class="st4" cx="204.2" cy="52.5" r="1.9"/>
								</g>
								<g>
									<line class="st3" x1="174.5" y1="44.8" x2="171.8" y2="42.1"/>
									<circle class="st4" cx="170.3" cy="40.6" r="1.9"/>
								</g>
								<g>
									<line class="st3" x1="185" y1="65.5" x2="185" y2="69.3"/>
									<circle class="st4" cx="185" cy="71.5" r="1.9"/>
								</g>
								<g>
									<line class="st3" x1="174.5" y1="60.2" x2="171.8" y2="62.9"/>
									<circle class="st4" cx="170.3" cy="64.4" r="1.9"/>
								</g>
								<g>
									<line class="st3" x1="195.8" y1="60.1" x2="198.5" y2="62.8"/>
									<circle class="st4" cx="200" cy="64.4" r="1.9"/>
								</g>
								<g>
									<line class="st3" x1="171.9" y1="52.8" x2="168.1" y2="52.8"/>
									<circle class="st4" cx="165.8" cy="52.8" r="1.9"/>
								</g>
								<circle class="st4" cx="189.1" cy="48.1" r="1.9"/>
								<circle class="st4" cx="187.8" cy="58.3" r="1.9"/>
								<circle class="st4" cx="179.3" cy="50.9" r="1.9"/>
							</g>
							<g>
								<g>
									<g>
										
											<rect x="41.4" y="42.2" transform="matrix(-0.7071 -0.7071 0.7071 -0.7071 42.3842 125.048)" class="st3" width="11.3" height="23"/>
										<line class="st3" x1="39" y1="61.9" x2="31.3" y2="69.5"/>
										<line class="st3" x1="55.5" y1="45.3" x2="61.1" y2="39.7"/>
										<line class="st3" x1="65.7" y1="43.9" x2="56.9" y2="35.2"/>
									</g>
								</g>
								<line class="st3" x1="35" y1="57.9" x2="50.8" y2="57.9"/>
							</g>
						</g>
					</g>
				</g>
				<g>
					<g>
						<g>
							<g>
								<path id="Icon-32_24_" class="st3" d="M302,41.7c-1.7-3.8-5.4-6.3-9.6-6.4c-5.2-0.1-9.5,4-9.6,9.2c0,0.1,0,0.2,0,0.3
									c0,7.5,8.1,13.4,19.2,24.5c11.1-11.1,19.2-17.1,19.2-24.5c0.1-5.2-4-9.5-9.2-9.6c-0.1,0-0.2,0-0.3,0
									C307.4,35.3,303.7,37.9,302,41.7z"/>
								<path id="Icon-32_23_" class="st3" d="M293.1,41c-2.4,0-4.3,1.8-4.4,4.2c0,0.1,0,0.1,0,0.2c0,1.3,0.5,2.4,1.4,3.7"/>
							</g>
							<g>
								<g>
									<path class="st3" d="M409,56.4c0,7.2-5.9,13.1-13.1,13.1c-7.2,0-13.1-5.9-13.1-13.1s13.1-21.2,13.1-21.2S409,49.2,409,56.4
										z"/>
								</g>
								<g>
									<path class="st3" d="M392.8,64.9c-2.7-1.6-5.4-4-5.4-8.4c0-3.1,3.5-7.4,6.2-11.3"/>
								</g>
							</g>
							<g>
								<g>
									<path class="st3" d="M561.6,39.2l1.1,5.9c0.3,1.5-0.7,2.9-2.2,3.2l-0.5,0.1c-1.5,0.3-2.9-0.7-3.2-2.2"/>
									<path class="st3" d="M558.6,70.5V60.1c1-0.7,1.3-1.8,1.6-2.9c0,0,1.2-4.8,1.2-4.8"/>
									<path class="st3" d="M532.4,70.5l-0.1-4.7l5.7-7.7c4.9-1.9,7.1,2.3,14.4,2.9l0.1,9.6"/>
									<path class="st3" d="M567.1,45.6c2.9,0.6,3.8-2.4,5-4.6c0.3-0.5,0-0.9-0.8-1.3c-1.1-0.5-2.6-1.1-4.3-1.7
										c-0.5-1.7-1.7-3.1-4.1-3.6c-3.2-0.7-5.1,1.1-6.7,3.3c-0.5,0.8-2,5.3-3,6.5l-2,1.6c0,0-19.1,0.9-19.1,0.9
										c-2.4,0.2-3.5,1.8-3.5,1.8c-0.4,0.4-1.1,1.5-1.6,3.1c-0.5,1.8,0.2,4.9,2,8.5l-2.3,4l0.3,6.5"/>
								</g>
								<path class="st3" d="M531.7,46.7c0,0-9.8-0.2-8.3-8.5"/>
							</g>
							<g>
								<g>
									<line class="st3" x1="455.9" y1="38.7" x2="446.5" y2="48.1"/>
								</g>
								<g>
									<polyline class="st3" points="452.5,35.4 441.4,46.5 441.4,69.3 									"/>
								</g>
								<g>
									<line class="st3" x1="421.2" y1="38.7" x2="430.6" y2="48.1"/>
								</g>
								<g>
									<polyline class="st3" points="424.6,35.4 435.7,46.5 435.7,69.3 									"/>
								</g>
							</g>
							<g>
								<circle class="st3" cx="487" cy="52.5" r="12.9"/>
								<g>
									<line class="st3" x1="487" y1="39.2" x2="487" y2="35.4"/>
									<circle class="st4" cx="487" cy="33.2" r="1.9"/>
								</g>
								<g>
									<line class="st3" x1="497.5" y1="44.5" x2="500.2" y2="41.8"/>
									<circle class="st4" cx="501.8" cy="40.3" r="1.9"/>
								</g>
								<g>
									<line class="st3" x1="500.2" y1="52.5" x2="504" y2="52.5"/>
									<circle class="st4" cx="506.2" cy="52.5" r="1.9"/>
								</g>
								<g>
									<line class="st3" x1="476.5" y1="44.8" x2="473.8" y2="42.1"/>
									<circle class="st4" cx="472.3" cy="40.6" r="1.9"/>
								</g>
								<g>
									<line class="st3" x1="487" y1="65.5" x2="487" y2="69.3"/>
									<circle class="st4" cx="487" cy="71.5" r="1.9"/>
								</g>
								<g>
									<line class="st3" x1="476.5" y1="60.2" x2="473.8" y2="62.9"/>
									<circle class="st4" cx="472.3" cy="64.4" r="1.9"/>
								</g>
								<g>
									<line class="st3" x1="497.8" y1="60.1" x2="500.5" y2="62.8"/>
									<circle class="st4" cx="502" cy="64.4" r="1.9"/>
								</g>
								<g>
									<line class="st3" x1="473.9" y1="52.8" x2="470.1" y2="52.8"/>
									<circle class="st4" cx="467.8" cy="52.8" r="1.9"/>
								</g>
								<circle class="st4" cx="491.1" cy="48.1" r="1.9"/>
								<circle class="st4" cx="489.8" cy="58.3" r="1.9"/>
								<circle class="st4" cx="481.3" cy="50.9" r="1.9"/>
							</g>
							<g>
								<g>
									<g>
										
											<rect x="343.4" y="42.2" transform="matrix(-0.7071 -0.7071 0.7071 -0.7071 557.9304 338.5943)" class="st3" width="11.3" height="23"/>
										<line class="st3" x1="341" y1="61.9" x2="333.3" y2="69.5"/>
										<line class="st3" x1="357.5" y1="45.3" x2="363.1" y2="39.7"/>
										<line class="st3" x1="367.7" y1="43.9" x2="358.9" y2="35.2"/>
									</g>
								</g>
								<line class="st3" x1="337" y1="57.9" x2="352.8" y2="57.9"/>
							</g>
						</g>
					</g>
					<g>
						<g>
							<g>
								<path id="Icon-32_22_" class="st3" d="M603,41.7c-1.7-3.8-5.4-6.3-9.6-6.4c-5.2-0.1-9.5,4-9.6,9.2c0,0.1,0,0.2,0,0.3
									c0,7.5,8.1,13.4,19.2,24.5c11.1-11.1,19.2-17.1,19.2-24.5c0.1-5.2-4-9.5-9.2-9.6c-0.1,0-0.2,0-0.3,0
									C608.4,35.3,604.7,37.9,603,41.7z"/>
								<path id="Icon-32_21_" class="st3" d="M594.1,41c-2.4,0-4.3,1.8-4.4,4.2c0,0.1,0,0.1,0,0.2c0,1.3,0.5,2.4,1.4,3.7"/>
							</g>
							<g>
								<g>
									<path class="st3" d="M710,56.4c0,7.2-5.9,13.1-13.1,13.1s-13.1-5.9-13.1-13.1s13.1-21.2,13.1-21.2S710,49.2,710,56.4z"/>
								</g>
								<g>
									<path class="st3" d="M693.8,64.9c-2.7-1.6-5.4-4-5.4-8.4c0-3.1,3.5-7.4,6.2-11.3"/>
								</g>
							</g>
							<g>
								<g>
									<path class="st3" d="M862.6,39.2l1.1,5.9c0.3,1.5-0.7,2.9-2.2,3.2l-0.5,0.1c-1.5,0.3-2.9-0.7-3.2-2.2"/>
									<path class="st3" d="M859.6,70.5V60.1c1-0.7,1.3-1.8,1.6-2.9c0,0,1.2-4.8,1.2-4.8"/>
									<path class="st3" d="M833.4,70.5l-0.1-4.7l5.7-7.7c4.9-1.9,7.1,2.3,14.4,2.9l0.1,9.6"/>
									<path class="st3" d="M868.1,45.6c2.9,0.6,3.8-2.4,5-4.6c0.3-0.5,0-0.9-0.8-1.3c-1.1-0.5-2.6-1.1-4.3-1.7
										c-0.5-1.7-1.7-3.1-4.1-3.6c-3.2-0.7-5.1,1.1-6.7,3.3c-0.5,0.8-2,5.3-3,6.5l-2,1.6c0,0-19.1,0.9-19.1,0.9
										c-2.4,0.2-3.5,1.8-3.5,1.8c-0.4,0.4-1.1,1.5-1.6,3.1c-0.5,1.8,0.2,4.9,2,8.5l-2.3,4l0.3,6.5"/>
								</g>
								<path class="st3" d="M832.7,46.7c0,0-9.8-0.2-8.3-8.5"/>
							</g>
							<g>
								<g>
									<line class="st3" x1="756.9" y1="38.7" x2="747.5" y2="48.1"/>
								</g>
								<g>
									<polyline class="st3" points="753.5,35.4 742.4,46.5 742.4,69.3 									"/>
								</g>
								<g>
									<line class="st3" x1="722.2" y1="38.7" x2="731.6" y2="48.1"/>
								</g>
								<g>
									<polyline class="st3" points="725.6,35.4 736.7,46.5 736.7,69.3 									"/>
								</g>
							</g>
							<g>
								<circle class="st3" cx="788" cy="52.5" r="12.9"/>
								<g>
									<line class="st3" x1="788" y1="39.2" x2="788" y2="35.4"/>
									<circle class="st4" cx="788" cy="33.2" r="1.9"/>
								</g>
								<g>
									<line class="st3" x1="798.5" y1="44.5" x2="801.2" y2="41.8"/>
									<circle class="st4" cx="802.8" cy="40.3" r="1.9"/>
								</g>
								<g>
									<line class="st3" x1="801.2" y1="52.5" x2="805" y2="52.5"/>
									<circle class="st4" cx="807.2" cy="52.5" r="1.9"/>
								</g>
								<g>
									<line class="st3" x1="777.5" y1="44.8" x2="774.8" y2="42.1"/>
									<circle class="st4" cx="773.3" cy="40.6" r="1.9"/>
								</g>
								<g>
									<line class="st3" x1="788" y1="65.5" x2="788" y2="69.3"/>
									<circle class="st4" cx="788" cy="71.5" r="1.9"/>
								</g>
								<g>
									<line class="st3" x1="777.5" y1="60.2" x2="774.8" y2="62.9"/>
									<circle class="st4" cx="773.3" cy="64.4" r="1.9"/>
								</g>
								<g>
									<line class="st3" x1="798.8" y1="60.1" x2="801.5" y2="62.8"/>
									<circle class="st4" cx="803" cy="64.4" r="1.9"/>
								</g>
								<g>
									<line class="st3" x1="774.9" y1="52.8" x2="771.1" y2="52.8"/>
									<circle class="st4" cx="768.8" cy="52.8" r="1.9"/>
								</g>
								<circle class="st4" cx="792.1" cy="48.1" r="1.9"/>
								<circle class="st4" cx="790.8" cy="58.3" r="1.9"/>
								<circle class="st4" cx="782.3" cy="50.9" r="1.9"/>
							</g>
							<g>
								<g>
									<g>
										
											<rect x="644.4" y="42.2" transform="matrix(-0.7071 -0.7071 0.7071 -0.7071 1071.7695 551.4334)" class="st3" width="11.3" height="23"/>
										<line class="st3" x1="642" y1="61.9" x2="634.3" y2="69.5"/>
										<line class="st3" x1="658.5" y1="45.3" x2="664.1" y2="39.7"/>
										<line class="st3" x1="668.7" y1="43.9" x2="659.9" y2="35.2"/>
									</g>
								</g>
								<line class="st3" x1="638" y1="57.9" x2="653.8" y2="57.9"/>
							</g>
						</g>
					</g>
				</g>
			</g>
			<g>
				<g>
					<g>
						<g>
							<path id="Icon-32_36_" class="st3" d="M-155.7,87.9c-1.7-3.8-5.4-6.3-9.6-6.4c-5.2-0.1-9.5,4-9.6,9.2c0,0.1,0,0.2,0,0.3
								c0,7.5,8.1,13.4,19.2,24.5c11.1-11.1,19.2-17.1,19.2-24.5c0.1-5.2-4-9.5-9.2-9.6c-0.1,0-0.2,0-0.3,0
								C-150.3,81.5-154,84-155.7,87.9z"/>
							<path id="Icon-32_35_" class="st3" d="M-164.6,87.2c-2.4,0-4.3,1.8-4.4,4.2c0,0.1,0,0.1,0,0.2c0,1.3,0.5,2.4,1.4,3.7"/>
						</g>
						<g>
							<g>
								<path class="st3" d="M-48.7,102.6c0,7.2-5.9,13.1-13.1,13.1s-13.1-5.9-13.1-13.1s13.1-21.2,13.1-21.2S-48.7,95.4-48.7,102.6
									z"/>
							</g>
							<g>
								<path class="st3" d="M-64.8,111.1c-2.7-1.6-5.4-4-5.4-8.4c0-3.1,3.5-7.4,6.2-11.3"/>
							</g>
						</g>
						<g>
							<g>
								<path class="st3" d="M103.9,85.4l1.1,5.9c0.3,1.5-0.7,2.9-2.2,3.2l-0.5,0.1c-1.5,0.3-2.9-0.7-3.2-2.2"/>
								<path class="st3" d="M100.9,116.7v-10.4c1-0.7,1.3-1.8,1.6-2.9c0,0,1.2-4.8,1.2-4.8"/>
								<path class="st3" d="M74.7,116.7l-0.1-4.7l5.7-7.7c4.9-1.9,7.1,2.3,14.4,2.9l0.1,9.6"/>
								<path class="st3" d="M109.4,91.8c2.9,0.6,3.8-2.4,5-4.6c0.3-0.5,0-0.9-0.8-1.3c-1.1-0.5-2.6-1.1-4.3-1.7
									c-0.5-1.7-1.7-3.1-4.1-3.6c-3.2-0.7-5.1,1.1-6.7,3.3c-0.5,0.8-2,5.3-3,6.5l-2,1.6c0,0-19.1,0.9-19.1,0.9
									c-2.4,0.2-3.5,1.8-3.5,1.8c-0.4,0.4-1.1,1.5-1.6,3.1c-0.5,1.8,0.2,4.9,2,8.5l-2.3,4l0.3,6.5"/>
							</g>
							<path class="st3" d="M74,92.9c0,0-9.8-0.2-8.3-8.5"/>
						</g>
						<g>
							<g>
								<line class="st3" x1="-1.8" y1="84.9" x2="-11.2" y2="94.3"/>
							</g>
							<g>
								<polyline class="st3" points="-5.2,81.6 -16.3,92.7 -16.3,115.5 								"/>
							</g>
							<g>
								<line class="st3" x1="-36.5" y1="84.9" x2="-27.1" y2="94.3"/>
							</g>
							<g>
								<polyline class="st3" points="-33.1,81.6 -22,92.7 -22,115.5 								"/>
							</g>
						</g>
						<g>
							<circle class="st3" cx="29.3" cy="98.7" r="12.9"/>
							<g>
								<line class="st3" x1="29.3" y1="85.4" x2="29.3" y2="81.6"/>
								<circle class="st4" cx="29.3" cy="79.4" r="1.9"/>
							</g>
							<g>
								<line class="st3" x1="39.9" y1="90.7" x2="42.5" y2="88"/>
								<circle class="st4" cx="44.1" cy="86.5" r="1.9"/>
							</g>
							<g>
								<line class="st3" x1="42.5" y1="98.7" x2="46.3" y2="98.7"/>
								<circle class="st4" cx="48.5" cy="98.7" r="1.9"/>
							</g>
							<g>
								<line class="st3" x1="18.8" y1="91" x2="16.1" y2="88.3"/>
								<circle class="st4" cx="14.6" cy="86.8" r="1.9"/>
							</g>
							<g>
								<line class="st3" x1="29.3" y1="111.7" x2="29.3" y2="115.5"/>
								<circle class="st4" cx="29.3" cy="117.7" r="1.9"/>
							</g>
							<g>
								<line class="st3" x1="18.8" y1="106.4" x2="16.1" y2="109.1"/>
								<circle class="st4" cx="14.6" cy="110.6" r="1.9"/>
							</g>
							<g>
								<line class="st3" x1="40.1" y1="106.3" x2="42.8" y2="109"/>
								<circle class="st4" cx="44.3" cy="110.6" r="1.9"/>
							</g>
							<g>
								<line class="st3" x1="16.2" y1="99" x2="12.4" y2="99"/>
								<circle class="st4" cx="10.1" cy="99" r="1.9"/>
							</g>
							<circle class="st4" cx="33.4" cy="94.3" r="1.9"/>
							<circle class="st4" cx="32.2" cy="104.5" r="1.9"/>
							<circle class="st4" cx="23.6" cy="97.1" r="1.9"/>
						</g>
						<g>
							<g>
								<g>
									
										<rect x="-114.3" y="88.4" transform="matrix(-0.7071 -0.7071 0.7071 -0.7071 -256.0668 93.8153)" class="st3" width="11.3" height="23"/>
									<line class="st3" x1="-116.7" y1="108.1" x2="-124.4" y2="115.7"/>
									<line class="st3" x1="-100.2" y1="91.5" x2="-94.6" y2="85.9"/>
									<line class="st3" x1="-90" y1="90.1" x2="-98.7" y2="81.4"/>
								</g>
							</g>
							<line class="st3" x1="-120.7" y1="104.1" x2="-104.9" y2="104.1"/>
						</g>
					</g>
				</g>
				<g>
					<g>
						<g>
							<path id="Icon-32_34_" class="st3" d="M145.3,87.9c-1.7-3.8-5.4-6.3-9.6-6.4c-5.2-0.1-9.5,4-9.6,9.2c0,0.1,0,0.2,0,0.3
								c0,7.5,8.1,13.4,19.2,24.5c11.1-11.1,19.2-17.1,19.2-24.5c0.1-5.2-4-9.5-9.2-9.6c-0.1,0-0.2,0-0.3,0
								C150.7,81.5,147,84,145.3,87.9z"/>
							<path id="Icon-32_33_" class="st3" d="M136.4,87.2c-2.4,0-4.3,1.8-4.4,4.2c0,0.1,0,0.1,0,0.2c0,1.3,0.5,2.4,1.4,3.7"/>
						</g>
						<g>
							<g>
								<path class="st3" d="M252.3,102.6c0,7.2-5.9,13.1-13.1,13.1c-7.2,0-13.1-5.9-13.1-13.1s13.1-21.2,13.1-21.2
									S252.3,95.4,252.3,102.6z"/>
							</g>
							<g>
								<path class="st3" d="M236.2,111.1c-2.7-1.6-5.4-4-5.4-8.4c0-3.1,3.5-7.4,6.2-11.3"/>
							</g>
						</g>
						<g>
							<g>
								<path class="st3" d="M404.9,85.4l1.1,5.9c0.3,1.5-0.7,2.9-2.2,3.2l-0.5,0.1c-1.5,0.3-2.9-0.7-3.2-2.2"/>
								<path class="st3" d="M401.9,116.7v-10.4c1-0.7,1.3-1.8,1.6-2.9c0,0,1.2-4.8,1.2-4.8"/>
								<path class="st3" d="M375.7,116.7l-0.1-4.7l5.7-7.7c4.9-1.9,7.1,2.3,14.4,2.9l0.1,9.6"/>
								<path class="st3" d="M410.4,91.8c2.9,0.6,3.8-2.4,5-4.6c0.3-0.5,0-0.9-0.8-1.3c-1.1-0.5-2.6-1.1-4.3-1.7
									c-0.5-1.7-1.7-3.1-4.1-3.6c-3.2-0.7-5.1,1.1-6.7,3.3c-0.5,0.8-2,5.3-3,6.5l-2,1.6c0,0-19.1,0.9-19.1,0.9
									c-2.4,0.2-3.5,1.8-3.5,1.8c-0.4,0.4-1.1,1.5-1.6,3.1c-0.5,1.8,0.2,4.9,2,8.5l-2.3,4l0.3,6.5"/>
							</g>
							<path class="st3" d="M375,92.9c0,0-9.8-0.2-8.3-8.5"/>
						</g>
						<g>
							<g>
								<line class="st3" x1="299.2" y1="84.9" x2="289.8" y2="94.3"/>
							</g>
							<g>
								<polyline class="st3" points="295.8,81.6 284.7,92.7 284.7,115.5 								"/>
							</g>
							<g>
								<line class="st3" x1="264.5" y1="84.9" x2="273.9" y2="94.3"/>
							</g>
							<g>
								<polyline class="st3" points="267.9,81.6 279,92.7 279,115.5 								"/>
							</g>
						</g>
						<g>
							<circle class="st3" cx="330.3" cy="98.7" r="12.9"/>
							<g>
								<line class="st3" x1="330.3" y1="85.4" x2="330.3" y2="81.6"/>
								<circle class="st4" cx="330.3" cy="79.4" r="1.9"/>
							</g>
							<g>
								<line class="st3" x1="340.9" y1="90.7" x2="343.5" y2="88"/>
								<circle class="st4" cx="345.1" cy="86.5" r="1.9"/>
							</g>
							<g>
								<line class="st3" x1="343.5" y1="98.7" x2="347.3" y2="98.7"/>
								<circle class="st4" cx="349.5" cy="98.7" r="1.9"/>
							</g>
							<g>
								<line class="st3" x1="319.8" y1="91" x2="317.1" y2="88.3"/>
								<circle class="st4" cx="315.6" cy="86.8" r="1.9"/>
							</g>
							<g>
								<line class="st3" x1="330.3" y1="111.7" x2="330.3" y2="115.5"/>
								<circle class="st4" cx="330.3" cy="117.7" r="1.9"/>
							</g>
							<g>
								<line class="st3" x1="319.8" y1="106.4" x2="317.1" y2="109.1"/>
								<circle class="st4" cx="315.6" cy="110.6" r="1.9"/>
							</g>
							<g>
								<line class="st3" x1="341.1" y1="106.3" x2="343.8" y2="109"/>
								<circle class="st4" cx="345.3" cy="110.6" r="1.9"/>
							</g>
							<g>
								<line class="st3" x1="317.2" y1="99" x2="313.4" y2="99"/>
								<circle class="st4" cx="311.1" cy="99" r="1.9"/>
							</g>
							<circle class="st4" cx="334.4" cy="94.3" r="1.9"/>
							<circle class="st4" cx="333.2" cy="104.5" r="1.9"/>
							<circle class="st4" cx="324.6" cy="97.1" r="1.9"/>
						</g>
						<g>
							<g>
								<g>
									
										<rect x="186.7" y="88.4" transform="matrix(-0.7071 -0.7071 0.7071 -0.7071 257.7723 306.6545)" class="st3" width="11.3" height="23"/>
									<line class="st3" x1="184.3" y1="108.1" x2="176.6" y2="115.7"/>
									<line class="st3" x1="200.8" y1="91.5" x2="206.4" y2="85.9"/>
									<line class="st3" x1="211" y1="90.1" x2="202.3" y2="81.4"/>
								</g>
							</g>
							<line class="st3" x1="180.3" y1="104.1" x2="196.1" y2="104.1"/>
						</g>
					</g>
				</g>
			</g>
			<g>
				<g>
					<g>
						<g>
							<g>
								<path id="Icon-32_32_" class="st3" d="M-301,134.1c-1.7-3.8-5.4-6.3-9.6-6.4c-5.2-0.1-9.5,4-9.6,9.2c0,0.1,0,0.2,0,0.3
									c0,7.5,8.1,13.4,19.2,24.5c11.1-11.1,19.2-17.1,19.2-24.5c0.1-5.2-4-9.5-9.2-9.6c-0.1,0-0.2,0-0.3,0
									C-295.6,127.7-299.3,130.2-301,134.1z"/>
								<path id="Icon-32_31_" class="st3" d="M-309.9,133.4c-2.4,0-4.3,1.8-4.4,4.2c0,0.1,0,0.1,0,0.2c0,1.3,0.5,2.4,1.4,3.7"/>
							</g>
							<g>
								<g>
									<path class="st3" d="M-194,148.8c0,7.2-5.9,13.1-13.1,13.1s-13.1-5.9-13.1-13.1c0-7.2,13.1-21.2,13.1-21.2
										S-194,141.6-194,148.8z"/>
								</g>
								<g>
									<path class="st3" d="M-210.2,157.2c-2.7-1.6-5.4-4-5.4-8.4c0-3.1,3.5-7.4,6.2-11.3"/>
								</g>
							</g>
							<g>
								<g>
									<path class="st3" d="M-41.4,131.6l1.1,5.9c0.3,1.5-0.7,2.9-2.2,3.2l-0.5,0.1c-1.5,0.3-2.9-0.7-3.2-2.2"/>
									<path class="st3" d="M-44.4,162.9v-10.4c1-0.7,1.3-1.8,1.6-2.9c0,0,1.2-4.8,1.2-4.8"/>
									<path class="st3" d="M-70.6,162.9l-0.1-4.7l5.7-7.7c4.9-1.9,7.1,2.3,14.4,2.9l0.1,9.6"/>
									<path class="st3" d="M-35.9,138c2.9,0.6,3.8-2.4,5-4.6c0.3-0.5,0-0.9-0.8-1.3c-1.1-0.5-2.6-1.1-4.3-1.7
										c-0.5-1.7-1.7-3.1-4.1-3.6c-3.2-0.7-5.1,1.1-6.7,3.3c-0.5,0.8-2,5.3-3,6.5l-2,1.6c0,0-19.1,0.9-19.1,0.9
										c-2.4,0.2-3.5,1.8-3.5,1.8c-0.4,0.4-1.1,1.5-1.6,3.1c-0.5,1.8,0.2,4.9,2,8.5l-2.3,4l0.3,6.5"/>
								</g>
								<path class="st3" d="M-71.3,139.1c0,0-9.8-0.2-8.3-8.5"/>
							</g>
							<g>
								<g>
									<line class="st3" x1="-147.1" y1="131.1" x2="-156.5" y2="140.5"/>
								</g>
								<g>
									<polyline class="st3" points="-150.5,127.8 -161.6,138.9 -161.6,161.7 									"/>
								</g>
								<g>
									<line class="st3" x1="-181.8" y1="131.1" x2="-172.4" y2="140.5"/>
								</g>
								<g>
									<polyline class="st3" points="-178.4,127.8 -167.3,138.9 -167.3,161.7 									"/>
								</g>
							</g>
							<g>
								<circle class="st3" cx="-116" cy="144.9" r="12.9"/>
								<g>
									<line class="st3" x1="-116" y1="131.6" x2="-116" y2="127.8"/>
									<circle class="st4" cx="-116" cy="125.6" r="1.9"/>
								</g>
								<g>
									<line class="st3" x1="-105.5" y1="136.9" x2="-102.8" y2="134.2"/>
									<circle class="st4" cx="-101.2" cy="132.7" r="1.9"/>
								</g>
								<g>
									<line class="st3" x1="-102.8" y1="144.9" x2="-99" y2="144.9"/>
									<circle class="st4" cx="-96.8" cy="144.9" r="1.9"/>
								</g>
								<g>
									<line class="st3" x1="-126.5" y1="137.2" x2="-129.2" y2="134.5"/>
									<circle class="st4" cx="-130.7" cy="133" r="1.9"/>
								</g>
								<g>
									<line class="st3" x1="-116" y1="157.9" x2="-116" y2="161.7"/>
									<circle class="st4" cx="-116" cy="163.9" r="1.9"/>
								</g>
								<g>
									<line class="st3" x1="-126.5" y1="152.6" x2="-129.2" y2="155.3"/>
									<circle class="st4" cx="-130.7" cy="156.8" r="1.9"/>
								</g>
								<g>
									<line class="st3" x1="-105.2" y1="152.5" x2="-102.5" y2="155.2"/>
									<circle class="st4" cx="-101" cy="156.7" r="1.9"/>
								</g>
								<g>
									<line class="st3" x1="-129.1" y1="145.2" x2="-132.9" y2="145.2"/>
									<circle class="st4" cx="-135.2" cy="145.2" r="1.9"/>
								</g>
								<circle class="st4" cx="-111.9" cy="140.5" r="1.9"/>
								<circle class="st4" cx="-113.2" cy="150.7" r="1.9"/>
								<circle class="st4" cx="-121.7" cy="143.3" r="1.9"/>
							</g>
							<g>
								<g>
									<g>
										
											<rect x="-259.6" y="134.6" transform="matrix(-0.7071 -0.7071 0.7071 -0.7071 -536.7844 69.9281)" class="st3" width="11.3" height="23"/>
										<line class="st3" x1="-262" y1="154.3" x2="-269.7" y2="161.9"/>
										<line class="st3" x1="-245.5" y1="137.7" x2="-239.9" y2="132.1"/>
										<line class="st3" x1="-235.3" y1="136.3" x2="-244.1" y2="127.6"/>
									</g>
								</g>
								<line class="st3" x1="-266" y1="150.3" x2="-250.2" y2="150.3"/>
							</g>
						</g>
					</g>
					<g>
						<g>
							<g>
								<path id="Icon-32_30_" class="st3" d="M0,134.1c-1.7-3.8-5.4-6.3-9.6-6.4c-5.2-0.1-9.5,4-9.6,9.2c0,0.1,0,0.2,0,0.3
									c0,7.5,8.1,13.4,19.2,24.5c11.1-11.1,19.2-17.1,19.2-24.5c0.1-5.2-4-9.5-9.2-9.6c-0.1,0-0.2,0-0.3,0
									C5.4,127.7,1.7,130.2,0,134.1z"/>
								<path id="Icon-32_29_" class="st3" d="M-8.9,133.4c-2.4,0-4.3,1.8-4.4,4.2c0,0.1,0,0.1,0,0.2c0,1.3,0.5,2.4,1.4,3.7"/>
							</g>
							<g>
								<g>
									<path class="st3" d="M107,148.8c0,7.2-5.9,13.1-13.1,13.1s-13.1-5.9-13.1-13.1c0-7.2,13.1-21.2,13.1-21.2
										S107,141.6,107,148.8z"/>
								</g>
								<g>
									<path class="st3" d="M90.8,157.2c-2.7-1.6-5.4-4-5.4-8.4c0-3.1,3.5-7.4,6.2-11.3"/>
								</g>
							</g>
							<g>
								<g>
									<path class="st3" d="M259.6,131.6l1.1,5.9c0.3,1.5-0.7,2.9-2.2,3.2l-0.5,0.1c-1.5,0.3-2.9-0.7-3.2-2.2"/>
									<path class="st3" d="M256.6,162.9v-10.4c1-0.7,1.3-1.8,1.6-2.9c0,0,1.2-4.8,1.2-4.8"/>
									<path class="st3" d="M230.4,162.9l-0.1-4.7l5.7-7.7c4.9-1.9,7.1,2.3,14.4,2.9l0.1,9.6"/>
									<path class="st3" d="M265.1,138c2.9,0.6,3.8-2.4,5-4.6c0.3-0.5,0-0.9-0.8-1.3c-1.1-0.5-2.6-1.1-4.3-1.7
										c-0.5-1.7-1.7-3.1-4.1-3.6c-3.2-0.7-5.1,1.1-6.7,3.3c-0.5,0.8-2,5.3-3,6.5l-2,1.6c0,0-19.1,0.9-19.1,0.9
										c-2.4,0.2-3.5,1.8-3.5,1.8c-0.4,0.4-1.1,1.5-1.6,3.1c-0.5,1.8,0.2,4.9,2,8.5l-2.3,4l0.3,6.5"/>
								</g>
								<path class="st3" d="M229.7,139.1c0,0-9.8-0.2-8.3-8.5"/>
							</g>
							<g>
								<g>
									<line class="st3" x1="153.9" y1="131.1" x2="144.5" y2="140.5"/>
								</g>
								<g>
									<polyline class="st3" points="150.5,127.8 139.4,138.9 139.4,161.7 									"/>
								</g>
								<g>
									<line class="st3" x1="119.2" y1="131.1" x2="128.6" y2="140.5"/>
								</g>
								<g>
									<polyline class="st3" points="122.6,127.8 133.7,138.9 133.7,161.7 									"/>
								</g>
							</g>
							<g>
								<circle class="st3" cx="185" cy="144.9" r="12.9"/>
								<g>
									<line class="st3" x1="185" y1="131.6" x2="185" y2="127.8"/>
									<circle class="st4" cx="185" cy="125.6" r="1.9"/>
								</g>
								<g>
									<line class="st3" x1="195.5" y1="136.9" x2="198.2" y2="134.2"/>
									<circle class="st4" cx="199.8" cy="132.7" r="1.9"/>
								</g>
								<g>
									<line class="st3" x1="198.2" y1="144.9" x2="202" y2="144.9"/>
									<circle class="st4" cx="204.2" cy="144.9" r="1.9"/>
								</g>
								<g>
									<line class="st3" x1="174.5" y1="137.2" x2="171.8" y2="134.5"/>
									<circle class="st4" cx="170.3" cy="133" r="1.9"/>
								</g>
								<g>
									<line class="st3" x1="185" y1="157.9" x2="185" y2="161.7"/>
									<circle class="st4" cx="185" cy="163.9" r="1.9"/>
								</g>
								<g>
									<line class="st3" x1="174.5" y1="152.6" x2="171.8" y2="155.3"/>
									<circle class="st4" cx="170.3" cy="156.8" r="1.9"/>
								</g>
								<g>
									<line class="st3" x1="195.8" y1="152.5" x2="198.5" y2="155.2"/>
									<circle class="st4" cx="200" cy="156.7" r="1.9"/>
								</g>
								<g>
									<line class="st3" x1="171.9" y1="145.2" x2="168.1" y2="145.2"/>
									<circle class="st4" cx="165.8" cy="145.2" r="1.9"/>
								</g>
								<circle class="st4" cx="189.1" cy="140.5" r="1.9"/>
								<circle class="st4" cx="187.8" cy="150.7" r="1.9"/>
								<circle class="st4" cx="179.3" cy="143.3" r="1.9"/>
							</g>
							<g>
								<g>
									<g>
										
											<rect x="41.4" y="134.6" transform="matrix(-0.7071 -0.7071 0.7071 -0.7071 -22.9453 282.7672)" class="st3" width="11.3" height="23"/>
										<line class="st3" x1="39" y1="154.3" x2="31.3" y2="161.9"/>
										<line class="st3" x1="55.5" y1="137.7" x2="61.1" y2="132.1"/>
										<line class="st3" x1="65.7" y1="136.3" x2="56.9" y2="127.6"/>
									</g>
								</g>
								<line class="st3" x1="35" y1="150.3" x2="50.8" y2="150.3"/>
							</g>
						</g>
					</g>
				</g>
				<g>
					<g>
						<g>
							<g>
								<path id="Icon-32_28_" class="st3" d="M302,134.1c-1.7-3.8-5.4-6.3-9.6-6.4c-5.2-0.1-9.5,4-9.6,9.2c0,0.1,0,0.2,0,0.3
									c0,7.5,8.1,13.4,19.2,24.5c11.1-11.1,19.2-17.1,19.2-24.5c0.1-5.2-4-9.5-9.2-9.6c-0.1,0-0.2,0-0.3,0
									C307.4,127.7,303.7,130.2,302,134.1z"/>
								<path id="Icon-32_27_" class="st3" d="M293.1,133.4c-2.4,0-4.3,1.8-4.4,4.2c0,0.1,0,0.1,0,0.2c0,1.3,0.5,2.4,1.4,3.7"/>
							</g>
							<g>
								<g>
									<path class="st3" d="M409,148.8c0,7.2-5.9,13.1-13.1,13.1c-7.2,0-13.1-5.9-13.1-13.1c0-7.2,13.1-21.2,13.1-21.2
										S409,141.6,409,148.8z"/>
								</g>
								<g>
									<path class="st3" d="M392.8,157.2c-2.7-1.6-5.4-4-5.4-8.4c0-3.1,3.5-7.4,6.2-11.3"/>
								</g>
							</g>
							<g>
								<g>
									<path class="st3" d="M561.6,131.6l1.1,5.9c0.3,1.5-0.7,2.9-2.2,3.2l-0.5,0.1c-1.5,0.3-2.9-0.7-3.2-2.2"/>
									<path class="st3" d="M558.6,162.9v-10.4c1-0.7,1.3-1.8,1.6-2.9c0,0,1.2-4.8,1.2-4.8"/>
									<path class="st3" d="M532.4,162.9l-0.1-4.7l5.7-7.7c4.9-1.9,7.1,2.3,14.4,2.9l0.1,9.6"/>
									<path class="st3" d="M567.1,138c2.9,0.6,3.8-2.4,5-4.6c0.3-0.5,0-0.9-0.8-1.3c-1.1-0.5-2.6-1.1-4.3-1.7
										c-0.5-1.7-1.7-3.1-4.1-3.6c-3.2-0.7-5.1,1.1-6.7,3.3c-0.5,0.8-2,5.3-3,6.5l-2,1.6c0,0-19.1,0.9-19.1,0.9
										c-2.4,0.2-3.5,1.8-3.5,1.8c-0.4,0.4-1.1,1.5-1.6,3.1c-0.5,1.8,0.2,4.9,2,8.5l-2.3,4l0.3,6.5"/>
								</g>
								<path class="st3" d="M531.7,139.1c0,0-9.8-0.2-8.3-8.5"/>
							</g>
							<g>
								<g>
									<line class="st3" x1="455.9" y1="131.1" x2="446.5" y2="140.5"/>
								</g>
								<g>
									<polyline class="st3" points="452.5,127.8 441.4,138.9 441.4,161.7 									"/>
								</g>
								<g>
									<line class="st3" x1="421.2" y1="131.1" x2="430.6" y2="140.5"/>
								</g>
								<g>
									<polyline class="st3" points="424.6,127.8 435.7,138.9 435.7,161.7 									"/>
								</g>
							</g>
							<g>
								<circle class="st3" cx="487" cy="144.9" r="12.9"/>
								<g>
									<line class="st3" x1="487" y1="131.6" x2="487" y2="127.8"/>
									<circle class="st4" cx="487" cy="125.6" r="1.9"/>
								</g>
								<g>
									<line class="st3" x1="497.5" y1="136.9" x2="500.2" y2="134.2"/>
									<circle class="st4" cx="501.8" cy="132.7" r="1.9"/>
								</g>
								<g>
									<line class="st3" x1="500.2" y1="144.9" x2="504" y2="144.9"/>
									<circle class="st4" cx="506.2" cy="144.9" r="1.9"/>
								</g>
								<g>
									<line class="st3" x1="476.5" y1="137.2" x2="473.8" y2="134.5"/>
									<circle class="st4" cx="472.3" cy="133" r="1.9"/>
								</g>
								<g>
									<line class="st3" x1="487" y1="157.9" x2="487" y2="161.7"/>
									<circle class="st4" cx="487" cy="163.9" r="1.9"/>
								</g>
								<g>
									<line class="st3" x1="476.5" y1="152.6" x2="473.8" y2="155.3"/>
									<circle class="st4" cx="472.3" cy="156.8" r="1.9"/>
								</g>
								<g>
									<line class="st3" x1="497.8" y1="152.5" x2="500.5" y2="155.2"/>
									<circle class="st4" cx="502" cy="156.7" r="1.9"/>
								</g>
								<g>
									<line class="st3" x1="473.9" y1="145.2" x2="470.1" y2="145.2"/>
									<circle class="st4" cx="467.8" cy="145.2" r="1.9"/>
								</g>
								<circle class="st4" cx="491.1" cy="140.5" r="1.9"/>
								<circle class="st4" cx="489.8" cy="150.7" r="1.9"/>
								<circle class="st4" cx="481.3" cy="143.3" r="1.9"/>
							</g>
							<g>
								<g>
									<g>
										
											<rect x="343.4" y="134.6" transform="matrix(-0.7071 -0.7071 0.7071 -0.7071 492.601 496.3135)" class="st3" width="11.3" height="23"/>
										<line class="st3" x1="341" y1="154.3" x2="333.3" y2="161.9"/>
										<line class="st3" x1="357.5" y1="137.7" x2="363.1" y2="132.1"/>
										<line class="st3" x1="367.7" y1="136.3" x2="358.9" y2="127.6"/>
									</g>
								</g>
								<line class="st3" x1="337" y1="150.3" x2="352.8" y2="150.3"/>
							</g>
						</g>
					</g>
					<g>
						<g>
							<g>
								<path id="Icon-32_26_" class="st3" d="M603,134.1c-1.7-3.8-5.4-6.3-9.6-6.4c-5.2-0.1-9.5,4-9.6,9.2c0,0.1,0,0.2,0,0.3
									c0,7.5,8.1,13.4,19.2,24.5c11.1-11.1,19.2-17.1,19.2-24.5c0.1-5.2-4-9.5-9.2-9.6c-0.1,0-0.2,0-0.3,0
									C608.4,127.7,604.7,130.2,603,134.1z"/>
								<path id="Icon-32_25_" class="st3" d="M594.1,133.4c-2.4,0-4.3,1.8-4.4,4.2c0,0.1,0,0.1,0,0.2c0,1.3,0.5,2.4,1.4,3.7"/>
							</g>
							<g>
								<g>
									<path class="st3" d="M710,148.8c0,7.2-5.9,13.1-13.1,13.1s-13.1-5.9-13.1-13.1c0-7.2,13.1-21.2,13.1-21.2
										S710,141.6,710,148.8z"/>
								</g>
								<g>
									<path class="st3" d="M693.8,157.2c-2.7-1.6-5.4-4-5.4-8.4c0-3.1,3.5-7.4,6.2-11.3"/>
								</g>
							</g>
							<g>
								<g>
									<path class="st3" d="M862.6,131.6l1.1,5.9c0.3,1.5-0.7,2.9-2.2,3.2l-0.5,0.1c-1.5,0.3-2.9-0.7-3.2-2.2"/>
									<path class="st3" d="M859.6,162.9v-10.4c1-0.7,1.3-1.8,1.6-2.9c0,0,1.2-4.8,1.2-4.8"/>
									<path class="st3" d="M833.4,162.9l-0.1-4.7l5.7-7.7c4.9-1.9,7.1,2.3,14.4,2.9l0.1,9.6"/>
									<path class="st3" d="M868.1,138c2.9,0.6,3.8-2.4,5-4.6c0.3-0.5,0-0.9-0.8-1.3c-1.1-0.5-2.6-1.1-4.3-1.7
										c-0.5-1.7-1.7-3.1-4.1-3.6c-3.2-0.7-5.1,1.1-6.7,3.3c-0.5,0.8-2,5.3-3,6.5l-2,1.6c0,0-19.1,0.9-19.1,0.9
										c-2.4,0.2-3.5,1.8-3.5,1.8c-0.4,0.4-1.1,1.5-1.6,3.1c-0.5,1.8,0.2,4.9,2,8.5l-2.3,4l0.3,6.5"/>
								</g>
								<path class="st3" d="M832.7,139.1c0,0-9.8-0.2-8.3-8.5"/>
							</g>
							<g>
								<g>
									<line class="st3" x1="756.9" y1="131.1" x2="747.5" y2="140.5"/>
								</g>
								<g>
									<polyline class="st3" points="753.5,127.8 742.4,138.9 742.4,161.7 									"/>
								</g>
								<g>
									<line class="st3" x1="722.2" y1="131.1" x2="731.6" y2="140.5"/>
								</g>
								<g>
									<polyline class="st3" points="725.6,127.8 736.7,138.9 736.7,161.7 									"/>
								</g>
							</g>
							<g>
								<circle class="st3" cx="788" cy="144.9" r="12.9"/>
								<g>
									<line class="st3" x1="788" y1="131.6" x2="788" y2="127.8"/>
									<circle class="st4" cx="788" cy="125.6" r="1.9"/>
								</g>
								<g>
									<line class="st3" x1="798.5" y1="136.9" x2="801.2" y2="134.2"/>
									<circle class="st4" cx="802.8" cy="132.7" r="1.9"/>
								</g>
								<g>
									<line class="st3" x1="801.2" y1="144.9" x2="805" y2="144.9"/>
									<circle class="st4" cx="807.2" cy="144.9" r="1.9"/>
								</g>
								<g>
									<line class="st3" x1="777.5" y1="137.2" x2="774.8" y2="134.5"/>
									<circle class="st4" cx="773.3" cy="133" r="1.9"/>
								</g>
								<g>
									<line class="st3" x1="788" y1="157.9" x2="788" y2="161.7"/>
									<circle class="st4" cx="788" cy="163.9" r="1.9"/>
								</g>
								<g>
									<line class="st3" x1="777.5" y1="152.6" x2="774.8" y2="155.3"/>
									<circle class="st4" cx="773.3" cy="156.8" r="1.9"/>
								</g>
								<g>
									<line class="st3" x1="798.8" y1="152.5" x2="801.5" y2="155.2"/>
									<circle class="st4" cx="803" cy="156.7" r="1.9"/>
								</g>
								<g>
									<line class="st3" x1="774.9" y1="145.2" x2="771.1" y2="145.2"/>
									<circle class="st4" cx="768.8" cy="145.2" r="1.9"/>
								</g>
								<circle class="st4" cx="792.1" cy="140.5" r="1.9"/>
								<circle class="st4" cx="790.8" cy="150.7" r="1.9"/>
								<circle class="st4" cx="782.3" cy="143.3" r="1.9"/>
							</g>
							<g>
								<g>
									<g>
										
											<rect x="644.4" y="134.6" transform="matrix(-0.7071 -0.7071 0.7071 -0.7071 1006.4401 709.1526)" class="st3" width="11.3" height="23"/>
										<line class="st3" x1="642" y1="154.3" x2="634.3" y2="161.9"/>
										<line class="st3" x1="658.5" y1="137.7" x2="664.1" y2="132.1"/>
										<line class="st3" x1="668.7" y1="136.3" x2="659.9" y2="127.6"/>
									</g>
								</g>
								<line class="st3" x1="638" y1="150.3" x2="653.8" y2="150.3"/>
							</g>
						</g>
					</g>
				</g>
			</g>
		</g>
	</g>
</g>
</svg>
