<svg xmlns="http://www.w3.org/2000/svg" width="69" height="69" viewBox="0 0 69 69">
    <defs>
        <filter id="Pfad_12338" x="0" y="0" width="69" height="69" filterUnits="userSpaceOnUse">
            <feOffset dy="1" input="SourceAlpha"/>
            <feGaussianBlur stdDeviation="1" result="blur"/>
            <feFlood flood-opacity="0.2"/>
            <feComposite operator="in" in2="blur"/>
            <feComposite in="SourceGraphic"/>
        </filter>
    </defs>
    <g id="Gruppe_11900" data-name="Gruppe 11900" transform="translate(-183 -335)">
        <g transform="matrix(1, 0, 0, 1, 183, 335)" filter="url(#Pfad_12338)">
            <path id="Pfad_12338-2" data-name="Pfad 12338"
                  d="M2,0H61a2,2,0,0,1,2,2V61a2,2,0,0,1-2,2H2a2,2,0,0,1-2-2V2A2,2,0,0,1,2,0Z" transform="translate(3 2)"
                  fill="#33c5ff"/>
        </g>
        <g id="Gruppe_11895" data-name="Gruppe 11895" transform="translate(193.383 343.394)">
            <g id="Gruppe_10169" data-name="Gruppe 10169" transform="translate(4.798 4.228)">
                <path id="Pfad_9861" data-name="Pfad 9861" d="M25.024,19.432l-5.246,5.23L4.527,9.458l5.246-5.23Z"
                      transform="translate(-4.527 -4.228)" fill="none" stroke="#fff" stroke-linecap="round"
                      stroke-linejoin="round" stroke-width="2"/>
                <line id="Linie_2640" data-name="Linie 2640" x2="5.27" y2="5.254" transform="translate(18.199 18.142)"
                      fill="none" stroke="#fff" stroke-linecap="round" stroke-linejoin="round" stroke-width="2"/>
            </g>
            <path id="Pfad_9862" data-name="Pfad 9862"
                  d="M31.35,31.984a15.859,15.859,0,0,1-9.606,3.232h0A15.957,15.957,0,0,1,5.809,19.33V16.37a15.718,15.718,0,0,1,.4-3.531"
                  transform="translate(1.532 9.012)" fill="none" stroke="#fff" stroke-linecap="round"
                  stroke-linejoin="round" stroke-width="2"/>
            <line id="Linie_2641" data-name="Linie 2641" x2="15.564" transform="translate(27.397 34.487)" fill="none"
                  stroke="#fff" stroke-linecap="round" stroke-linejoin="round" stroke-width="2"/>
            <line id="Linie_2642" data-name="Linie 2642" x2="39.904" transform="translate(4.252 44.228)" fill="none"
                  stroke="#fff" stroke-linecap="round" stroke-linejoin="round" stroke-width="2"/>
            <ellipse id="Ellipse_2106" data-name="Ellipse 2106" cx="3.251" cy="3.241" rx="3.251" ry="3.241"
                     transform="translate(5.532 15.003)" fill="none" stroke="#fff" stroke-linecap="round"
                     stroke-linejoin="round" stroke-width="2"/>
            <ellipse id="Ellipse_2107" data-name="Ellipse 2107" cx="3.663" cy="3.652" rx="3.663" ry="3.652"
                     transform="translate(32.397 34.618)" fill="none" stroke="#fff" stroke-linecap="round"
                     stroke-linejoin="round" stroke-width="2"/>
        </g>
    </g>
</svg>
