<?xml version="1.0" encoding="utf-8"?>
<!-- Generator: Adobe Illustrator 19.2.0, SVG Export Plug-In . SVG Version: 6.00 Build 0)  -->
<svg version="1.1" id="Ebene_3" xmlns="http://www.w3.org/2000/svg" xmlns:xlink="http://www.w3.org/1999/xlink" x="0px" y="0px"
	 viewBox="0 0 132.5 93.6" style="enable-background:new 0 0 132.5 93.6;" xml:space="preserve">
<style type="text/css">
	.st0{fill:none;stroke:#7C7C7C;stroke-width:1.5;stroke-linecap:round;stroke-linejoin:round;stroke-miterlimit:10;}
	.st1{fill:#FCFCFC;}
	.st2{fill:#FFBC00;}
	.st3{fill:none;stroke:#777777;stroke-width:1.5;stroke-linecap:round;stroke-linejoin:round;stroke-miterlimit:10;}
	.st4{fill:none;}
</style>
<circle id="XMLID_6_" class="st0" cx="85.7" cy="46.3" r="44.5"/>
<circle id="XMLID_7_" class="st0" cx="46.7" cy="46.3" r="44.5"/>
<g>
	<g>
		<circle id="XMLID_8_" class="st1" cx="66.8" cy="47.2" r="44.5"/>
	</g>
	<g>
		<g>
			<path class="st2" d="M66.8,25.7c0.2,0.7-0.9,16.4,5.5,24.1c4.3,5.1,12.8,5.5,17.1,5.1c0.4,0,0.1-3.5,0.1-3.5
				c0.8-1,5.9,6.9,16.5-10.6c2.3-3.9-8.7-13.2-14.6-16.9c-2.9-1.8-6.4,4.3-8.2,3.9C76.9,26.5,66.8,25.7,66.8,25.7z"/>
			<path class="st3" d="M44,51.9c0,0-0.8,7.7,1.5,10.9c2.8,3.8,6,3.2,6,3.2"/>
			<line class="st3" x1="45.5" y1="86.3" x2="48.7" y2="66.3"/>
			<g id="Hermann_2_">
				<path class="st4" d="M51.8,38c-1.9,2.1-1.1,6,2.1,8c2.5,1.6,6.1,1.6,7.1-0.6c1.2-2.6-0.3-6.4-2.4-8C55.8,35.3,53.5,36.2,51.8,38
					z"/>
				<path class="st3" d="M57.3,39.7c1.8,0,3.6,1.1,4,3.1c0.5,2.4-1.6,4.6-4,4.3c-1.8-0.3-3.3-1.7-3.3-3.7S55.5,39.7,57.3,39.7z"/>
				<g>
					<path id="XMLID_11_" class="st3" d="M51.8,38c-1.9,2.1-1.1,6,2.1,8c2.5,1.6,6.1,1.6,7.1-0.6c1.2-2.6-0.3-6.4-2.4-8
						C55.8,35.3,53.5,36.2,51.8,38z"/>
				</g>
				<g>
					<path class="st4" d="M82.6,38.3c1.9,2.1,1.1,6-2.1,8c-2.5,1.6-6.1,1.6-7.1-0.6c-1.2-2.6,0.3-6.4,2.4-8
						C78.7,35.7,80.9,36.5,82.6,38.3z"/>
					<path class="st3" d="M77.3,40.2c1.8,0,3.7,1.5,3.3,3.7c-0.4,2.2-2,3.6-3.8,3.6s-3.5-1-3.5-3S75.6,40.2,77.3,40.2z"/>
					<g>
						<path id="XMLID_10_" class="st3" d="M82.6,38.3c1.9,2.1,1.1,6-2.1,8c-2.5,1.6-6.1,1.6-7.1-0.6c-1.2-2.6,0.3-6.4,2.4-8
							C78.7,35.7,80.9,36.5,82.6,38.3z"/>
					</g>
					<path class="st3" d="M89.6,51.3c0,0,0.5,8.3-1.8,11.5c-2.8,3.8-6,3.2-6,3.2"/>
					<line class="st3" x1="87.9" y1="85.6" x2="84.8" y2="65.8"/>
					<path id="XMLID_9_" class="st3" d="M90.3,31.6c0.9,1.8,0.4,8.8-0.8,12s-1.8,6.8,1.4,8.1c4.9,2.1,12.3-5.1,14.7-9.7
						s-1.5-7.9-4.2-10.1c-2.7-2.1-7.3-7.1-9.9-8.1c-3.1-1.2-7.7,4-7.7,4c-19.3-4.9-33.4,0-33.4,0s-3.8-5.1-7-3.9
						c-2.6,1-7.2,6-9.9,8.1c-2.7,2.1-6.4,5.6-4,10.2s8.6,12.2,14,9.7c3.2-1.4,3.3-5,2.1-8.1c-1.2-3.2-1.7-10.2-0.8-12"/>
					<path class="st3" d="M66.8,56.7c0,0-4.7-2.8-3.5-5.1c0.8-1.6,6.4-1.8,7.3,0C71.8,53.9,66.8,56.7,66.8,56.7z"/>
					<path class="st3" d="M66.7,57.3v3.4c-1.5,1.5-5.9,2-7.7,1.3c-2.1-0.8-2.3-2.2-1.9-3.8"/>
					<path class="st3" d="M66.9,60.7c1.5,1.5,5.9,2,7.7,1.3c2.1-0.8,2.4-2.1,1.9-3.8"/>
					<path class="st3" d="M62.8,62"/>
				</g>
				<g>
					<circle id="XMLID_4_" class="st3" cx="66.8" cy="47.2" r="44.5"/>
				</g>
			</g>
		</g>
	</g>
</g>
</svg>
