<?xml version="1.0" encoding="utf-8"?>
<!-- Generator: Adobe Illustrator 19.2.0, SVG Export Plug-In . SVG Version: 6.00 Build 0)  -->
<svg version="1.1" id="Ebene_2" xmlns="http://www.w3.org/2000/svg" xmlns:xlink="http://www.w3.org/1999/xlink" x="0px" y="0px"
	 viewBox="0 0 92.8 92.5" style="enable-background:new 0 0 92.8 92.5;" xml:space="preserve">
<style type="text/css">
	.st0{fill:#FCFCFC;}
	.st1{fill:#FFBC00;}
	.st2{fill:none;stroke:#777777;stroke-width:1.5;stroke-linecap:round;stroke-linejoin:round;stroke-miterlimit:10;}
	.st3{fill:none;}
</style>
<g>
	<g>
		<circle id="XMLID_8_" class="st0" cx="46.5" cy="47" r="44.5"/>
	</g>
	<g>
		<g>
			<path class="st1" d="M46.6,25.5c0.2,0.7-0.9,16.4,5.5,24.1c4.3,5.1,12.8,5.5,17.1,5.1c0.4,0,0.1-3.5,0.1-3.5
				c0.8-1,5.9,6.9,16.5-10.6c2.3-3.9-8.7-13.2-14.6-16.9c-2.9-1.8-6.4,4.3-8.2,3.9C56.7,26.3,46.6,25.5,46.6,25.5z"/>
			<path class="st2" d="M23.8,51.7c0,0-0.8,7.7,1.5,10.9c2.8,3.8,6,3.2,6,3.2"/>
			<line class="st2" x1="25.2" y1="86.1" x2="28.4" y2="66.1"/>
			<g id="Hermann_2_">
				<path class="st3" d="M31.6,37.8c-1.9,2.1-1.1,6,2.1,8c2.5,1.6,6.1,1.6,7.1-0.6c1.2-2.6-0.3-6.4-2.4-8
					C35.5,35.1,33.2,36,31.6,37.8z"/>
				<path class="st2" d="M37,39.5c1.8,0,3.6,1.1,4,3.1c0.5,2.4-1.6,4.6-4,4.3c-1.8-0.3-3.3-1.7-3.3-3.7S35.2,39.5,37,39.5z"/>
				<g>
					<path id="XMLID_11_" class="st2" d="M31.6,37.8c-1.9,2.1-1.1,6,2.1,8c2.5,1.6,6.1,1.6,7.1-0.6c1.2-2.6-0.3-6.4-2.4-8
						C35.5,35.1,33.2,36,31.6,37.8z"/>
				</g>
				<g>
					<path class="st3" d="M62.3,38.1c1.9,2.1,1.1,6-2.1,8c-2.5,1.6-6.1,1.6-7.1-0.6c-1.2-2.6,0.3-6.4,2.4-8
						C58.4,35.5,60.7,36.3,62.3,38.1z"/>
					<path class="st2" d="M57.1,40c1.8,0,3.7,1.5,3.3,3.7c-0.4,2.2-2,3.6-3.8,3.6s-3.5-1-3.5-3S55.3,40,57.1,40z"/>
					<g>
						<path id="XMLID_10_" class="st2" d="M62.3,38.1c1.9,2.1,1.1,6-2.1,8c-2.5,1.6-6.1,1.6-7.1-0.6c-1.2-2.6,0.3-6.4,2.4-8
							C58.4,35.5,60.7,36.3,62.3,38.1z"/>
					</g>
					<path class="st2" d="M69.3,51.1c0,0,0.5,8.3-1.8,11.5c-2.8,3.8-6,3.2-6,3.2"/>
					<line class="st2" x1="67.7" y1="85.4" x2="64.5" y2="65.6"/>
					<path id="XMLID_9_" class="st2" d="M70,31.4c0.9,1.8,0.4,8.8-0.8,12s-1.8,6.8,1.4,8.1c4.9,2.1,12.3-5.1,14.7-9.7
						s-1.5-7.9-4.2-10.1c-2.7-2.1-7.3-7.1-9.9-8.1c-3.1-1.2-7.7,4-7.7,4c-19.3-4.9-33.4,0-33.4,0s-3.8-5.1-7-3.9
						c-2.6,1-7.2,6-9.9,8.1s-6.4,5.6-4,10.2s8.6,12.2,14,9.7c3.2-1.4,3.3-5,2.1-8.1c-1.2-3.2-1.7-10.2-0.8-12"/>
					<path class="st2" d="M46.5,56.5c0,0-4.7-2.8-3.5-5.1c0.8-1.6,6.4-1.8,7.3,0C51.5,53.7,46.5,56.5,46.5,56.5z"/>
					<path class="st2" d="M46.4,57.1v3.4c-1.5,1.5-5.9,2-7.7,1.3c-2.1-0.8-2.3-2.2-1.9-3.8"/>
					<path class="st2" d="M46.7,60.5c1.5,1.5,5.9,2,7.7,1.3c2.1-0.8,2.4-2.1,1.9-3.8"/>
					<path class="st2" d="M42.5,61.8"/>
				</g>
				<g>
					<circle id="XMLID_1_" class="st2" cx="46.5" cy="47" r="44.5"/>
				</g>
			</g>
		</g>
	</g>
</g>
</svg>
