<svg id="Ebene_2" data-name="Ebene 2" xmlns="http://www.w3.org/2000/svg" viewBox="0 0 108.98 139.67"><defs><style>.cls-1{fill:none;stroke:#434342;stroke-linecap:round;stroke-miterlimit:10;stroke-width:5px;}.cls-2{fill:#ffbc00;}</style></defs><title>Häckchen_Blatt</title><polygon class="cls-1" points="2.5 137.17 106.48 137.17 106.48 2.5 32.5 2.5 2.5 35.92 2.5 137.17"/><path class="cls-2" d="M1097.67,127.39a10.49,10.49,0,0,1-5.55-1.58l-26.95-16.73a10.53,10.53,0,1,1,11.11-17.9l18.37,11.4,24.06-35.33a10.53,10.53,0,0,1,17.41,11.85l-29.74,43.68A10.52,10.52,0,0,1,1097.67,127.39Z" transform="translate(-1042.11 -6.17)"/><path class="cls-1" d="M1094.46,117a10.49,10.49,0,0,1-5.55-1.58L1062,98.67a10.53,10.53,0,1,1,11.11-17.9l18.37,11.4,24.06-35.33a10.53,10.53,0,1,1,17.41,11.85l-29.74,43.68A10.52,10.52,0,0,1,1094.46,117Z" transform="translate(-1042.11 -6.17)"/><polyline class="cls-1" points="4.83 35.92 32.5 35.92 32.5 3.47"/></svg>