<svg id="Ebene_2" data-name="Ebene 2" xmlns="http://www.w3.org/2000/svg" viewBox="0 0 100 100"><defs><style>.cls-1{fill:#ffbc00;}.cls-2{fill:none;stroke:#434342;stroke-miterlimit:10;stroke-width:5px;}</style></defs><title>Sonstige_Icons</title><path class="cls-1" d="M52.57,95.33A12.35,12.35,0,0,1,46,93.47L14.31,73.77A12.4,12.4,0,0,1,27.39,52.7L49,66.12l28.32-41.6a12.4,12.4,0,1,1,20.5,14l-35,51.43A12.39,12.39,0,0,1,52.57,95.33Z"/><path class="cls-2" d="M48.79,83.08a12.35,12.35,0,0,1-6.53-1.87L10.53,61.52A12.4,12.4,0,0,1,23.61,40.45L45.24,53.87l28.32-41.6a12.4,12.4,0,1,1,20.5,14L59,77.66A12.39,12.39,0,0,1,48.79,83.08Z"/></svg>