<svg xmlns="http://www.w3.org/2000/svg" xmlns:xlink="http://www.w3.org/1999/xlink" width="125.472" height="26.081" viewBox="0 0 125.472 26.081">
  <defs>
    <clipPath id="clip-path">
      <path id="Pfad_9878" data-name="Pfad 9878" d="M0-14.139H125.472V-40.22H0Z" transform="translate(0 40.22)" fill="none"/>
    </clipPath>
  </defs>
  <g id="Gruppe_10187" data-name="Gruppe 10187" transform="translate(-33 42.22)">
    <g id="Gruppe_10186" data-name="Gruppe 10186" transform="translate(33 -42.22)" clip-path="url(#clip-path)">
      <g id="Gruppe_10175" data-name="Gruppe 10175" transform="translate(30.763 9.08)">
        <path id="Pfad_9867" data-name="Pfad 9867" d="M-3.16-5.917c-3.149,0-5.828-1.681-5.828-5.465s2.679-5.45,5.828-5.45A5.735,5.735,0,0,1,.867-15.455a1.06,1.06,0,0,1,.3.726.931.931,0,0,1-.953.954A2.982,2.982,0,0,1-1.026-14.3a3.922,3.922,0,0,0-2.119-.5A3.2,3.2,0,0,0-6.6-11.382,3.216,3.216,0,0,0-3.13-7.946,5.077,5.077,0,0,0-.39-8.657,1.134,1.134,0,0,1,.2-8.824a1.067,1.067,0,0,1,1.03,1.06.9.9,0,0,1-.363.727A6.483,6.483,0,0,1-3.16-5.917" transform="translate(8.988 16.832)" fill="#333a3c"/>
      </g>
      <g id="Gruppe_10176" data-name="Gruppe 10176" transform="translate(46.499 9.095)">
        <path id="Pfad_9868" data-name="Pfad 9868" d="M-3.152-5.909c-3.421,0-5.813-1.923-5.813-5.435,0-3.5,2.392-5.465,5.813-5.465s5.813,1.969,5.813,5.465S.255-5.909-3.152-5.909m0-8.992a3.241,3.241,0,0,0-3.421,3.557A3.217,3.217,0,0,0-3.152-7.816,3.24,3.24,0,0,0,.27-11.344,3.256,3.256,0,0,0-3.152-14.9" transform="translate(8.965 16.809)" fill="#333a3c"/>
      </g>
      <g id="Gruppe_10177" data-name="Gruppe 10177" transform="translate(63.671 9.126)">
        <path id="Pfad_9869" data-name="Pfad 9869" d="M-4.079-2.733C-4.079-5-5.29-5.761-6.758-5.761S-9.453-5-9.453-2.733V1.93c0,.742-.425,1.014-1.075,1.014S-11.6,2.672-11.6,1.93V-2.718c0-3.179,1.681-5.056,4.845-5.056S-1.929-5.9-1.929-2.718V1.93c0,.742-.439,1.014-1.074,1.014S-4.079,2.672-4.079,1.93Z" transform="translate(11.603 7.774)" fill="#333a3c"/>
      </g>
      <g id="Gruppe_10178" data-name="Gruppe 10178" transform="translate(78.866 9.141)">
        <path id="Pfad_9870" data-name="Pfad 9870" d="M-1.165-3.644V-.616A.987.987,0,0,1-2.241.338.979.979,0,0,1-3.315-.616V-9.26c.03-1,3.225-1.1,4.3-1.1a11.969,11.969,0,0,1,3.467.348.905.905,0,0,1,.635.879A.977.977,0,0,1,4.028-8.11a14.859,14.859,0,0,0-2.543-.228,15.031,15.031,0,0,0-2.65.2v2.482H1.847a.984.984,0,0,1,1.09,1.015.988.988,0,0,1-1.09,1Z" transform="translate(3.315 10.365)" fill="#333a3c"/>
      </g>
      <g id="Gruppe_10179" data-name="Gruppe 10179" transform="translate(92.798 9.246)">
        <path id="Pfad_9871" data-name="Pfad 9871" d="M0-.558a1.006,1.006,0,0,1,1.075-1.03A1.014,1.014,0,0,1,2.15-.558V7.981A1.058,1.058,0,0,1,1.075,9.01,1.049,1.049,0,0,1,0,7.981Z" transform="translate(0 1.588)" fill="#333a3c"/>
      </g>
      <g id="Gruppe_10180" data-name="Gruppe 10180" transform="translate(100.482 9.141)">
        <path id="Pfad_9872" data-name="Pfad 9872" d="M0-.624c0-.969,2.891-1.15,4.088-1.15,3.89,0,5.707,1.726,5.707,5.359,0,3.861-2.044,5.42-5.768,5.42C2.8,9.005,0,8.823,0,7.854ZM2.1,6.991a6.542,6.542,0,0,0,1.8.228c2.362,0,3.573-.939,3.573-3.6C7.475.6,5.992,0,3.994,0A6.072,6.072,0,0,0,2.1.254Z" transform="translate(0 1.774)" fill="#333a3c"/>
      </g>
      <g id="Gruppe_10181" data-name="Gruppe 10181" transform="translate(115.797 9.246)">
        <path id="Pfad_9873" data-name="Pfad 9873" d="M-4.079-.55A.987.987,0,0,1-3-1.565.987.987,0,0,1-1.929-.55v5.1c0,2.937-1.711,4.633-4.83,4.633-3.134,0-4.845-1.7-4.845-4.633V-.55a.987.987,0,0,1,1.075-1.015A.979.979,0,0,1-9.453-.55v5.1A2.442,2.442,0,0,0-6.758,7.277,2.438,2.438,0,0,0-4.079,4.551Z" transform="translate(11.603 1.565)" fill="#333a3c"/>
      </g>
      <g id="Gruppe_10182" data-name="Gruppe 10182" transform="translate(8.671 0)">
        <path id="Pfad_9874" data-name="Pfad 9874" d="M-.659-5.675A1.215,1.215,0,0,1-1.875-6.891v-3.6a5.663,5.663,0,0,1,5.657-5.657,5.685,5.685,0,0,1,4.536,2.277,1.215,1.215,0,0,1-.247,1.7,1.216,1.216,0,0,1-1.7-.247,3.2,3.2,0,0,0-2.587-1.3A3.229,3.229,0,0,0,.557-10.487v3.6A1.215,1.215,0,0,1-.659-5.675" transform="translate(1.875 16.144)" fill="#ffaa4d"/>
      </g>
      <g id="Gruppe_10183" data-name="Gruppe 10183" transform="translate(17.552 5.487)">
        <path id="Pfad_9875" data-name="Pfad 9875" d="M-.659-7.648A1.215,1.215,0,0,1-1.875-8.864V-20.541A1.215,1.215,0,0,1-.659-21.757,1.215,1.215,0,0,1,.557-20.541V-8.864A1.215,1.215,0,0,1-.659-7.648" transform="translate(1.875 21.757)" fill="#ffaa4d"/>
      </g>
      <g id="Gruppe_10184" data-name="Gruppe 10184" transform="translate(0 8.67)">
        <path id="Pfad_9876" data-name="Pfad 9876" d="M-13.04-6.133h-18.4a5.663,5.663,0,0,1-5.657-5.657,5.663,5.663,0,0,1,5.657-5.657h4.221A1.216,1.216,0,0,1-26-16.23a1.216,1.216,0,0,1-1.216,1.216h-4.221a3.229,3.229,0,0,0-3.225,3.225,3.229,3.229,0,0,0,3.225,3.225h18.4a1.215,1.215,0,0,1,1.216,1.216A1.215,1.215,0,0,1-13.04-6.133" transform="translate(37.094 17.446)" fill="#ffaa4d"/>
      </g>
      <g id="Gruppe_10185" data-name="Gruppe 10185" transform="translate(8.69 8.671)">
        <path id="Pfad_9877" data-name="Pfad 9877" d="M-.659-9.439a1.215,1.215,0,0,1-1.216-1.216V-21.192a5.663,5.663,0,0,1,5.657-5.657H7.816a1.215,1.215,0,0,1,1.216,1.216,1.215,1.215,0,0,1-1.216,1.216H3.782A3.229,3.229,0,0,0,.557-21.192v10.538A1.215,1.215,0,0,1-.659-9.439" transform="translate(1.875 26.849)" fill="#ffaa4d"/>
      </g>
    </g>
  </g>
</svg>
