<?xml version="1.0" encoding="utf-8"?>
<!-- Generator: Adobe Illustrator 23.0.1, SVG Export Plug-In . SVG Version: 6.00 Build 0)  -->
<svg version="1.1" id="Ebene_1" xmlns="http://www.w3.org/2000/svg" x="0px" y="0px"
     viewBox="0 0 509.56 140.56" style="enable-background:new 0 0 509.56 140.56;" xml:space="preserve">
<style type="text/css">
	.st0{fill:#FFFFFF;}
</style>
    <g>
	<path class="st0" d="M117.89,86.25h-14.4v-38.4c0-2.38-1.93-4.3-4.3-4.3s-4.3,1.93-4.3,4.3v6.96H83.53c-4.31,0-8.3,1.38-11.57,3.71
		c-0.02-0.16-0.05-0.32-0.09-0.48c0.11-0.37,0.18-0.76,0.18-1.17V44.15c0-6.29,5.12-11.41,11.41-11.41c3.64,0,6.98,1.68,9.15,4.6
		c1.42,1.9,4.12,2.3,6.02,0.88c1.9-1.42,2.3-4.12,0.88-6.02c-3.76-5.05-9.76-8.06-16.05-8.06c-11.04,0-20.02,8.98-20.02,20.02v10.67
		H52.78c-11.04,0-20.02,8.98-20.02,20.02s8.98,20.02,20.02,20.02h10.73v17.28c0,2.38,1.93,4.3,4.3,4.3s4.3-1.93,4.3-4.3v-17.3h45.77
		c2.38,0,4.3-1.93,4.3-4.3S120.26,86.25,117.89,86.25z M52.78,86.25c-6.29,0-11.41-5.12-11.41-11.41s5.12-11.41,11.41-11.41h14.33
		c-2.26,3.24-3.59,7.17-3.59,11.41v11.41H52.78z M72.12,74.83c0-6.29,5.12-11.41,11.41-11.41h11.35v22.82H72.12V74.83z"/>
        <g>
		<g>
			<path class="st0" d="M162.26,94.89c-11.14,0-20.63-5.95-20.63-19.34s9.48-19.29,20.63-19.29c5.2,0,10.5,1.29,14.25,4.87
				c0.64,0.75,1.07,1.5,1.07,2.57c0,1.98-1.5,3.38-3.37,3.38c-1.71,0-3.16-1.29-4.4-1.87c-2.25-1.39-4.82-1.77-7.5-1.77
				c-6.75,0-12.22,3.96-12.22,12.11c0,8.09,5.41,12.16,12.27,12.16c3.48,0,6.75-0.69,9.7-2.52c0.7-0.43,1.45-0.59,2.09-0.59
				c2.09,0,3.64,1.88,3.64,3.75c0,0.91-0.38,1.87-1.29,2.57C172.38,94.04,167.4,94.89,162.26,94.89z"/>
		</g>
            <g>
			<path class="st0" d="M217.89,94.89c-12.11,0-20.57-6.8-20.57-19.23c0-12.37,8.47-19.34,20.57-19.34
				c12.05,0,20.57,6.97,20.57,19.34C238.46,88.04,229.94,94.89,217.89,94.89z M217.89,63.07c-6.96,0-12.11,4.34-12.11,12.59
				s5.14,12.49,12.11,12.49S230,83.75,230,75.66C230,67.52,224.85,63.07,217.89,63.07z"/>
		</g>
            <g>
			<path class="st0" d="M284.72,74.27c0-8.04-4.29-10.72-9.48-10.72c-5.2,0-9.54,2.68-9.54,10.72v16.5c0,2.62-1.5,3.59-3.8,3.59
				c-2.31,0-3.8-0.96-3.8-3.59V74.32c0-11.25,5.95-17.89,17.14-17.89c11.14,0,17.09,6.64,17.09,17.89v16.45
				c0,2.62-1.55,3.59-3.8,3.59s-3.8-0.96-3.8-3.59v-16.5H284.72z"/>
		</g>
            <g>
			<path class="st0" d="M319.47,80.27v10.72c0,2.25-1.93,3.38-3.8,3.38c-1.93,0-3.8-1.13-3.8-3.38v-30.6
				c0.11-3.54,11.41-3.91,15.22-3.91c5.41,0,9.54,0.32,12.27,1.23c1.55,0.54,2.25,1.82,2.25,3.11c0,1.98-1.61,4.02-3.75,3.64
				c-2.41-0.48-6.16-0.8-9-0.8c-3.54,0-6.8,0.22-9.38,0.7v8.79h10.66c2.41,0,3.86,1.45,3.86,3.59c0,2.04-1.45,3.54-3.86,3.54h-10.67
				V80.27z"/>
		</g>
            <g>
			<path class="st0" d="M361.17,60.5c0-2.2,1.61-3.64,3.8-3.64c2.14,0,3.8,1.45,3.8,3.64v30.22c0,2.2-1.93,3.64-3.8,3.64
				c-1.93,0-3.8-1.45-3.8-3.64V60.5z"/>
		</g>
            <g>
			<path class="st0" d="M388.36,60.55c0-3.43,10.23-4.07,14.47-4.07c13.77,0,20.2,6.11,20.2,18.97c0,13.66-7.23,19.18-20.41,19.18
				c-4.34,0-14.25-0.64-14.25-4.07V60.55H388.36z M395.8,87.5c1.23,0.32,3.16,0.8,6.38,0.8c8.36,0,12.64-3.32,12.64-12.75
				c0-10.66-5.25-12.81-12.32-12.81c-2.89,0-4.72,0.32-6.7,0.91V87.5z"/>
		</g>
            <g>
			<path class="st0" d="M469.19,60.44c0-2.25,1.61-3.59,3.8-3.59c2.2,0,3.8,1.34,3.8,3.59V78.5c0,10.39-6.05,16.39-17.09,16.39
				c-11.09,0-17.14-6-17.14-16.39V60.44c0-2.25,1.61-3.59,3.8-3.59c2.25,0,3.8,1.34,3.8,3.59V78.5c0,7.23,4.45,9.65,9.54,9.65
				c5.04,0,9.48-2.41,9.48-9.65V60.44H469.19z"/>
		</g>
	</g>
</g>
</svg>
