<?xml version="1.0" encoding="utf-8"?>
<!-- Generator: Adobe Illustrator 19.2.0, SVG Export Plug-In . SVG Version: 6.00 Build 0)  -->
<svg version="1.1" xmlns="http://www.w3.org/2000/svg" xmlns:xlink="http://www.w3.org/1999/xlink" x="0px" y="0px"
	 viewBox="0 0 273.5 93.6" style="enable-background:new 0 0 273.5 93.6;" xml:space="preserve">
<style type="text/css">
	.st0{fill:none;stroke:#7C7C7C;stroke-width:1.5;stroke-linecap:round;stroke-linejoin:round;stroke-miterlimit:10;}
	.st1{fill:#FCFCFC;stroke:#777777;stroke-width:1.5;stroke-linecap:round;stroke-linejoin:round;stroke-miterlimit:10;}
	.st2{clip-path:url(#SVGID_5_);}
	.st3{display:none;clip-path:url(#SVGID_6_);fill:none;stroke:#777777;stroke-miterlimit:10;}
	.st4{fill:none;stroke:#777777;stroke-width:1.5;stroke-linecap:round;stroke-linejoin:round;stroke-miterlimit:10;}
	.st5{fill:#FCFCFC;}
	.st6{clip-path:url(#SVGID_8_);fill:#FFBC00;}
	.st7{fill:#FFBC00;stroke:#777777;stroke-width:1.5;stroke-linecap:round;stroke-linejoin:round;stroke-miterlimit:10;}
	.st8{fill:#FFBC00;}
	.st9{fill:none;}
	.st10{display:none;}
	
		.st11{display:inline;fill:#FCFCFC;stroke:#777777;stroke-width:1.5;stroke-linecap:round;stroke-linejoin:round;stroke-miterlimit:10;}
	.st12{display:inline;}
	.st13{clip-path:url(#SVGID_13_);}
	.st14{display:none;clip-path:url(#SVGID_14_);fill:none;stroke:#777777;stroke-miterlimit:10;}
	.st15{clip-path:url(#SVGID_16_);fill:#FFBC00;}
</style>
<g id="Ebene_3">
	<circle id="XMLID_6_" class="st0" cx="85.7" cy="46.3" r="44.5"/>
	<circle id="XMLID_7_" class="st0" cx="46.7" cy="46.3" r="44.5"/>
	<circle id="XMLID_48_" class="st1" cx="66.7" cy="47.6" r="44.7"/>
	<g>
		<g>
			<g>
				<g>
					<defs>
						<path id="SVGID_1_" d="M52.2,89.7c-2.8-8.7-4.8-23.6-4.6-24.3"/>
					</defs>
					<clipPath id="SVGID_2_">
						<use xlink:href="#SVGID_1_"  style="overflow:visible;"/>
					</clipPath>
				</g>
				<g>
					<defs>
						<path id="SVGID_3_" d="M52.2,89.7c-2.8-8.7-4.8-23.6-4.6-24.3"/>
					</defs>
					<defs>
						<path id="SVGID_4_" d="M86.8,65.4c0.2,0.7-2.1,15.5-4.9,24.3"/>
					</defs>
					<clipPath id="SVGID_5_">
						<use xlink:href="#SVGID_3_"  style="overflow:visible;"/>
					</clipPath>
					<clipPath id="SVGID_6_" class="st2">
						<use xlink:href="#SVGID_4_"  style="overflow:visible;"/>
					</clipPath>
					<path class="st3" d="M41,100.5c0,0,5-21,27.8-21c17.8,0,30.8,20,30.8,20L41,100.5z"/>
				</g>
			</g>
			<g>
				<path id="XMLID_2_" class="st4" d="M52.2,89.7c-2.8-8.7-4.8-23.6-4.6-24.3"/>
			</g>
			<g>
				<path id="XMLID_1_" class="st4" d="M86.8,65.4c0.2,0.7-2.1,15.5-4.9,24.3"/>
			</g>
		</g>
		<g>
			<g>
				<path id="XMLID_13_" class="st5" d="M81.1,66.3c0,0,21.6-1.1,13.1-22C99,29,92.9,20.7,92.9,20.7s-12.9,3.3-17,12
					C69.8,32,67,32,67,32h0.5c0,0-2.8,0-8.9,0.7c-4.1-8.7-17-12-17-12s-6.1,8.3-1.3,23.6c-8.5,21,13.1,22,13.1,22"/>
			</g>
			<g>
				<g>
					<defs>
						<path id="SVGID_7_" d="M81.1,66.3c0,0,21.6-1.1,13.1-22C99,29,92.9,20.7,92.9,20.7s-12.9,3.3-17,12C69.8,32,67,32,67,32h0.5
							c0,0-2.8,0-8.9,0.7c-4.1-8.7-17-12-17-12s-6.1,8.3-1.3,23.6c-8.5,21,13.1,22,13.1,22"/>
					</defs>
					<clipPath id="SVGID_8_">
						<use xlink:href="#SVGID_7_"  style="overflow:visible;"/>
					</clipPath>
					<path class="st6" d="M60.2,4.6c0,0,13.3,43.5-6,45.3C19.5,53.3,33.5,8.6,33.5,8.6L60.2,4.6z"/>
				</g>
			</g>
			<g>
				<path id="XMLID_3_" class="st4" d="M81.1,66.3c0,0,21.6-1.1,13.1-22C99,29,92.9,20.7,92.9,20.7s-12.9,3.3-17,12
					C69.8,32,67,32,67,32h0.5c0,0-2.8,0-8.9,0.7c-4.1-8.7-17-12-17-12s-6.1,8.3-1.3,23.6c-8.5,21,13.1,22,13.1,22"/>
			</g>
		</g>
		<path class="st7" d="M44.7,45.3c1-2.9,15.9-11.1,18.1,10C48.2,62.6,43.2,49.7,44.7,45.3z"/>
		<path class="st4" d="M54.5,41.6c-3.5,7.9,0,15.7,0,15.7"/>
		<path class="st1" d="M67.1,61.9c0,0-4.5-4.4,0-5C72,57.2,67.1,61.9,67.1,61.9z"/>
		<path class="st1" d="M60.5,63.5c0,0,0.2,2.4,2.7,2.7c3.1,0.4,3.9-4.3,3.9-4.3"/>
		<path class="st7" d="M89.6,45.3c-1-2.9-15.7-10.8-18.1,10C86.1,62.6,91.1,49.7,89.6,45.3z"/>
		<path class="st4" d="M79.8,41.6c3.5,7.9,0,15.7,0,15.7"/>
		<path class="st1" d="M73.8,63.5c0,0-0.2,2.4-2.7,2.7c-3.1,0.4-3.9-4.3-3.9-4.3"/>
	</g>
	<circle id="XMLID_12_" class="st0" cx="227" cy="46.3" r="44.5"/>
	<circle id="XMLID_5_" class="st0" cx="188" cy="46.3" r="44.5"/>
	<g>
		<g>
			<circle id="XMLID_8_" class="st5" cx="208.1" cy="47.2" r="44.5"/>
		</g>
		<g>
			<g>
				<path class="st8" d="M208.1,25.7c0.2,0.7-0.9,16.4,5.5,24.1c4.3,5.1,12.8,5.5,17.1,5.1c0.4,0,0.1-3.5,0.1-3.5
					c0.8-1,5.9,6.9,16.5-10.6c2.3-3.9-8.7-13.2-14.6-16.9c-2.9-1.8-6.4,4.3-8.2,3.9C218.2,26.5,208.1,25.7,208.1,25.7z"/>
				<path class="st4" d="M185.3,51.9c0,0-0.8,7.7,1.5,10.9c2.8,3.8,6,3.2,6,3.2"/>
				<line class="st4" x1="186.8" y1="86.3" x2="190" y2="66.3"/>
				<g id="Hermann_2_">
					<path class="st9" d="M193.1,38c-1.9,2.1-1.1,6,2.1,8c2.5,1.6,6.1,1.6,7.1-0.6c1.2-2.6-0.3-6.4-2.4-8
						C197.1,35.3,194.8,36.2,193.1,38z"/>
					<path class="st4" d="M198.6,39.7c1.8,0,3.6,1.1,4,3.1c0.5,2.4-1.6,4.6-4,4.3c-1.8-0.3-3.3-1.7-3.3-3.7S196.8,39.7,198.6,39.7z"
						/>
					<g>
						<path id="XMLID_11_" class="st4" d="M193.1,38c-1.9,2.1-1.1,6,2.1,8c2.5,1.6,6.1,1.6,7.1-0.6c1.2-2.6-0.3-6.4-2.4-8
							C197.1,35.3,194.8,36.2,193.1,38z"/>
					</g>
					<g>
						<path class="st9" d="M223.9,38.3c1.9,2.1,1.1,6-2.1,8c-2.5,1.6-6.1,1.6-7.1-0.6c-1.2-2.6,0.3-6.4,2.4-8
							C220,35.7,222.2,36.5,223.9,38.3z"/>
						<path class="st4" d="M218.6,40.2c1.8,0,3.7,1.5,3.3,3.7c-0.4,2.2-2,3.6-3.8,3.6s-3.5-1-3.5-3S216.9,40.2,218.6,40.2z"/>
						<g>
							<path id="XMLID_10_" class="st4" d="M223.9,38.3c1.9,2.1,1.1,6-2.1,8c-2.5,1.6-6.1,1.6-7.1-0.6c-1.2-2.6,0.3-6.4,2.4-8
								C220,35.7,222.2,36.5,223.9,38.3z"/>
						</g>
						<path class="st4" d="M230.9,51.3c0,0,0.5,8.3-1.8,11.5c-2.8,3.8-6,3.2-6,3.2"/>
						<line class="st4" x1="229.2" y1="85.6" x2="226.1" y2="65.8"/>
						<path id="XMLID_9_" class="st4" d="M231.6,31.6c0.9,1.8,0.4,8.8-0.8,12c-1.2,3.2-1.8,6.8,1.4,8.1c4.9,2.1,12.3-5.1,14.7-9.7
							s-1.5-7.9-4.2-10.1c-2.7-2.1-7.3-7.1-9.9-8.1c-3.1-1.2-7.7,4-7.7,4c-19.3-4.9-33.4,0-33.4,0s-3.8-5.1-7-3.9
							c-2.6,1-7.2,6-9.9,8.1c-2.7,2.1-6.4,5.6-4,10.2c2.4,4.6,8.6,12.2,14,9.7c3.2-1.4,3.3-5,2.1-8.1c-1.2-3.2-1.7-10.2-0.8-12"/>
						<path class="st4" d="M208.1,56.7c0,0-4.7-2.8-3.5-5.1c0.8-1.6,6.4-1.8,7.3,0C213.1,53.9,208.1,56.7,208.1,56.7z"/>
						<path class="st4" d="M208,57.3v3.4c-1.5,1.5-5.9,2-7.7,1.3c-2.1-0.8-2.3-2.2-1.9-3.8"/>
						<path class="st4" d="M208.2,60.7c1.5,1.5,5.9,2,7.7,1.3c2.1-0.8,2.4-2.1,1.9-3.8"/>
						<path class="st4" d="M204.1,62"/>
					</g>
					<g>
						<circle id="XMLID_4_" class="st4" cx="208.1" cy="47.2" r="44.5"/>
					</g>
				</g>
			</g>
		</g>
	</g>
</g>
<g id="Ebene_2" class="st10">
	<circle id="XMLID_23_" class="st11" cx="46.7" cy="46.5" r="44.7"/>
	<g class="st12">
		<g>
			<g>
				<defs>
					<path id="SVGID_9_" d="M32.2,88.6c-2.8-8.7-4.8-23.6-4.6-24.3"/>
				</defs>
				<clipPath id="SVGID_10_">
					<use xlink:href="#SVGID_9_"  style="overflow:visible;"/>
				</clipPath>
			</g>
			<g>
				<defs>
					<path id="SVGID_11_" d="M32.2,88.6c-2.8-8.7-4.8-23.6-4.6-24.3"/>
				</defs>
				<defs>
					<path id="SVGID_12_" d="M66.8,64.3c0.2,0.7-2.1,15.5-4.9,24.3"/>
				</defs>
				<clipPath id="SVGID_13_">
					<use xlink:href="#SVGID_11_"  style="overflow:visible;"/>
				</clipPath>
				<clipPath id="SVGID_14_" class="st13">
					<use xlink:href="#SVGID_12_"  style="overflow:visible;"/>
				</clipPath>
				<path class="st14" d="M21,99.4c0,0,5-21,27.8-21c17.8,0,30.8,20,30.8,20L21,99.4z"/>
			</g>
			<g>
				<path id="XMLID_22_" class="st4" d="M32.2,88.6c-2.8-8.7-4.8-23.6-4.6-24.3"/>
			</g>
			<g>
				<path id="XMLID_21_" class="st4" d="M66.8,64.3c0.2,0.7-2.1,15.5-4.9,24.3"/>
			</g>
		</g>
		<g>
			<g>
				<path id="XMLID_20_" class="st5" d="M61.1,65.2c0,0,21.6-1.1,13.1-22c4.8-15.3-1.3-23.6-1.3-23.6s-12.9,3.3-17,12
					c-6.1-0.7-8.9-0.7-8.9-0.7h0.5c0,0-2.8,0-8.9,0.7c-4.1-8.7-17-12-17-12s-6.1,8.3-1.3,23.6c-8.5,21,13.1,22,13.1,22"/>
			</g>
			<g>
				<defs>
					<path id="SVGID_15_" d="M61.1,65.2c0,0,21.6-1.1,13.1-22c4.8-15.3-1.3-23.6-1.3-23.6s-12.9,3.3-17,12c-6.1-0.7-8.9-0.7-8.9-0.7
						h0.5c0,0-2.8,0-8.9,0.7c-4.1-8.7-17-12-17-12s-6.1,8.3-1.3,23.6c-8.5,21,13.1,22,13.1,22"/>
				</defs>
				<clipPath id="SVGID_16_">
					<use xlink:href="#SVGID_15_"  style="overflow:visible;"/>
				</clipPath>
				<path class="st15" d="M40.2,3.5c0,0,13.3,43.5-6,45.3C-0.5,52.2,13.5,7.5,13.5,7.5L40.2,3.5z"/>
			</g>
			<g>
				<path id="XMLID_19_" class="st4" d="M61.1,65.2c0,0,21.6-1.1,13.1-22c4.8-15.3-1.3-23.6-1.3-23.6s-12.9,3.3-17,12
					c-6.1-0.7-8.9-0.7-8.9-0.7h0.5c0,0-2.8,0-8.9,0.7c-4.1-8.7-17-12-17-12s-6.1,8.3-1.3,23.6c-8.5,21,13.1,22,13.1,22"/>
			</g>
		</g>
		<path class="st7" d="M24.7,44.2c1-2.9,15.9-11.1,18.1,10C28.2,61.5,23.2,48.6,24.7,44.2z"/>
		<path class="st4" d="M34.5,40.5c-3.5,7.9,0,15.7,0,15.7"/>
		<path class="st1" d="M47.1,60.8c0,0-4.5-4.4,0-5C52,56.1,47.1,60.8,47.1,60.8z"/>
		<path class="st1" d="M40.5,62.4c0,0,0.2,2.4,2.7,2.7c3.1,0.4,3.9-4.3,3.9-4.3"/>
		<path class="st7" d="M69.6,44.2c-1-2.9-15.7-10.8-18.1,10C66.1,61.5,71.1,48.6,69.6,44.2z"/>
		<path class="st4" d="M59.8,40.5c3.5,7.9,0,15.7,0,15.7"/>
		<path class="st1" d="M53.8,62.4c0,0-0.2,2.4-2.7,2.7c-3.1,0.4-3.9-4.3-3.9-4.3"/>
	</g>
	<g class="st12">
		<g>
			<circle id="XMLID_18_" class="st5" cx="176.8" cy="47" r="44.5"/>
		</g>
		<g>
			<g>
				<path class="st8" d="M176.9,25.5c0.2,0.7-0.9,16.4,5.5,24.1c4.3,5.1,12.8,5.5,17.1,5.1c0.4,0,0.1-3.5,0.1-3.5
					c0.8-1,5.9,6.9,16.5-10.6c2.3-3.9-8.7-13.2-14.6-16.9c-2.9-1.8-6.4,4.3-8.2,3.9C187,26.3,176.9,25.5,176.9,25.5z"/>
				<path class="st4" d="M154.1,51.7c0,0-0.8,7.7,1.5,10.9c2.8,3.8,6,3.2,6,3.2"/>
				<line class="st4" x1="155.5" y1="86.1" x2="158.7" y2="66.1"/>
				<g id="Hermann_1_">
					<path class="st9" d="M161.9,37.8c-1.9,2.1-1.1,6,2.1,8c2.5,1.6,6.1,1.6,7.1-0.6c1.2-2.6-0.3-6.4-2.4-8
						C165.8,35.1,163.5,36,161.9,37.8z"/>
					<path class="st4" d="M167.3,39.5c1.8,0,3.6,1.1,4,3.1c0.5,2.4-1.6,4.6-4,4.3c-1.8-0.3-3.3-1.7-3.3-3.7S165.5,39.5,167.3,39.5z"
						/>
					<g>
						<path id="XMLID_17_" class="st4" d="M161.9,37.8c-1.9,2.1-1.1,6,2.1,8c2.5,1.6,6.1,1.6,7.1-0.6c1.2-2.6-0.3-6.4-2.4-8
							C165.8,35.1,163.5,36,161.9,37.8z"/>
					</g>
					<g>
						<path class="st9" d="M192.6,38.1c1.9,2.1,1.1,6-2.1,8c-2.5,1.6-6.1,1.6-7.1-0.6c-1.2-2.6,0.3-6.4,2.4-8
							C188.7,35.5,191,36.3,192.6,38.1z"/>
						<path class="st4" d="M187.4,40c1.8,0,3.7,1.5,3.3,3.7s-2,3.6-3.8,3.6c-1.8,0-3.5-1-3.5-3S185.6,40,187.4,40z"/>
						<g>
							<path id="XMLID_16_" class="st4" d="M192.6,38.1c1.9,2.1,1.1,6-2.1,8c-2.5,1.6-6.1,1.6-7.1-0.6c-1.2-2.6,0.3-6.4,2.4-8
								C188.7,35.5,191,36.3,192.6,38.1z"/>
						</g>
						<path class="st4" d="M199.6,51.1c0,0,0.5,8.3-1.8,11.5c-2.8,3.8-6,3.2-6,3.2"/>
						<line class="st4" x1="198" y1="85.4" x2="194.8" y2="65.6"/>
						<path id="XMLID_15_" class="st4" d="M200.3,31.4c0.9,1.8,0.4,8.8-0.8,12c-1.2,3.2-1.8,6.8,1.4,8.1c4.9,2.1,12.3-5.1,14.7-9.7
							s-1.5-7.9-4.2-10.1c-2.7-2.1-7.3-7.1-9.9-8.1c-3.1-1.2-7.7,4-7.7,4c-19.3-4.9-33.4,0-33.4,0s-3.8-5.1-7-3.9
							c-2.6,1-7.2,6-9.9,8.1c-2.7,2.1-6.4,5.6-4,10.2c2.4,4.6,8.6,12.2,14,9.7c3.2-1.4,3.3-5,2.1-8.1c-1.2-3.2-1.7-10.2-0.8-12"/>
						<path class="st4" d="M176.8,56.5c0,0-4.7-2.8-3.5-5.1c0.8-1.6,6.4-1.8,7.3,0C181.8,53.7,176.8,56.5,176.8,56.5z"/>
						<path class="st4" d="M176.7,57.1v3.4c-1.5,1.5-5.9,2-7.7,1.3c-2.1-0.8-2.3-2.2-1.9-3.8"/>
						<path class="st4" d="M177,60.5c1.5,1.5,5.9,2,7.7,1.3c2.1-0.8,2.4-2.1,1.9-3.8"/>
						<path class="st4" d="M172.8,61.8"/>
					</g>
					<g>
						<circle id="XMLID_14_" class="st4" cx="176.8" cy="47" r="44.5"/>
					</g>
				</g>
			</g>
		</g>
	</g>
</g>
</svg>
