<?xml version="1.0" encoding="utf-8"?>
<!-- Generator: Adobe Illustrator 19.2.0, SVG Export Plug-In . SVG Version: 6.00 Build 0)  -->
<svg version="1.1" id="Ebene_1" xmlns="http://www.w3.org/2000/svg" xmlns:xlink="http://www.w3.org/1999/xlink" x="0px" y="0px"
	 viewBox="0 0 171.5 138" style="enable-background:new 0 0 171.5 138;" xml:space="preserve">
<style type="text/css">
	.st0{display:none;}
	
		.st1{display:inline;fill:#FFFFFF;stroke:#565656;stroke-width:1.5;stroke-linecap:round;stroke-linejoin:round;stroke-miterlimit:10;}
	.st2{fill:#FFFFFF;}
	.st3{clip-path:url(#SVGID_2_);}
	.st4{fill:#FFBC00;}
	.st5{fill:none;stroke:#565656;stroke-width:1.5;stroke-linecap:round;stroke-linejoin:round;stroke-miterlimit:10;}
	.st6{fill:none;stroke:#565656;stroke-width:1.5;stroke-miterlimit:10;}
	.st7{fill:#FCFCFC;stroke:#565656;stroke-width:1.5;stroke-miterlimit:10;}
	.st8{clip-path:url(#SVGID_4_);fill:#FFBC00;}
	.st9{clip-path:url(#SVGID_6_);}
	.st10{fill:#FFBC00;stroke:#565656;stroke-width:1.5;stroke-linecap:round;stroke-linejoin:round;stroke-miterlimit:10;}
	.st11{fill:#FCFCFC;stroke:#565656;stroke-width:1.5;stroke-linecap:round;stroke-linejoin:round;stroke-miterlimit:10;}
	
		.st12{clip-path:url(#SVGID_9_);fill:none;stroke:#565656;stroke-width:1.5;stroke-linecap:round;stroke-linejoin:round;stroke-miterlimit:10;}
	
		.st13{clip-path:url(#SVGID_11_);fill:none;stroke:#565656;stroke-width:1.5;stroke-linecap:round;stroke-linejoin:round;stroke-miterlimit:10;}
	
		.st14{display:inline;fill:#FFFFFF;stroke:#6E6E6E;stroke-width:1.5;stroke-linecap:round;stroke-linejoin:round;stroke-miterlimit:10;}
	.st15{fill:#FFFFFF;stroke:#565656;stroke-width:1.5;stroke-linecap:round;stroke-linejoin:round;stroke-miterlimit:10;}
	.st16{display:inline;fill:#FBBB10;}
	
		.st17{display:inline;fill:none;stroke:#777777;stroke-width:1.5;stroke-linecap:round;stroke-linejoin:round;stroke-miterlimit:10;}
	.st18{display:inline;}
	
		.st19{clip-path:url(#SVGID_13_);fill:none;stroke:#777777;stroke-width:1.5;stroke-linecap:round;stroke-linejoin:round;stroke-miterlimit:10;}
	.st20{clip-path:url(#SVGID_13_);}
	.st21{fill:none;stroke:#777777;stroke-width:1.5;stroke-linecap:round;stroke-linejoin:round;stroke-miterlimit:10;}
	
		.st22{clip-path:url(#SVGID_15_);fill:none;stroke:#777777;stroke-width:1.5;stroke-linecap:round;stroke-linejoin:round;stroke-miterlimit:10;}
	.st23{clip-path:url(#SVGID_15_);}
	.st24{fill:none;stroke:#C2C1C1;stroke-width:1.5;stroke-linecap:round;stroke-linejoin:round;stroke-miterlimit:10;}
	.st25{fill:#C7C6C7;}
</style>
<g id="Doppelkreise" class="st0">
	<ellipse id="XMLID_19_" class="st1" cx="42.9" cy="69.1" rx="66.9" ry="66.5"/>
	<ellipse id="XMLID_18_" class="st1" cx="93.8" cy="69.1" rx="66.9" ry="66.5"/>
</g>
<ellipse id="weiß" class="st2" cx="70.4" cy="69.1" rx="67.8" ry="66.5"/>
<g>
	<g>
		<g>
			<defs>
				<ellipse id="SVGID_1_" cx="70.4" cy="69.1" rx="67.8" ry="66.5"/>
			</defs>
			<clipPath id="SVGID_2_">
				<use xlink:href="#SVGID_1_"  style="overflow:visible;"/>
			</clipPath>
			<g class="st3">
				<path class="st4" d="M51.8,57.1c-0.3,0.7-11.5,12-11.7,22.1c-0.1,6.7,6.2,12.7,9.7,15.2c0.3,0.3,2.4-2.6,2.4-2.6
					c1.3-0.2,0,9.2,19.6,2.8c4.3-1.5,2-15.8,0-22.6c-1-3.3-7.7-0.9-8.9-2.4C59,64.3,51.8,57.1,51.8,57.1z"/>
				<path class="st5" d="M17.1,62.1c0,0-5.7,5.4-6,9.3c-0.4,4.8,2.5,6.4,2.5,6.4"/>
				<line class="st5" x1="-4.5" y1="89.4" x2="11.1" y2="76.2"/>
				<path class="st6" d="M32.2,56.6c-2.8,0.4-4.8,3.9-3.7,7.5c0.9,2.9,3.6,5.2,5.8,4.2c2.6-1.2,4-5.1,3.4-7.7
					C37,57.1,34.6,56.3,32.2,56.6z"/>
				<path class="st5" d="M35.2,61.4c1.4,1.2,2,3.2,1,5c-1.2,2.2-4.3,2.5-5.9,0.7c-1.2-1.4-1.4-3.5-0.1-5
					C31.6,60.6,33.8,60.3,35.2,61.4z"/>
				<g>
					<path id="XMLID_17_" class="st5" d="M32.2,56.6c-2.8,0.4-4.8,3.9-3.7,7.5c0.9,2.9,3.6,5.2,5.8,4.2c2.6-1.2,4-5.1,3.4-7.7
						C37,57.1,34.6,56.3,32.2,56.6z"/>
				</g>
				<path class="st6" d="M55.5,77.1c0.1,2.9-3.1,5.3-6.9,4.7c-3-0.4-5.7-2.8-5-5.1c0.8-2.8,4.4-4.7,7.1-4.5
					C54.3,72.5,55.5,74.6,55.5,77.1z"/>
				<path class="st5" d="M50.3,75.1c1.4,1.2,1.8,3.6,0.1,5s-3.9,1.4-5.3,0.3c-1.4-1.2-2-3.1-0.7-4.6S48.9,73.9,50.3,75.1z"/>
				<g>
					<path id="XMLID_16_" class="st5" d="M55.5,77.1c0.1,2.9-3.1,5.3-6.9,4.7c-3-0.4-5.7-2.8-5-5.1c0.8-2.8,4.4-4.7,7.1-4.5
						C54.3,72.5,55.5,74.6,55.5,77.1z"/>
				</g>
				<path class="st5" d="M52.3,91.6c0,0-5.1,6.7-9,7.6c-4.7,1.1-6.7-1.5-6.7-1.5"/>
				<line class="st5" x1="27.2" y1="118.4" x2="39.1" y2="99.6"/>
				<path id="XMLID_15_" class="st5" d="M65.8,77c-0.5,2-5.5,7-8.5,8.7s-5.9,4-4.3,7.1c2.4,4.8,12.8,4.2,17.7,2.3
					c4.9-1.9,4.1-7,3.4-10.5c-0.7-3.4-0.9-10.3-2.2-12.7c-1.6-3-8.5-2-8.5-2c-11.6-16.5-25.6-22-25.6-22s0.5-6.4-2.8-7.6
					c-2.7-0.9-9.5-0.1-12.9-0.3c-3.5-0.2-8.6,0.1-9.8,5.2s-1.5,15,4.3,16.7c3.4,1,5.8-1.7,6.9-4.8c1.2-3.2,5.4-8.9,7.3-9.7"/>
				<path class="st5" d="M31.3,80.7c0,0-1.8-5.2,0.7-6.2c1.7-0.7,6.1,2.8,5.6,4.8C37,81.9,31.3,80.7,31.3,80.7z"/>
				<path class="st5" d="M30.8,81.1l-2.2,2.6c-2.1,0.2-5.8-2.4-6.8-4.1c-1.1-2-0.3-3.2,1-4.2"/>
				<path class="st5" d="M28.8,83.9c0.2,2.1,3.2,5.4,5,6.1c2.1,0.8,3.2,0,4-1.7"/>
				<path class="st5" d="M24.7,82.2"/>
			</g>
		</g>
	</g>
</g>
<ellipse class="st5" cx="70.4" cy="69.1" rx="67.8" ry="66.5"/>
<g>
	<g>
		<path class="st6" d="M126.4,61.1c0.6,0.5,7.3,14,10.1,22.9"/>
		<g>
			<path id="XMLID_14_" class="st5" d="M118.6,107.4C111.2,101.8,94.2,84.7,94,84"/>
		</g>
		<g>
			<path id="XMLID_12_" class="st5" d="M126.3,60.8c0.6,0.5,7.4,14.3,10.2,23.2"/>
		</g>
		<g>
			<g>
				<path id="XMLID_7_" class="st7" d="M122.2,65.2c0,0,17.2-13.5-2-25.8c-4.9-15.4-14.8-18.7-14.8-18.7s-8.7,10.2-7.1,19.8
					c-5.4,3-7.8,4.6-7.8,4.6l0.4-0.3c0,0-2.3,1.6-6.9,5.8c-8.5-4.8-21,0-21,0S62.8,61,75.7,70.9c5.2,22.3,23.6,10.5,23.6,10.5"/>
			</g>
			<g>
				<g>
					<g>
						<g>
							<defs>
								<path id="SVGID_3_" d="M122.2,65.2c0,0,17.2-13.5-2-25.8c-4.9-15.4-14.8-18.7-14.8-18.7s-8.7,10.2-7.1,19.8
									c-5.4,3-7.8,4.6-7.8,4.6l0.4-0.3c0,0-2.3,1.6-6.9,5.8c-8.5-4.8-21,0-21,0S62.8,61,75.7,70.9c5.2,22.3,23.6,10.5,23.6,10.5"
									/>
							</defs>
							<clipPath id="SVGID_4_">
								<use xlink:href="#SVGID_3_"  style="overflow:visible;"/>
							</clipPath>
							<path class="st8" d="M69.1,26.4c0,0,36.3,28.2,21.4,40.9c-26.7,23-41.1-22.1-41.1-22.1L69.1,26.4z"/>
						</g>
					</g>
					<g>
						<g>
							<defs>
								<path id="SVGID_5_" d="M122.2,65.2c0,0,17.2-13.5-2-25.8c-4.9-15.4-14.8-18.7-14.8-18.7s-8.7,10.2-7.1,19.8
									c-5.4,3-7.8,4.6-7.8,4.6l0.4-0.3c0,0-2.3,1.6-6.9,5.8c-8.5-4.8-21,0-21,0S62.8,61,75.7,70.9c5.2,22.3,23.6,10.5,23.6,10.5"
									/>
							</defs>
							<clipPath id="SVGID_6_">
								<use xlink:href="#SVGID_5_"  style="overflow:visible;"/>
							</clipPath>
							<g class="st9">
								<path id="SVGID_7_" class="st6" d="M122.2,65.2c0,0,17.2-13.5-2-25.8c-4.9-15.4-14.8-18.7-14.8-18.7s-8.7,10.2-7.1,19.8
									c-5.4,3-7.8,4.6-7.8,4.6l0.4-0.3c0,0-2.3,1.6-6.9,5.8c-8.5-4.8-21,0-21,0S62.8,61,75.7,70.9c5.2,22.3,23.6,10.5,23.6,10.5"
									/>
							</g>
						</g>
					</g>
				</g>
				<g>
					<path id="XMLID_6_" class="st5" d="M122.2,65.2c0,0,17.2-13.5-2-25.8c-4.9-15.4-14.8-18.7-14.8-18.7s-8.7,10.2-7.1,19.8
						c-5.4,3-7.8,4.6-7.8,4.6l0.4-0.3c0,0-2.3,1.6-6.9,5.8c-8.5-4.8-21,0-21,0S62.8,61,75.7,70.9c5.2,22.3,23.6,10.5,23.6,10.5"/>
				</g>
			</g>
			<path class="st10" d="M79.9,69c-0.9-3,6.7-18.4,20.8-2.3C92.9,81.3,81.3,73.5,79.9,69z"/>
			<path class="st5" d="M85.9,60.3c1.7,8.6,9.1,13,9.1,13"/>
			<path class="st11" d="M108.1,69.7c0,0-6.3-1-2.9-4.1C109.4,63,108.1,69.7,108.1,69.7z"/>
			<path class="st11" d="M98.9,74.5c0,0,5,2.7,7.3,1.5c2.8-1.5,1.9-6,1.9-6"/>
			<path class="st10" d="M117,42.9c-2.5-1.8-19.3,0.2-9.1,18.8C124.2,59.2,120.8,45.6,117,42.9z"/>
			<path class="st5" d="M106.8,45.5c7.5,4.5,9.1,13,9.1,13"/>
			<path class="st11" d="M115.4,66.8c0,0,0.4,2.5-1.5,4.2c-2.3,2.1-5.7-1.3-5.7-1.3"/>
		</g>
	</g>
	<g>
		<g>
			<g>
				<defs>
					<ellipse id="SVGID_8_" cx="70.4" cy="69.1" rx="67.8" ry="66.5"/>
				</defs>
				<clipPath id="SVGID_9_">
					<use xlink:href="#SVGID_8_"  style="overflow:visible;"/>
				</clipPath>
				<path class="st12" d="M119.6,136.6c0,0-4.7,6.1-11.2,5.4c-10.8-1.1-11.8-11.6-8.8-19.7c3.2-8.6,5.4-17.2-3-23.5
					c-8.3-6.2-12.8,2.4-8.1,4.8c1.7,0.9,3.7,2.2,4.8,5.1c1.9,4.4-6.6,14.4-4.7,24.1c3.8,19.2,24.3,25.3,40.7,4.8"/>
			</g>
		</g>
	</g>
	<g>
		<g>
			<g>
				<defs>
					<ellipse id="SVGID_10_" cx="70.4" cy="69.1" rx="67.8" ry="66.5"/>
				</defs>
				<clipPath id="SVGID_11_">
					<use xlink:href="#SVGID_10_"  style="overflow:visible;"/>
				</clipPath>
				<path class="st13" d="M46.5,131.5c0,0,3.8-13.3,12.5-16.3c8.5-2.9,14.3,2.4,18.5-0.4s4-7.3,4-7.3s6.7,8.5-0.4,13.7
					s-15.9,0.5-19.8,4.9c-3,3.5-3.6,10.3-4.2,15.8"/>
			</g>
		</g>
	</g>
	<g>
		<ellipse id="XMLID_20_" class="st5" cx="70.4" cy="69.1" rx="67.8" ry="66.5"/>
	</g>
</g>
<g class="st0">
	<path class="st14" d="M71.2,13c0,0,15.4-7.4,9.3-14.2c-3.4-3.8-9.3,1.5-9.3,1.5h-0.5c0,0-5.9-5.3-9.3-1.5C55.3,5.6,70.7,13,70.7,13
		H71.2z"/>
</g>
<g id="Pfoten">
	<path class="st15" d="M9,97.2c0,0,7.3-1.4,11.6,1.6c4.5,3.2,4.3,6,4.8,6.9"/>
	<g>
		<polygon class="st2" points="28.8,122.9 30.9,127.5 37.4,130.5 42,125.7 38.7,119.3 32.4,118.2 		"/>
		<g>
			<path class="st15" d="M35.4,129.2c1.5,1.3,3.9,1.9,5.5,0.2c3.3-3.3,0.3-7.1-1.2-8.8c-2-2.3-5-3.2-7.4-3.4c-2.8-0.3-8.3,1.8-7,5.8
				c1.1,3.3,3.8,3.1,5.2,2.3c1.3-0.7,2.7-2.5,2.7-4.1"/>
			<path class="st5" d="M38.8,123.7c0.5,2.2-0.5,6-4.7,5.2c-1.3-0.2-2.6-0.2-4.3-2.9"/>
		</g>
	</g>
	<path class="st15" d="M10,25"/>
	<g>
		<polygon class="st2" points="13.4,106.5 16.3,111.9 20.7,114.4 25.8,111.8 23.8,104.8 17.8,102.6 		"/>
		<g>
			<path class="st15" d="M14.3,101.5c-2.4,0.4-4.8,1.8-4.4,4.6c0.5,3.4,3.2,3.7,4.7,3.2c1.4-0.4,3.1-2,3.4-3.5"/>
			<path class="st15" d="M18.7,113.9c1.3,1.5,3.4,2.4,5.4,1.2c4.4-2.7,2.3-7.3,1.3-9.5"/>
			<path class="st5" d="M23,109.2c0.1,2.3-1.6,5.8-5.6,4.3c-1.2-0.5-2.5-0.7-3.7-3.6"/>
		</g>
	</g>
	<g>
		<path class="st15" d="M116.9,111.7c0.7,1.3,4.5,5.4,7.3,4.3c2.9-1.1,2.4-7.6,0.9-10.3C122.8,101.7,112.7,103,116.9,111.7z"/>
		<line class="st5" x1="119.7" y1="110.5" x2="121.9" y2="115.8"/>
		<line class="st5" x1="123.2" y1="108.7" x2="126" y2="113"/>
	</g>
	<g>
		<path class="st15" d="M129.6,94.2c0.7,1.3,5,4.9,7.8,3.5c2.7-1.4,1.6-7.8-0.2-10.3C134.4,83.7,125,86.2,129.6,94.2z"/>
		<line class="st5" x1="132" y1="92.9" x2="134.9" y2="97.8"/>
		<line class="st5" x1="135.4" y1="90.7" x2="138.6" y2="94.9"/>
	</g>
</g>
<g>
	<g>
		<g id="Hermann" class="st0">
			<path class="st16" d="M153.5,6.9c0.1,0.3-0.4,6.5,2.2,9.6c1.7,2,5.1,2.2,6.8,2c0.2,0,0-1.4,0-1.4c0.3-0.4,2.4,2.8,6.6-4.2
				c0.9-1.6-3.5-5.3-5.8-6.7c-1.2-0.7-2.6,1.7-3.3,1.6C157.5,7.2,153.5,6.9,153.5,6.9z"/>
			<path class="st17" d="M144.4,17.3c0,0-0.3,3.1,0.6,4.3c1.1,1.5,2.4,1.3,2.4,1.3"/>
			<line class="st17" x1="144.8" y1="32.2" x2="146.2" y2="23.1"/>
			<g id="Hermann_1_" class="st18">
				<g>
					<defs>
						<path id="SVGID_12_" d="M147.5,11.8c-0.8,0.8-0.4,2.4,0.8,3.2c1,0.6,2.4,0.6,2.8-0.2c0.5-1-0.1-2.6-1-3.2
							C149.1,10.7,148.1,11.1,147.5,11.8z"/>
					</defs>
					<clipPath id="SVGID_13_">
						<use xlink:href="#SVGID_12_"  style="overflow:visible;"/>
					</clipPath>
					<ellipse class="st19" cx="149.6" cy="14" rx="1.3" ry="1.5"/>
					<g class="st20">
						<path id="XMLID_5_" class="st21" d="M147.5,11.8c-0.8,0.8-0.4,2.4,0.8,3.2c1,0.6,2.4,0.6,2.8-0.2c0.5-1-0.1-2.6-1-3.2
							C149.1,10.7,148.1,11.1,147.5,11.8z"/>
					</g>
				</g>
				<g>
					<g>
						<defs>
							<path id="SVGID_14_" d="M159.7,11.9c0.8,0.8,0.4,2.4-0.8,3.2c-1,0.6-2.4,0.6-2.8-0.2c-0.5-1,0.1-2.6,1-3.2
								C158.2,10.9,159.1,11.2,159.7,11.9z"/>
						</defs>
						<clipPath id="SVGID_15_">
							<use xlink:href="#SVGID_14_"  style="overflow:visible;"/>
						</clipPath>
						<ellipse class="st22" cx="157.7" cy="14.2" rx="1.3" ry="1.5"/>
						<g class="st23">
							<path id="XMLID_2_" class="st21" d="M159.7,11.9c0.8,0.8,0.4,2.4-0.8,3.2c-1,0.6-2.4,0.6-2.8-0.2c-0.5-1,0.1-2.6,1-3.2
								C158.2,10.9,159.1,11.2,159.7,11.9z"/>
						</g>
					</g>
					<path class="st21" d="M162.5,17.1c0,0,0.2,3.3-0.7,4.6c-1.1,1.5-2.4,1.3-2.4,1.3"/>
					<line class="st21" x1="162.1" y1="32.2" x2="160.7" y2="23.1"/>
					<path id="XMLID_1_" class="st21" d="M162.8,9.2c0.4,0.7,0.2,3.5-0.3,4.8c-0.5,1.3-0.7,2.7,0.6,3.2c2,0.8,4.9-2,5.9-3.9
						s-0.6-3.2-1.7-4c-1.1-0.8-2.9-2.8-3.9-3.2c-1.2-0.5-3.1,1.6-3.1,1.6c-7.7-2-13.3,0-13.3,0s-1.5-2-2.8-1.6
						c-1,0.4-2.9,2.4-3.9,3.2s-2.6,2.2-1.7,4c1,1.8,3.4,4.9,5.6,3.9c1.3-0.6,1.3-2,0.8-3.2s-0.7-4.1-0.3-4.8"/>
					<path class="st21" d="M153.4,19.2c0,0-1.9-1.1-1.4-2c0.3-0.6,2.6-0.7,2.9,0C155.4,18.2,153.4,19.2,153.4,19.2z"/>
					<path class="st21" d="M153.4,19.5v1.4c-0.6,0.6-2.4,0.8-3.1,0.5c-0.8-0.3-0.9-0.9-0.8-1.5"/>
					<path class="st21" d="M153.5,20.8c0.6,0.6,2.4,0.8,3.1,0.5c0.8-0.3,1-0.8,0.8-1.5"/>
					<path class="st21" d="M151.8,21.4"/>
				</g>
				<g>
					<circle id="XMLID_8_" class="st21" cx="153.4" cy="15.4" r="17.7"/>
				</g>
			</g>
		</g>
		<g id="Ebene_3">
			<g>
				<path class="st24" d="M168.1,16v9.7c0,1.3-1.1,2.3-2.5,2.3h-14.5c-1.4,0-2.5-1-2.5-2.3l0.2-9.7c0-0.6,0-4.3,0-4.3h11.8
					c0.4,0,0.8,0.2,1.1,0.5l1.2,1.5h2.8C167,13.7,168.1,14.7,168.1,16z"/>
				<ellipse class="st24" cx="158.2" cy="20.6" rx="4.1" ry="3.9"/>
				<path class="st25" d="M150.9,7.4v0.9c0,0.6-0.5,1-1.1,1H146v3.5c0,0.6-0.5,1-1.1,1h-1c-0.6,0-1.1-0.4-1.1-1V9.3h-3.7
					c-0.6,0-1.1-0.4-1.1-1V7.4c0-0.6,0.5-1,1.1-1h3.8V2.8c0-0.6,0.5-1,1.1-1h1c0.6,0,1.1,0.4,1.1,1v3.5h3.8
					C150.4,6.4,150.9,6.8,150.9,7.4z"/>
			</g>
		</g>
	</g>
</g>
</svg>
