<?xml version="1.0" encoding="utf-8"?>
<!-- Generator: Adobe Illustrator 19.2.0, SVG Export Plug-In . SVG Version: 6.00 Build 0)  -->
<svg version="1.1" id="Ebene_3" xmlns="http://www.w3.org/2000/svg" xmlns:xlink="http://www.w3.org/1999/xlink" x="0px" y="0px"
	 viewBox="0 0 92.8 92.5" style="enable-background:new 0 0 92.8 92.5;" xml:space="preserve">
<style type="text/css">
	.st0{fill:#FCFCFC;stroke:#777777;stroke-width:1.5;stroke-linecap:round;stroke-linejoin:round;stroke-miterlimit:10;}
	.st1{clip-path:url(#XMLID_4_);}
	.st2{display:none;clip-path:url(#XMLID_5_);fill:none;stroke:#777777;stroke-miterlimit:10;}
	.st3{clip-path:url(#XMLID_6_);fill:#FFBC00;}
	.st4{fill:#FFBC00;stroke:#777777;stroke-width:1.5;stroke-linecap:round;stroke-linejoin:round;stroke-miterlimit:10;}
	.st5{fill:none;stroke:#777777;stroke-width:1.5;stroke-linecap:round;stroke-linejoin:round;stroke-miterlimit:10;}
</style>
<circle id="XMLID_48_" class="st0" cx="46.7" cy="46.5" r="44.7"/>
<g>
	<g>
		<defs>
			<path id="XMLID_2_" d="M32.2,88.6c-2.8-8.7-4.8-23.6-4.6-24.3"/>
		</defs>
		<defs>
			<path id="XMLID_1_" d="M66.8,64.3c0.2,0.7-2.1,15.5-4.9,24.3"/>
		</defs>
		<clipPath id="XMLID_4_">
			<use xlink:href="#XMLID_2_"  style="overflow:visible;"/>
		</clipPath>
		<clipPath id="XMLID_5_" class="st1">
			<use xlink:href="#XMLID_1_"  style="overflow:visible;"/>
		</clipPath>
		<path class="st2" d="M21,99.4c0,0,5-21,27.8-21c17.8,0,30.8,20,30.8,20L21,99.4z"/>
		
			<use xlink:href="#XMLID_2_"  style="overflow:visible;fill:none;stroke:#777777;stroke-width:1.5;stroke-linecap:round;stroke-linejoin:round;stroke-miterlimit:10;"/>
		
			<use xlink:href="#XMLID_1_"  style="overflow:visible;fill:none;stroke:#777777;stroke-width:1.5;stroke-linecap:round;stroke-linejoin:round;stroke-miterlimit:10;"/>
	</g>
	<g>
		<defs>
			<path id="XMLID_13_" d="M61.1,65.2c0,0,21.6-1.1,13.1-22c4.8-15.3-1.3-23.6-1.3-23.6s-12.9,3.3-17,12c-6.1-0.7-8.9-0.7-8.9-0.7
				h0.5c0,0-2.8,0-8.9,0.7c-4.1-8.7-17-12-17-12s-6.1,8.3-1.3,23.6c-8.5,21,13.1,22,13.1,22"/>
		</defs>
		<use xlink:href="#XMLID_13_"  style="overflow:visible;fill:#FCFCFC;"/>
		<clipPath id="XMLID_6_">
			<use xlink:href="#XMLID_13_"  style="overflow:visible;"/>
		</clipPath>
		<path class="st3" d="M40.2,3.5c0,0,13.3,43.5-6,45.3C-0.5,52.2,13.5,7.5,13.5,7.5L40.2,3.5z"/>
		
			<use xlink:href="#XMLID_13_"  style="overflow:visible;fill:none;stroke:#777777;stroke-width:1.5;stroke-linecap:round;stroke-linejoin:round;stroke-miterlimit:10;"/>
	</g>
	<path class="st4" d="M24.7,44.2c1-2.9,15.9-11.1,18.1,10C28.2,61.5,23.2,48.6,24.7,44.2z"/>
	<path class="st5" d="M34.5,40.5c-3.5,7.9,0,15.7,0,15.7"/>
	<path class="st0" d="M47.1,60.8c0,0-4.5-4.4,0-5C52,56.1,47.1,60.8,47.1,60.8z"/>
	<path class="st0" d="M40.5,62.4c0,0,0.2,2.4,2.7,2.7c3.1,0.4,3.9-4.3,3.9-4.3"/>
	<path class="st4" d="M69.6,44.2c-1-2.9-15.7-10.8-18.1,10C66.1,61.5,71.1,48.6,69.6,44.2z"/>
	<path class="st5" d="M59.8,40.5c3.5,7.9,0,15.7,0,15.7"/>
	<path class="st0" d="M53.8,62.4c0,0-0.2,2.4-2.7,2.7c-3.1,0.4-3.9-4.3-3.9-4.3"/>
</g>
</svg>
