<?xml version="1.0" encoding="utf-8"?>
<!-- Generator: Adobe Illustrator 19.2.0, SVG Export Plug-In . SVG Version: 6.00 Build 0)  -->
<svg version="1.1" id="Ebene_3" xmlns="http://www.w3.org/2000/svg" xmlns:xlink="http://www.w3.org/1999/xlink" x="0px" y="0px"
	 viewBox="0 0 132.5 93.6" style="enable-background:new 0 0 132.5 93.6;" xml:space="preserve">
<style type="text/css">
	.st0{fill:none;stroke:#7C7C7C;stroke-width:1.5;stroke-linecap:round;stroke-linejoin:round;stroke-miterlimit:10;}
	.st1{fill:#FCFCFC;stroke:#777777;stroke-width:1.5;stroke-linecap:round;stroke-linejoin:round;stroke-miterlimit:10;}
	.st2{clip-path:url(#SVGID_5_);}
	.st3{display:none;clip-path:url(#SVGID_6_);fill:none;stroke:#777777;stroke-miterlimit:10;}
	.st4{fill:none;stroke:#777777;stroke-width:1.5;stroke-linecap:round;stroke-linejoin:round;stroke-miterlimit:10;}
	.st5{fill:#FCFCFC;}
	.st6{clip-path:url(#SVGID_8_);fill:#FFBC00;}
	.st7{fill:#FFBC00;stroke:#777777;stroke-width:1.5;stroke-linecap:round;stroke-linejoin:round;stroke-miterlimit:10;}
</style>
<circle id="XMLID_6_" class="st0" cx="85.7" cy="46.3" r="44.5"/>
<circle id="XMLID_7_" class="st0" cx="46.7" cy="46.3" r="44.5"/>
<circle id="XMLID_48_" class="st1" cx="66.7" cy="47.6" r="44.7"/>
<g>
	<g>
		<g>
			<defs>
				<path id="SVGID_1_" d="M52.2,89.7c-2.8-8.7-4.8-23.6-4.6-24.3"/>
			</defs>
			<clipPath id="SVGID_2_">
				<use xlink:href="#SVGID_1_"  style="overflow:visible;"/>
			</clipPath>
		</g>
		<g>
			<defs>
				<path id="SVGID_3_" d="M52.2,89.7c-2.8-8.7-4.8-23.6-4.6-24.3"/>
			</defs>
			<defs>
				<path id="SVGID_4_" d="M86.8,65.4c0.2,0.7-2.1,15.5-4.9,24.3"/>
			</defs>
			<clipPath id="SVGID_5_">
				<use xlink:href="#SVGID_3_"  style="overflow:visible;"/>
			</clipPath>
			<clipPath id="SVGID_6_" class="st2">
				<use xlink:href="#SVGID_4_"  style="overflow:visible;"/>
			</clipPath>
			<path class="st3" d="M41,100.5c0,0,5-21,27.8-21c17.8,0,30.8,20,30.8,20L41,100.5z"/>
		</g>
		<g>
			<path id="XMLID_2_" class="st4" d="M52.2,89.7c-2.8-8.7-4.8-23.6-4.6-24.3"/>
		</g>
		<g>
			<path id="XMLID_1_" class="st4" d="M86.8,65.4c0.2,0.7-2.1,15.5-4.9,24.3"/>
		</g>
	</g>
	<g>
		<g>
			<path id="XMLID_13_" class="st5" d="M81.1,66.3c0,0,21.6-1.1,13.1-22C99,29,92.9,20.7,92.9,20.7s-12.9,3.3-17,12
				C69.8,32,67,32,67,32h0.5c0,0-2.8,0-8.9,0.7c-4.1-8.7-17-12-17-12s-6.1,8.3-1.3,23.6c-8.5,21,13.1,22,13.1,22"/>
		</g>
		<g>
			<defs>
				<path id="SVGID_7_" d="M81.1,66.3c0,0,21.6-1.1,13.1-22C99,29,92.9,20.7,92.9,20.7s-12.9,3.3-17,12C69.8,32,67,32,67,32h0.5
					c0,0-2.8,0-8.9,0.7c-4.1-8.7-17-12-17-12s-6.1,8.3-1.3,23.6c-8.5,21,13.1,22,13.1,22"/>
			</defs>
			<clipPath id="SVGID_8_">
				<use xlink:href="#SVGID_7_"  style="overflow:visible;"/>
			</clipPath>
			<path class="st6" d="M60.2,4.6c0,0,13.3,43.5-6,45.3C19.5,53.3,33.5,8.6,33.5,8.6L60.2,4.6z"/>
		</g>
		<g>
			<path id="XMLID_3_" class="st4" d="M81.1,66.3c0,0,21.6-1.1,13.1-22C99,29,92.9,20.7,92.9,20.7s-12.9,3.3-17,12
				C69.8,32,67,32,67,32h0.5c0,0-2.8,0-8.9,0.7c-4.1-8.7-17-12-17-12s-6.1,8.3-1.3,23.6c-8.5,21,13.1,22,13.1,22"/>
		</g>
	</g>
	<path class="st7" d="M44.7,45.3c1-2.9,15.9-11.1,18.1,10C48.2,62.6,43.2,49.7,44.7,45.3z"/>
	<path class="st4" d="M54.5,41.6c-3.5,7.9,0,15.7,0,15.7"/>
	<path class="st1" d="M67.1,61.9c0,0-4.5-4.4,0-5C72,57.2,67.1,61.9,67.1,61.9z"/>
	<path class="st1" d="M60.5,63.5c0,0,0.2,2.4,2.7,2.7c3.1,0.4,3.9-4.3,3.9-4.3"/>
	<path class="st7" d="M89.6,45.3c-1-2.9-15.7-10.8-18.1,10C86.1,62.6,91.1,49.7,89.6,45.3z"/>
	<path class="st4" d="M79.8,41.6c3.5,7.9,0,15.7,0,15.7"/>
	<path class="st1" d="M73.8,63.5c0,0-0.2,2.4-2.7,2.7c-3.1,0.4-3.9-4.3-3.9-4.3"/>
</g>
</svg>
