<svg xmlns="http://www.w3.org/2000/svg" width="69" height="69" viewBox="0 0 69 69">
    <defs>
        <filter id="Pfad_12337" x="0" y="0" width="69" height="69" filterUnits="userSpaceOnUse">
            <feOffset dy="1" input="SourceAlpha"/>
            <feGaussianBlur stdDeviation="1" result="blur"/>
            <feFlood flood-opacity="0.2"/>
            <feComposite operator="in" in2="blur"/>
            <feComposite in="SourceGraphic"/>
        </filter>
    </defs>
    <g id="Gruppe_11899" data-name="Gruppe 11899" transform="translate(-33 -335)">
        <g transform="matrix(1, 0, 0, 1, 33, 335)" filter="url(#Pfad_12337)">
            <path id="Pfad_12337-2" data-name="Pfad 12337"
                  d="M2,0H61a2,2,0,0,1,2,2V61a2,2,0,0,1-2,2H2a2,2,0,0,1-2-2V2A2,2,0,0,1,2,0Z" transform="translate(3 2)"
                  fill="#02bdc2"/>
        </g>
        <g id="Gruppe_11898" data-name="Gruppe 11898" transform="translate(137.515 44.156)">
            <g id="Gruppe_10226" data-name="Gruppe 10226" transform="translate(-90.331 326.537)">
                <path id="Pfad_9910" data-name="Pfad 9910"
                      d="M-90.033,331.372s8.5-4.251,10.3-4.286c1.861-.037,9.033,2.044,12.453,2.044,2.611,0,14.783-5.666,15.73-6.193,1.621-.9,1.325-2.783-1.372-2.462-3.755.448-10.633,2.1-10.633,2.1"
                      transform="translate(90.559 -316.649)" fill="none" stroke="#fff" stroke-linecap="round"
                      stroke-miterlimit="10" stroke-width="2"/>
                <path id="Pfad_9911" data-name="Pfad 9911"
                      d="M-90.331,323.5s3.524-.923,3.958-1.085,3.579-4.12,7.59-4.12,12.956,4.4,14.542,5.413c1.921,1.226,1.326,3.646-1.542,2.766-3.228-.991-7.92-2.177-9.172-1.946"
                      transform="translate(90.331 -318.29)" fill="none" stroke="#fff" stroke-linecap="round"
                      stroke-miterlimit="10" stroke-width="2"/>
            </g>
            <path id="Pfad_9912" data-name="Pfad 9912"
                  d="M-63.669,312.742h-5.248v-5.249h-5.248v5.249h-5.248v5.248h5.248v5.248h5.248V317.99h5.248Z"
                  transform="translate(8.339 0)" fill="none" stroke="#fff" stroke-linecap="round"
                  stroke-linejoin="round" stroke-width="2"/>
        </g>
    </g>
</svg>
