<svg xmlns="http://www.w3.org/2000/svg" width="27.625" height="32.003" viewBox="0 0 27.625 32.003">
  <g id="Gruppe_13840" data-name="Gruppe 13840" transform="translate(-3.489 -1.835)">
    <circle id="Ellipse_2433" data-name="Ellipse 2433" cx="2.955" cy="2.955" r="2.955" transform="translate(24.204 19.57)" stroke-width="2" stroke="#ffbc00" stroke-linecap="round" stroke-linejoin="round" fill="none"/>
    <g id="Gruppe_14065" data-name="Gruppe 14065" transform="translate(4.489 2.835)">
      <path id="Pfad_13228" data-name="Pfad 13228" d="M22.521,4.361v6.762A9.042,9.042,0,0,1,13.5,20.139h0a9.041,9.041,0,0,1-9.015-9.016V4.361" transform="translate(-4.489 -2.342)" fill="none" stroke="#ffbc00" stroke-linecap="round" stroke-linejoin="round" stroke-width="2"/>
      <rect id="Rechteck_2246" data-name="Rechteck 2246" width="3.95" height="6.837" rx="1.975" transform="translate(0.011)" stroke-width="2" stroke="#ffbc00" stroke-linecap="round" stroke-linejoin="round" fill="none"/>
      <rect id="Rechteck_2247" data-name="Rechteck 2247" width="3.95" height="6.837" rx="1.975" transform="translate(14.065)" stroke-width="2" stroke="#ffbc00" stroke-linecap="round" stroke-linejoin="round" fill="none"/>
    </g>
    <path id="Pfad_13229" data-name="Pfad 13229" d="M24.925,21.641A6.779,6.779,0,0,1,18.165,28.4h0a6.779,6.779,0,0,1-6.759-6.759v-5.07" transform="translate(2.234 4.437)" fill="none" stroke="#ffbc00" stroke-linecap="round" stroke-linejoin="round" stroke-width="2"/>
  </g>
</svg>
