<svg xmlns="http://www.w3.org/2000/svg" width="31.541" height="31.612" viewBox="0 0 31.541 31.612">
  <g id="Gruppe_13854" data-name="Gruppe 13854" transform="translate(-164.727 791.819)">
    <g id="Gruppe_13854-2" data-name="Gruppe 13854" transform="translate(166.137 -790.819)">
      <path id="Pfad_13021" data-name="Pfad 13021" d="M181.423-779.41l-3.937,3.925-11.445-11.409,3.937-3.925Z" transform="translate(-166.041 790.819)" fill="none" stroke="#ffbc00" stroke-linecap="round" stroke-linejoin="round" stroke-width="2"/>
      <line id="Linie_3056" data-name="Linie 3056" x2="3.955" y2="3.943" transform="translate(13.657 13.615)" fill="none" stroke="#ffbc00" stroke-linecap="round" stroke-linejoin="round" stroke-width="2"/>
    </g>
    <path id="Pfad_13022" data-name="Pfad 13022" d="M186.668-766.634a11.907,11.907,0,0,1-7.208,2.425h0A11.974,11.974,0,0,1,167.5-776.13v-2.222a11.821,11.821,0,0,1,.3-2.649" transform="translate(0.543 3.002)" fill="none" stroke="#ffbc00" stroke-linecap="round" stroke-linejoin="round" stroke-width="2"/>
    <line id="Linie_3057" data-name="Linie 3057" x2="11.68" transform="translate(182.692 -768.419)" fill="none" stroke="#ffbc00" stroke-linecap="round" stroke-linejoin="round" stroke-width="2"/>
    <line id="Linie_3058" data-name="Linie 3058" x2="29.541" transform="translate(165.727 -761.207)" fill="none" stroke="#ffbc00" stroke-linecap="round" stroke-linejoin="round" stroke-width="2"/>
    <ellipse id="Ellipse_2413" data-name="Ellipse 2413" cx="2.44" cy="2.432" rx="2.44" ry="2.432" transform="translate(166.688 -782.863)" fill="none" stroke="#ffbc00" stroke-linecap="round" stroke-linejoin="round" stroke-width="2"/>
    <ellipse id="Ellipse_2414" data-name="Ellipse 2414" cx="2.749" cy="2.74" rx="2.749" ry="2.74" transform="translate(186.444 -768.419)" fill="none" stroke="#ffbc00" stroke-linecap="round" stroke-linejoin="round" stroke-width="2"/>
  </g>
</svg>
