<svg xmlns="http://www.w3.org/2000/svg" width="40" height="40" viewBox="0 0 40 40">
  <g id="Gruppe_24888" data-name="Gruppe 24888" transform="translate(2504 24096)">
    <rect id="Rechteck_3865" data-name="Rechteck 3865" width="40" height="40" transform="translate(-2504 -24096)" fill="none"/>
    <g id="Gruppe_24863" data-name="Gruppe 24863" transform="translate(-2499.6 -24086.998)">
      <line id="Linie_7316" data-name="Linie 7316" y1="4.61" transform="translate(15.842 14.555)" fill="none" stroke="#ffbc00" stroke-linecap="round" stroke-linejoin="round" stroke-width="2"/>
      <ellipse id="Ellipse_5466" data-name="Ellipse 5466" cx="1.081" cy="1.081" rx="1.081" ry="1.081" transform="translate(10.434 8.784)" fill="#ffbc00"/>
      <ellipse id="Ellipse_5467" data-name="Ellipse 5467" cx="1.081" cy="1.081" rx="1.081" ry="1.081" transform="translate(18.954 8.784)" fill="#ffbc00"/>
      <path id="Pfad_27905" data-name="Pfad 27905" d="M309.065,1676.776c0,2.062-2.431,3.733-5.43,3.733-11.334,0-3.559-15.966-3.559-15.966a9.728,9.728,0,0,1,18,0s7.885,15.966-3.568,15.966c-3,0-5.43-1.671-5.43-3.733" transform="translate(-293.215 -1658.509)" fill="none" stroke="#ffbc00" stroke-linecap="round" stroke-linejoin="round" stroke-width="2"/>
      <path id="Pfad_27906" data-name="Pfad 27906" d="M310.621,1660.311h0a2.769,2.769,0,0,1,3.647.6l4.832,6.024a3.617,3.617,0,0,1-.881,5.316h0a3.6,3.6,0,0,1-2.476.527" transform="translate(-288.285 -1657.996)" fill="none" stroke="#ffbc00" stroke-linecap="round" stroke-linejoin="round" stroke-width="2"/>
      <path id="Pfad_27907" data-name="Pfad 27907" d="M303.613,1660.311h0a2.771,2.771,0,0,0-3.644.62l-4.806,6.045a3.617,3.617,0,0,0,.9,5.311h0a3.591,3.591,0,0,0,2.621.491" transform="translate(-294.377 -1657.993)" fill="none" stroke="#ffbc00" stroke-linecap="round" stroke-linejoin="round" stroke-width="2"/>
      <ellipse id="Ellipse_5468" data-name="Ellipse 5468" cx="2.212" cy="1.229" rx="2.212" ry="1.229" transform="translate(13.65 12.839)" fill="#ffbc00"/>
    </g>
  </g>
</svg>
