<svg xmlns="http://www.w3.org/2000/svg" width="9.17" height="16.066" viewBox="0 0 9.17 16.066">
  <g id="Gruppe_10342" data-name="Gruppe 10342" transform="translate(32.499 47.619)">
    <path id="Pfad_11575" data-name="Pfad 11575" d="M-27.449-32.748v-5.909a1.431,1.431,0,0,1,1.432-1.431h0a1.431,1.431,0,0,1,1.431,1.431v3.082" transform="translate(-1.869 -2.947)" fill="none" stroke="#00b7ff" stroke-linecap="square" stroke-linejoin="round" stroke-width="1.5"/>
    <path id="Pfad_11576" data-name="Pfad 11576" d="M-26.455-35.869v5.7A2.647,2.647,0,0,1-29.1-27.522h0a2.647,2.647,0,0,1-2.647-2.647v-5.7" transform="translate(0 -4.781)" fill="none" stroke="#00b7ff" stroke-linecap="square" stroke-linejoin="round" stroke-width="1.5"/>
    <path id="Pfad_11577" data-name="Pfad 11577" d="M-31.749-38.731v-4.3a3.835,3.835,0,0,1,3.835-3.835h0a3.835,3.835,0,0,1,3.835,3.835v8.26" fill="none" stroke="#00b7ff" stroke-linecap="square" stroke-linejoin="round" stroke-width="1.5"/>
  </g>
</svg>
