<svg xmlns="http://www.w3.org/2000/svg" width="101.998" height="102.002" viewBox="0 0 101.998 102.002">
  <g id="Gruppe_24931" data-name="Gruppe 24931" transform="translate(381.499 -658.345)">
    <g id="Gruppe_24929" data-name="Gruppe 24929" transform="translate(-380.499 659.345)">
      <path id="Pfad_27028" data-name="Pfad 27028" d="M-353.729,660.842a50,50,0,0,0-26.77,44.286,50,50,0,0,0,50,50" transform="translate(380.499 -655.128)" fill="none" stroke="#00b7ff" stroke-linecap="round" stroke-linejoin="round" stroke-width="2"/>
      <path id="Pfad_27029" data-name="Pfad 27029" d="M-367.4,659.345a50,50,0,0,1,50,50,49.984,49.984,0,0,1-25.743,43.733" transform="translate(417.401 -659.345)" fill="none" stroke="#00b7ff" stroke-linecap="round" stroke-linejoin="round" stroke-width="2"/>
      <path id="Pfad_27030" data-name="Pfad 27030" d="M-375.276,660.022-365,661.1l-4.439,9.764" transform="translate(393.214 -656.24)" fill="none" stroke="#00b7ff" stroke-linecap="round" stroke-linejoin="round" stroke-width="2"/>
      <path id="Pfad_27031" data-name="Pfad 27031" d="M-351.819,692.808l-10.277-1.079,4.439-9.764" transform="translate(434.342 -596.964)" fill="none" stroke="#00b7ff" stroke-linecap="round" stroke-linejoin="round" stroke-width="2"/>
    </g>
    <g id="Gruppe_24930" data-name="Gruppe 24930" transform="translate(-350.284 694.484)">
      <path id="Pfad_27032" data-name="Pfad 27032" d="M-372.583,689.236l12.589,11.994,26.684-32.679" transform="translate(372.583 -668.551)" fill="none" stroke="#00b7ff" stroke-linecap="round" stroke-linejoin="round" stroke-width="2"/>
    </g>
  </g>
</svg>
