<svg id="Ebene_34" data-name="Ebene 34" xmlns="http://www.w3.org/2000/svg" xmlns:xlink="http://www.w3.org/1999/xlink" viewBox="0 0 228.08 165.18"><defs><style>.cls-1{fill:none;stroke:#ffbc00;stroke-linecap:round;stroke-linejoin:round;stroke-width:6px;}.cls-2{clip-path:url(#clip-path);}.cls-3{clip-path:url(#clip-path-2);}</style><clipPath id="clip-path" transform="translate(-135.26 -196.75)"><path id="_Zuschneidungspfad_" data-name="&lt;Zuschneidungspfad&gt;" class="cls-1" d="M221.37,256.66c-7.11.12-23,9.19-20.67,24.86,2.26,15.5,18.08,12.27,26.8,6.46C238.57,280.6,241.07,256.34,221.37,256.66Z"/></clipPath><clipPath id="clip-path-2" transform="translate(-135.26 -196.75)"><path id="_Zuschneidungspfad_2" data-name="&lt;Zuschneidungspfad&gt;" class="cls-1" d="M274.7,256.66c7.11,0.12,23,9.19,20.67,24.86-2.26,15.5-18.08,12.27-26.8,6.46C257.5,280.6,255,256.34,274.7,256.66Z"/></clipPath></defs><title>Hermann_gelb</title><g class="cls-2"><path class="cls-1" d="M229.77,281.68c0,7.58-4.19,13.72-9.36,13.72S211,289.26,211,281.68s2.91-13.4,9.36-13.72C225.57,267.7,229.77,274.11,229.77,281.68Z" transform="translate(-135.26 -196.75)"/></g><path id="_Zuschneidungspfad_3" data-name="&lt;Zuschneidungspfad&gt;" class="cls-1" d="M221.37,256.66c-7.11.12-23,9.19-20.67,24.86,2.26,15.5,18.08,12.27,26.8,6.46C238.57,280.6,241.07,256.34,221.37,256.66Z" transform="translate(-135.26 -196.75)"/><path class="cls-1" d="M249.48,321.36s-1.16,17.92-13.44,19.91c-13.76,2.23-28.37-5-32-16.59" transform="translate(-135.26 -196.75)"/><g class="cls-3"><path class="cls-1" d="M266.31,281.68c0,7.58,4.19,13.72,9.36,13.72s9.36-6.14,9.36-13.72-2.91-13.4-9.36-13.72C270.51,267.7,266.31,274.11,266.31,281.68Z" transform="translate(-135.26 -196.75)"/></g><path id="_Zuschneidungspfad_4" data-name="&lt;Zuschneidungspfad&gt;" class="cls-1" d="M274.7,256.66c7.11,0.12,23,9.19,20.67,24.86-2.26,15.5-18.08,12.27-26.8,6.46C257.5,280.6,255,256.34,274.7,256.66Z" transform="translate(-135.26 -196.75)"/><path class="cls-1" d="M249.32,321.36s1.16,17.92,13.44,19.91c13.76,2.23,28.37-5,32-16.59" transform="translate(-135.26 -196.75)"/><path class="cls-1" d="M249,319.37S224.6,293,249,293C275.86,293,249,319.37,249,319.37Z" transform="translate(-135.26 -196.75)"/><path class="cls-1" d="M178.31,324.84c-11.45,5.47-15-4.35-17.92-15.43C155.09,289.34,147.72,283,142,269.6c-11.94-27.87,7.8-30.81,17.92-36.5,10.62-6,16.92-14.94,28.2-20.24S207,223.48,207,223.48s44.58-9.29,79,0" transform="translate(-135.26 -196.75)"/><path class="cls-1" d="M308.33,285c1.47,6.49,3.65,15,5,19.94,3.32,12.16,4.3,32.31-14.28,43.3-24.39,14.43-76.88,14.08-104,0-18.42-9.57-17.6-31.15-14.28-43.3,4.48-16.42,12.53-60.94,12.53-60.94" transform="translate(-135.26 -196.75)"/><path class="cls-1" d="M287.27,223.62s13.9-27.12,27.68-23.55c11.59,3,15.29,12.25,21.48,18.62,12,12.35,24.88,17.74,23.85,29-1,10.64-9.85,18.06-21.08,25.74-15,10.24-13.62,19.78-24.48,16.31-14.87-4.76-13.21-39.39-10-59.31" transform="translate(-135.26 -196.75)"/></svg>