<svg xmlns="http://www.w3.org/2000/svg" width="32.004" height="31.823" viewBox="0 0 32.004 31.823">
  <path id="Pfad_11099" data-name="Pfad 11099" d="M25.348,5.706h0a4.645,4.645,0,0,0-1.261-3.964,4.242,4.242,0,0,0-5.947,0,4.242,4.242,0,0,0,0,5.947c.18.18.36.36.541.36L8.048,18.68c-.18-.18-.18-.36-.36-.541a4.242,4.242,0,0,0-5.947,0,4.242,4.242,0,0,0,0,5.947,4.178,4.178,0,0,0,3.964,1.081,4.067,4.067,0,0,0,1.081,3.964,4.2,4.2,0,1,0,5.947-5.947c-.18,0-.36-.18-.541-.18L23.005,12.193c.18.18.18.36.36.541a4.2,4.2,0,0,0,5.947-5.947A4.067,4.067,0,0,0,25.348,5.706Z" transform="translate(0.475 0.475)" fill="none" stroke="#ffbc00" stroke-linecap="round" stroke-linejoin="round" stroke-miterlimit="10" stroke-width="2"/>
</svg>
