<svg id="Paula_8_Kopie" data-name="Paula 8             # Kopie" xmlns="http://www.w3.org/2000/svg" viewBox="0 0 183.65 149.09"><defs><style>.cls-1{fill:none;stroke:#ffbc00;stroke-linecap:round;stroke-linejoin:round;stroke-width:6px;}</style></defs><title>Paula_gelb</title><path class="cls-1" d="M528.67,285.67c5.17-23.33,47.83-31.67,49.59,22C544,325.67,525,302.24,528.67,285.67Z" transform="translate(-500.52 -202.1)"/><path class="cls-1" d="M556.75,268.65c-9.9,22.27,0,44.54,0,44.54" transform="translate(-500.52 -202.1)"/><path class="cls-1" d="M592.32,326.18c-4.82-6.68-15.65-12.84-.07-12.68C609.67,313.67,597.5,319,592.32,326.18Z" transform="translate(-500.52 -202.1)"/><path class="cls-1" d="M573.76,330.82a8.81,8.81,0,0,0,7.73,7.73c8.81,1.15,11.13-12.06,11.13-12.06" transform="translate(-500.52 -202.1)"/><path class="cls-1" d="M611.33,330.82a8.81,8.81,0,0,1-7.73,7.73c-8.81,1.15-11.13-12.06-11.13-12.06" transform="translate(-500.52 -202.1)"/><path class="cls-1" d="M611.44,247.44c12.43-25.77,33.25-39.91,46.5-41.53,0,0,22.06,29.09,14.89,66.13" transform="translate(-500.52 -202.1)"/><path class="cls-1" d="M512.37,272c-6.37-35,10.71-66.95,10.71-66.95,13.25,1.62,38.24,16.57,50.68,42.34" transform="translate(-500.52 -202.1)"/><path class="cls-1" d="M513,274.13" transform="translate(-500.52 -202.1)"/><path class="cls-1" d="M656.53,285.67c-5.17-23.33-48.53-32.67-49.59,22C641.2,325.67,660.2,302.24,656.53,285.67Z" transform="translate(-500.52 -202.1)"/><path class="cls-1" d="M628.45,268.65c9.9,22.27,0,44.54,0,44.54" transform="translate(-500.52 -202.1)"/><path class="cls-1" d="M672.18,274.13" transform="translate(-500.52 -202.1)"/><path class="cls-1" d="M519.88,267.17c-24.68,19.32-17.77,46-3.26,57.56,38.38,30.6,113.72,31.94,151.57,0,14.18-12,21.42-38.23-3.26-57.56" transform="translate(-500.52 -202.1)"/><path class="cls-1" d="M573.76,247.44A47.17,47.17,0,0,0,562.67,251s31.67-12,61.33,1.33a52,52,0,0,0-12.56-4.89" transform="translate(-500.52 -202.1)"/></svg>