<svg xmlns="http://www.w3.org/2000/svg" width="37.796" height="32.339" viewBox="0 0 37.796 32.339">
  <g id="Gruppe_10226" data-name="Gruppe 10226" transform="translate(91.552 -306.494)">
    <g id="Gruppe_10226-2" data-name="Gruppe 10226" transform="translate(-90.331 324.411)">
      <path id="Pfad_9910" data-name="Pfad 9910" d="M-90.033,330.151s7.548-3.776,9.148-3.808c1.653-.033,8.025,1.816,11.063,1.816,2.319,0,13.133-5.033,13.974-5.5,1.44-.8,1.177-2.473-1.219-2.188-3.336.4-9.446,1.865-9.446,1.865" transform="translate(90.5 -317.072)" fill="none" stroke="#ffbc00" stroke-linecap="round" stroke-miterlimit="10" stroke-width="2"/>
      <path id="Pfad_9911" data-name="Pfad 9911" d="M-90.331,322.914s3.131-.82,3.516-.964,3.179-3.66,6.743-3.66,11.509,3.911,12.918,4.809c1.706,1.089,1.178,3.239-1.37,2.457-2.868-.881-7.036-1.934-8.148-1.728" transform="translate(90.331 -318.29)" fill="none" stroke="#ffbc00" stroke-linecap="round" stroke-miterlimit="10" stroke-width="2"/>
    </g>
    <path id="Pfad_9912" data-name="Pfad 9912" d="M-65.427,312.156H-70.09v-4.663h-4.663v4.663h-4.663v4.662h4.663v4.662h4.663v-4.662h4.663Z" transform="translate(6.189 0)" fill="none" stroke="#ffbc00" stroke-linecap="round" stroke-linejoin="round" stroke-width="2"/>
  </g>
</svg>
