<svg xmlns="http://www.w3.org/2000/svg" width="88.188" height="88.188" viewBox="0 0 88.188 88.188">
  <g id="Gruppe_24863" data-name="Gruppe 24863" transform="translate(-136 -147)">
    <g id="Gruppe_24803" data-name="Gruppe 24803" transform="translate(0 -173)">
      <g id="Gruppe_8173" data-name="Gruppe 8173" transform="translate(0 165)">
        <g id="Gruppe_8172" data-name="Gruppe 8172" transform="translate(0 -3)">
          <g id="Pfad_4179" data-name="Pfad 4179" transform="translate(136 158)" fill="none">
            <path d="M44.094,0A44.094,44.094,0,1,1,0,44.094,44.094,44.094,0,0,1,44.094,0Z" stroke="none"/>
            <path d="M 44.09423828125 1.999992370605469 C 38.41066360473633 1.999992370605469 32.89817047119141 3.1126708984375 27.70987701416016 5.307144165039062 C 22.69755554199219 7.427169799804688 18.19562530517578 10.46259307861328 14.32911682128906 14.3291015625 C 10.46260833740234 18.19561004638672 7.42718505859375 22.69754028320312 5.307144165039062 27.70986175537109 C 3.112693786621094 32.89815521240234 2 38.41064834594727 2 44.09420776367188 C 2 49.77776718139648 3.112693786621094 55.29026031494141 5.307144165039062 60.47855377197266 C 7.42718505859375 65.49085998535156 10.46260833740234 69.9927978515625 14.32911682128906 73.85929870605469 C 18.19562530517578 77.72580718994141 22.69755554199219 80.76123046875 27.70987701416016 82.88126373291016 C 32.89817047119141 85.07572937011719 38.41066360473633 86.18840789794922 44.09423828125 86.18840789794922 C 49.77781295776367 86.18840789794922 55.29030609130859 85.07572937011719 60.47859954833984 82.88126373291016 C 65.49092102050781 80.76123046875 69.99285125732422 77.72580718994141 73.85935974121094 73.85929870605469 C 77.72586822509766 69.9927978515625 80.76129150390625 65.49085998535156 82.88133239746094 60.47855377197266 C 85.07578277587891 55.29026031494141 86.1884765625 49.77776718139648 86.1884765625 44.09420776367188 C 86.1884765625 38.41064834594727 85.07578277587891 32.89815521240234 82.88133239746094 27.70986175537109 C 80.76129150390625 22.69754028320312 77.72586822509766 18.19561004638672 73.85935974121094 14.3291015625 C 69.99285125732422 10.46259307861328 65.49092102050781 7.427169799804688 60.47859954833984 5.307144165039062 C 55.29030609130859 3.1126708984375 49.77781295776367 1.999992370605469 44.09423828125 1.999992370605469 M 44.09423828125 -7.62939453125e-06 C 68.44680786132812 -7.62939453125e-06 88.1884765625 19.74164581298828 88.1884765625 44.09420776367188 C 88.1884765625 68.44676971435547 68.44680786132812 88.18840789794922 44.09423828125 88.18840789794922 C 19.74166870117188 88.18840789794922 0 68.44676971435547 0 44.09420776367188 C 0 19.74164581298828 19.74166870117188 -7.62939453125e-06 44.09423828125 -7.62939453125e-06 Z" stroke="none" fill="#8e8e8e"/>
          </g>
        </g>
      </g>
      <g id="Gruppe_24613" data-name="Gruppe 24613" transform="translate(157.757 338.406)">
        <g id="Gruppe_24606" data-name="Gruppe 24606" transform="translate(6.182 4.337)">
          <rect id="Rechteck_3822" data-name="Rechteck 3822" width="33.086" height="41.802" fill="none" stroke="#7c7c7c" stroke-linecap="round" stroke-linejoin="round" stroke-width="2"/>
          <g id="Gruppe_24605" data-name="Gruppe 24605" transform="translate(7.127 8.557)">
            <line id="Linie_7240" data-name="Linie 7240" x2="7.076" fill="none" stroke="#7c7c7c" stroke-linecap="round" stroke-linejoin="round" stroke-width="2"/>
            <line id="Linie_7241" data-name="Linie 7241" x2="7.076" transform="translate(0 8.071)" fill="none" stroke="#7c7c7c" stroke-linecap="round" stroke-linejoin="round" stroke-width="2"/>
            <line id="Linie_7242" data-name="Linie 7242" x2="18.832" transform="translate(0 16.142)" fill="none" stroke="#7c7c7c" stroke-linecap="round" stroke-linejoin="round" stroke-width="2"/>
            <line id="Linie_7243" data-name="Linie 7243" x2="18.832" transform="translate(0 24.213)" fill="none" stroke="#7c7c7c" stroke-linecap="round" stroke-linejoin="round" stroke-width="2"/>
          </g>
        </g>
        <line id="Linie_7244" data-name="Linie 7244" y2="8.05" transform="translate(28.5 12.995)" fill="none" stroke="#7c7c7c" stroke-linecap="round" stroke-linejoin="round" stroke-width="2"/>
        <line id="Linie_7245" data-name="Linie 7245" x1="8.05" transform="translate(24.475 17.02)" fill="none" stroke="#7c7c7c" stroke-linecap="round" stroke-linejoin="round" stroke-width="2"/>
      </g>
    </g>
    <g id="Gruppe_24804" data-name="Gruppe 24804" transform="translate(-100 -476.999)">
      <g id="Gruppe_20559" data-name="Gruppe 20559" transform="translate(132.001 5.74)">
        <g id="Gruppe_20545" data-name="Gruppe 20545" transform="translate(167 618.259)">
          <circle id="Ellipse_2172" data-name="Ellipse 2172" cx="12.5" cy="12.5" r="12.5" transform="translate(0)" fill="#d81e42"/>
        </g>
      </g>
      <g id="Check_Icon-2" data-name="Check Icon-2" transform="translate(304.162 629.516)">
        <rect id="Bounds-39" width="14" height="14" transform="translate(0.338 0.484)" fill="none"/>
        <g id="Gruppe_24623" data-name="Gruppe 24623" transform="translate(-0.403 1)">
          <path id="Pfad_27736" data-name="Pfad 27736" d="M7.338,10.667V2.712" transform="translate(0.413 -1.877)" fill="none" stroke="#fff" stroke-width="1.3"/>
          <path id="Pfad_27737" data-name="Pfad 27737" d="M7.338,2.712V3.995" transform="translate(0.413 7.275)" fill="none" stroke="#fff" stroke-width="1.3"/>
        </g>
      </g>
    </g>
  </g>
</svg>
