<?xml version="1.0" encoding="utf-8"?>
<!-- Generator: Adobe Illustrator 23.0.1, SVG Export Plug-In . SVG Version: 6.00 Build 0)  -->
<svg version="1.1" id="Ebene_1" xmlns="http://www.w3.org/2000/svg" x="0px" y="0px"
     viewBox="0 0 19.5 18.5" style="enable-background:new 0 0 19.5 18.5;" xml:space="preserve">
<style type="text/css">
	.st0{fill:#8E8E8E;}
	.st1{enable-background:new    ;}
	.st2{fill:#FFB03B;}
</style>
    <g id="Gruppe_10297" transform="translate(9.182 716.266)">
	<g id="Pfad_11557">
		<path class="st0" d="M3.38-697.77c-0.01,0-0.01,0-0.02,0c-0.26-0.01-0.5-0.15-0.63-0.37l-1.51-2.55
			c-0.22,0.01-0.43,0.02-0.65,0.02c-5.1,0-9.25-3.5-9.25-7.8s4.15-7.8,9.25-7.8s9.25,3.5,9.25,7.8c0,0,0,0.01,0,0.01
			c-0.04,2.04-0.94,3.97-2.48,5.3L4-698.1C3.87-697.89,3.63-697.77,3.38-697.77z M1.63-702.23c0.26,0,0.51,0.14,0.65,0.37l1.14,1.93
			l2.73-4.14c0.04-0.06,0.09-0.12,0.14-0.16c1.26-1.06,2-2.6,2.03-4.24c0-3.47-3.48-6.29-7.75-6.29c-4.27,0-7.75,2.83-7.75,6.3
			s3.48,6.3,7.75,6.3c0.33,0,0.65-0.02,0.98-0.06C1.57-702.22,1.6-702.23,1.63-702.23z M9.07-708.47L9.07-708.47L9.07-708.47z"/>
	</g>
        <g class="st1">
		<path class="st0" d="M-0.17-706.99c0-0.34,0.05-0.59,0.15-0.74c0.1-0.16,0.29-0.35,0.59-0.57c0.17-0.14,0.31-0.29,0.41-0.45
			c0.1-0.16,0.15-0.34,0.15-0.54c0-0.22-0.06-0.4-0.18-0.52s-0.29-0.19-0.5-0.19c-0.18,0-0.33,0.05-0.46,0.16
			c-0.12,0.11-0.19,0.26-0.19,0.47h-1.03l-0.01-0.02c-0.01-0.46,0.15-0.82,0.46-1.07c0.31-0.25,0.72-0.37,1.23-0.37
			c0.54,0,0.97,0.14,1.28,0.41s0.46,0.65,0.46,1.12c0,0.31-0.09,0.59-0.27,0.85c-0.18,0.26-0.41,0.48-0.68,0.66
			c-0.15,0.11-0.25,0.23-0.29,0.34c-0.05,0.12-0.07,0.27-0.07,0.47H-0.17z M0.9-705.49h-1.07v-0.91H0.9V-705.49z"/>
	</g>
</g>
</svg>
