<?xml version="1.0" encoding="utf-8"?>
<!-- Generator: Adobe Illustrator 23.0.1, SVG Export Plug-In . SVG Version: 6.00 Build 0)  -->
<svg version="1.1" id="Ebene_1" xmlns="http://www.w3.org/2000/svg" x="0px" y="0px"
     viewBox="0 0 19.5 18.5" style="enable-background:new 0 0 19.5 18.5;" xml:space="preserve">
<style type="text/css">
	.st0{fill:#8E8E8E;}
	.st1{enable-background:new    ;}
	.st2{fill:#FFB03B;}
</style>
    <g>
	<path class="st0" d="M18.96,16.07l-1.74-1.06c-0.35-0.22-0.82-0.11-1.03,0.25c-0.14,0.22-0.13,0.49-0.03,0.71H2.77V3.09
		c0.21,0.08,0.46,0.08,0.67-0.05c0.35-0.22,0.46-0.68,0.24-1.03L2.63,0.35C2.5,0.13,2.26,0,2,0c0,0,0,0,0,0
		c-0.26,0-0.5,0.14-0.64,0.36L0.29,2.1c-0.22,0.35-0.1,0.81,0.25,1.03C0.67,3.2,0.8,3.24,0.93,3.24c0.12,0,0.23-0.03,0.33-0.09
		v13.56c0,0.41,0.34,0.75,0.75,0.75h14.21c-0.09,0.22-0.09,0.47,0.04,0.68c0.14,0.23,0.39,0.35,0.64,0.35c0.14,0,0.27-0.04,0.4-0.11
		l1.65-1.04c0.22-0.14,0.35-0.38,0.35-0.64C19.31,16.45,19.18,16.21,18.96,16.07z"/>
        <path class="st0" d="M5.54,14.72c0.41,0,0.75-0.34,0.75-0.75V6.67c0-0.41-0.34-0.75-0.75-0.75S4.79,6.26,4.79,6.67v7.29
		C4.79,14.38,5.12,14.72,5.54,14.72z"/>
        <path class="st0" d="M9.45,14.72c0.41,0,0.75-0.34,0.75-0.75V4.83c0-0.41-0.34-0.75-0.75-0.75S8.7,4.41,8.7,4.83v9.14
		C8.7,14.38,9.04,14.72,9.45,14.72z"/>
        <path class="st0" d="M13.36,14.72c0.41,0,0.75-0.34,0.75-0.75V6.67c0-0.41-0.34-0.75-0.75-0.75s-0.75,0.34-0.75,0.75v7.29
		C12.61,14.38,12.95,14.72,13.36,14.72z"/>
</g>
</svg>
