<?xml version="1.0" encoding="utf-8"?>
<!-- Generator: Adobe Illustrator 23.0.1, SVG Export Plug-In . SVG Version: 6.00 Build 0)  -->
<svg version="1.1" id="Ebene_1" xmlns="http://www.w3.org/2000/svg" x="0px" y="0px"
     viewBox="0 0 19.5 18.5" style="enable-background:new 0 0 19.5 18.5;" xml:space="preserve">
<style type="text/css">
	.st0{fill:#8E8E8E;}
	.st1{enable-background:new    ;}
	.st2{fill:#FFB03B;}
</style>
    <path class="st0" d="M17.08,9.39l0.39-5.95c0.01-0.21-0.06-0.41-0.2-0.56c-0.14-0.15-0.34-0.24-0.55-0.24h-4.76l0.02-1.87
	c0-0.2-0.08-0.39-0.22-0.54c-0.14-0.14-0.33-0.22-0.53-0.22L8.47,0c0,0,0,0,0,0C8.06,0,7.72,0.33,7.72,0.74l-0.03,1.9H2.78
	c-0.21,0-0.41,0.09-0.55,0.24c-0.14,0.15-0.21,0.35-0.2,0.56L2.98,17.8c0.03,0.39,0.35,0.7,0.75,0.7h12.05c0.4,0,0.72-0.31,0.75-0.7
	L17.08,9.39C17.08,9.39,17.08,9.39,17.08,9.39z M15.92,4.14L15.74,7c-1.04-0.96-2.4-1.23-3.82-1.2l0.02-1.65H15.92z M9.17,4.14h1.27
	L10.42,5.9C9.99,5.95,9.56,6.01,9.15,6.08L9.17,4.14z M9.07,11.81l1.27,0.01l-0.01,0.87l-1.27-0.01L9.07,11.81z M10.36,10.32
	l-1.27-0.01L9.1,9.44l1.27,0.01L10.36,10.32z M9.04,14.17l1.27,0.01l-0.01,1.01l-1.27-0.01L9.04,14.17z M10.39,7.95L9.12,7.94
	l0-0.35c0.03,0,0.05-0.01,0.08-0.01c0.42-0.06,0.81-0.12,1.19-0.16L10.39,7.95z M9.21,1.5l1.27,0l-0.02,1.14H9.19L9.21,1.5z
	 M7.64,6.29c-1.3,0.16-2.46,0.17-3.17-0.36C4.02,5.58,3.74,4.99,3.6,4.14h4.07L7.64,6.29z M4.43,17L3.78,7.25
	C4.83,7.92,6.2,7.95,7.62,7.8l-0.11,8.12c0,0.2,0.07,0.39,0.21,0.53c0.14,0.14,0.33,0.22,0.53,0.23l2.77,0.03c0,0,0,0,0.01,0
	c0.41,0,0.74-0.33,0.75-0.74L11.9,7.3c1.8-0.04,3.02,0.43,3.67,2.16L15.07,17H4.43z"/>
</svg>
