<svg xmlns="http://www.w3.org/2000/svg" width="86.482" height="117.677" viewBox="0 0 86.482 117.677">
    <g id="Gruppe_10251" data-name="Gruppe 10251" transform="translate(837.096 496.019)">
        <g id="Gruppe_10255" data-name="Gruppe 10255" transform="translate(-827.338 -479.318)">
            <g id="Gruppe_10253" data-name="Gruppe 10253" transform="translate(4.789)">
                <g id="Gruppe_10252" data-name="Gruppe 10252">
                    <g id="Gruppe_10251-2" data-name="Gruppe 10251">
                        <path id="Pfad_11534" data-name="Pfad 11534"
                              d="M-813.759-450.829a25.152,25.152,0,0,1-1.254-7.9c0-10.507,6.166-11.885,13.774-11.885s13.774,1.378,13.774,11.885a25.447,25.447,0,0,1-.673,5.843"
                              transform="translate(815.013 470.612)" fill="none" stroke="#8e8e8e" stroke-linecap="round"
                              stroke-miterlimit="10" stroke-width="2"/>
                    </g>
                </g>
            </g>
            <g id="Gruppe_10254" data-name="Gruppe 10254" transform="translate(0 5.849)">
                <path id="Pfad_11535" data-name="Pfad 11535" d="M-816.7-461.506a14.8,14.8,0,0,0-5.765,4.647"
                      transform="translate(822.466 461.508)" fill="none" stroke="#8e8e8e" stroke-linecap="round"
                      stroke-miterlimit="10" stroke-width="2"/>
                <path id="Pfad_11536" data-name="Pfad 11536" d="M-773.665-461.509c2.58,1.075,7.13,4.043,9.256,11.431"
                      transform="translate(805.022 461.509)" fill="none" stroke="#8e8e8e" stroke-linecap="round"
                      stroke-miterlimit="10" stroke-width="2"/>
            </g>
        </g>
        <path id="Pfad_11537" data-name="Pfad 11537"
              d="M-828.808-435.265a22.823,22.823,0,0,0-5.934,15.347c0,.019,0,.037,0,.055s0,.018,0,.028v49.959a9.2,9.2,0,0,0,9.168,9.168,9.2,9.2,0,0,0,9.168-9.168v-27.586a22.8,22.8,0,0,0,4.584.465h0a22.987,22.987,0,0,0,22.92-22.92,22.806,22.806,0,0,0-.464-4.584h29.07a9.2,9.2,0,0,0,9.168-9.168,9.2,9.2,0,0,0-9.168-9.168h-49.959A25.35,25.35,0,0,0-821.47-440.7"
              transform="translate(-0.484 -18.634)" fill="none" stroke="#8e8e8e" stroke-linecap="round"
              stroke-miterlimit="10" stroke-width="2"/>
        <path id="Pfad_11538" data-name="Pfad 11538"
              d="M-824.32-448.2c-.109-.082-.212-.168-.312-.258l-.054-.049c-.328-.3-.492-.481-.7-.695s-.383-.414-.564-.617c-.368-.406-.708-.815-1.028-1.227-.674-.814-1.245-1.665-1.838-2.507a41.652,41.652,0,0,1-2.983-5.3,44.993,44.993,0,0,1-3.606-11.368c-.172-.971-.259-1.954-.389-2.927a22.124,22.124,0,0,1-.221-2.925c-.026-.975-.089-1.949-.08-2.918l.151-2.9a20.737,20.737,0,0,1,.283-2.872l.406-2.844c.346-1.876.833-3.717,1.246-5.562a2.3,2.3,0,0,1,2.748-1.743,2.3,2.3,0,0,1,1.786,2.492l-.027.248c-.188,1.746-.455,3.475-.585,5.207l-.083,2.6a17.213,17.213,0,0,0,.026,2.581l.141,2.563c.085.848.238,1.687.35,2.526a17.575,17.575,0,0,0,.464,2.49c.2.817.362,1.643.6,2.445a37.358,37.358,0,0,0,3.994,9.048,33.151,33.151,0,0,0,2.82,3.943c.528.59,1.041,1.208,1.6,1.738.271.281.545.545.82.784.136.123.275.256.4.351a2.991,2.991,0,0,0,.3.235"
              fill="none" stroke="#8e8e8e" stroke-linecap="round" stroke-miterlimit="10" stroke-width="2"/>
        <path id="Pfad_11539" data-name="Pfad 11539" d="M-772.685-382.415h2.494a17.009,17.009,0,0,1,16.959,16.96v10.173"
              transform="translate(-19.667 -40.233)" fill="none" stroke="#02bdc2" stroke-linecap="round"
              stroke-miterlimit="10" stroke-width="2" stroke-dasharray="0.1 3"/>
        <g id="Gruppe_10257" data-name="Gruppe 10257" transform="translate(-781.222 -400.822)">
            <g id="Gruppe_10256" data-name="Gruppe 10256">
                <path id="Pfad_11540" data-name="Pfad 11540" d="M-739.847-329.307h-14.386l-1.131-19.139h16.649Z"
                      transform="translate(755.364 348.447)" fill="none" stroke="#02bdc2" stroke-linecap="round"
                      stroke-linejoin="round" stroke-width="2"/>
                <path id="Pfad_11541" data-name="Pfad 11541"
                      d="M-739.279-331.763c-2.715-8.755-14.365,2.456-15.494-6.683"
                      transform="translate(755.153 344.872)" fill="none" stroke="#02bdc2" stroke-linecap="round"
                      stroke-linejoin="round" stroke-width="2"/>
            </g>
        </g>
        <g id="Gruppe_10260" data-name="Gruppe 10260" transform="translate(-766.801 -458.457)">
            <path id="Pfad_11542" data-name="Pfad 11542"
                  d="M-727.79-427.231c-.886-.8-.128-2.388-.128-3.464s-.828-2.7.128-3.465c1.329-1.069,5.386,1.551,5.386,3.465S-726.526-426.093-727.79-427.231Z"
                  transform="translate(728.251 436.809)" fill="#8e8e8e"/>
            <g id="Gruppe_10258" data-name="Gruppe 10258" transform="translate(3.724)">
                <ellipse id="Ellipse_2408" data-name="Ellipse 2408" cx="1.656" cy="1.221" rx="1.656" ry="1.221"
                         fill="#8e8e8e"/>
                <ellipse id="Ellipse_2409" data-name="Ellipse 2409" cx="1.656" cy="1.221" rx="1.656" ry="1.221"
                         transform="translate(0 9.808)" fill="#8e8e8e"/>
            </g>
            <g id="Gruppe_10259" data-name="Gruppe 10259" transform="translate(6.376 2.578)">
                <ellipse id="Ellipse_2410" data-name="Ellipse 2410" cx="2.175" cy="1.508" rx="2.175" ry="1.508"
                         fill="#8e8e8e"/>
                <ellipse id="Ellipse_2411" data-name="Ellipse 2411" cx="2.175" cy="1.508" rx="2.175" ry="1.508"
                         transform="translate(0 4.078)" fill="#8e8e8e"/>
            </g>
        </g>
    </g>
</svg>
