<svg xmlns="http://www.w3.org/2000/svg" width="78" height="78" viewBox="0 0 78 78">
  <g id="Gruppe_14276" data-name="Gruppe 14276" transform="translate(-36 -105.184)">
    <g id="Gruppe_5135" data-name="Gruppe 5135" transform="translate(7 -52.816)">
      <g id="Gruppe_3318" data-name="Gruppe 3318" transform="translate(29 158)">
        <g id="Ellipse_108" data-name="Ellipse 108" transform="translate(0 0)" fill="#f4f4f4" stroke="#21c0ff" stroke-width="2">
          <circle cx="39" cy="39" r="39" stroke="none"/>
          <circle cx="39" cy="39" r="38" fill="none"/>
        </g>
      </g>
    </g>
    <g id="Gruppe_9941" data-name="Gruppe 9941" transform="translate(60.275 126.5)">
      <ellipse id="Ellipse_1751" data-name="Ellipse 1751" cx="3.332" cy="3.332" rx="3.332" ry="3.332" transform="translate(23.069 19.737)" fill="none" stroke="#21c0ff" stroke-linecap="round" stroke-linejoin="round" stroke-miterlimit="10" stroke-width="2"/>
      <g id="Gruppe_7764" data-name="Gruppe 7764" transform="translate(0.5 0.5)">
        <path id="Pfad_8288" data-name="Pfad 8288" d="M21.1,2V9.725a10.41,10.41,0,0,1-10.3,10.3h0A10.41,10.41,0,0,1,.5,9.725V2" transform="translate(-0.5 0.272)" fill="none" stroke="#21c0ff" stroke-linecap="round" stroke-linejoin="round" stroke-miterlimit="10" stroke-width="2"/>
        <path id="Pfad_8289" data-name="Pfad 8289" d="M3.832,8.377H1.712A1.3,1.3,0,0,1,.5,7.165V1.712A1.3,1.3,0,0,1,1.712.5H3.832A1.3,1.3,0,0,1,5.044,1.712V7.165A1.3,1.3,0,0,1,3.832,8.377Z" transform="translate(-0.5 -0.5)" fill="none" stroke="#21c0ff" stroke-linecap="round" stroke-linejoin="round" stroke-miterlimit="10" stroke-width="2"/>
        <path id="Pfad_8290" data-name="Pfad 8290" d="M14.432,8.377H12.312A1.3,1.3,0,0,1,11.1,7.165V1.712A1.3,1.3,0,0,1,12.312.5h2.121a1.3,1.3,0,0,1,1.212,1.212V7.165A1.2,1.2,0,0,1,14.432,8.377Z" transform="translate(4.956 -0.5)" fill="none" stroke="#21c0ff" stroke-linecap="round" stroke-linejoin="round" stroke-miterlimit="10" stroke-width="2"/>
      </g>
      <path id="Pfad_8291" data-name="Pfad 8291" d="M22.85,20.056a7.758,7.758,0,0,1-7.725,7.725h0A7.758,7.758,0,0,1,7.4,20.056V14.3" transform="translate(3.552 7.103)" fill="none" stroke="#21c0ff" stroke-linecap="round" stroke-linejoin="round" stroke-miterlimit="10" stroke-width="2"/>
    </g>
  </g>
</svg>
