<?xml version="1.0" encoding="utf-8"?>
<!-- Generator: Adobe Illustrator 24.2.2, SVG Export Plug-In . SVG Version: 6.00 Build 0)  -->
<svg version="1.1" id="Ebene_1" xmlns="http://www.w3.org/2000/svg" xmlns:xlink="http://www.w3.org/1999/xlink" x="0px" y="0px"
	 viewBox="0 0 341.7 152" style="enable-background:new 0 0 341.7 152;" xml:space="preserve">
<style type="text/css">
	.st0{clip-path:url(#SVGID_2_);}
	.st1{fill:#F4F4F4;}
	.st2{opacity:0.52;}
	.st3{fill:none;stroke:#DFDFDF;stroke-width:2;stroke-miterlimit:10;}
	.st4{fill:none;stroke:#DFDFDF;stroke-width:2;stroke-linecap:round;stroke-linejoin:round;}
	.st5{fill:none;stroke:#DFDFDF;stroke-width:2;stroke-linecap:round;}
	.st6{fill:#DFDFDF;}
	
		.st7{opacity:0.52;fill:none;stroke:#DFDFDF;stroke-width:2;stroke-linecap:round;stroke-linejoin:round;enable-background:new    ;}
	.st8{fill:none;stroke:#DFDFDF;stroke-width:2;stroke-linecap:round;stroke-miterlimit:10;}
</style>
<g>
	<g>
		<g>
			<defs>
				<rect id="SVGID_1_" x="0" y="0" width="341.7" height="152"/>
			</defs>
			<clipPath id="SVGID_2_">
				<use xlink:href="#SVGID_1_"  style="overflow:visible;"/>
			</clipPath>
			<g class="st0">
				<path id="Pfad_14844" class="st1" d="M0-0.2h342.7v153.1H0V-0.2z"/>
				<g id="Gruppe_14985" class="st2">
					<g id="Gruppe_14984">
						<path id="Rechteck_2585" class="st3" d="M18.1-6l17.5,7.5c4,1.7,5.8,6.4,4.1,10.4l0,0c-1.7,4-6.3,5.8-10.3,4.1l0,0L11.9,8.5
							c-4-1.7-5.8-6.4-4.1-10.4l0,0C9.4-5.9,14.1-7.7,18.1-6L18.1-6z"/>
						<line id="Linie_3541" class="st3" x1="26.8" y1="-2.2" x2="20.6" y2="12.3"/>
					</g>
					<path id="Pfad_14840" class="st3" d="M25.6-2.9c-0.1-0.5-0.1-1-0.1-1.5c0-5.5,4.5-9.9,9.9-9.9l0,0c5.5,0,9.9,4.4,9.9,9.9l0,0
						c0,3.9-2.3,7.4-5.8,9.1"/>
					<line id="Linie_3542" class="st3" x1="31.4" y1="-0.4" x2="42.2" y2="-11.2"/>
				</g>
				<g id="Gruppe_14986" class="st2">
					<line id="Linie_3543" class="st4" x1="68.8" y1="-10.2" x2="68.8" y2="8.8"/>
					<circle id="Ellipse_3071" class="st4" cx="68.8" cy="12.5" r="3.2"/>
					<path id="Pfad_14841" class="st4" d="M74.5,5.2v-16c0-3.1-2.5-5.6-5.6-5.6s-5.6,2.5-5.6,5.6v16c-4,3.1-4.8,8.9-1.7,13
						c3.1,4.1,8.9,4.8,13,1.7s4.8-8.9,1.7-13C75.7,6.3,75.1,5.7,74.5,5.2z"/>
					<line id="Linie_3544" class="st4" x1="77.9" y1="-8.1" x2="81" y2="-8.1"/>
					<line id="Linie_3545" class="st4" x1="77.9" y1="-3.6" x2="79.5" y2="-3.6"/>
					<line id="Linie_3546" class="st4" x1="77.9" y1="0.9" x2="81" y2="0.9"/>
				</g>
				<g id="Gruppe_14987" class="st2">
					<path id="Pfad_14843" class="st5" d="M115.5-16.4c10,0,18.2,8.1,18.2,18.1s-8.1,18.2-18.1,18.2S97.4,11.8,97.4,1.7l0,0
						C97.4-8.3,105.5-16.4,115.5-16.4L115.5-16.4z"/>
					<rect id="Rechteck_2586" x="113.9" y="-1" class="st6" width="3.3" height="11.7"/>
					<path id="Pfad_14842" class="st6" d="M115.5-3.5c-1,0-1.9-0.8-1.9-1.9c0-1,0.8-1.9,1.9-1.9c1,0,1.9,0.8,1.9,1.9
						C117.4-4.4,116.6-3.5,115.5-3.5z"/>
				</g>
				<g id="Gruppe_14979-2" class="st2">
					<circle id="Ellipse_3067-2" class="st4" cx="226.2" cy="6.7" r="3.8"/>
					<g id="Gruppe_14978-2">
						<path id="Pfad_14834-2" class="st4" d="M220.3-15.8v8.6c0,6.3-5.1,11.5-11.5,11.5l0,0c-6.3,0-11.5-5.2-11.5-11.5v-8.6"/>
						<path id="Rechteck_2582-2" class="st4" d="M198.2-18.4h3.4c0.4,0,0.8,0.4,0.8,0.8v7.1c0,0.4-0.4,0.8-0.8,0.8h-3.4
							c-0.4,0-0.8-0.4-0.8-0.8v-7.1C197.4-18,197.7-18.4,198.2-18.4z"/>
						<path id="Rechteck_2583-2" class="st4" d="M216.1-18.4h3.4c0.4,0,0.8,0.4,0.8,0.8v7.1c0,0.4-0.4,0.8-0.8,0.8h-3.4
							c-0.4,0-0.8-0.4-0.8-0.8v-7.1C215.3-18,215.6-18.4,216.1-18.4z"/>
					</g>
					<path id="Pfad_14835-2" class="st4" d="M226.2,11.3c0,4.7-3.9,8.6-8.6,8.6l0,0c-4.8,0-8.6-3.9-8.6-8.6V4.8"/>
				</g>
				<path id="Pfad_14836-2" class="st7" d="M284.3-5.6h-12.7v-12.7h-12.7v12.7h-12.8V7.1h12.8v12.7h12.7V7.1h12.7V-5.6z"/>
				<g id="Gruppe_14981-2" class="st2">
					<path id="Pfad_14837-2" class="st4" d="M172.5-15h6.9v34.9h-27.6V-15h6.5"/>
					<rect id="Rechteck_2584-2" x="159" y="-18.4" class="st4" width="13.1" height="6"/>
					<g id="Gruppe_14980-2">
						<line id="Linie_3534-2" class="st4" x1="157.7" y1="-1.5" x2="167" y2="-1.5"/>
						<line id="Linie_3535-2" class="st4" x1="157.7" y1="4.6" x2="173.4" y2="4.6"/>
						<line id="Linie_3536-2" class="st4" x1="157.7" y1="10.6" x2="173.4" y2="10.6"/>
					</g>
				</g>
				<g id="Gruppe_14983-2" class="st2">
					<g id="Gruppe_14982-2">
						<circle id="Ellipse_3069-2" class="st8" cx="311.5" cy="-3.6" r="12.8"/>
						<circle id="Ellipse_3070-2" class="st8" cx="311.5" cy="-3.6" r="9.8"/>
					</g>
					<path id="Pfad_14839-2" class="st8" d="M322,4.2l14,12.6c1.1,1.1,1.1,3,0,4.1l0,0c-1.1,1.1-3,1.1-4.1,0l0,0l0,0l-12.6-14"/>
				</g>
				<g id="Gruppe_14985-3" class="st2">
					<g id="Gruppe_14984-3">
						<path id="Rechteck_2585-3" class="st3" d="M18.1,96.7l17.5,7.5c4,1.7,5.8,6.4,4.1,10.3l0,0c-1.7,4-6.3,5.8-10.3,4.1l0,0
							l-17.5-7.5c-4-1.7-5.8-6.3-4.1-10.3l0,0l0,0C9.5,96.9,14.1,95,18.1,96.7z"/>
						<line id="Linie_3541-3" class="st3" x1="26.8" y1="100.5" x2="20.6" y2="115"/>
					</g>
					<path id="Pfad_14840-3" class="st3" d="M25.6,99.8c-0.1-0.5-0.1-1-0.1-1.5c0-5.5,4.5-9.9,9.9-9.9l0,0c5.5,0,9.9,4.4,9.9,9.9
						l0,0l0,0c0,3.9-2.3,7.4-5.8,9"/>
					<line id="Linie_3542-3" class="st3" x1="31.4" y1="102.3" x2="42.2" y2="91.5"/>
				</g>
				<g id="Gruppe_14986-3" class="st2">
					<line id="Linie_3543-3" class="st4" x1="68.8" y1="92.5" x2="68.8" y2="111.5"/>
					<circle id="Ellipse_3071-3" class="st4" cx="68.8" cy="115.3" r="3.2"/>
					<path id="Pfad_14841-3" class="st4" d="M74.5,107.9v-16c0-3.1-2.5-5.6-5.6-5.6s-5.6,2.5-5.6,5.6v16c-4,3.1-4.8,8.9-1.7,13
						c3.1,4,8.9,4.8,13,1.7c4-3.1,4.8-8.9,1.7-13C75.7,109,75.1,108.4,74.5,107.9z"/>
					<line id="Linie_3544-3" class="st4" x1="77.9" y1="94.6" x2="81" y2="94.6"/>
					<line id="Linie_3545-3" class="st4" x1="77.9" y1="99.1" x2="79.5" y2="99.1"/>
					<line id="Linie_3546-3" class="st4" x1="77.9" y1="103.7" x2="81" y2="103.7"/>
				</g>
				<g id="Gruppe_14987-3" class="st2">
					<path id="Pfad_14843-3" class="st5" d="M115.5,86.3c10,0,18.1,8.1,18.1,18.1s-8.1,18.1-18.1,18.1s-18.1-8.1-18.1-18.1
						S105.5,86.3,115.5,86.3L115.5,86.3z"/>
					<rect id="Rechteck_2586-3" x="113.9" y="101.7" class="st6" width="3.3" height="11.7"/>
					<path id="Pfad_14842-3" class="st6" d="M115.5,99.2c-1,0-1.9-0.8-1.9-1.9s0.8-1.9,1.9-1.9c1,0,1.9,0.8,1.9,1.9l0,0
						C117.4,98.3,116.6,99.2,115.5,99.2z"/>
				</g>
				<g id="Gruppe_14979-4" class="st2">
					<circle id="Ellipse_3067-4" class="st4" cx="226.2" cy="109.4" r="3.8"/>
					<g id="Gruppe_14978-4">
						<path id="Pfad_14834-4" class="st4" d="M220.3,86.9v8.6c0,6.3-5.2,11.5-11.5,11.5l0,0c-6.3,0-11.5-5.2-11.5-11.5v-8.6"/>
						<path id="Rechteck_2582-4" class="st4" d="M198.2,84.3h3.4c0.4,0,0.8,0.4,0.8,0.8v7.1c0,0.4-0.4,0.8-0.8,0.8h-3.4
							c-0.4,0-0.8-0.4-0.8-0.8v-7.1C197.4,84.7,197.7,84.3,198.2,84.3z"/>
						<path id="Rechteck_2583-4" class="st4" d="M216.1,84.3h3.4c0.4,0,0.8,0.4,0.8,0.8v7.1c0,0.4-0.4,0.8-0.8,0.8h-3.4
							c-0.4,0-0.8-0.4-0.8-0.8v-7.1C215.3,84.7,215.6,84.3,216.1,84.3z"/>
					</g>
					<path id="Pfad_14835-4" class="st4" d="M226.2,114c0,4.8-3.9,8.6-8.6,8.6l0,0c-4.8,0-8.6-3.9-8.6-8.6v-6.5"/>
				</g>
				<path id="Pfad_14836-4" class="st7" d="M284.3,97.1h-12.7V84.3h-12.7V97h-12.8v12.7h12.8v12.8h12.7v-12.8h12.7V97.1z"/>
				<g id="Gruppe_14981-4" class="st2">
					<path id="Pfad_14837-4" class="st4" d="M172.5,87.7h6.9v34.9h-27.6V87.7h6.5"/>
					<rect id="Rechteck_2584-4" x="159" y="84.3" class="st4" width="13.1" height="6"/>
					<g id="Gruppe_14980-4">
						<line id="Linie_3534-4" class="st4" x1="157.7" y1="101.2" x2="167" y2="101.2"/>
						<line id="Linie_3535-4" class="st4" x1="157.7" y1="107.3" x2="173.4" y2="107.3"/>
						<line id="Linie_3536-4" class="st4" x1="157.7" y1="113.3" x2="173.4" y2="113.3"/>
					</g>
				</g>
				<g id="Gruppe_14983-4" class="st2">
					<g id="Gruppe_14982-4">
						<circle id="Ellipse_3069-4" class="st8" cx="311.5" cy="99.1" r="12.8"/>
						<circle id="Ellipse_3070-4" class="st8" cx="311.5" cy="99.1" r="9.8"/>
					</g>
					<path id="Pfad_14839-4" class="st8" d="M322,106.9l14,12.6c1.1,1.1,1.1,3,0,4.2l0,0c-1.1,1.1-3,1.1-4.1,0l0,0l-12.6-14"/>
				</g>
				<g id="Gruppe_14979-6" class="st2">
					<circle id="Ellipse_3067-6" class="st4" cx="61.5" cy="58.1" r="3.8"/>
					<g id="Gruppe_14978-6">
						<path id="Pfad_14834-6" class="st4" d="M55.6,35.6v8.6c0,6.3-5.1,11.5-11.5,11.5l0,0c-6.3,0-11.5-5.1-11.5-11.5v-8.6"/>
						<path id="Rechteck_2582-6" class="st4" d="M33.4,33h3.4c0.4,0,0.8,0.4,0.8,0.8v7.1c0,0.4-0.4,0.8-0.8,0.8h-3.4
							c-0.4,0-0.8-0.4-0.8-0.8v-7.1C32.6,33.3,33,33,33.4,33z"/>
						<path id="Rechteck_2583-6" class="st4" d="M51.3,33h3.4c0.4,0,0.8,0.4,0.8,0.8v7.1c0,0.4-0.4,0.8-0.8,0.8h-3.4
							c-0.4,0-0.8-0.4-0.8-0.8v-7.1C50.5,33.3,50.9,33,51.3,33z"/>
					</g>
					<path id="Pfad_14835-6" class="st4" d="M61.5,62.6c0,4.8-3.9,8.6-8.6,8.6l0,0c-4.8,0-8.6-3.9-8.6-8.6v-6.5"/>
				</g>
				<path id="Pfad_14836-6" class="st7" d="M119.6,45.7h-12.7V33H94.1v12.7H81.3v12.7h12.8v12.7h12.8V58.5h12.7V45.7z"/>
				<g id="Gruppe_14981-6" class="st2">
					<path id="Pfad_14837-6" class="st4" d="M7.7,36.3h6.9v34.9H0.1"/>
					<polyline id="Rechteck_2584-6" class="st4" points="0.2,33 7.4,33 7.4,39 0.2,39 					"/>
					<g id="Gruppe_14980-6">
						<line id="Linie_3534-6" class="st4" x1="0.1" y1="49.9" x2="2.3" y2="49.9"/>
						<line id="Linie_3535-6" class="st4" x1="0.1" y1="55.9" x2="8.7" y2="55.9"/>
						<line id="Linie_3536-6" class="st4" x1="0.1" y1="62" x2="8.7" y2="62"/>
					</g>
				</g>
				<g id="Gruppe_14983-6" class="st2">
					<g id="Gruppe_14982-6">
						<circle id="Ellipse_3069-6" class="st8" cx="146.8" cy="47.7" r="12.8"/>
						<circle id="Ellipse_3070-6" class="st8" cx="146.8" cy="47.7" r="9.8"/>
					</g>
					<path id="Pfad_14839-6" class="st8" d="M157.3,55.5l14.1,12.6c1.1,1.1,1.1,3,0,4.2l0,0c-1.1,1.1-3,1.1-4.1,0l0,0l0,0l-12.6-14"
						/>
				</g>
				<g id="Gruppe_14985-6" class="st2">
					<g id="Gruppe_14984-6">
						<path id="Rechteck_2585-6" class="st3" d="M196.4,45.4l17.5,7.5c4,1.7,5.8,6.3,4.1,10.3l0,0l0,0c-1.7,4-6.4,5.8-10.4,4.1
							l-17.5-7.5c-4-1.7-5.9-6.3-4.2-10.3l0,0l0,0C187.7,45.5,192.3,43.6,196.4,45.4C196.3,45.4,196.4,45.4,196.4,45.4z"/>
						<line id="Linie_3541-6" class="st3" x1="205.1" y1="49.1" x2="198.9" y2="63.6"/>
					</g>
					<path id="Pfad_14840-6" class="st3" d="M203.8,48.4c-0.1-0.5-0.1-1-0.1-1.5c0-5.5,4.4-9.9,9.9-10l0,0l0,0
						c5.5,0,9.9,4.5,9.9,9.9c0,0,0,0,0,0.1l0,0c0,3.9-2.3,7.4-5.8,9"/>
					<line id="Linie_3542-6" class="st3" x1="209.7" y1="51" x2="220.5" y2="40.2"/>
				</g>
				<g id="Gruppe_14986-6" class="st2">
					<line id="Linie_3543-6" class="st4" x1="247.1" y1="41.1" x2="247.1" y2="60.1"/>
					<circle id="Ellipse_3071-6" class="st4" cx="247.1" cy="63.9" r="3.2"/>
					<path id="Pfad_14841-6" class="st4" d="M252.8,56.6v-16c0-3.1-2.5-5.6-5.6-5.6s-5.6,2.5-5.6,5.6l0,0v16c-4,3.1-4.8,8.9-1.7,13
						c3.1,4,8.9,4.8,13,1.7c4-3.1,4.8-8.9,1.7-13C254,57.6,253.4,57.1,252.8,56.6z"/>
					<line id="Linie_3544-6" class="st4" x1="256.2" y1="43.3" x2="259.3" y2="43.3"/>
					<line id="Linie_3545-6" class="st4" x1="256.2" y1="47.8" x2="257.8" y2="47.8"/>
					<line id="Linie_3546-6" class="st4" x1="256.2" y1="52.3" x2="259.3" y2="52.3"/>
				</g>
				<g id="Gruppe_14987-6" class="st2">
					<path id="Pfad_14843-6" class="st5" d="M293.8,34.9c10,0,18.2,8.1,18.2,18.1s-8.1,18.2-18.1,18.2s-18.2-8.1-18.2-18.1l0,0
						C275.7,43.1,283.8,34.9,293.8,34.9L293.8,34.9z"/>
					<rect id="Rechteck_2586-6" x="292.1" y="50.4" class="st6" width="3.4" height="11.7"/>
					<path id="Pfad_14842-6" class="st6" d="M293.8,47.8c-1,0-1.9-0.8-1.9-1.9s0.8-1.9,1.9-1.9s1.9,0.8,1.9,1.9l0,0
						C295.7,47,294.8,47.9,293.8,47.8L293.8,47.8L293.8,47.8z"/>
				</g>
				<g id="Gruppe_14979-8" class="st2">
					<circle id="Ellipse_3067-8" class="st4" cx="61.5" cy="160.8" r="3.8"/>
					<g id="Gruppe_14978-8">
						<path id="Pfad_14834-8" class="st4" d="M55.6,138.3v8.6c0,6.3-5.1,11.5-11.5,11.5l0,0c-6.3,0-11.5-5.2-11.5-11.5v-8.6"/>
						<path id="Rechteck_2582-8" class="st4" d="M33.4,135.7h3.4c0.4,0,0.8,0.4,0.8,0.8v7.1c0,0.4-0.4,0.8-0.8,0.8h-3.4
							c-0.4,0-0.8-0.4-0.8-0.8v-7.1C32.6,136,33,135.7,33.4,135.7z"/>
						<path id="Rechteck_2583-8" class="st4" d="M51.3,135.7h3.4c0.4,0,0.8,0.4,0.8,0.8v7.1c0,0.4-0.4,0.8-0.8,0.8h-3.4
							c-0.4,0-0.8-0.4-0.8-0.8v-7.1C50.5,136,50.9,135.7,51.3,135.7z"/>
					</g>
					<path id="Pfad_14835-8" class="st4" d="M61.5,165.3c0,4.8-3.9,8.6-8.6,8.6l0,0c-4.8,0-8.6-3.9-8.6-8.6v-6.5"/>
				</g>
				<path id="Pfad_14836-8" class="st7" d="M119.6,148.4h-12.7v-12.8H94.1v12.8H81.3v12.7h12.8v12.7h12.8v-12.7h12.7V148.4z"/>
				<g id="Gruppe_14981-8" class="st2">
					<path id="Pfad_14837-8" class="st4" d="M7.7,139h6.9v34.9H0.1"/>
					<polyline id="Rechteck_2584-8" class="st4" points="0.3,135.7 7.4,135.7 7.4,141.7 0.3,141.7 					"/>
					<g id="Gruppe_14980-8">
						<line id="Linie_3534-8" class="st4" x1="0.1" y1="152.6" x2="2.3" y2="152.6"/>
						<line id="Linie_3535-8" class="st4" x1="0.1" y1="158.6" x2="8.7" y2="158.6"/>
						<line id="Linie_3536-8" class="st4" x1="0.1" y1="164.7" x2="8.7" y2="164.7"/>
					</g>
				</g>
				<g id="Gruppe_14981-6-2" class="st2">
					<path id="Pfad_14837-6-2" class="st4" d="M341.6,71.2h-13.5V36.3h6.5"/>
					<polyline id="Rechteck_2584-6-2" class="st4" points="341.4,39 335.3,39 335.3,33 341.4,33 					"/>
					<g id="Gruppe_14980-6-2">
						<line id="Linie_3534-6-2" class="st4" x1="334" y1="49.9" x2="341.3" y2="49.9"/>
						<line id="Linie_3535-6-2" class="st4" x1="334" y1="55.9" x2="341.7" y2="55.9"/>
						<line id="Linie_3536-6-2" class="st4" x1="334" y1="62" x2="341.7" y2="62"/>
					</g>
				</g>
				<g id="Gruppe_14981-8-2" class="st2">
					<path id="Pfad_14837-8-2" class="st4" d="M341.4,173.9H328V139h6.5"/>
					<polyline id="Rechteck_2584-8-2" class="st4" points="341.4,141.7 335.3,141.7 335.3,135.7 341.4,135.7 					"/>
					<g id="Gruppe_14980-8-2">
						<line id="Linie_3534-8-2" class="st4" x1="334" y1="152.6" x2="341.3" y2="152.6"/>
						<line id="Linie_3535-8-2" class="st4" x1="334" y1="158.6" x2="341.7" y2="158.6"/>
						<line id="Linie_3536-8-2" class="st4" x1="334" y1="164.7" x2="341.7" y2="164.7"/>
					</g>
				</g>
				<g id="Gruppe_14983-8" class="st2">
					<g id="Gruppe_14982-8">
						<circle id="Ellipse_3069-8" class="st8" cx="146.8" cy="150.4" r="12.8"/>
						<circle id="Ellipse_3070-8" class="st8" cx="146.8" cy="150.4" r="9.8"/>
					</g>
					<path id="Pfad_14839-8" class="st8" d="M157.3,158.2l14.1,12.6c1.1,1.1,1.1,3,0,4.1l0,0c-1.1,1.1-3,1.1-4.1,0l0,0l0,0
						l-12.6-14.1"/>
				</g>
				<g id="Gruppe_14985-8" class="st2">
					<g id="Gruppe_14984-8">
						<path id="Rechteck_2585-8" class="st3" d="M196.4,148.1l17.5,7.5c4,1.7,5.8,6.4,4.1,10.4l0,0c-1.7,4-6.4,5.8-10.4,4.1
							l-17.5-7.5c-4-1.7-5.9-6.3-4.2-10.3l0,0l0,0C187.7,148.2,192.3,146.4,196.4,148.1L196.4,148.1z"/>
						<line id="Linie_3541-8" class="st3" x1="205.1" y1="151.8" x2="198.9" y2="166.3"/>
					</g>
					<path id="Pfad_14840-8" class="st3" d="M203.8,151.1c-0.1-0.5-0.1-1-0.1-1.5c0-5.5,4.4-9.9,9.9-9.9l0,0l0,0
						c5.5,0,9.9,4.5,9.9,9.9l0,0l0,0c0,3.9-2.3,7.4-5.8,9.1"/>
					<line id="Linie_3542-8" class="st3" x1="209.7" y1="153.7" x2="220.5" y2="142.9"/>
				</g>
				<g id="Gruppe_14986-8" class="st2">
					<line id="Linie_3543-8" class="st4" x1="247.1" y1="143.8" x2="247.1" y2="162.8"/>
					<circle id="Ellipse_3071-8" class="st4" cx="247.1" cy="166.6" r="3.2"/>
					<path id="Pfad_14841-8" class="st4" d="M252.8,159.3v-16c0-3.1-2.5-5.6-5.6-5.6s-5.6,2.5-5.6,5.6l0,0v16c-4,3.1-4.8,8.9-1.7,13
						s8.9,4.8,13,1.7c4-3.1,4.8-8.9,1.7-13C254,160.3,253.4,159.8,252.8,159.3z"/>
					<line id="Linie_3544-8" class="st4" x1="256.2" y1="146" x2="259.3" y2="146"/>
					<line id="Linie_3545-8" class="st4" x1="256.2" y1="150.5" x2="257.8" y2="150.5"/>
					<line id="Linie_3546-8" class="st4" x1="256.2" y1="155" x2="259.3" y2="155"/>
				</g>
				<g id="Gruppe_14987-8" class="st2">
					<path id="Pfad_14843-8" class="st5" d="M293.8,137.6c10,0,18.2,8.1,18.2,18.1s-8.1,18.2-18.1,18.2s-18.2-8.1-18.2-18.1l0,0
						C275.7,145.8,283.8,137.6,293.8,137.6L293.8,137.6z"/>
					<rect id="Rechteck_2586-8" x="292.1" y="153.1" class="st6" width="3.4" height="11.7"/>
					<path id="Pfad_14842-8" class="st6" d="M293.8,150.5c-1,0-1.9-0.8-1.9-1.9s0.8-1.9,1.9-1.9c1,0,1.9,0.8,1.9,1.9
						S294.8,150.5,293.8,150.5L293.8,150.5z"/>
				</g>
			</g>
		</g>
	</g>
</g>
</svg>
