<?xml version="1.0" encoding="utf-8"?>
<!-- Generator: Adobe Illustrator 24.2.2, SVG Export Plug-In . SVG Version: 6.00 Build 0)  -->
<svg version="1.1" id="Ebene_1" xmlns="http://www.w3.org/2000/svg" xmlns:xlink="http://www.w3.org/1999/xlink" x="0px" y="0px"
	 viewBox="0 0 343.6 152" style="enable-background:new 0 0 343.6 152;" xml:space="preserve">
<style type="text/css">
	.st0{clip-path:url(#SVGID_2_);}
	.st1{fill:#F4F4F4;}
	.st2{opacity:0.52;}
	.st3{fill:none;stroke:#DFDFDF;stroke-width:2;stroke-miterlimit:10;}
	.st4{fill:none;stroke:#DFDFDF;stroke-width:2;stroke-linecap:round;stroke-linejoin:round;}
	.st5{fill:none;stroke:#DFDFDF;stroke-width:2;stroke-linecap:round;}
	.st6{fill:#DFDFDF;}
	
		.st7{opacity:0.52;fill:none;stroke:#DFDFDF;stroke-width:2;stroke-linecap:round;stroke-linejoin:round;enable-background:new    ;}
	.st8{fill:none;stroke:#DFDFDF;stroke-width:2;stroke-linecap:round;stroke-miterlimit:10;}
</style>
<g>
	<defs>
		<rect id="SVGID_1_" x="0.9" y="0" width="341.7" height="152"/>
	</defs>
	<clipPath id="SVGID_2_">
		<use xlink:href="#SVGID_1_"  style="overflow:visible;"/>
	</clipPath>
	<g class="st0">
		<path id="Pfad_14844" class="st1" d="M0.9-0.2h342.7v153.1H0.9V-0.2z"/>
		<g id="Gruppe_14985" class="st2">
			<g id="Gruppe_14984">
				<path id="Rechteck_2585" class="st3" d="M19-6l17.5,7.5c4,1.7,5.8,6.4,4.1,10.4l0,0c-1.7,4-6.3,5.8-10.3,4.1c0,0,0,0,0,0
					L12.8,8.5c-4-1.7-5.8-6.4-4.1-10.4l0,0C10.3-5.9,15-7.7,19-6C19-6,19-6,19-6z"/>
				<line id="Linie_3541" class="st3" x1="27.7" y1="-2.2" x2="21.5" y2="12.3"/>
			</g>
			<path id="Pfad_14840" class="st3" d="M26.5-2.9c-0.1-0.5-0.1-1-0.1-1.5c0-5.5,4.5-9.9,9.9-9.9l0,0c5.5,0,9.9,4.4,9.9,9.9l0,0
				c0,3.9-2.3,7.4-5.8,9.1"/>
			<line id="Linie_3542" class="st3" x1="32.3" y1="-0.4" x2="43.1" y2="-11.2"/>
		</g>
		<g id="Gruppe_14986" class="st2">
			<line id="Linie_3543" class="st4" x1="69.7" y1="-10.2" x2="69.7" y2="8.8"/>
			<circle id="Ellipse_3071" class="st4" cx="69.7" cy="12.5" r="3.2"/>
			<path id="Pfad_14841" class="st4" d="M75.4,5.2v-16c0-3.1-2.5-5.6-5.6-5.6c-3.1,0-5.6,2.5-5.6,5.6v16c-4,3.1-4.8,8.9-1.7,13
				s8.9,4.8,13,1.7s4.8-8.9,1.7-13C76.6,6.3,76,5.7,75.4,5.2z"/>
			<line id="Linie_3544" class="st4" x1="78.8" y1="-8.1" x2="81.9" y2="-8.1"/>
			<line id="Linie_3545" class="st4" x1="78.8" y1="-3.6" x2="80.4" y2="-3.6"/>
			<line id="Linie_3546" class="st4" x1="78.8" y1="0.9" x2="81.9" y2="0.9"/>
		</g>
		<g id="Gruppe_14987" class="st2">
			<path id="Pfad_14843" class="st5" d="M116.4-16.4c10,0,18.2,8.1,18.2,18.1c0,10-8.1,18.2-18.1,18.2S98.3,11.8,98.3,1.7
				c0,0,0,0,0,0C98.3-8.3,106.4-16.4,116.4-16.4L116.4-16.4z"/>
			<rect id="Rechteck_2586" x="114.8" y="-1" class="st6" width="3.3" height="11.7"/>
			<path id="Pfad_14842" class="st6" d="M116.4-3.5c-1,0-1.9-0.8-1.9-1.9c0-1,0.8-1.9,1.9-1.9c1,0,1.9,0.8,1.9,1.9
				C118.3-4.4,117.5-3.5,116.4-3.5z"/>
		</g>
		<g id="Gruppe_14979-2" class="st2">
			<circle id="Ellipse_3067-2" class="st4" cx="227.1" cy="6.7" r="3.8"/>
			<g id="Gruppe_14978-2">
				<path id="Pfad_14834-2" class="st4" d="M221.2-15.8v8.6c0,6.3-5.1,11.5-11.5,11.5l0,0c-6.3,0-11.5-5.2-11.5-11.5v-8.6"/>
				<path id="Rechteck_2582-2" class="st4" d="M199.1-18.4h3.4c0.4,0,0.8,0.4,0.8,0.8v7.1c0,0.4-0.4,0.8-0.8,0.8h-3.4
					c-0.4,0-0.8-0.4-0.8-0.8v-7.1C198.3-18,198.6-18.4,199.1-18.4z"/>
				<path id="Rechteck_2583-2" class="st4" d="M217-18.4h3.4c0.4,0,0.8,0.4,0.8,0.8v7.1c0,0.4-0.4,0.8-0.8,0.8H217
					c-0.4,0-0.8-0.4-0.8-0.8v-7.1C216.2-18,216.5-18.4,217-18.4z"/>
			</g>
			<path id="Pfad_14835-2" class="st4" d="M227.1,11.3c0,4.7-3.9,8.6-8.6,8.6l0,0c-4.8,0-8.6-3.9-8.6-8.6V4.8"/>
		</g>
		<path id="Pfad_14836-2" class="st7" d="M285.2-5.6h-12.7v-12.7h-12.7v12.7H247V7.1h12.8v12.7h12.7V7.1h12.7L285.2-5.6z"/>
		<g id="Gruppe_14981-2" class="st2">
			<path id="Pfad_14837-2" class="st4" d="M173.4-15h6.9v34.9h-27.6V-15h6.5"/>
			<rect id="Rechteck_2584-2" x="159.9" y="-18.4" class="st4" width="13.1" height="6"/>
			<g id="Gruppe_14980-2">
				<line id="Linie_3534-2" class="st4" x1="158.6" y1="-1.5" x2="167.9" y2="-1.5"/>
				<line id="Linie_3535-2" class="st4" x1="158.6" y1="4.6" x2="174.3" y2="4.6"/>
				<line id="Linie_3536-2" class="st4" x1="158.6" y1="10.6" x2="174.3" y2="10.6"/>
			</g>
		</g>
		<g id="Gruppe_14983-2" class="st2">
			<g id="Gruppe_14982-2">
				<circle id="Ellipse_3069-2" class="st8" cx="312.4" cy="-3.6" r="12.8"/>
				<circle id="Ellipse_3070-2" class="st8" cx="312.4" cy="-3.6" r="9.8"/>
			</g>
			<path id="Pfad_14839-2" class="st8" d="M322.9,4.2l14,12.6c1.1,1.1,1.1,3,0,4.1l0,0c-1.1,1.1-3,1.1-4.1,0c0,0,0,0,0,0l0,0
				l-12.6-14"/>
		</g>
		<g id="Gruppe_14985-3" class="st2">
			<g id="Gruppe_14984-3">
				<path id="Rechteck_2585-3" class="st3" d="M19,96.7l17.5,7.5c4,1.7,5.8,6.4,4.1,10.3l0,0c-1.7,4-6.3,5.8-10.3,4.1c0,0,0,0,0,0
					l-17.5-7.5c-4-1.7-5.8-6.3-4.1-10.3c0,0,0,0,0,0l0,0C10.4,96.9,15,95,19,96.7z"/>
				<line id="Linie_3541-3" class="st3" x1="27.7" y1="100.5" x2="21.5" y2="115"/>
			</g>
			<path id="Pfad_14840-3" class="st3" d="M26.5,99.8c-0.1-0.5-0.1-1-0.1-1.5c0-5.5,4.5-9.9,9.9-9.9l0,0c5.5,0,9.9,4.4,9.9,9.9
				c0,0,0,0,0,0l0,0c0,3.9-2.3,7.4-5.8,9"/>
			<line id="Linie_3542-3" class="st3" x1="32.3" y1="102.3" x2="43.1" y2="91.5"/>
		</g>
		<g id="Gruppe_14986-3" class="st2">
			<line id="Linie_3543-3" class="st4" x1="69.7" y1="92.5" x2="69.7" y2="111.5"/>
			<circle id="Ellipse_3071-3" class="st4" cx="69.7" cy="115.3" r="3.2"/>
			<path id="Pfad_14841-3" class="st4" d="M75.4,107.9v-16c0-3.1-2.5-5.6-5.6-5.6c-3.1,0-5.6,2.5-5.6,5.6v16c-4,3.1-4.8,8.9-1.7,13
				c3.1,4,8.9,4.8,13,1.7c4-3.1,4.8-8.9,1.7-13C76.6,109,76,108.4,75.4,107.9z"/>
			<line id="Linie_3544-3" class="st4" x1="78.8" y1="94.6" x2="81.9" y2="94.6"/>
			<line id="Linie_3545-3" class="st4" x1="78.8" y1="99.1" x2="80.4" y2="99.1"/>
			<line id="Linie_3546-3" class="st4" x1="78.8" y1="103.7" x2="81.9" y2="103.7"/>
		</g>
		<g id="Gruppe_14987-3" class="st2">
			<path id="Pfad_14843-3" class="st5" d="M116.4,86.3c10,0,18.1,8.1,18.1,18.1s-8.1,18.1-18.1,18.1s-18.1-8.1-18.1-18.1
				S106.4,86.3,116.4,86.3L116.4,86.3z"/>
			<rect id="Rechteck_2586-3" x="114.8" y="101.7" class="st6" width="3.3" height="11.7"/>
			<path id="Pfad_14842-3" class="st6" d="M116.4,99.2c-1,0-1.9-0.8-1.9-1.9s0.8-1.9,1.9-1.9c1,0,1.9,0.8,1.9,1.9c0,0,0,0,0,0
				C118.3,98.3,117.5,99.2,116.4,99.2z"/>
		</g>
		<g id="Gruppe_14979-4" class="st2">
			<circle id="Ellipse_3067-4" class="st4" cx="227.1" cy="109.4" r="3.8"/>
			<g id="Gruppe_14978-4">
				<path id="Pfad_14834-4" class="st4" d="M221.2,86.9v8.6c0,6.3-5.2,11.5-11.5,11.5l0,0c-6.3,0-11.5-5.2-11.5-11.5v-8.6"/>
				<path id="Rechteck_2582-4" class="st4" d="M199.1,84.3h3.4c0.4,0,0.8,0.4,0.8,0.8v7.1c0,0.4-0.4,0.8-0.8,0.8h-3.4
					c-0.4,0-0.8-0.4-0.8-0.8v-7.1C198.3,84.7,198.6,84.3,199.1,84.3z"/>
				<path id="Rechteck_2583-4" class="st4" d="M217,84.3h3.4c0.4,0,0.8,0.4,0.8,0.8v7.1c0,0.4-0.4,0.8-0.8,0.8H217
					c-0.4,0-0.8-0.4-0.8-0.8v-7.1C216.2,84.7,216.5,84.3,217,84.3z"/>
			</g>
			<path id="Pfad_14835-4" class="st4" d="M227.1,114c0,4.8-3.9,8.6-8.6,8.6l0,0c-4.8,0-8.6-3.9-8.6-8.6v-6.5"/>
		</g>
		<path id="Pfad_14836-4" class="st7" d="M285.2,97.1h-12.7V84.3h-12.7v12.7H247v12.7h12.8v12.8h12.7v-12.8h12.7L285.2,97.1z"/>
		<g id="Gruppe_14981-4" class="st2">
			<path id="Pfad_14837-4" class="st4" d="M173.4,87.7h6.9v34.9h-27.6V87.7h6.5"/>
			<rect id="Rechteck_2584-4" x="159.9" y="84.3" class="st4" width="13.1" height="6"/>
			<g id="Gruppe_14980-4">
				<line id="Linie_3534-4" class="st4" x1="158.6" y1="101.2" x2="167.9" y2="101.2"/>
				<line id="Linie_3535-4" class="st4" x1="158.6" y1="107.3" x2="174.3" y2="107.3"/>
				<line id="Linie_3536-4" class="st4" x1="158.6" y1="113.3" x2="174.3" y2="113.3"/>
			</g>
		</g>
		<g id="Gruppe_14983-4" class="st2">
			<g id="Gruppe_14982-4">
				<circle id="Ellipse_3069-4" class="st8" cx="312.4" cy="99.1" r="12.8"/>
				<circle id="Ellipse_3070-4" class="st8" cx="312.4" cy="99.1" r="9.8"/>
			</g>
			<path id="Pfad_14839-4" class="st8" d="M322.9,106.9l14,12.6c1.1,1.1,1.1,3,0,4.2l0,0c-1.1,1.1-3,1.1-4.1,0l0,0l-12.6-14"/>
		</g>
		<g id="Gruppe_14979-6" class="st2">
			<circle id="Ellipse_3067-6" class="st4" cx="62.4" cy="58.1" r="3.8"/>
			<g id="Gruppe_14978-6">
				<path id="Pfad_14834-6" class="st4" d="M56.5,35.6v8.6c0,6.3-5.1,11.5-11.5,11.5l0,0c-6.3,0-11.5-5.1-11.5-11.5v-8.6"/>
				<path id="Rechteck_2582-6" class="st4" d="M34.3,33h3.4c0.4,0,0.8,0.4,0.8,0.8v7.1c0,0.4-0.4,0.8-0.8,0.8h-3.4
					c-0.4,0-0.8-0.4-0.8-0.8v-7.1C33.5,33.3,33.9,33,34.3,33z"/>
				<path id="Rechteck_2583-6" class="st4" d="M52.2,33h3.4c0.4,0,0.8,0.4,0.8,0.8v7.1c0,0.4-0.4,0.8-0.8,0.8h-3.4
					c-0.4,0-0.8-0.4-0.8-0.8v-7.1C51.4,33.3,51.8,33,52.2,33z"/>
			</g>
			<path id="Pfad_14835-6" class="st4" d="M62.4,62.6c0,4.8-3.9,8.6-8.6,8.6l0,0c-4.8,0-8.6-3.9-8.6-8.6v-6.5"/>
		</g>
		<path id="Pfad_14836-6" class="st7" d="M120.5,45.7h-12.7V33H95v12.7H82.2v12.7H95v12.7h12.8V58.5h12.7V45.7z"/>
		<g id="Gruppe_14981-6" class="st2">
			<path id="Pfad_14837-6" class="st4" d="M8.6,36.3h6.9v34.9H1"/>
			<polyline id="Rechteck_2584-6" class="st4" points="1.1,33 8.3,33 8.3,39 1.1,39 			"/>
			<g id="Gruppe_14980-6">
				<line id="Linie_3534-6" class="st4" x1="1" y1="49.9" x2="3.2" y2="49.9"/>
				<line id="Linie_3535-6" class="st4" x1="1" y1="55.9" x2="9.6" y2="55.9"/>
				<line id="Linie_3536-6" class="st4" x1="1" y1="62" x2="9.6" y2="62"/>
			</g>
		</g>
		<g id="Gruppe_14983-6" class="st2">
			<g id="Gruppe_14982-6">
				<circle id="Ellipse_3069-6" class="st8" cx="147.7" cy="47.7" r="12.8"/>
				<circle id="Ellipse_3070-6" class="st8" cx="147.7" cy="47.7" r="9.8"/>
			</g>
			<path id="Pfad_14839-6" class="st8" d="M158.2,55.5l14.1,12.6c1.1,1.1,1.1,3,0,4.2l0,0c-1.1,1.1-3,1.1-4.1,0c0,0,0,0,0,0l0,0
				l-12.6-14"/>
		</g>
		<g id="Gruppe_14985-6" class="st2">
			<g id="Gruppe_14984-6">
				<path id="Rechteck_2585-6" class="st3" d="M197.3,45.4l17.5,7.5c4,1.7,5.8,6.3,4.1,10.3c0,0,0,0,0,0l0,0
					c-1.7,4-6.4,5.8-10.4,4.1l-17.5-7.5c-4-1.7-5.9-6.3-4.2-10.3c0,0,0,0,0,0l0,0C188.6,45.5,193.2,43.6,197.3,45.4
					C197.2,45.4,197.3,45.4,197.3,45.4z"/>
				<line id="Linie_3541-6" class="st3" x1="206" y1="49.1" x2="199.8" y2="63.6"/>
			</g>
			<path id="Pfad_14840-6" class="st3" d="M204.7,48.4c-0.1-0.5-0.1-1-0.1-1.5c0-5.5,4.4-9.9,9.9-10c0,0,0,0,0,0l0,0
				c5.5,0,9.9,4.5,9.9,9.9c0,0,0,0,0,0.1l0,0c0,3.9-2.3,7.4-5.8,9"/>
			<line id="Linie_3542-6" class="st3" x1="210.6" y1="51" x2="221.4" y2="40.2"/>
		</g>
		<g id="Gruppe_14986-6" class="st2">
			<line id="Linie_3543-6" class="st4" x1="248" y1="41.1" x2="248" y2="60.1"/>
			<circle id="Ellipse_3071-6" class="st4" cx="248" cy="63.9" r="3.2"/>
			<path id="Pfad_14841-6" class="st4" d="M253.7,56.6v-16c0-3.1-2.5-5.6-5.6-5.6s-5.6,2.5-5.6,5.6c0,0,0,0,0,0v16
				c-4,3.1-4.8,8.9-1.7,13c3.1,4,8.9,4.8,13,1.7c4-3.1,4.8-8.9,1.7-13C254.9,57.6,254.3,57.1,253.7,56.6z"/>
			<line id="Linie_3544-6" class="st4" x1="257.1" y1="43.3" x2="260.2" y2="43.3"/>
			<line id="Linie_3545-6" class="st4" x1="257.1" y1="47.8" x2="258.7" y2="47.8"/>
			<line id="Linie_3546-6" class="st4" x1="257.1" y1="52.3" x2="260.2" y2="52.3"/>
		</g>
		<g id="Gruppe_14987-6" class="st2">
			<path id="Pfad_14843-6" class="st5" d="M294.7,34.9c10,0,18.2,8.1,18.2,18.1c0,10-8.1,18.2-18.1,18.2c-10,0-18.2-8.1-18.2-18.1
				c0,0,0,0,0,0C276.6,43.1,284.7,34.9,294.7,34.9L294.7,34.9z"/>
			<rect id="Rechteck_2586-6" x="293" y="50.4" class="st6" width="3.4" height="11.7"/>
			<path id="Pfad_14842-6" class="st6" d="M294.7,47.8c-1,0-1.9-0.8-1.9-1.9s0.8-1.9,1.9-1.9s1.9,0.8,1.9,1.9c0,0,0,0,0,0
				C296.6,47,295.7,47.9,294.7,47.8L294.7,47.8L294.7,47.8z"/>
		</g>
		<g id="Gruppe_14979-8" class="st2">
			<circle id="Ellipse_3067-8" class="st4" cx="62.4" cy="160.8" r="3.8"/>
			<g id="Gruppe_14978-8">
				<path id="Pfad_14834-8" class="st4" d="M56.5,138.3v8.6c0,6.3-5.1,11.5-11.5,11.5l0,0c-6.3,0-11.5-5.2-11.5-11.5v-8.6"/>
				<path id="Rechteck_2582-8" class="st4" d="M34.3,135.7h3.4c0.4,0,0.8,0.4,0.8,0.8v7.1c0,0.4-0.4,0.8-0.8,0.8h-3.4
					c-0.4,0-0.8-0.4-0.8-0.8v-7.1C33.5,136,33.9,135.7,34.3,135.7z"/>
				<path id="Rechteck_2583-8" class="st4" d="M52.2,135.7h3.4c0.4,0,0.8,0.4,0.8,0.8v7.1c0,0.4-0.4,0.8-0.8,0.8h-3.4
					c-0.4,0-0.8-0.4-0.8-0.8v-7.1C51.4,136,51.8,135.7,52.2,135.7z"/>
			</g>
			<path id="Pfad_14835-8" class="st4" d="M62.4,165.3c0,4.8-3.9,8.6-8.6,8.6l0,0c-4.8,0-8.6-3.9-8.6-8.6v-6.5"/>
		</g>
		<path id="Pfad_14836-8" class="st7" d="M120.5,148.4h-12.7v-12.8H95v12.8H82.2v12.7H95v12.7h12.8v-12.7h12.7V148.4z"/>
		<g id="Gruppe_14981-8" class="st2">
			<path id="Pfad_14837-8" class="st4" d="M8.6,139h6.9v34.9H1"/>
			<polyline id="Rechteck_2584-8" class="st4" points="1.2,135.7 8.3,135.7 8.3,141.7 1.2,141.7 			"/>
			<g id="Gruppe_14980-8">
				<line id="Linie_3534-8" class="st4" x1="1" y1="152.6" x2="3.2" y2="152.6"/>
				<line id="Linie_3535-8" class="st4" x1="1" y1="158.6" x2="9.6" y2="158.6"/>
				<line id="Linie_3536-8" class="st4" x1="1" y1="164.7" x2="9.6" y2="164.7"/>
			</g>
		</g>
		<g id="Gruppe_14981-6-2" class="st2">
			<path id="Pfad_14837-6-2" class="st4" d="M342.5,71.2h-13.5V36.3h6.5"/>
			<polyline id="Rechteck_2584-6-2" class="st4" points="342.3,39 336.2,39 336.2,33 342.3,33 			"/>
			<g id="Gruppe_14980-6-2">
				<line id="Linie_3534-6-2" class="st4" x1="334.9" y1="49.9" x2="342.2" y2="49.9"/>
				<line id="Linie_3535-6-2" class="st4" x1="334.9" y1="55.9" x2="342.6" y2="55.9"/>
				<line id="Linie_3536-6-2" class="st4" x1="334.9" y1="62" x2="342.6" y2="62"/>
			</g>
		</g>
		<g id="Gruppe_14981-8-2" class="st2">
			<path id="Pfad_14837-8-2" class="st4" d="M342.3,173.9h-13.4V139h6.5"/>
			<polyline id="Rechteck_2584-8-2" class="st4" points="342.3,141.7 336.2,141.7 336.2,135.7 342.3,135.7 			"/>
			<g id="Gruppe_14980-8-2">
				<line id="Linie_3534-8-2" class="st4" x1="334.9" y1="152.6" x2="342.2" y2="152.6"/>
				<line id="Linie_3535-8-2" class="st4" x1="334.9" y1="158.6" x2="342.6" y2="158.6"/>
				<line id="Linie_3536-8-2" class="st4" x1="334.9" y1="164.7" x2="342.6" y2="164.7"/>
			</g>
		</g>
		<g id="Gruppe_14983-8" class="st2">
			<g id="Gruppe_14982-8">
				<circle id="Ellipse_3069-8" class="st8" cx="147.7" cy="150.4" r="12.8"/>
				<circle id="Ellipse_3070-8" class="st8" cx="147.7" cy="150.4" r="9.8"/>
			</g>
			<path id="Pfad_14839-8" class="st8" d="M158.2,158.2l14.1,12.6c1.1,1.1,1.1,3,0,4.1l0,0c-1.1,1.1-3,1.1-4.1,0c0,0,0,0,0,0l0,0
				l-12.6-14.1"/>
		</g>
		<g id="Gruppe_14985-8" class="st2">
			<g id="Gruppe_14984-8">
				<path id="Rechteck_2585-8" class="st3" d="M197.3,148.1l17.5,7.5c4,1.7,5.8,6.4,4.1,10.4l0,0c-1.7,4-6.4,5.8-10.4,4.1l-17.5-7.5
					c-4-1.7-5.9-6.3-4.2-10.3c0,0,0,0,0,0l0,0C188.6,148.2,193.2,146.4,197.3,148.1C197.3,148.1,197.3,148.1,197.3,148.1z"/>
				<line id="Linie_3541-8" class="st3" x1="206" y1="151.8" x2="199.8" y2="166.3"/>
			</g>
			<path id="Pfad_14840-8" class="st3" d="M204.7,151.1c-0.1-0.5-0.1-1-0.1-1.5c0-5.5,4.4-9.9,9.9-9.9c0,0,0,0,0,0l0,0
				c5.5,0,9.9,4.5,9.9,9.9l0,0l0,0c0,3.9-2.3,7.4-5.8,9.1"/>
			<line id="Linie_3542-8" class="st3" x1="210.6" y1="153.7" x2="221.4" y2="142.9"/>
		</g>
		<g id="Gruppe_14986-8" class="st2">
			<line id="Linie_3543-8" class="st4" x1="248" y1="143.8" x2="248" y2="162.8"/>
			<circle id="Ellipse_3071-8" class="st4" cx="248" cy="166.6" r="3.2"/>
			<path id="Pfad_14841-8" class="st4" d="M253.7,159.3v-16c0-3.1-2.5-5.6-5.6-5.6s-5.6,2.5-5.6,5.6c0,0,0,0,0,0v16
				c-4,3.1-4.8,8.9-1.7,13s8.9,4.8,13,1.7c4-3.1,4.8-8.9,1.7-13C254.9,160.3,254.3,159.8,253.7,159.3z"/>
			<line id="Linie_3544-8" class="st4" x1="257.1" y1="146" x2="260.2" y2="146"/>
			<line id="Linie_3545-8" class="st4" x1="257.1" y1="150.5" x2="258.7" y2="150.5"/>
			<line id="Linie_3546-8" class="st4" x1="257.1" y1="155" x2="260.2" y2="155"/>
		</g>
		<g id="Gruppe_14987-8" class="st2">
			<path id="Pfad_14843-8" class="st5" d="M294.7,137.6c10,0,18.2,8.1,18.2,18.1c0,10-8.1,18.2-18.1,18.2c-10,0-18.2-8.1-18.2-18.1
				c0,0,0,0,0,0C276.6,145.8,284.7,137.6,294.7,137.6L294.7,137.6z"/>
			<rect id="Rechteck_2586-8" x="293" y="153.1" class="st6" width="3.4" height="11.7"/>
			<path id="Pfad_14842-8" class="st6" d="M294.7,150.5c-1,0-1.9-0.8-1.9-1.9s0.8-1.9,1.9-1.9c1,0,1.9,0.8,1.9,1.9
				C296.6,149.7,295.7,150.5,294.7,150.5L294.7,150.5z"/>
		</g>
	</g>
</g>
</svg>
