<svg xmlns="http://www.w3.org/2000/svg" width="94.029" height="103.7" viewBox="0 0 94.029 103.7">
  <g id="Gruppe_14405" data-name="Gruppe 14405" transform="translate(-2.913 -1.835)">
    <g id="Gruppe_14403" data-name="Gruppe 14403" transform="translate(3.913 2.835)">
      <g id="Gruppe_14401" data-name="Gruppe 14401" transform="translate(23.782)">
        <path id="Pfad_13474" data-name="Pfad 13474" d="M53.677,7.959c0,13.687-9.951,24.782-22.23,24.782S9.216,21.646,9.216,7.959" transform="translate(-9.216 15.022)" fill="none" stroke="#7c7c7c" stroke-linecap="round" stroke-linejoin="round" stroke-width="2"/>
        <path id="Pfad_13475" data-name="Pfad 13475" d="M49.085,2.835H13.81L9.216,25.068H53.679Z" transform="translate(-9.216 -2.835)" fill="none" stroke="#7c7c7c" stroke-linecap="round" stroke-linejoin="round" stroke-width="2"/>
      </g>
      <g id="Gruppe_14402" data-name="Gruppe 14402" transform="translate(0 47.763)">
        <path id="Pfad_13476" data-name="Pfad 13476" d="M3.913,67.422V43.061A29.574,29.574,0,0,1,33.485,13.485H66.366A29.578,29.578,0,0,1,95.942,43.061V67.422" transform="translate(-3.913 -13.485)" fill="none" stroke="#7c7c7c" stroke-linecap="round" stroke-linejoin="round" stroke-width="2"/>
        <path id="Pfad_13477" data-name="Pfad 13477" d="M46,13.594,28.091,31.506,10.179,13.594" transform="translate(17.922 -13.104)" fill="none" stroke="#7c7c7c" stroke-linecap="round" stroke-linejoin="round" stroke-width="2"/>
        <line id="Linie_3208" data-name="Linie 3208" y2="35.868" transform="translate(46.014 17.937)" fill="none" stroke="#7c7c7c" stroke-linecap="round" stroke-linejoin="round" stroke-width="2"/>
      </g>
    </g>
    <g id="Gruppe_14404" data-name="Gruppe 14404" transform="translate(63.957 70.824)">
      <line id="Linie_3209" data-name="Linie 3209" y2="18.636" transform="translate(9.318)" fill="none" stroke="#7c7c7c" stroke-linecap="round" stroke-linejoin="round" stroke-width="2"/>
      <line id="Linie_3210" data-name="Linie 3210" x1="18.636" transform="translate(0 9.318)" fill="none" stroke="#7c7c7c" stroke-linecap="round" stroke-linejoin="round" stroke-width="2"/>
    </g>
  </g>
</svg>
