<svg height="78" viewBox="0 0 80.757 78" width="80.757" xmlns="http://www.w3.org/2000/svg">
  <g data-name="Gruppe 5854" id="Gruppe_5854" transform="translate(-44 -1443.084)">
    <g data-name="Gruppe 5135" id="Gruppe_5135" transform="translate(15 1285.084)">
      <g data-name="Gruppe 3318" id="Gruppe_3318" transform="translate(29 158)">
        <g data-name="Ellipse 108" fill="#f4f4f4" id="Ellipse_108" stroke="#ffb03b" stroke-width="2"
           transform="translate(0 0)">
          <circle cx="39" cy="39" r="39" stroke="none"/>
          <circle cx="39" cy="39" fill="none" r="38"/>
        </g>
      </g>
    </g>
    <path d="M7087.107,16238.825l9.508-17.236,9.489,17.236Z" data-name="Pfad 6007" fill="#fff"
          id="Pfad_6007" transform="translate(-6984 -14724.1)"/>
    <path
      d="M34.657,0,22.2,21.7H47.013Zm-1,7.534h2.009v7.032H33.652Zm1,10.85a1.115,1.115,0,0,1-1.105-1.105,1.206,1.206,0,0,1,1.105-1.206,1.115,1.115,0,0,1,1.105,1.105A1.206,1.206,0,0,1,34.657,18.384Z"
      data-name="Pfad 6006"
      fill="#d81e42"
      id="Pfad_6006" transform="translate(77.743 1494.9)"/>
    <g data-name="Gruppe 9321" id="Gruppe_9321" transform="translate(56.111 1460.894)">
      <g data-name="Gruppe 8948" id="Gruppe_8948" transform="translate(7.085 4.007)">
        <path d="M92.848,16.59l1.067,5.525a2.577,2.577,0,0,1-2.034,3.009l-.452.085a2.577,2.577,0,0,1-3.009-2.034"
              data-name="Pfad 9228"
              fill="none"
              id="Pfad_9228" stroke="#ffb03b" stroke-linecap="round" stroke-miterlimit="10"
              stroke-width="2" transform="translate(-59.551 -11.927)"/>
        <path d="M92.75,66.435V56.741A4.024,4.024,0,0,0,94.2,54.065c.007-.033,1.134-4.465,1.134-4.465"
              data-name="Pfad 9229"
              fill="none"
              id="Pfad_9229" stroke="#ffb03b" stroke-linecap="round" stroke-miterlimit="10"
              stroke-width="2" transform="translate(-62.291 -32.055)"/>
        <path d="M26.965,74.565l-.085-4.413,5.343-7.189c4.524-1.742,6.651,2.142,13.381,2.672l.07,8.934"
              data-name="Pfad 9230"
              fill="none"
              id="Pfad_9230" stroke="#ffb03b" stroke-linecap="round" stroke-miterlimit="10"
              stroke-width="2" transform="translate(-21.485 -40.184)"/>
        <path
          d="M50.829,14.825c2.776.574,3.635-2.293,4.746-4.4.261-.495.019-.876-.779-1.2-1.085-.442-2.511-1-4.115-1.628a4.8,4.8,0,0,0-3.933-3.452c-3.007-.642-4.815,1-6.327,3.112-.511.714-1.865,5.031-2.882,6.176l-1.933,1.53-18.154.88a4.668,4.668,0,0,0-3.358,1.662,7.689,7.689,0,0,0-1.5,2.92c-.465,1.677.234,4.634,1.944,8.03l-2.22,3.815.265,6.119"
          data-name="Pfad 9231"
          fill="none"
          id="Pfad_9231" stroke="#ffb03b" stroke-linecap="round" stroke-miterlimit="10"
          stroke-width="2" transform="translate(-12.32 -4.007)"/>
      </g>
      <path d="M11.883,21.957s-9.075-.152-7.748-7.9" data-name="Pfad 9232" fill="none"
            id="Pfad_9232" stroke="#ffb03b" stroke-linecap="round" stroke-miterlimit="10"
            stroke-width="2" transform="translate(0 -6.328)"/>
    </g>
  </g>
</svg>
