<svg xmlns="http://www.w3.org/2000/svg" width="20.603" height="20.649" viewBox="0 0 20.603 20.649">
  <g id="Gruppe_10169" data-name="Gruppe 10169" transform="translate(0.75 0.75)">
    <g id="Gruppe_10169-2" data-name="Gruppe 10169" transform="translate(0.261 0)">
      <path id="Pfad_9861" data-name="Pfad 9861" d="M14.34,11.506l-2.512,2.5-7.3-7.278,2.512-2.5Z" transform="translate(-4.527 -4.228)" fill="none" stroke="#424242" stroke-linecap="round" stroke-linejoin="round" stroke-width="1.5"/>
      <line id="Linie_2640" data-name="Linie 2640" x2="2.523" y2="2.515" transform="translate(8.712 8.685)" fill="none" stroke="#424242" stroke-linecap="round" stroke-linejoin="round" stroke-width="1.5"/>
    </g>
    <path id="Pfad_9862" data-name="Pfad 9862" d="M18.036,22a7.592,7.592,0,0,1-4.6,1.547h0a7.639,7.639,0,0,1-7.628-7.6V14.53A7.525,7.525,0,0,1,6,12.839" transform="translate(-4.33 -4.402)" fill="none" stroke="#424242" stroke-linecap="round" stroke-linejoin="round" stroke-width="1.5"/>
    <line id="Linie_2641" data-name="Linie 2641" x2="7.451" transform="translate(11.08 14.486)" fill="none" stroke="#424242" stroke-linecap="round" stroke-linejoin="round" stroke-width="1.5"/>
    <line id="Linie_2642" data-name="Linie 2642" x2="19.103" transform="translate(0 19.149)" fill="none" stroke="#424242" stroke-linecap="round" stroke-linejoin="round" stroke-width="1.5"/>
    <ellipse id="Ellipse_2106" data-name="Ellipse 2106" cx="1.556" cy="1.552" rx="1.556" ry="1.552" transform="translate(0.613 5.158)" fill="none" stroke="#424242" stroke-linecap="round" stroke-linejoin="round" stroke-width="1.5"/>
    <ellipse id="Ellipse_2107" data-name="Ellipse 2107" cx="1.754" cy="1.748" rx="1.754" ry="1.748" transform="translate(13.474 14.549)" fill="none" stroke="#424242" stroke-linecap="round" stroke-linejoin="round" stroke-width="1.5"/>
  </g>
</svg>
