<svg xmlns="http://www.w3.org/2000/svg" width="21.397" height="13.917" viewBox="0 0 21.397 13.917">
  <g id="Gruppe_10231" data-name="Gruppe 10231" transform="translate(1.061 0.75)">
    <g id="Gruppe_10231-2" data-name="Gruppe 10231" transform="translate(0 0.479)">
      <ellipse id="Ellipse_2114" data-name="Ellipse 2114" cx="3.383" cy="3.383" rx="3.383" ry="3.383" transform="translate(2.829)" fill="none" stroke="#424242" stroke-linecap="round" stroke-linejoin="round" stroke-width="1.5"/>
      <line id="Linie_2645" data-name="Linie 2645" y1="3.544" x2="3.544" transform="translate(0 5.921)" fill="none" stroke="#424242" stroke-linecap="round" stroke-linejoin="round" stroke-width="1.5"/>
    </g>
    <g id="Gruppe_10232" data-name="Gruppe 10232" transform="translate(0.437 0)">
      <path id="Pfad_9913" data-name="Pfad 9913" d="M-223.41,340.917l6.062-.144,1.992,6.876H-234.5" transform="translate(234.504 -335.231)" fill="none" stroke="#424242" stroke-linecap="round" stroke-linejoin="round" stroke-width="1.5"/>
      <path id="Pfad_9914" data-name="Pfad 9914" d="M-216.874,339.505a1.788,1.788,0,0,0,.363-1.083,1.8,1.8,0,0,0-1.794-1.8,1.779,1.779,0,0,0-1.135.415,2.056,2.056,0,0,0,.144-.748,2.084,2.084,0,0,0-2.084-2.084,2.069,2.069,0,0,0-.723.129" transform="translate(232.574 -334.21)" fill="none" stroke="#424242" stroke-linecap="round" stroke-linejoin="round" stroke-width="1.5"/>
    </g>
  </g>
</svg>
