<svg xmlns="http://www.w3.org/2000/svg" width="138" height="138" viewBox="0 0 138 138">
  <g id="Gruppe_14574" data-name="Gruppe 14574" transform="translate(-111 -226)">
    <circle id="Ellipse_2821" data-name="Ellipse 2821" cx="69" cy="69" r="69" transform="translate(111 226)" fill="#00b7ff"/>
    <g id="Gruppe_14590" data-name="Gruppe 14590" transform="translate(58.21 240.398)">
      <path id="Pfad_13766" data-name="Pfad 13766" d="M147.094,39.371c.588,8.33-4.746,17.461-10.342,23.269-13.53,14.055-14.688,13.93-28.668,0-12.721-12.676-15.655-28.4-3.832-36.724,6.163-4.343,14.309-.54,14.309-.54" transform="translate(0 12.366)" fill="none" stroke="#fff" stroke-linecap="round" stroke-miterlimit="10" stroke-width="2"/>
      <path id="Pfad_13767" data-name="Pfad 13767" d="M107.047,25.069c7.524-3.5,16.622.176,18.547,7.348" transform="translate(20.357 12.159)" fill="none" stroke="#fff" stroke-linecap="round" stroke-miterlimit="10" stroke-width="2"/>
      <path id="Pfad_13768" data-name="Pfad 13768" d="M99.856,40.762c22.021,12.094,15.658-27.436,48.872-9.533" transform="translate(6.085 17.649)" fill="none" stroke="#fff" stroke-linecap="round" stroke-miterlimit="10" stroke-width="2"/>
      <path id="Pfad_13769" data-name="Pfad 13769" d="M106.127,29.773s8.038,5.731,8.629,14.968" transform="translate(18.531 24.152)" fill="none" stroke="#fff" stroke-linecap="round" stroke-miterlimit="10" stroke-width="2"/>
      <path id="Pfad_13770" data-name="Pfad 13770" d="M105.53,46.918c0-8.095,6.65-14.745,6.65-14.745" transform="translate(17.346 28.915)" fill="none" stroke="#fff" stroke-linecap="round" stroke-miterlimit="10" stroke-width="2"/>
      <path id="Pfad_13771" data-name="Pfad 13771" d="M105.406,46.233C97.213,30.277,123.753,35.459,115.431,17.6" transform="translate(13.942)" fill="none" stroke="#fff" stroke-linecap="round" stroke-linejoin="round" stroke-width="2"/>
      <line id="Linie_3285" data-name="Linie 3285" y1="6.071" x2="3.643" transform="translate(111.145 60.84)" fill="none" stroke="#fff" stroke-linecap="round" stroke-miterlimit="10" stroke-width="2"/>
    </g>
  </g>
</svg>
