<svg xmlns="http://www.w3.org/2000/svg" width="290.57" height="115.868" viewBox="0 0 290.57 115.868">
  <g id="Gruppe_14212" data-name="Gruppe 14212" transform="translate(-420.432 -102.976)">
    <path id="Pfad_13298" data-name="Pfad 13298" d="M570.733,196.432c-4.208-52.664,7.2-54.174,11.287-55.113C594.834,138.375,700,118.97,707.262,117.661c-3.475,16.757-6.247,30.43-10.306,45.547-5.627,20.957-20.084,30.062-29.849,36.82-15.508,10.732-38.97,5.759-48.436,4.894,0,0-7.91-1.043-16.73-2.346C590.524,200.89,572.295,196.889,570.733,196.432Z" fill="#fafafa"/>
    <path id="Pfad_13306" data-name="Pfad 13306" d="M570.733,196.432c-4.208-52.664,7.2-54.174,11.287-55.113C594.834,138.375,700,118.97,707.262,117.661c-3.475,16.757-6.247,30.43-10.306,45.547-5.627,20.957-20.084,30.062-29.849,36.82-15.508,10.732-38.97,5.759-48.436,4.894,0,0-7.91-1.043-16.73-2.346C590.524,200.89,572.295,196.889,570.733,196.432Z" fill="none" stroke="#e5e5e5" stroke-width="1"/>
    <path id="Pfad_13299" data-name="Pfad 13299" d="M567.213,195.539c-3.75-24.529.61-41.7,1.6-45.461,1.04-3.952-2.01-6.3-6.255-5.707a161.234,161.234,0,0,0-18.495,3.795c-3.142.889-12.507,2.08-13.6,24.572a87.782,87.782,0,0,0,.669,11.787Z" fill="#fafafa"/>
    <path id="Pfad_13305" data-name="Pfad 13305" d="M567.213,195.539c-3.75-24.529.61-41.7,1.6-45.461,1.04-3.952-2.01-6.3-6.255-5.707a161.234,161.234,0,0,0-18.495,3.795c-3.142.889-12.507,2.08-13.6,24.572a87.782,87.782,0,0,0,.669,11.787Z" fill="none" stroke="#e5e5e5" stroke-width="1"/>
    <path id="Pfad_13300" data-name="Pfad 13300" d="M518.689,180.1s-8.305,11.7-12.935,17.091L494.135,208.8c-2.839-6.1-7.5-19.078-2.267-30.24,7.122-15.185,17.225-17.537,24.015-20.158,7.5-2.9,13.178-.88,11.976,7.019a70.952,70.952,0,0,0-.463,17.81Z" fill="#fafafa"/>
    <path id="Pfad_13304" data-name="Pfad 13304" d="M518.689,180.1s-8.305,11.7-12.935,17.091L494.135,208.8c-2.839-6.1-7.5-19.078-2.267-30.24,7.122-15.185,17.225-17.537,24.015-20.158,7.5-2.9,13.178-.88,11.976,7.019a70.952,70.952,0,0,0-.463,17.81Z" fill="none" stroke="#e5e5e5" stroke-width="1"/>
    <g id="Gruppe_14211" data-name="Gruppe 14211">
      <path id="Pfad_13301" data-name="Pfad 13301" d="M421.842,217.434c4.806-5.614,8.919-9.984,8.919-9.984s-4.246-15.835-6.776-43.058c-2.527-27.19,4.175-47.284,4.175-47.284" fill="none" stroke="#7c7c7c" stroke-linecap="round" stroke-miterlimit="10" stroke-width="2"/>
      <path id="Pfad_13302" data-name="Pfad 13302" d="M618.313,217.591a101.129,101.129,0,0,1,.358-12.669s-13.322-1.372-36.823-6c-27.4-5.4-63.159-18.821-63.159-18.821s-16.748,24.821-32.8,35.073c-1.1.705-2.285,1.461-3.531,2.26" fill="none" stroke="#7c7c7c" stroke-linecap="round" stroke-miterlimit="10" stroke-width="2"/>
      <path id="Pfad_13303" data-name="Pfad 13303" d="M709.842,104.136s-5.5,30.826-12.886,59.072c-8.042,30.72-41.313,41.2-41.949,45.1-.137.838-.4,4.315-.735,9.262" fill="none" stroke="#7c7c7c" stroke-linecap="round" stroke-miterlimit="10" stroke-width="2"/>
    </g>
  </g>
</svg>
