<svg xmlns="http://www.w3.org/2000/svg" width="173.207" height="195.758" viewBox="0 0 173.207 195.758">
  <g id="Gruppe_14219" data-name="Gruppe 14219" transform="translate(896.401 5220.995)">
    <path id="Pfad_13334" data-name="Pfad 13334" d="M207.665,581.531c1.138-9.18,3.285-31.162,3.285-31.162s-17.028,2.623-21.4,13.05l5.323,13.77C194.982,577.144,205.109,581.745,207.665,581.531Z" transform="translate(-970.471 -5759.501)" fill="#fafafa"/>
    <path id="Pfad_13307" data-name="Pfad 13307" d="M195.432,578.238l.212.463c-21.051,7.748-36.553.678-37.4.258,0-.037,0-.083.006-.122C142.7,584.2,126.9,597.487,115,625.644c0,0,19.4,9.208,41.619,3.289s58.91-42.43,58.91-42.43A79.916,79.916,0,0,0,195.432,578.238Z" transform="translate(-970.471 -5759.501)" fill="#fafafa"/>
    <path id="Pfad_13329" data-name="Pfad 13329" d="M195.432,578.238l.212.463c-21.051,7.748-36.553.678-37.4.258,0-.037,0-.083.006-.122C142.7,584.2,126.9,597.487,115,625.644c0,0,19.4,9.208,41.619,3.289s58.91-42.43,58.91-42.43A79.916,79.916,0,0,0,195.432,578.238Z" transform="translate(-970.471 -5759.501)" fill="none" stroke="#e5e5e5" stroke-width="1"/>
    <path id="Pfad_13308" data-name="Pfad 13308" d="M195.644,578.7c-1.294-2.845-18.225-39.728-21.928-39.194-13.436,10.409-15.236,33.646-15.475,39.452C159.091,579.379,174.593,586.449,195.644,578.7Z" transform="translate(-970.471 -5759.501)" fill="#fafafa"/>
    <path id="Pfad_13330" data-name="Pfad 13330" d="M195.644,578.7c-1.294-2.845-18.225-39.728-21.928-39.194-13.436,10.409-15.236,33.646-15.475,39.452C159.091,579.379,174.593,586.449,195.644,578.7Z" transform="translate(-970.471 -5759.501)" fill="none" stroke="#e5e5e5" stroke-width="1"/>
    <path id="Pfad_13310" data-name="Pfad 13310" d="M241.794,635.915c-4.148.725,1.771,10.392,1.771,10.392s3.3-1.391,3.438-6.611C247.1,636,242.853,635.729,241.794,635.915Z" transform="translate(-970.471 -5759.501)" fill="#040506"/>
    <path id="Pfad_13311" data-name="Pfad 13311" d="M217.278,620.478a3.8,3.8,0,0,1-4.877,2.593c-2.576-.78-8.353-5.064-7.843-6.748s4.041-.877,10.269-1.264C217.513,614.892,217.788,618.794,217.278,620.478Z" transform="translate(-970.471 -5759.501)" fill="#040506"/>
    <path id="Pfad_13312" data-name="Pfad 13312" d="M241.794,635.915c-4.148.725,1.771,10.392,1.771,10.392s3.3-1.391,3.438-6.611C247.1,636,242.853,635.729,241.794,635.915Z" transform="translate(-970.471 -5759.501)" fill="#040506"/>
    <path id="Pfad_13313" data-name="Pfad 13313" d="M217.278,620.478a3.8,3.8,0,0,1-4.877,2.593c-2.576-.78-8.353-5.064-7.843-6.748s4.041-.877,10.269-1.264C217.513,614.892,217.788,618.794,217.278,620.478Z" transform="translate(-970.471 -5759.501)" fill="#040506"/>
    <path id="Pfad_13314" data-name="Pfad 13314" d="M143.139,661.39a159.245,159.245,0,0,1-35.789-20.333c-6.4,12.986-7.192,15.4-7.192,15.4L75.471,688.981s10.338,16.918,46.364,31.58,60.73,12.569,60.73,12.569c1.87-21.769,2.652-44.579,2.975-58.444A272.217,272.217,0,0,1,143.139,661.39Z" transform="translate(-970.471 -5759.501)" fill="#fafafa"/>
    <path id="Pfad_13328" data-name="Pfad 13328" d="M143.139,661.39a159.245,159.245,0,0,1-35.789-20.333c-6.4,12.986-7.192,15.4-7.192,15.4L75.471,688.981s10.338,16.918,46.364,31.58,60.73,12.569,60.73,12.569c1.87-21.769,2.652-44.579,2.975-58.444A272.217,272.217,0,0,1,143.139,661.39Z" transform="translate(-970.471 -5759.501)" fill="none" stroke="#e5e5e5" stroke-width="1"/>
    <path id="Pfad_13315" data-name="Pfad 13315" d="M241.794,635.863c-4.148.726,1.771,10.392,1.771,10.392s3.3-1.391,3.438-6.61C247.1,635.948,242.853,635.678,241.794,635.863Z" transform="translate(-970.471 -5759.501)" fill="#040506"/>
    <path id="Pfad_13316" data-name="Pfad 13316" d="M217.278,620.426a3.806,3.806,0,0,1-4.877,2.594c-2.576-.78-8.353-5.065-7.843-6.749s4.041-.876,10.269-1.264C217.513,614.84,217.788,618.742,217.278,620.426Z" transform="translate(-970.471 -5759.501)" fill="#040506"/>
    <path id="Pfad_13317" data-name="Pfad 13317" d="M245.167,638.662c0,5.552-.346,9.443-2.93,10.053-5.4,1.276-10.053-4.5-10.053-10.053a10.053,10.053,0,0,1,5.47-8.951C238.451,629.3,245.167,633.109,245.167,638.662Z" transform="translate(-970.471 -5759.501)" fill="#fafafa"/>
    <path id="Pfad_13333" data-name="Pfad 13333" d="M245.167,638.662c0,5.552-.346,9.443-2.93,10.053-5.4,1.276-10.053-4.5-10.053-10.053a10.053,10.053,0,0,1,5.47-8.951C238.451,629.3,245.167,633.109,245.167,638.662Z" transform="translate(-970.471 -5759.501)" fill="none" stroke="#e5e5e5" stroke-width="1"/>
    <path id="Pfad_13318" data-name="Pfad 13318" d="M241.794,635.915c-4.148.725,1.771,10.392,1.771,10.392s3.3-1.391,3.438-6.611C247.1,636,242.853,635.729,241.794,635.915Z" transform="translate(-970.471 -5759.501)" fill="#040506"/>
    <path id="Pfad_13319" data-name="Pfad 13319" d="M217.278,620.478a3.8,3.8,0,0,1-4.877,2.593c-2.576-.78-8.353-5.064-7.843-6.748s4.041-.877,10.269-1.264C217.513,614.892,217.788,618.794,217.278,620.478Z" transform="translate(-970.471 -5759.501)" fill="#040506"/>
    <path id="Pfad_13320" data-name="Pfad 13320" d="M210.584,665.364a15.85,15.85,0,0,1-.524-4.182,16.8,16.8,0,0,1,30.733-9.394c.962,1.424-7.988,9.226-16.223,12.493C217.295,667.167,210.672,665.661,210.584,665.364Z" transform="translate(-970.471 -5759.501)" fill="#fafafa"/>
    <path id="Pfad_13332" data-name="Pfad 13332" d="M210.584,665.364a15.85,15.85,0,0,1-.524-4.182,16.8,16.8,0,0,1,30.733-9.394c.962,1.424-7.988,9.226-16.223,12.493C217.295,667.167,210.672,665.661,210.584,665.364Z" transform="translate(-970.471 -5759.501)" fill="none" stroke="#e5e5e5" stroke-width="1"/>
    <path id="Pfad_13321" data-name="Pfad 13321" d="M241.794,635.915c-4.148.725,1.771,10.392,1.771,10.392s3.3-1.391,3.438-6.611C247.1,636,242.853,635.729,241.794,635.915Z" transform="translate(-970.471 -5759.501)" fill="#040506"/>
    <path id="Pfad_13322" data-name="Pfad 13322" d="M217.278,620.478a3.8,3.8,0,0,1-4.877,2.593c-2.576-.78-8.353-5.064-7.843-6.748s4.041-.877,10.269-1.264C217.513,614.892,217.788,618.794,217.278,620.478Z" transform="translate(-970.471 -5759.501)" fill="#040506"/>
    <circle id="Ellipse_2737" data-name="Ellipse 2737" cx="11.385" cy="11.385" r="11.385" transform="translate(-770.221 -5151.725)" fill="#00b7ff" opacity="0.4"/>
    <path id="Pfad_13323" data-name="Pfad 13323" d="M241.794,635.915c-4.148.725,1.771,10.392,1.771,10.392s3.3-1.391,3.438-6.611C247.1,636,242.853,635.729,241.794,635.915Z" transform="translate(-970.471 -5759.501)" fill="#7c7c7c"/>
    <path id="Pfad_13324" data-name="Pfad 13324" d="M217.278,620.478a3.8,3.8,0,0,1-4.877,2.593c-2.576-.78-8.353-5.064-7.843-6.748s4.041-.877,10.269-1.264C217.513,614.892,217.788,618.794,217.278,620.478Z" transform="translate(-970.471 -5759.501)" fill="#7c7c7c"/>
    <path id="Pfad_13325" data-name="Pfad 13325" d="M207.773,580.926c1.723-6.505,3.177-30.557,3.177-30.557s-17.568,3.276-21.939,13.7" transform="translate(-970.471 -5759.501)" fill="none" stroke="#7c7c7c" stroke-linecap="round" stroke-linejoin="round" stroke-width="2"/>
    <path id="Pfad_13326" data-name="Pfad 13326" d="M181.659,550.369c-4.1-4.212-5.858-5.569-7.816.743a63.1,63.1,0,0,0-2.081,23.847" transform="translate(-970.471 -5759.501)" fill="none" stroke="#7c7c7c" stroke-linecap="round" stroke-linejoin="round" stroke-width="2"/>
    <path id="Pfad_13327" data-name="Pfad 13327" d="M75.471,689.032l24.687-32.521s1.689-5.137,20.012-40.766c16.922-32.9,38.034-38.005,38.034-38.005s2.593-31.214,15.512-38.233c3.858-.557,21.158,37.682,21.158,37.682a63.477,63.477,0,0,1,8.409,2.423C234.248,591.7,230.648,619,233.859,623.951A79.915,79.915,0,0,0,244.328,635.4c8.476,8.258-12.864,31.523-28.489,30.4a221.723,221.723,0,0,1-30.079-4.206s-.234,37.113-3.195,71.59" transform="translate(-970.471 -5759.501)" fill="none" stroke="#7c7c7c" stroke-linecap="round" stroke-miterlimit="10" stroke-width="2"/>
  </g>
</svg>
