<svg xmlns="http://www.w3.org/2000/svg" width="64.83" height="64.83" viewBox="0 0 64.83 64.83">
  <g id="Gruppe_14015" data-name="Gruppe 14015" transform="translate(-707.374 -355.563)">
    <path id="Pfad_13152" data-name="Pfad 13152" d="M742.173,369.82c-2.3-1.7-5.479-1.867-8.186-1.867a18.2,18.2,0,0,0-10.184,3.1h-.178l-7.875-7.487V381.6l-.019.26c-1.911,7.589-2.048,17.083,9.221,17.083,4.966,0,9.048-2.76,9.048-6.16,0,0-.276,2.568,2.919,4.552,2.644,1.64,15.58,4.155,16.237-6.717.392-6.475-.885-8.65-.885-8.65l6.571-10.186-9.772-.493s2.152,6.807-3.319,7.028C740.915,378.508,740.576,374.579,742.173,369.82Z" transform="translate(6.001 6.729)" fill="#00b7ff" opacity="0.4"/>
    <circle id="Ellipse_2733" data-name="Ellipse 2733" cx="31.415" cy="31.415" r="31.415" transform="translate(708.374 356.563)" fill="none" stroke="#7c7c7c" stroke-linecap="round" stroke-miterlimit="10" stroke-width="2"/>
    <g id="Gruppe_14009" data-name="Gruppe 14009" transform="translate(716.75 370.225)">
      <g id="Gruppe_14004" data-name="Gruppe 14004" transform="translate(4.129)">
        <g id="Gruppe_14003" data-name="Gruppe 14003">
          <ellipse id="Ellipse_2734" data-name="Ellipse 2734" cx="2.694" cy="2.035" rx="2.694" ry="2.035" transform="translate(16.499 22.097)" fill="#7c7c7c"/>
          <path id="Pfad_13153" data-name="Pfad 13153" d="M724.562,375.218V382.1" transform="translate(-705.37 -351.086)" fill="none" stroke="#7c7c7c" stroke-linecap="round" stroke-linejoin="round" stroke-width="2"/>
          <g id="Gruppe_14002" data-name="Gruppe 14002">
            <path id="Pfad_13154" data-name="Pfad 13154" d="M739.633,367.513l9.772.494-6.6,9.854.026.369c1.916,7.6,2.016,17.037-9.315,17.037-4.222,0-7.737-2-8.791-4.992" transform="translate(-705.442 -359.761)" fill="none" stroke="#7c7c7c" stroke-linecap="round" stroke-linejoin="round" stroke-width="2"/>
            <path id="Pfad_13155" data-name="Pfad 13155" d="M733.742,394.318a5.6,5.6,0,0,1-1.015,1.721c-1.335,1.706-4.345,3.029-7.776,3.029-11.269,0-11.132-9.529-9.221-17.145l.019-.261v-18.1l7.875,7.514h.178a18.26,18.26,0,0,1,17.769-1.459" transform="translate(-714.749 -363.561)" fill="none" stroke="#7c7c7c" stroke-linecap="round" stroke-linejoin="round" stroke-width="2"/>
          </g>
        </g>
        <line id="Linie_3101" data-name="Linie 3101" y2="5.062" transform="translate(19.369 4.728)" fill="none" stroke="#7c7c7c" stroke-linecap="round" stroke-linejoin="round" stroke-width="2"/>
        <line id="Linie_3102" data-name="Linie 3102" x2="0.019" y2="6.576" transform="translate(22.976 5.262)" fill="none" stroke="#7c7c7c" stroke-linecap="round" stroke-linejoin="round" stroke-width="2"/>
      </g>
      <g id="Gruppe_14007" data-name="Gruppe 14007" transform="translate(0 24.901)">
        <g id="Gruppe_14005" data-name="Gruppe 14005">
          <line id="Linie_3103" data-name="Linie 3103" x1="10.083" y1="1.424" stroke-width="2" stroke="#7c7c7c" stroke-linecap="round" stroke-linejoin="round" fill="none"/>
          <line id="Linie_3104" data-name="Linie 3104" x1="9.731" y2="3.003" transform="translate(0.743 4.945)" fill="none" stroke="#7c7c7c" stroke-linecap="round" stroke-linejoin="round" stroke-width="2"/>
        </g>
        <g id="Gruppe_14006" data-name="Gruppe 14006" transform="translate(36.151)">
          <line id="Linie_3105" data-name="Linie 3105" y1="1.424" x2="10.083" transform="translate(0.39)" fill="none" stroke="#7c7c7c" stroke-linecap="round" stroke-linejoin="round" stroke-width="2"/>
          <line id="Linie_3106" data-name="Linie 3106" x2="9.731" y2="3.003" transform="translate(0 4.945)" fill="none" stroke="#7c7c7c" stroke-linecap="round" stroke-linejoin="round" stroke-width="2"/>
        </g>
      </g>
      <path id="Pfad_13156" data-name="Pfad 13156" d="M732.122,363.7s-8.378,13.831,0,14.3C740.5,377.86,732.122,363.7,732.122,363.7Z" transform="translate(-697.676 -363.424)" fill="none" stroke="#7c7c7c" stroke-linecap="round" stroke-linejoin="round" stroke-width="2"/>
      <g id="Gruppe_14008" data-name="Gruppe 14008" transform="translate(13.665 16.296)">
        <path id="Pfad_13157" data-name="Pfad 13157" d="M726.368,371.869s1.008,4.9,6.279,3.46" transform="translate(-713.175 -371.869)" fill="none" stroke="#7c7c7c" stroke-linecap="round" stroke-linejoin="round" stroke-width="2"/>
        <path id="Pfad_13158" data-name="Pfad 13158" d="M725.921,371.869s-1.008,4.9-6.279,3.46" transform="translate(-719.642 -371.869)" fill="none" stroke="#7c7c7c" stroke-linecap="round" stroke-linejoin="round" stroke-width="2"/>
      </g>
    </g>
  </g>
</svg>
