<svg xmlns="http://www.w3.org/2000/svg" width="64.827" height="64.827" viewBox="0 0 64.827 64.827">
  <g id="Gruppe_13963" data-name="Gruppe 13963" transform="translate(-1154.173 4961)">
    <path id="Pfad_13039" data-name="Pfad 13039" d="M441.674,70.51a.165.165,0,0,0-.231-.031,29.56,29.56,0,0,0-5.418,5.07,33.458,33.458,0,0,0-4.167,6.385,43.144,43.144,0,0,0-2.866,7.209c-.362,1.251-.693,2.519-.955,3.815-.035.174-.067.343-.1.513a5.849,5.849,0,1,0,7.8.315c-.01-.1-.022-.2-.029-.3-.1-1.1-.145-2.21-.157-3.331a37.657,37.657,0,0,1,.589-6.735,30.1,30.1,0,0,1,1.952-6.594,28.088,28.088,0,0,1,3.576-6.109l.008-.012A.165.165,0,0,0,441.674,70.51Z" transform="translate(755.04 -5018.273)" fill="#f8f8f8"/>
    <g id="Gruppe_13960" data-name="Gruppe 13960">
      <g id="Gruppe_13957" data-name="Gruppe 13957" transform="translate(1155.173 -4960)">
        <g id="Gruppe_11975" data-name="Gruppe 11975" transform="translate(9.061 12.171)">
          <path id="Pfad_12504" data-name="Pfad 12504" d="M417.319,84.329h11.286a11.068,11.068,0,1,0,22.13,0h11.288" transform="translate(-417.319 -57.153)" fill="none" stroke="#7c7c7c" stroke-linecap="round" stroke-miterlimit="10" stroke-width="2"/>
          <path id="Pfad_12505" data-name="Pfad 12505" d="M441.674,70.51a.165.165,0,0,0-.231-.031,29.56,29.56,0,0,0-5.418,5.07,33.458,33.458,0,0,0-4.167,6.385,43.144,43.144,0,0,0-2.866,7.209c-.362,1.251-.693,2.519-.955,3.815-.035.174-.067.343-.1.513a5.849,5.849,0,1,0,7.8.315c-.01-.1-.022-.2-.029-.3-.1-1.1-.145-2.21-.157-3.331a37.657,37.657,0,0,1,.589-6.735,30.1,30.1,0,0,1,1.952-6.594,28.088,28.088,0,0,1,3.576-6.109l.008-.012A.165.165,0,0,0,441.674,70.51Z" transform="translate(-409.194 -70.445)" fill="none" stroke="#7c7c7c" stroke-linecap="round" stroke-linejoin="round" stroke-width="2"/>
        </g>
        <ellipse id="Ellipse_2709" data-name="Ellipse 2709" cx="31.413" cy="31.413" rx="31.413" ry="31.413" transform="translate(0 0)" fill="none" stroke="#7c7c7c" stroke-linecap="round" stroke-miterlimit="10" stroke-width="2"/>
      </g>
    </g>
  </g>
</svg>
