<svg xmlns="http://www.w3.org/2000/svg" width="233.212" height="221.549" viewBox="0 0 233.212 221.549">
  <g id="Gruppe_14204" data-name="Gruppe 14204" transform="translate(-75.061 -44.292)">
    <path id="Pfad_13284" data-name="Pfad 13284" d="M218.8,133.262c20.866,31.3-107.039,16.832-106.989-4.042,0,0,17.036-3.372,24.911-3.335a270.526,270.526,0,0,1,54.871,5.373C210.946,135.112,218.8,133.262,218.8,133.262Z" fill="#fafafa"/>
    <path id="Pfad_13292" data-name="Pfad 13292" d="M218.8,133.262c20.866,31.3-107.039,16.832-106.989-4.042,0,0,17.036-3.372,24.911-3.335a270.526,270.526,0,0,1,54.871,5.373C210.946,135.112,218.8,133.262,218.8,133.262Z" fill="none" stroke="#e5e5e5" stroke-width="1"/>
    <path id="Pfad_13285" data-name="Pfad 13285" d="M151.383,188.667c.544-22.728,50.069-33.575,56.751-24.155,4.5,6.345-18.419,14.5,4.008,39.7-5.5-.468-26.928-4.524-35.424-7.235C169.178,194.573,158.511,191.9,151.383,188.667Z" fill="#fafafa"/>
    <path id="Pfad_13294" data-name="Pfad 13294" d="M151.383,188.667c.544-22.728,50.069-33.575,56.751-24.155,4.5,6.345-18.419,14.5,4.008,39.7-5.5-.468-26.928-4.524-35.424-7.235C169.178,194.573,158.511,191.9,151.383,188.667Z" fill="none" stroke="#e5e5e5" stroke-width="1"/>
    <path id="Pfad_13286" data-name="Pfad 13286" d="M246.956,253.248c-2.093-2.555-11.388-5.109-11.388-5.109s2-34.312,2.4-36.8c.089-.546.534-5.273.534-5.273a81.947,81.947,0,0,0,5.091-24.453c1.383-28.943-14.993-26.086-19.342-24.4-6.426,2.485-12.683,12.845-13.9,14.663-3.472,5.168-5.4,8.365-4.3,15.773.774,5.232,2.968,7.183,9.063,16.2a70.135,70.135,0,0,0,.326,15.732c1.226,7.292,5.716,41.668,8.169,43.3s16.62,2.419,19.861,1.058C245.831,262.959,248.689,255.374,246.956,253.248Z" fill="#fafafa"/>
    <path id="Pfad_13295" data-name="Pfad 13295" d="M246.956,253.248c-2.093-2.555-11.388-5.109-11.388-5.109s2-34.312,2.4-36.8c.089-.546.534-5.273.534-5.273a81.947,81.947,0,0,0,5.091-24.453c1.383-28.943-14.993-26.086-19.342-24.4-6.426,2.485-12.683,12.845-13.9,14.663-3.472,5.168-5.4,8.365-4.3,15.773.774,5.232,2.968,7.183,9.063,16.2a70.135,70.135,0,0,0,.326,15.732c1.226,7.292,5.716,41.668,8.169,43.3s16.62,2.419,19.861,1.058C245.831,262.959,248.689,255.374,246.956,253.248Z" fill="none" stroke="#e5e5e5" stroke-width="1"/>
    <path id="Pfad_13287" data-name="Pfad 13287" d="M92.266,188.961c1.585,8.857,3.141,17.116,3.141,17.116s-15.146,16.091-15.146,20.592,8.608,34.14,11.467,36.594,16.821,1.232,19.274,1.232,4.018-9.672,1.16-11.315a92.984,92.984,0,0,0-10.127-4.186l-2.723-17.88s19.938-12.93,30.155-19.457,17.577-17.626,20.85-21.775C136.623,171.614,102.565,176.26,92.266,188.961Z" fill="#fafafa"/>
    <path id="Pfad_13293" data-name="Pfad 13293" d="M92.266,188.961c1.585,8.857,3.141,17.116,3.141,17.116s-15.146,16.091-15.146,20.592,8.608,34.14,11.467,36.594,16.821,1.232,19.274,1.232,4.018-9.672,1.16-11.315a92.984,92.984,0,0,0-10.127-4.186l-2.723-17.88s19.938-12.93,30.155-19.457,17.577-17.626,20.85-21.775C136.623,171.614,102.565,176.26,92.266,188.961Z" fill="none" stroke="#e5e5e5" stroke-width="1"/>
    <g id="Gruppe_14199" data-name="Gruppe 14199">
      <path id="Pfad_13288" data-name="Pfad 13288" d="M228.221,129.83s1.361-2.565,14.3-19.759C254.473,94.193,268.7,92.922,268.7,92.922s6.144-14.718,17.88-14.381c2.093.056-1,17.914-1,17.914a34.064,34.064,0,0,1,4.231,2.048c15.292,9.216,10.9,23.338,12.152,26.252a43.005,43.005,0,0,0,4.5,7.011c3.736,5.142-9.677,15.517-17.846,13.5a119.346,119.346,0,0,1-15.54-4.963s-1.713,10.073-6.1,29.169C258.128,169.475,230.325,148.138,228.221,129.83Z" fill="#fafafa"/>
    </g>
    <g id="Gruppe_14206" data-name="Gruppe 14206">
      <path id="Pfad_13288-2" data-name="Pfad 13288" d="M228.221,129.83s1.361-2.565,14.3-19.759C254.473,94.193,268.7,92.922,268.7,92.922s6.144-14.718,17.88-14.381c2.093.056-1,17.914-1,17.914a34.064,34.064,0,0,1,4.231,2.048c15.292,9.216,10.9,23.338,12.152,26.252a43.005,43.005,0,0,0,4.5,7.011c3.736,5.142-9.677,15.517-17.846,13.5a119.346,119.346,0,0,1-15.54-4.963s-1.713,10.073-6.1,29.169C258.128,169.475,230.325,148.138,228.221,129.83Z" fill="none" stroke="#e5e5e5" stroke-width="1"/>
    </g>
    <g id="Gruppe_14200" data-name="Gruppe 14200" opacity="0.4">
      <path id="Pfad_13289" data-name="Pfad 13289" d="M106.173,132.031s-20.129-26.42-16.517-52.774C92.514,58.418,101.5,50.248,96.6,46.164c-6.651-5.548-18.353,17.869-20.03,33.9a100.888,100.888,0,0,0,17.986,69C99.2,135.108,106.173,132.031,106.173,132.031Z" fill="#00b7ff"/>
    </g>
    <g id="Gruppe_14201" data-name="Gruppe 14201">
      <path id="Pfad_13290" data-name="Pfad 13290" d="M93.489,150.114s14.071,2.144,14.071,16.155c0,13.932-14.788,17.527-14.788,17.527s-3-6.054-1.853-18.69C91.833,155.037,93.489,150.114,93.489,150.114Z" fill="#fafafa"/>
    </g>
    <g id="Gruppe_14205" data-name="Gruppe 14205">
      <path id="Pfad_13290-2" data-name="Pfad 13290" d="M93.489,150.114s14.071,2.144,14.071,16.155c0,13.932-15.747,17.685-15.747,17.685s-2.041-6.212-.894-18.848C91.833,155.037,93.489,150.114,93.489,150.114Z" fill="none" stroke="#e5e5e5" stroke-width="1"/>
    </g>
    <path id="Pfad_13291" data-name="Pfad 13291" d="M228.221,129.83s1.361-2.565,14.3-19.759C254.473,94.193,268.7,92.922,268.7,92.922s6.144-14.718,17.88-14.381c2.093.056-1,17.914-1,17.914a34.064,34.064,0,0,1,4.231,2.048c15.292,9.216,10.9,23.338,12.152,26.252a43.005,43.005,0,0,0,4.5,7.011c3.736,5.142-9.677,15.517-17.846,13.5a119.346,119.346,0,0,1-15.54-4.963s-3.5,19.625-8.2,37.606c-5.12,19.557-26.3,26.227-26.705,28.714s-2.6,41.513-2.6,41.513,9.294,2.554,11.387,5.109c1.733,2.127-1.125,9.711-3.488,10.69-3.241,1.361-17.408.574-19.861-1.058s-6.943-36.008-8.169-43.3a64.269,64.269,0,0,1-.4-15.112s-8.481-.874-23.442-3.82c-17.444-3.435-40.208-11.981-40.208-11.981s-10.662,15.8-20.879,22.328-31.192,20.119-31.192,20.119l2.723,17.88a92.984,92.984,0,0,1,10.127,4.186c2.858,1.643.765,11.467-1.688,11.467s-15.888,1.069-18.746-1.384S80.261,231.17,80.261,226.669s15.146-20.592,15.146-20.592S92.7,196,91.093,178.666a80.715,80.715,0,0,1,2.658-30.1s-21.64-28.474-17.027-68.5C78.4,64.033,90.1,40.616,96.753,46.164c4.907,4.084-4.084,12.254-6.942,33.093-3.612,26.354,10.653,45.106,16.338,51.874,41.072-14.49,97.057,5.479,109.311,2.621A73.194,73.194,0,0,0,228.221,129.83Z" fill="none" stroke="#7c7c7c" stroke-linecap="round" stroke-miterlimit="10" stroke-width="2"/>
  </g>
</svg>
