<?xml version="1.0" encoding="utf-8"?>
<!-- Generator: Adobe Illustrator 24.2.2, SVG Export Plug-In . SVG Version: 6.00 Build 0)  -->
<svg version="1.1" id="Ebene_1" xmlns="http://www.w3.org/2000/svg" xmlns:xlink="http://www.w3.org/1999/xlink" x="0px" y="0px"
	 viewBox="0 0 64.8 64.8" style="enable-background:new 0 0 64.8 64.8;" xml:space="preserve">
<style type="text/css">
	.st0{fill:#7C7C7C;}
	.st1{fill:#F8F8F8;}
</style>
<g id="Gruppe_14401" transform="translate(9951.826 2839)">
	<g id="Ellipse_2757">
		<path class="st0" d="M-9919.4-2774.2c-17.9,0-32.4-14.5-32.4-32.4c0-17.9,14.5-32.4,32.4-32.4s32.4,14.5,32.4,32.4
			C-9887-2788.7-9901.5-2774.2-9919.4-2774.2z M-9919.4-2837c-16.8,0-30.4,13.6-30.4,30.4c0,16.8,13.6,30.4,30.4,30.4
			c16.8,0,30.4-13.6,30.4-30.4C-9889-2823.4-9902.6-2837-9919.4-2837z"/>
	</g>
	<g id="Gruppe_14398" transform="translate(-10194 -3264)">
		<g id="Pfad_13468">
			<path class="st1" d="M266.3,446c0,0,6.7,0.9,7,6.8s8,10.2,8,10.2s4.3-2.8,4.5-4.4s1.1-8.8-2.5-11.8s-6.9-5-10.1-4.3
				S266.3,446,266.3,446z"/>
		</g>
		<g>
			<path class="st0" d="M274.9,458.8c-0.4-0.5-1.3-0.5-1.6,0l-1.1,1.5c-0.3,0.5-0.2,1.1,0.2,1.4c0.5,0.3,1.1,0.2,1.4-0.2l0.2-0.4
				l0.2,0.4c0.2,0.3,0.5,0.4,0.8,0.4c0.2,0,0.4-0.1,0.6-0.2c0.5-0.3,0.6-0.9,0.2-1.4L274.9,458.8z"/>
			<path class="st0" d="M279.7,455.7c-1-0.6-2.2-0.5-2.8,0.4c-0.5,0.8-0.1,2,0.9,2.6s2.2,0.5,2.8-0.4
				C281.1,457.5,280.7,456.3,279.7,455.7z"/>
			
				<ellipse transform="matrix(0.8489 -0.5285 0.5285 0.8489 -200.9182 211.4511)" class="st0" cx="269.4" cy="457.2" rx="2.1" ry="1.8"/>
			<path class="st0" d="M293.8,467.5l-2.7,1.1l-8.3-3.4c0-0.1,0-0.1,0-0.2v-1.6c0.4-0.4,0.8-0.7,1.2-1c1.3-1,2.4-1.9,2.8-3.9
				l4.4-1.8l2.6,1c0.1,0,0.2,0.1,0.4,0.1c0.4,0,0.8-0.2,0.9-0.6c0.2-0.5-0.1-1.1-0.6-1.3l-2.1-0.8l0.9-2.1c0.2-0.5,0-1.1-0.5-1.3
				c-0.5-0.2-1.1,0-1.3,0.5l-1.2,2.7l-3.3,1.4v-1.9c0-3.4-1.3-6.7-3.8-9.1c-2.4-2.4-5.7-3.8-9.1-3.8c0,0,0,0,0,0c-0.3,0-0.6,0-0.9,0
				l0,0c-6.8,0.6-12.1,6.4-12,13.2v1.5l-3.3-1.4l-1.2-2.7c-0.2-0.5-0.8-0.7-1.3-0.5c-0.5,0.2-0.7,0.8-0.5,1.3l0.9,2.1l-2.1,0.8
				c-0.5,0.2-0.8,0.8-0.6,1.3c0.2,0.4,0.5,0.6,0.9,0.6c0.1,0,0.2,0,0.4-0.1l2.6-1l4.4,1.8c0.4,1.9,1.4,2.8,2.7,3.8
				c0.4,0.3,0.8,0.6,1.2,1v1.6c0,0.1,0,0.1,0,0.2l-8.2,3.4l-2.7-1.1c-0.5-0.2-1.1,0.1-1.3,0.6c-0.2,0.5,0.1,1.1,0.6,1.3l2.1,0.8
				l-0.9,2.1c-0.2,0.5,0,1.1,0.5,1.3c0.1,0.1,0.3,0.1,0.4,0.1c0.4,0,0.7-0.2,0.9-0.6l1.2-2.7l8.1-3.3c0.7,0.9,1.7,1.6,3,1.6h10.2
				c1.2,0,2.3-0.6,3-1.6l8.2,3.4l1.2,2.7c0.2,0.4,0.5,0.6,0.9,0.6c0.1,0,0.3,0,0.4-0.1c0.5-0.2,0.7-0.8,0.5-1.3l-0.9-2.1l2.1-0.8
				c0.5-0.2,0.8-0.8,0.6-1.3C294.9,467.5,294.3,467.3,293.8,467.5z M280.8,465c0,0.9-0.7,1.6-1.6,1.6h-1.8v-2c0-0.6-0.4-1-1-1
				s-1,0.4-1,1v2h-2.6v-2c0-0.6-0.4-1-1-1s-1,0.4-1,1v2h-1.9c-0.9,0-1.6-0.7-1.6-1.6v-1.8c0-0.5-0.2-1-0.6-1.3
				c-0.5-0.4-0.9-0.8-1.3-1.1c-1.5-1.2-2.1-1.7-2.1-3.9v-2c-0.1-5.8,4.4-10.7,10.2-11.2c0.2,0,0.5,0,0.7,0c2.9,0,5.6,1.1,7.7,3.2
				c2.1,2.1,3.2,4.8,3.2,7.7v2.4c0,2.3-0.7,2.8-2.2,4.1c-0.4,0.3-0.9,0.7-1.3,1.1c-0.4,0.3-0.6,0.8-0.6,1.4V465z"/>
		</g>
	</g>
</g>
</svg>
