<svg xmlns="http://www.w3.org/2000/svg" width="290.491" height="154.023" viewBox="0 0 290.491 154.023">
  <g id="Gruppe_14197" data-name="Gruppe 14197" transform="translate(-416.732 -549.142)">
    <path id="Pfad_13270" data-name="Pfad 13270" d="M574.151,661.316c-4.777-55.133,6.93-56.676,11.078-57.629,12.814-2.945,111.617-21.083,118.884-22.393-2.03,19.917-2.838,43.879-4.264,50.806-2.49,12.09-9.979,28.155-18.661,37.491-9.912,10.658-26.135,8.587-44.1,7.6,0,0-24.312-5.28-32.809-7.981S574.151,661.316,574.151,661.316Z" fill="#fafafa"/>
    <path id="Pfad_13276" data-name="Pfad 13276" d="M531.9,653.883a72.039,72.039,0,0,1-.83-26.093c1.2-7.9-4.473-9.916-11.976-7.019-6.79,2.621-16.893,4.972-24.015,20.158s4.076,33.739,4.076,33.739,6.34-7.676,9.235-13.392c2.138-4.221,3.337-6.327,3.337-6.327s6.78-.8,10.817-1.045C527.008,653.629,531.9,653.883,531.9,653.883Z" fill="#fafafa"/>
    <path id="Pfad_13277" data-name="Pfad 13277" d="M574.151,661.316c-4.777-55.133,6.93-56.676,11.078-57.629,12.814-2.945,111.617-21.083,118.884-22.393-2.03,19.917-2.838,43.879-4.264,50.806-2.49,12.09-9.979,28.155-18.661,37.491-9.912,10.658-26.135,8.587-44.1,7.6,0,0-24.312-5.28-32.809-7.981S574.151,661.316,574.151,661.316Z" fill="none" stroke="#e5e5e5" stroke-width="1"/>
    <path id="Pfad_13279" data-name="Pfad 13279" d="M531.9,653.883a72.039,72.039,0,0,1-.83-26.093c1.2-7.9-4.473-9.916-11.976-7.019-6.79,2.621-16.893,4.972-24.015,20.158s4.076,33.739,4.076,33.739,6.34-7.676,9.235-13.392c2.138-4.221,3.337-6.327,3.337-6.327s6.78-.8,10.817-1.045C527.008,653.629,531.9,653.883,531.9,653.883Z" fill="none" stroke="#e5e5e5" stroke-width="1"/>
    <g id="Gruppe_14191" data-name="Gruppe 14191">
      <g id="Gruppe_14190" data-name="Gruppe 14190">
        <g id="Gruppe_14189" data-name="Gruppe 14189">
          <g id="Gruppe_14187" data-name="Gruppe 14187">
            <path id="Pfad_13271" data-name="Pfad 13271" d="M631.9,549.142" fill="none" stroke="#040506" stroke-linecap="round" stroke-miterlimit="10" stroke-width="3"/>
          </g>
          <g id="Gruppe_14188" data-name="Gruppe 14188">
            <path id="Pfad_13272" data-name="Pfad 13272" d="M675.353,701.154V675.226c3.3-2.254,23.564-22.333,24.824-46.692,1.907-36.857,5.9-62.15,5.9-62.15" fill="none" stroke="#7c7c7c" stroke-linecap="round" stroke-miterlimit="10" stroke-width="2"/>
            <path id="Pfad_13273" data-name="Pfad 13273" d="M471.365,701.76c27.271-21.861,36.362-38.556,40.36-46.811,34.027-6.4,93.73,17.855,124.931,22.88l3.287,23.931" fill="none" stroke="#7c7c7c" stroke-linecap="round" stroke-miterlimit="10" stroke-width="2"/>
            <path id="Pfad_13274" data-name="Pfad 13274" d="M436.086,583.21a64.184,64.184,0,0,0-12.515,24.417c-3.881,14.027-5.28,36.388,8.991,64.781l-14.483,28.068" fill="none" stroke="#7c7c7c" stroke-linecap="round" stroke-miterlimit="10" stroke-width="2"/>
          </g>
        </g>
      </g>
    </g>
    <path id="Pfad_13281" data-name="Pfad 13281" d="M535.5,654.211a96.646,96.646,0,0,1-1.832-19.106c1.094-22.492,10.459-23.683,13.6-24.571a161.247,161.247,0,0,1,18.5-3.8c4.245-.591,7.295,1.755,6.255,5.708-1.03,3.913-5.7,22.328-1.11,48.443-1.1-.367-13.336-3.146-18.665-3.995C543.6,655.517,535.5,654.211,535.5,654.211Z" fill="#00b7ff" opacity="0.4"/>
  </g>
</svg>
