<svg xmlns="http://www.w3.org/2000/svg" width="290.024" height="221.582" viewBox="0 0 290.024 221.582">
  <g id="Gruppe_13893" data-name="Gruppe 13893" transform="translate(-546.485 -524.928)">
    <g id="Gruppe_13876" data-name="Gruppe 13876" transform="translate(718.588 526.138)" opacity="0.25">
      <path id="Pfad_12927" data-name="Pfad 12927" d="M778.277,578.254c8.853.631,20.106,1.405,27.876,1.841,3.837.214,6.127-1.3,8.256-4.281a119.589,119.589,0,0,0,7.813-12.216c1.523-2.886.1-5.111-4.546-7.011-6.317-2.584-14.62-5.853-23.972-9.5-2.758-9.447-9.528-17.288-22.9-20.142-17.508-3.736-28.044,5.823-36.867,18.153-2.975,4.158-10.851,29.338-16.8,36.016l-11.247,8.913s5.314,10.5,24.488,27.894a83.74,83.74,0,0,0,34.369,18.555c1.33-25.7,4.115-43.338,4.115-43.338s5.927-4.7,7.032-6.45C777.144,584.716,778.277,578.254,778.277,578.254Z" transform="translate(-705.892 -526.125)" fill="#c9c9c9" stroke="#161615" stroke-miterlimit="10" stroke-width="1" opacity="0.6"/>
      <g id="Gruppe_13875" data-name="Gruppe 13875" transform="translate(11.247 54.988)" opacity="0.6">
        <path id="Pfad_12928" data-name="Pfad 12928" d="M716.3,577.033" transform="translate(-716.304 -577.033)" fill="#c9c9c9" stroke="#161615" stroke-miterlimit="10" stroke-width="1"/>
      </g>
    </g>
    <g id="Gruppe_13878" data-name="Gruppe 13878" transform="translate(547.503 561.315)" opacity="0.25">
      <path id="Pfad_12929" data-name="Pfad 12929" d="M612.84,592.559a57.709,57.709,0,0,1-54.48-30.781,5.757,5.757,0,1,0-10.2,5.345,69.264,69.264,0,0,0,45.124,35.137Z" transform="translate(-547.503 -558.692)" fill="#c9c9c9" stroke="#161615" stroke-miterlimit="10" stroke-width="1" opacity="0.52"/>
      <g id="Gruppe_13877" data-name="Gruppe 13877" transform="translate(182.331 19.811)">
        <path id="Pfad_12930" data-name="Pfad 12930" d="M716.3,577.033" transform="translate(-716.304 -577.033)" fill="#c9c9c9" stroke="#161615" stroke-miterlimit="10" stroke-width="1"/>
      </g>
    </g>
    <g id="Gruppe_13881" data-name="Gruppe 13881" transform="translate(582.611 539.978)" opacity="0.25">
      <path id="Pfad_12931" data-name="Pfad 12931" d="M590.991,598.66c5.505,2.489,9.636,15.755,9.636,29.065,0,16.431-6.107,29.879-13.832,30.953,0,0-6.9-14.087-6.788-29.011A49.278,49.278,0,0,1,590.991,598.66Z" transform="translate(-580.006 -534.151)" fill="#c9c9c9" stroke="#161615" stroke-miterlimit="10" stroke-width="1" opacity="0.6"/>
      <g id="Gruppe_13879" data-name="Gruppe 13879" transform="translate(147.223 41.148)" opacity="0.6">
        <path id="Pfad_12932" data-name="Pfad 12932" d="M716.3,577.033" transform="translate(-716.304 -577.033)" fill="#c9c9c9" stroke="#161615" stroke-miterlimit="10" stroke-width="1"/>
      </g>
      <g id="Gruppe_13880" data-name="Gruppe 13880" transform="translate(169.081)">
        <path id="Pfad_12933" data-name="Pfad 12933" d="M769.209,541.97l6.345,32.844a15.318,15.318,0,0,1-12.1,17.893l-2.678.517a15.317,15.317,0,0,1-17.892-12.1l-6.346-32.844S749.1,532.486,769.209,541.97Z" transform="translate(-736.54 -538.938)" fill="#c9c9c9" stroke="#161615" stroke-miterlimit="10" stroke-width="1" opacity="0.6"/>
      </g>
    </g>
    <g id="Gruppe_13883" data-name="Gruppe 13883" transform="translate(609.803 581.126)" opacity="0.25">
      <path id="Pfad_12934" data-name="Pfad 12934" d="M605.18,590.365l108.785-5.08L721,595.433c9.069,13.076-3.609,30.776-19.378,28.637C679.163,621.023,646.791,612.362,605.18,590.365Z" transform="translate(-605.18 -576.372)" fill="#c9c9c9" stroke="#161615" stroke-miterlimit="10" stroke-width="1" opacity="0.6"/>
      <g id="Gruppe_13882" data-name="Gruppe 13882" transform="translate(120.031)" opacity="0.6">
        <path id="Pfad_12935" data-name="Pfad 12935" d="M716.3,577.033" transform="translate(-716.304 -577.033)" fill="#c9c9c9" stroke="#161615" stroke-miterlimit="10" stroke-width="1"/>
      </g>
    </g>
    <g id="Gruppe_13885" data-name="Gruppe 13885" transform="translate(683.454 581.126)" opacity="0.25">
      <path id="Pfad_12936" data-name="Pfad 12936" d="M743.444,662.078s10.053-10.405,12.792-14.927c4.3-7.092,5.965-20.281,5.965-20.281s-11.851,1.833-17.227,11.975C738.083,651.844,743.444,662.078,743.444,662.078Z" transform="translate(-667.908 -573.038)" fill="#c9c9c9" stroke="#161615" stroke-miterlimit="10" stroke-width="1" opacity="0.6"/>
      <path id="Pfad_12937" data-name="Pfad 12937" d="M673.366,648.9s14.8,4.212,27.452,7.543,23.208,5.966,23.208,5.966,1.269-19.61-19.43-24.55C683.811,632.9,673.366,648.9,673.366,648.9Z" transform="translate(-673.366 -572.234)" fill="#c9c9c9" stroke="#161615" stroke-miterlimit="10" stroke-width="1" opacity="0.6"/>
      <g id="Gruppe_13884" data-name="Gruppe 13884" transform="translate(46.38)" opacity="0.6">
        <path id="Pfad_12938" data-name="Pfad 12938" d="M716.3,577.033" transform="translate(-716.304 -577.033)" fill="#c9c9c9" stroke="#161615" stroke-miterlimit="10" stroke-width="1"/>
      </g>
    </g>
    <g id="Gruppe_13887" data-name="Gruppe 13887" transform="translate(648.781 581.126)" opacity="0.25">
      <path id="Pfad_12939" data-name="Pfad 12939" d="M641.265,646.3s15.647-1,28.3,2.331,22.639,5.826,22.639,5.826-.089-21.482-21.965-23.835C646.477,628.067,641.265,646.3,641.265,646.3Z" transform="translate(-641.265 -572.757)" fill="#c9c9c9" stroke="#161615" stroke-miterlimit="10" stroke-width="1" opacity="0.6"/>
      <g id="Gruppe_13886" data-name="Gruppe 13886" transform="translate(81.054)" opacity="0.6">
        <path id="Pfad_12940" data-name="Pfad 12940" d="M716.3,577.033" transform="translate(-716.304 -577.033)" fill="#c9c9c9" stroke="#161615" stroke-miterlimit="10" stroke-width="1"/>
      </g>
    </g>
    <g id="Gruppe_13889" data-name="Gruppe 13889" transform="translate(628.612 581.126)" opacity="0.25">
      <path id="Pfad_12941" data-name="Pfad 12941" d="M659.629,645.651a18.776,18.776,0,1,0-31.168,18.008l12.073-17.633Z" transform="translate(-622.593 -572.687)" fill="#c9c9c9" stroke="#161615" stroke-miterlimit="10" stroke-width="1" opacity="0.6"/>
      <g id="Gruppe_13888" data-name="Gruppe 13888" transform="translate(101.222)" opacity="0.6">
        <path id="Pfad_12942" data-name="Pfad 12942" d="M716.3,577.033" transform="translate(-716.304 -577.033)" fill="#c9c9c9" stroke="#161615" stroke-miterlimit="10" stroke-width="1"/>
      </g>
    </g>
    <g id="Gruppe_13891" data-name="Gruppe 13891" transform="translate(573.568 581.126)" opacity="0.25">
      <path id="Pfad_12943" data-name="Pfad 12943" d="M746.358,658.431v70.7a5.757,5.757,0,0,1-5.757,5.757h-5.954a5.758,5.758,0,0,1-5.688-4.863l-9.586-69.782Z" transform="translate(-559.791 -570.509)" fill="#c9c9c9" stroke="#161615" stroke-miterlimit="10" stroke-width="1" opacity="0.59"/>
      <path id="Pfad_12944" data-name="Pfad 12944" d="M582.252,640.373a78.119,78.119,0,0,0,6.643,18.309l-16.141,24.126a5.753,5.753,0,0,0-1.025,4.457l7.1,45.13a5.759,5.759,0,0,0,5.662,4.713h7.236a5.756,5.756,0,0,0,5.664-6.788L592.9,699s7.85-8.033,23.78-21.613c17.929-15.284,24.633-25.125,27.421-30.882,0,0-7.39-13.083-29.89-15.478C597.932,629.3,581.633,637.559,582.252,640.373Z" transform="translate(-571.633 -572.724)" fill="#c9c9c9" stroke="#161615" stroke-miterlimit="10" stroke-width="1" opacity="0.59"/>
      <g id="Gruppe_13890" data-name="Gruppe 13890" transform="translate(156.267)">
        <path id="Pfad_12945" data-name="Pfad 12945" d="M716.3,577.033" transform="translate(-716.304 -577.033)" fill="#c9c9c9" stroke="#161615" stroke-miterlimit="10" stroke-width="1"/>
      </g>
    </g>
    <g id="Gruppe_13892" data-name="Gruppe 13892" transform="translate(547.503 525.963)">
      <path id="Pfad_12946" data-name="Pfad 12946" d="M769.209,541.745l6.345,32.844a15.318,15.318,0,0,1-12.1,17.893l-2.678.517a15.317,15.317,0,0,1-17.892-12.1l-6.346-32.844" transform="translate(-532.351 -524.698)" fill="none" stroke="#7c7c7c" stroke-linecap="round" stroke-miterlimit="10" stroke-width="2"/>
      <path id="Pfad_12947" data-name="Pfad 12947" d="M790.973,578.267h0c8.853.631,20.106,1.405,27.876,1.841,3.837.214,6.127-1.3,8.256-4.281a119.579,119.579,0,0,0,7.813-12.216c1.523-2.886.1-5.111-4.546-7.011-6.317-2.584-14.62-5.853-23.972-9.5-2.758-9.447-9.528-17.288-22.9-20.142-17.508-3.736-29.689,3.214-36.867,18.153-2.214,4.608-10.851,29.338-16.8,36.016l-11.247,8.913L612.84,595.183a57.71,57.71,0,0,1-54.48-30.781,5.757,5.757,0,1,0-10.2,5.345,69.264,69.264,0,0,0,45.124,35.137,44.758,44.758,0,0,0-8.727,17.026c-2.707,9.782-3.682,25.375,6.269,45.174L574.688,691.21a5.753,5.753,0,0,0-1.025,4.457l7.1,45.13a5.759,5.759,0,0,0,5.662,4.713h7.236a5.756,5.756,0,0,0,5.664-6.788l-4.5-31.318s7.85-8.033,23.78-21.613c17.929-15.284,24.633-25.125,27.421-30.882,23.728-4.461,65.36,12.451,87.118,15.955l9.586,69.782a5.759,5.759,0,0,0,5.688,4.863h5.954a5.757,5.757,0,0,0,5.757-5.757v-70.7c2.3-1.572,16.432-15.574,17.311-32.56,1.33-25.7,4.115-43.338,4.115-43.338" transform="translate(-547.503 -525.963)" fill="none" stroke="#7c7c7c" stroke-linecap="round" stroke-miterlimit="10" stroke-width="2"/>
    </g>
  </g>
</svg>
