<svg xmlns="http://www.w3.org/2000/svg" width="64.827" height="64.827" viewBox="0 0 64.827 64.827">
  <g id="Gruppe_13965" data-name="Gruppe 13965" transform="translate(-1059 5040.868)">
    <g id="Gruppe_13962" data-name="Gruppe 13962" transform="translate(0 -80)">
      <path id="Vereinigungsmenge_2" data-name="Vereinigungsmenge 2" d="M-123.7,7322.3l-.011-.012,0,.012c-1.282,5.942-8.988,7.592-13.342,4.433-8.626-6.26-1.507-22.608,6.03-28.64,4.327-2.883,10.031-3.008,15.5,1l-1.07,3.035c.119,2.012.453,4.709,1.38,4.84,1.486.212,5.375.556,5.375.556,2.614,6.236,5.958,16.538-1.766,20.079a9.711,9.711,0,0,1-3.97.782C-119.4,7328.386-123.55,7326.514-123.7,7322.3Z" transform="translate(1215.189 -12239.813)" fill="#00b7ff" opacity="0.4"/>
      <g id="Gruppe_13958" data-name="Gruppe 13958" transform="translate(1060 -4959.868)">
        <ellipse id="Ellipse_2710" data-name="Ellipse 2710" cx="31.413" cy="31.413" rx="31.413" ry="31.413" transform="translate(0 0)" fill="none" stroke="#7c7c7c" stroke-linecap="round" stroke-miterlimit="10" stroke-width="2"/>
        <g id="Gruppe_11979" data-name="Gruppe 11979" transform="translate(9.044 14.385)">
          <g id="Gruppe_11978" data-name="Gruppe 11978" transform="translate(0 1.669)">
            <line id="Linie_3090" data-name="Linie 3090" y1="6.525" transform="translate(22.422 21.047)" fill="none" stroke="#7c7c7c" stroke-linecap="round" stroke-linejoin="round" stroke-width="2"/>
            <path id="Pfad_12506" data-name="Pfad 12506" d="M471.732,93.53c.2,5.809,8.019,7.168,12.089,5.3,7.726-3.541,4.381-13.842,1.767-20.079l-.439-.893" transform="translate(-449.283 -67.228)" fill="none" stroke="#7c7c7c" stroke-linecap="round" stroke-linejoin="round" stroke-width="2"/>
            <path id="Pfad_12507" data-name="Pfad 12507" d="M480.18,98.73c-1.282,5.941-8.988,7.593-13.341,4.433-8.626-6.26-1.507-22.609,6.031-28.64,4.326-2.883,10.03-3.008,15.5,1" transform="translate(-457.747 -72.429)" fill="none" stroke="#7c7c7c" stroke-linecap="round" stroke-linejoin="round" stroke-width="2"/>
            <path id="Pfad_12508" data-name="Pfad 12508" d="M482.107,92.245a4.948,4.948,0,0,0,3.044-.83h0a5.119,5.119,0,0,0,1.247-7.524l-6.839-8.524a14.715,14.715,0,0,0-1.039-1.223" transform="translate(-442.786 -70.788)" fill="none" stroke="#7c7c7c" stroke-linecap="round" stroke-linejoin="round" stroke-width="2"/>
            <path id="Pfad_12509" data-name="Pfad 12509" d="M473.336,74.63h0a3.919,3.919,0,0,0-5.158.875l-6.8,8.556a5.119,5.119,0,0,0,1.278,7.518h0a3.546,3.546,0,0,0,2.7.607" transform="translate(-460.263 -70.9)" fill="none" stroke="#7c7c7c" stroke-linecap="round" stroke-linejoin="round" stroke-width="2"/>
            <ellipse id="Ellipse_2711" data-name="Ellipse 2711" cx="3.13" cy="1.739" rx="3.13" ry="1.739" transform="translate(19.332 18.618)" fill="#7c7c7c"/>
            <g id="Gruppe_11977" data-name="Gruppe 11977" transform="translate(13.562 13.211)">
              <path id="Pfad_12510" data-name="Pfad 12510" d="M473.353,79.178a4.294,4.294,0,0,0,5.739,3.163" transform="translate(-461.294 -79.178)" fill="none" stroke="#7c7c7c" stroke-linecap="round" stroke-linejoin="round" stroke-width="2"/>
              <path id="Pfad_12511" data-name="Pfad 12511" d="M472.931,79.178a4.294,4.294,0,0,1-5.739,3.163" transform="translate(-467.192 -79.178)" fill="none" stroke="#7c7c7c" stroke-linecap="round" stroke-linejoin="round" stroke-width="2"/>
            </g>
          </g>
          <line id="Linie_3091" data-name="Linie 3091" y2="4.627" transform="translate(22.971 2.112)" fill="none" stroke="#7c7c7c" stroke-linecap="round" stroke-linejoin="round" stroke-width="2"/>
          <line id="Linie_3092" data-name="Linie 3092" y2="7.377" transform="translate(26.278 2.6)" fill="none" stroke="#7c7c7c" stroke-linecap="round" stroke-linejoin="round" stroke-width="2"/>
          <path id="Pfad_12512" data-name="Pfad 12512" d="M478.928,71.576s-7.835,12.852,0,13.071C486.8,84.866,478.928,71.576,478.928,71.576Z" transform="translate(-445.728 -71.576)" fill="none" stroke="#7c7c7c" stroke-linecap="round" stroke-linejoin="round" stroke-width="2"/>
        </g>
      </g>
    </g>
  </g>
</svg>
