<svg xmlns="http://www.w3.org/2000/svg" width="290.024" height="221.583" viewBox="0 0 290.024 221.583">
  <g id="Gruppe_14165" data-name="Gruppe 14165" transform="translate(-46.54 -483.49)">
    <path id="Pfad_13241" data-name="Pfad 13241" d="M112.9,553.744a57.708,57.708,0,0,1-54.48-30.78,5.757,5.757,0,0,0-10.2,5.344,70.091,70.091,0,0,0,45.577,35.138Z" fill="#00b7ff" opacity="0.4"/>
    <g id="Gruppe_14163" data-name="Gruppe 14163">
      <path id="Pfad_13242" data-name="Pfad 13242" d="M229.889,539.689" fill="none" stroke="#040506" stroke-linecap="round" stroke-miterlimit="10" stroke-width="3"/>
    </g>
    <g id="Gruppe_14182" data-name="Gruppe 14182" transform="translate(2582.558 6535.525)">
      <path id="Pfad_13266" data-name="Pfad 13266" d="M84.241,607.338a78.129,78.129,0,0,0,6.643,18.308l-16.14,24.126a5.758,5.758,0,0,0-1.026,4.458l7.1,45.129a5.758,5.758,0,0,0,5.662,4.713H93.72a5.755,5.755,0,0,0,5.664-6.788l-4.5-31.318s7.85-8.032,23.78-21.612c17.929-15.284,21.9-22.437,25.745-27.647,0,0-5.715-16.318-28.214-18.713C99.921,596.262,83.622,604.524,84.241,607.338Z" transform="translate(-2582.558 -6535.525)" fill="none" stroke="#e5e5e5" stroke-width="1"/>
      <path id="Pfad_13264" data-name="Pfad 13264" d="M264.618,599.545c.02-27.55-18.069-30.543-23.173-28.495-7.543,3.026-14.769,15.338-16.183,17.5-4.019,6.147-6.239,9.946-4.836,18.668,1.054,6.549,3.944,8.694,12.38,21.081a1.873,1.873,0,0,1,.341,1.129l9.586,69.783a5.758,5.758,0,0,0,5.687,4.862h5.954a5.757,5.757,0,0,0,5.758-5.757v-70.7l-.032,0A82.931,82.931,0,0,0,264.618,599.545Z" transform="translate(-2582.558 -6535.525)" fill="none" stroke="#e5e5e5" stroke-width="1"/>
      <path id="Pfad_13267" data-name="Pfad 13267" d="M92.769,564.193c4.044,5.229,7.328,11.4,5.787,20.342-1.9,11.036-9.284,15.6-14.658,18.237a59.742,59.742,0,0,1-.14-19.747C86.081,570.14,92.769,564.193,92.769,564.193Z" transform="translate(-2582.558 -6535.525)" fill="none" stroke="#e5e5e5" stroke-width="1"/>
      <path id="Pfad_13263" data-name="Pfad 13263" d="M291.028,536.829c8.853.632,20.106,1.406,27.875,1.841,3.837.214,6.127-1.3,8.256-4.28a119.82,119.82,0,0,0,7.813-12.216c1.523-2.886.1-5.111-4.546-7.012-6.318-2.583-14.621-5.853-23.972-9.5-2.758-9.447-9.528-17.288-22.9-20.142-17.508-3.736-29.056,4.221-36.867,18.153-2.5,4.46-12.354,34.156-18.929,37.935.574,2.49,2.853,10.962,20.515,23.529,17.1,12.165,30.54,12.165,30.54,12.165l2.8-25.589s5.927-4.7,7.032-6.449C289.895,543.291,291.028,536.829,291.028,536.829Z" transform="translate(-2582.558 -6535.525)" fill="none" stroke="#e5e5e5" stroke-width="1"/>
      <path id="Pfad_13262" data-name="Pfad 13262" d="M218.642,548.6c31.454,34.3-106.388,34.17-106.182,5.285,0,0,.565,0,3.443-.129C121.822,553.494,218.642,548.6,218.642,548.6Z" transform="translate(-2582.558 -6535.525)" fill="none" stroke="#e5e5e5" stroke-width="1"/>
      <path id="Pfad_13265" data-name="Pfad 13265" d="M145.409,612.784c.678-28.334,69.7-45.553,78.025-33.809,5.611,7.91-22.961,18.08,5,49.495-6.856-.584-39.2-10.748-48.9-12.58S152.575,612.485,145.409,612.784Z" transform="translate(-2582.558 -6535.525)" fill="none" stroke="#e5e5e5" stroke-width="1"/>
      <path id="Pfad_13236" data-name="Pfad 13236" d="M84.241,607.338a78.129,78.129,0,0,0,6.643,18.308l-16.14,24.126a5.758,5.758,0,0,0-1.026,4.458l7.1,45.129a5.758,5.758,0,0,0,5.662,4.713H93.72a5.755,5.755,0,0,0,5.664-6.788l-4.5-31.318s7.85-8.032,23.78-21.612c17.929-15.284,21.9-22.437,25.745-27.647,0,0-5.715-16.318-28.214-18.713C99.921,596.262,83.622,604.524,84.241,607.338Z" transform="translate(-2582.558 -6535.525)" fill="#fafafa"/>
      <g id="Gruppe_14159" data-name="Gruppe 14159" transform="translate(-2582.558 -6535.525)">
        <path id="Pfad_13237" data-name="Pfad 13237" d="M229.889,539.689" fill="none" stroke="#686969" stroke-linecap="round" stroke-miterlimit="10" stroke-width="2"/>
      </g>
      <path id="Pfad_13240" data-name="Pfad 13240" d="M264.618,599.545c.02-27.55-18.069-30.543-23.173-28.495-7.543,3.026-14.769,15.338-16.183,17.5-4.019,6.147-6.239,9.946-4.836,18.668,1.054,6.549,3.944,8.694,12.38,21.081a1.873,1.873,0,0,1,.341,1.129l9.586,69.783a5.758,5.758,0,0,0,5.687,4.862h5.954a5.757,5.757,0,0,0,5.758-5.757v-70.7l-.032,0A82.931,82.931,0,0,0,264.618,599.545Z" transform="translate(-2582.558 -6535.525)" fill="#fafafa"/>
      <g id="Gruppe_14163-2" data-name="Gruppe 14163" transform="translate(-2582.558 -6535.525)">
        <path id="Pfad_13242-2" data-name="Pfad 13242" d="M229.889,539.689" fill="none" stroke="#040506" stroke-linecap="round" stroke-miterlimit="10" stroke-width="3"/>
      </g>
      <path id="Pfad_13245" data-name="Pfad 13245" d="M92.769,564.193c4.044,5.229,7.328,11.4,5.787,20.342-1.9,11.036-9.284,15.6-14.658,18.237a59.742,59.742,0,0,1-.14-19.747C86.081,570.14,92.769,564.193,92.769,564.193Z" transform="translate(-2582.558 -6535.525)" fill="#fafafa"/>
      <g id="Gruppe_14166" data-name="Gruppe 14166" transform="translate(-2582.558 -6535.525)">
        <path id="Pfad_13246" data-name="Pfad 13246" d="M229.889,539.689" fill="none" stroke="#686969" stroke-linecap="round" stroke-miterlimit="10" stroke-width="2"/>
      </g>
      <path id="Pfad_13249" data-name="Pfad 13249" d="M291.028,536.829c8.853.632,20.106,1.406,27.875,1.841,3.837.214,6.127-1.3,8.256-4.28a119.82,119.82,0,0,0,7.813-12.216c1.523-2.886.1-5.111-4.546-7.012-6.318-2.583-14.621-5.853-23.972-9.5-2.758-9.447-9.528-17.288-22.9-20.142-17.508-3.736-29.056,4.221-36.867,18.153-2.5,4.46-12.354,34.156-18.929,37.935.574,2.49,2.853,10.962,20.515,23.529,17.1,12.165,30.54,12.165,30.54,12.165l2.8-25.589s5.927-4.7,7.032-6.449C289.895,543.291,291.028,536.829,291.028,536.829Z" transform="translate(-2582.558 -6535.525)" fill="#fafafa"/>
      <g id="Gruppe_14169" data-name="Gruppe 14169" transform="translate(-2582.558 -6535.525)">
        <path id="Pfad_13250" data-name="Pfad 13250" d="M229.889,539.689" fill="#00b7ff" stroke="#040506" stroke-linecap="round" stroke-miterlimit="10" stroke-width="3"/>
      </g>
      <g id="Gruppe_14175" data-name="Gruppe 14175" transform="translate(-2582.558 -6535.525)">
        <g id="Gruppe_14174" data-name="Gruppe 14174">
          <g id="Gruppe_14172" data-name="Gruppe 14172">
            <path id="Pfad_13253" data-name="Pfad 13253" d="M229.889,539.689" fill="#00b7ff" stroke="#040506" stroke-linecap="round" stroke-miterlimit="10" stroke-width="3"/>
          </g>
        </g>
      </g>
      <path id="Pfad_13256" data-name="Pfad 13256" d="M218.642,548.6c31.454,34.3-106.388,34.17-106.182,5.285,0,0,.565,0,3.443-.129C121.822,553.494,218.642,548.6,218.642,548.6Z" transform="translate(-2582.558 -6535.525)" fill="#fafafa"/>
      <g id="Gruppe_14179" data-name="Gruppe 14179" transform="translate(-2582.558 -6535.525)">
        <g id="Gruppe_14177" data-name="Gruppe 14177">
          <path id="Pfad_13257" data-name="Pfad 13257" d="M229.889,539.689" fill="#00b7ff" stroke="#040506" stroke-linecap="round" stroke-miterlimit="10" stroke-width="3"/>
        </g>
      </g>
      <path id="Pfad_13260" data-name="Pfad 13260" d="M145.409,612.784c.678-28.334,69.7-45.553,78.025-33.809,5.611,7.91-22.961,18.08,5,49.495-6.856-.584-39.2-10.748-48.9-12.58S152.575,612.485,145.409,612.784Z" transform="translate(-2582.558 -6535.525)" fill="#fafafa"/>
      <path id="Pfad_13268" data-name="Pfad 13268" d="M291.028,536.829h0c8.853.632,20.106,1.406,27.875,1.841,3.837.214,6.127-1.3,8.256-4.28a119.82,119.82,0,0,0,7.813-12.216c1.523-2.886.1-5.111-4.546-7.012-6.318-2.583-14.621-5.853-23.972-9.5-2.758-9.447-9.528-17.288-22.9-20.142-17.508-3.736-29.689,3.215-36.867,18.153-2.213,4.608-10.851,29.338-16.795,36.016L218.642,548.6,112.9,553.744a57.708,57.708,0,0,1-54.48-30.78,5.757,5.757,0,0,0-10.2,5.344,69.266,69.266,0,0,0,45.124,35.138,44.743,44.743,0,0,0-8.727,17.026c-2.706,9.782-3.682,25.375,6.27,45.174l-16.14,24.126a5.758,5.758,0,0,0-1.026,4.458l7.1,45.129a5.758,5.758,0,0,0,5.662,4.713H93.72a5.755,5.755,0,0,0,5.664-6.788l-4.5-31.318s7.85-8.032,23.78-21.612c17.929-15.284,24.632-25.126,27.421-30.882,23.727-4.461,65.36,12.45,87.118,15.955l9.586,69.782a5.758,5.758,0,0,0,5.687,4.863h5.954a5.757,5.757,0,0,0,5.758-5.757v-70.7c2.3-1.572,16.432-15.573,17.31-32.56,1.329-25.7,4.115-43.338,4.115-43.338" transform="translate(-2582.558 -6535.525)" fill="none" stroke="#7c7c7c" stroke-linecap="round" stroke-miterlimit="10" stroke-width="2"/>
      <g id="Gruppe_14180" data-name="Gruppe 14180" transform="translate(-2582.558 -6535.525)">
        <path id="Pfad_13238" data-name="Pfad 13238" d="M284.416,501.573l6.345,32.844a15.318,15.318,0,0,1-12.1,17.892l-2.677.518a15.318,15.318,0,0,1-17.892-12.1l-6.345-32.844" fill="none" stroke="#7c7c7c" stroke-linecap="round" stroke-miterlimit="10" stroke-width="2"/>
      </g>
    </g>
  </g>
</svg>
