<svg xmlns="http://www.w3.org/2000/svg" width="199.77" height="172.798" viewBox="0 0 199.77 172.798">
  <g id="Gruppe_14084" data-name="Gruppe 14084" transform="translate(111.883 3920.624)">
    <g id="Gruppe_14056" data-name="Gruppe 14056" transform="translate(6 -164.405)">
      <g id="Gruppe_14052" data-name="Gruppe 14052" transform="translate(-196 154)">
        <path id="Pfad_13187" data-name="Pfad 13187" d="M100.295,134.372s12.153,29.211,48.165,50.685c30.859,18.4,48.644,18.809,48.644,18.809s4.085-51.333,4.59-55.537,1.009-9.417,1.009-9.417-13.789,7.567-25.728-.505-10.566-11.575-11.505-15.457a20.468,20.468,0,0,0-1.572-4.91L135.991,91.187l-17.4,29.06Z" transform="translate(-21.295 -3941.618)" fill="#00b7ff" opacity="0.4"/>
        <g id="Gruppe_14060" data-name="Gruppe 14060" transform="translate(-52 -153.595)">
          <g id="Gruppe_14055" data-name="Gruppe 14055" transform="translate(-351 312)">
            <path id="Pfad_12985" data-name="Pfad 12985" d="M784.229,321.123l10.247,52.231a23.293,23.293,0,0,1-18.4,27.207l-4.071.786a23.291,23.291,0,0,1-27.206-18.4l-10.247-52.231s3.61-8.319,23.83-11.564C778.205,315.974,784.229,321.123,784.229,321.123Z" transform="translate(-198.295 -4359.213)" fill="#fafafa"/>
            <path id="Pfad_13195" data-name="Pfad 13195" d="M784.229,321.123l10.247,52.231a23.293,23.293,0,0,1-18.4,27.207l-4.071.786a23.291,23.291,0,0,1-27.206-18.4l-10.247-52.231s3.61-8.319,23.83-11.564C778.205,315.974,784.229,321.123,784.229,321.123Z" transform="translate(-198.295 -4359.213)" fill="none" stroke="#e5e5e5" stroke-width="1"/>
          </g>
          <g id="Gruppe_14053" data-name="Gruppe 14053" transform="translate(52 154)">
            <circle id="Ellipse_2735" data-name="Ellipse 2735" cx="11.698" cy="11.698" r="11.698" transform="translate(196.943 -3881.404)" fill="#fafafa"/>
            <path id="Pfad_13186" data-name="Pfad 13186" d="M525.733,42.49c-10.1,5.471-23.552,9.572-38.56,11.2-14.684,1.592-28.417.551-39.345-2.472a46.717,46.717,0,0,1,31.741-19.373C507.592,28.064,525.733,42.49,525.733,42.49Z" transform="translate(-313.817 -3941.213)" fill="#fafafa"/>
            <path id="Pfad_13184" data-name="Pfad 13184" d="M576.536,369.4c1.367.436-6.5,5.844-7.349,7.145-1.356,2.072-4.025.627-7.108,2.157-1,.5-2.549,4.215-3.7,4.613-14.425,4.988-44.877-.458-44.877-.458s-2.093-3.4-1.576-10.432c.562-7.646,5.656-19.348,21.368-15.508C551.613,361.395,557.941,363.461,576.536,369.4Z" transform="translate(-314.295 -4201.213)" fill="#fafafa"/>
            <path id="Pfad_13188" data-name="Pfad 13188" d="M292.412,363.079a11.7,11.7,0,1,1-7.568-22.144s12.6,4.148,13.835,7.482S292.412,363.079,292.412,363.079Z" transform="translate(-22.295 -4201.213)" fill="#fafafa"/>
            <g id="Gruppe_14054" data-name="Gruppe 14054" transform="translate(-601.295 -4201.213)">
              <g id="Gruppe_13910" data-name="Gruppe 13910" transform="translate(0 1)">
                <circle id="Ellipse_2724" data-name="Ellipse 2724" cx="5.596" cy="5.596" r="5.596" transform="translate(867.515 344.58)" fill="#7c7c7c"/>
              </g>
              <circle id="Ellipse_2725" data-name="Ellipse 2725" cx="5.184" cy="5.184" r="5.184" transform="translate(805.178 326.699)" fill="#7c7c7c"/>
            </g>
          </g>
          <circle id="Ellipse_2736" data-name="Ellipse 2736" cx="11.698" cy="11.698" r="11.698" transform="translate(248.943 -3727.404)" fill="none" stroke="#e5e5e5" stroke-width="1"/>
          <path id="Pfad_13191" data-name="Pfad 13191" d="M525.733,42.49c-10.1,5.471-23.552,9.572-38.56,11.2-14.684,1.592-28.417.551-39.345-2.472a46.717,46.717,0,0,1,31.741-19.373C507.592,28.064,525.733,42.49,525.733,42.49Z" transform="translate(-261.817 -3787.213)" fill="none" stroke="#e5e5e5" stroke-width="1"/>
          <path id="Pfad_13192" data-name="Pfad 13192" d="M576.536,369.4c1.367.436-6.5,5.844-7.349,7.145-.5.511-3.52.682-6.6,2.212-1,.5-2.332,3.542-3.483,3.94-11.407,6.845-45.6.16-45.6.16s-2.093-3.4-1.576-10.432c.562-7.646,5.656-19.348,21.368-15.508C551.613,361.395,557.941,363.461,576.536,369.4Z" transform="translate(-262.295 -4047.213)" fill="none" stroke="#e5e5e5" stroke-width="1"/>
          <path id="Pfad_13193" data-name="Pfad 13193" d="M292.412,363.079a11.7,11.7,0,1,1-7.568-22.144s11.345,4.145,13.867,7.46a16.293,16.293,0,0,1,.736,1.885C300.188,353.6,292.412,363.079,292.412,363.079Z" transform="translate(29.705 -4047.213)" fill="none" stroke="#e5e5e5" stroke-width="1"/>
          <path id="Pfad_13196" data-name="Pfad 13196" d="M810.653,372.374c9.729.18,25.113,7.665,39.382,5.715,12-1.639,24.4-18.755,27.215-23.9,2.458-4.5.062-7.936-7.663-10.835-10.5-3.94-21.535-8.429-37.071-13.987-4.76-14.636-15.553-29.605-37.435-35.176-24.149-6.15-52.675-3.2-67.708,30.6-7.339,16.505-20.417,45.3-29.454,55.456l-17.1,13.553" transform="translate(-549.295 -4047.213)" fill="none" stroke="#7c7c7c" stroke-linecap="round" stroke-miterlimit="10" stroke-width="2"/>
          <path id="Pfad_13197" data-name="Pfad 13197" d="M784.828,323.413l9.648,49.941a23.293,23.293,0,0,1-18.4,27.207l-4.071.786a23.291,23.291,0,0,1-27.206-18.4l-9.648-49.941" transform="translate(-549.295 -4047.213)" fill="none" stroke="#7c7c7c" stroke-linecap="round" stroke-miterlimit="10" stroke-width="2"/>
          <path id="Pfad_13198" data-name="Pfad 13198" d="M850.079,378.7c-5.523,6.453-11.794,7.636-21.463,7.01-5.769-.373-33.512-3.8-33.512-3.8" transform="translate(-549.295 -4047.213)" fill="none" stroke="#7c7c7c" stroke-linecap="round" stroke-linejoin="round" stroke-width="2"/>
          <path id="Pfad_13199" data-name="Pfad 13199" d="M783.367,398.041s-4.252,25.216-6.273,64.3" transform="translate(-549.295 -4047.213)" fill="none" stroke="#7c7c7c" stroke-linecap="round" stroke-miterlimit="10" stroke-width="2"/>
        </g>
      </g>
    </g>
  </g>
</svg>
