<?xml version="1.0" encoding="utf-8"?>
<!-- Generator: Adobe Illustrator 23.0.1, SVG Export Plug-In . SVG Version: 6.00 Build 0)  -->
<svg id="Ebene_1" style="enable-background:new 0 0 287 283.7;" version="1.1" viewBox="0 0 287 283.7" x="0px"
     xml:space="preserve" xmlns="http://www.w3.org/2000/svg" y="0px">
<style type="text/css">
	.st0 {
    fill: #24B5BC;
  }
</style>
  <title>thin</title>
  <g>
	<g id="Ebene_1-2">
		<g>
			<path class="st0" d="M128.8,283.7c-0.9,0-1.8-0.2-2.6-0.4c-0.7-0.1-1.3-0.3-1.9-0.3c-0.7,0-1.6,0-2.5,0.1c-1,0.1-2.1,0.2-3,0.1
				c-1.1-0.1-2-0.4-2.8-0.7c-0.6-0.2-1.2-0.4-1.8-0.5c-0.6-0.1-1.3-0.1-2-0.2c-0.9,0-1.7-0.1-2.5-0.3c-1.1-0.3-2.6-0.7-3.5-0.9
				l-0.5-0.1c-0.5-0.1-1.9,0.1-3.4,0.2c-3.4,0.4-8.5,1.1-13.6-0.1c-7.3-1.7-10.8-3.7-13.5-5.2c-1.6-0.9-3-1.6-4.7-2.2
				c-1.7-0.5-3.1-1.1-4.4-1.7c-2.4-1.1-4.2-1.8-6.6-1.5l-1.3,4.8c-2.8,5.7-5.6,8.5-8.1,8.2c-4.1-0.5-11.4-3.8-13-5.3
				c-0.5-0.5-0.9-1-1.2-1.5c-0.7-1-1.4-1.9-2.7-2.3c-2.1-0.7-9.5-3.9-11.6-6.2c-0.8-0.9-5.8-1.8-9.5-2.5c-4.1-0.7-7.9-1.5-9.9-2.4
				C0,261.7,0,259.1,0,257v-0.6c0-2.2,0-4.7,2.1-5.8c2-1,5.9-1.7,10-2.5c3.7-0.7,8.7-1.6,9.4-2.5c2.1-2.4,9.5-5.6,11.6-6.2
				c1.3-0.4,2-1.4,2.8-2.4c0.4-0.5,0.7-1,1.1-1.4c1.5-1.5,8.9-4.8,13-5.4c2.5-0.3,5.2,2.3,8.1,8.2l0.1,0.2l1.2,4.6
				c2.4,0.4,4.2-0.4,6.6-1.5c1.3-0.6,2.7-1.2,4.4-1.7c1.7-0.5,3.1-1.3,4.7-2.2c2.8-1.5,6.3-3.5,13.6-5.2c5.1-1.2,10.2-0.6,13.6-0.1
				c1.5,0.2,2.9,0.4,3.4,0.2l4-1c0.8-0.2,1.7-0.3,2.6-0.3c0.6,0,1.3-0.1,1.8-0.1c0.6-0.1,1.2-0.3,1.8-0.5c0.8-0.3,1.7-0.6,2.8-0.7
				c0.8-0.1,1.8,0,2.9,0.1c0.9,0.1,1.8,0.1,2.5,0.1c0.6,0,1.2-0.2,1.8-0.3c0.9-0.2,1.9-0.4,2.9-0.4c0.7,0,1.5,0.1,2.3,0.2
				c0.6,0.1,1.2,0.2,1.7,0.2c0.5,0,1,0,1.6-0.1c0.7-0.1,1.4-0.2,2.2-0.1c0.6,0,1.5,0.2,2.3,0.4c0.6,0.1,1.3,0.3,1.8,0.3
				c0.4,0,0.8,0,1.3,0c0.9,0,1.8,0,2.7,0.2c1,0.3,2,0.6,2.9,0.8c0.4,0.1,0.8,0.1,1.3,0.1c0.5,0,1.1,0,1.6,0.1
				c7.8,1.4,14.7,3,20.2,4.3c5.7,1.3,10.3,2.3,12.9,2.5c1.6,0.1,3.1-0.8,5.1-2c4.9-2.9,12.2-7.2,28.1-2.3c9.9,3,19.4,14.3,21.2,16.5
				c1.5,0.1,6.5,0.4,11.9,1.1l0,0c1.6,0.2,4.5,0.6,7.8,0.9c26,3,27,3.7,27,5.3c0,1.4,0,2.5-33.1,4.3l-2.2,0.1
				c-3.8,0.2-7.7,0.2-11.5-0.1c-1.9,2.4-11.3,13.9-21.2,16.5c-6.2,1.9-11.4,2.5-16.1,2c-6.5-0.4-10.1-2.8-12.6-4.5
				c-1.4-0.9-2.4-1.6-3.6-1.8c-0.2,0-0.5,0-0.8,0c-2.7,0.2-7.2,1.2-12.9,2.5c-5.6,1.3-12.5,2.8-20.2,4.2c-0.5,0.1-1.1,0.1-1.7,0.1
				c-0.5,0-0.9,0-1.3,0.1c-0.9,0.2-1.9,0.5-2.8,0.8c-0.9,0.3-1.9,0.3-2.8,0.2c-0.5,0-0.9,0-1.3,0c-0.4,0.1-1,0.2-1.7,0.3
				c-0.8,0.2-1.7,0.4-2.4,0.4c-0.8,0.1-1.5,0-2.1-0.1c-0.5-0.1-1.1-0.1-1.6-0.1c-0.6,0-1.2,0.1-1.9,0.2
				C130.3,283.6,129.5,283.7,128.8,283.7z M123.8,281c0.2,0,0.4,0,0.6,0c0.7,0,1.5,0.2,2.2,0.4c0.8,0.2,1.5,0.3,2.2,0.3
				c0.6,0,1.3-0.1,2-0.2c0.7-0.1,1.4-0.2,2.1-0.2c0.7,0,1.3,0.1,1.9,0.1c0.6,0.1,1.1,0.1,1.7,0.1c0.5,0,1.3-0.2,2.1-0.4
				c0.7-0.2,1.3-0.3,1.9-0.4c0.5-0.1,1,0,1.6,0c0.8,0,1.5,0,2.1-0.1c1-0.3,2-0.6,3.1-0.9c0.6-0.1,1.2-0.1,1.7-0.1
				c0.5,0,0.9,0,1.3-0.1c7.8-1.4,14.7-3,20.2-4.2c6-1.4,10.4-2.4,13.1-2.6c0.4-0.1,0.9-0.1,1.3,0c1.6,0.3,2.9,1.1,4.4,2.1
				c2.5,1.7,5.7,3.8,11.7,4.2c4.4,0.5,9.5-0.2,15.4-2c10.2-2.7,20.4-16.1,20.5-16.2l0.3-0.4l0.6,0c3.9,0.3,7.8,0.4,11.8,0.2l2.3-0.1
				c15.5-0.8,25.4-1.6,29.5-2.3c-4.8-1.1-16.6-2.4-23.5-3.2c-3.3-0.4-6.2-0.7-7.9-1c-6.4-0.9-12.1-1.1-12.2-1.1l-0.5,0l-0.3-0.4
				c-0.1-0.1-10.4-13.1-20.5-16.2c-15-4.6-21.6-0.7-26.5,2.1c-2.2,1.3-4.1,2.5-6.3,2.3c-2.7-0.2-7.1-1.2-13.2-2.6
				c-5.5-1.3-12.4-2.8-20.2-4.2c-0.4-0.1-0.8-0.1-1.3-0.1c-0.6,0-1.2,0-1.7-0.1c-1.1-0.2-2.1-0.5-3.1-0.9c-0.6-0.2-1.3-0.1-2.1-0.1
				c-0.5,0-1.1,0-1.6,0c-0.6-0.1-1.3-0.2-2-0.4c-0.7-0.2-1.5-0.3-2-0.4c-0.6,0-1.2,0-1.8,0.1c-0.6,0.1-1.2,0.1-1.9,0.1
				c-0.6,0-1.3-0.1-1.9-0.2c-0.7-0.1-1.5-0.2-2.1-0.2c-0.7,0-1.5,0.2-2.3,0.3c-0.7,0.1-1.4,0.3-2.1,0.3c-0.8,0.1-1.8,0-2.8-0.1
				c-0.9-0.1-1.9-0.2-2.5-0.1c-0.8,0.1-1.6,0.3-2.3,0.6c-0.7,0.2-1.4,0.5-2.2,0.6c-0.7,0.1-1.4,0.1-2,0.2c-0.9,0-1.7,0.1-2.2,0.2
				l-4,1c-0.9,0.2-2.2,0.1-4.2-0.2c-3.2-0.4-8.2-1-12.9,0.1c-7,1.7-10.4,3.5-13.1,5c-1.7,0.9-3.1,1.7-5.1,2.3
				c-1.6,0.5-2.9,1-4.1,1.6c-2.7,1.2-5.1,2.2-8.4,1.5l-0.6-0.1l-1.5-5.7c-2.3-4.6-4.5-7.2-6-7c-3.8,0.5-10.7,3.7-11.8,4.8
				c-0.3,0.3-0.6,0.7-1,1.2c-0.8,1.1-1.8,2.5-3.8,3.1c-2.4,0.8-9.1,3.8-10.7,5.7c-1.2,1.3-4.8,2-10.6,3.1c-3.8,0.7-7.7,1.4-9.4,2.3
				c-0.9,0.5-1,1.9-1,4.1v0.6c0,2.1,0.1,3.5,1,4c1.7,0.9,5.6,1.6,9.3,2.3c5.8,1.1,9.5,1.8,10.7,3.1c1.6,1.9,8.3,4.8,10.7,5.7
				c1.9,0.6,2.8,1.9,3.7,3c0.3,0.5,0.7,0.9,1,1.2c1,1,7.9,4.3,11.8,4.8c1.5,0.2,3.7-2.4,6-7l1.5-5.7l0.6-0.1
				c3.3-0.7,5.7,0.3,8.4,1.5c1.3,0.6,2.6,1.1,4.2,1.6c2,0.6,3.4,1.4,5.1,2.3c2.7,1.5,6,3.3,13,5c4.8,1.1,9.7,0.5,12.9,0.1
				c2-0.3,3.3-0.4,4.2-0.2l0.5,0.1c0.8,0.2,2.3,0.6,3.5,0.9c0.6,0.2,1.3,0.2,2.1,0.2c0.7,0,1.5,0.1,2.3,0.2c0.8,0.1,1.4,0.4,2.1,0.6
				c0.8,0.3,1.5,0.5,2.4,0.6c0.7,0.1,1.6,0,2.6-0.1C122.4,281.1,123.1,281,123.8,281z"/>
		</g>
    <g>
			<path class="st0" d="M233.2,210.4c-2,0-3.7-0.1-4.3-0.2c-1-0.2-2.2-1.6-2.5-2.8c-0.2-1,0.1-1.8,0.9-2.4c3.8-2.7,8.4-6.7,8.9-7.8
				c0-0.3-0.1-0.8-0.1-1.8c-0.1-4.5-0.4-16.5-5.3-23.8c-4.5-6.8-20.5-22.8-25.8-28l-1.4-1.4c-6.8-6.8-11.5-18.4-14.5-26
				c-1.5-3.7-2.9-7.2-3.7-7.9c-1-0.9-7.1-2-16.1-1.8c-5.8,0.1-16.9,0.9-25.8,4.7c-4.2,1.8-7.8,3.7-11.3,5.5
				c-8.5,4.4-16.6,8.6-29.7,9.4c-6.7,0.4-11.7,0.7-13.6,0.7c-0.2,1.7-0.7,6-1.6,11.9c-0.4,3-0.7,7.2-1,11.6
				c-0.5,7.3-1,14.8-2.3,18.1c-1.1,2.9-1.3,10.4-1.4,15.9c-0.1,6.1-0.2,7.3-0.8,7.9c-0.1,0.1-0.2,0.2-0.4,0.3
				c-0.8,0.7-1.7,1.6-2.2,4.5c-0.1,0.4-0.1,1-0.2,1.5c-0.9,6.4-1.8,11.3-4.5,11.3H60.4c-1.2,0-1.8-1.7-2-2.7c-0.5-2-0.1-3.5,1-4.1
				c3.6-1.8,8.7-6.1,9-7.2c0.3-2,2-14.9,1.4-19.3c-0.3-2.5,0.1-7.6,0.6-13c0.4-4.6,0.8-9.4,0.6-11.5c-0.3-2.4-2.5-23.9-3.9-28.1
				c-0.3-0.9-1-2.5-1.9-4.5c-2.9-6.4-7.8-17.2-9.3-27.4c-0.7-4.3-1-7.1-1.3-9.1c-0.4-3.2-0.6-4.3-1.2-5.7C52,74.7,49.4,63.2,49,54.8
				c-0.3-7.2-4.2-15.4-11.1-17.3c-3.5-1-8-1.7-11.9-2.4c-4-0.7-7.2-1.2-8.6-1.9c-3-1.4-11.3-11.3-10.8-16.7c0.3-3.2,4.6-3.4,7.4-3.6
				l0.7,0c6.6-0.4,16.9-2.7,18.1-3.8c0.9-0.9,1.4-1.7,1.9-2.5c2-3.2,3.8-5.3,16.5-6.5l0,0c10.7-1.1,19.5,3.1,22,10.5
				c1.4,4,2.6,6.8,4,9.7c1,2.2,2,4.4,3.1,7.2c0.9,2.3,1.4,4.5,1.8,6.6c0.8,3.9,1.6,7.3,4.8,9.7c5.8,4.2,23.4,14,31.9,14
				c0.1,0,0.2,0,0.2,0c23.1-0.7,61.4-0.2,68.8,1.9l4.7,1.3c12.4,3.6,16.1,4.7,21,4.1c5.7-0.6,32.6-6.8,43.6-12.6
				c5.4-2.8,11.2-6.6,16.3-10c6.8-4.4,10.4-6.8,12.2-6.9c0.5,0,1,0.3,1.2,0.8c0.8,2.8-20.3,21.7-27,25.1c-10.3,5.3-25.4,9.5-34.5,12
				c-3.1,0.9-6.1,1.7-7.2,2.1c0.2,0.3,0.5,0.8,0.8,1.3c1.4,2.1,3.8,5.6,4.4,10.9c0.1,1.3,0.3,3.9,0.5,7.3c0.5,7.2,1.2,18.1,2.1,25.4
				c1.4,10.7,5.6,24.8,8.6,30.7c2.7,5.5,6.1,7.6,8.5,9.2c2.2,1.4,4.1,2.6,4.1,5.3c0,0.8,0,2.2,0,4.1c0,8.3-0.1,27.8,0.3,30.6
				c0.2,1.1-0.9,3.6-3.3,7.5C243.4,209.9,237.5,210.4,233.2,210.4z M171.8,104.3c7.4,0,13.4,0.9,14.9,2.3c1.1,1,2.2,3.7,4.2,8.7
				c3,7.5,7.5,18.8,14.1,25.4l1.4,1.4c5.9,5.8,21.5,21.3,26.1,28.3c5.2,7.8,5.5,20.2,5.6,24.9c0,0.7,0,1.5,0.1,1.6
				c0.5,1.9-5.9,6.9-9.7,9.7c-0.1,0.1-0.1,0.1-0.1,0.3c0.1,0.6,0.7,1.3,1,1.4c2.5,0.5,12,0,13.3-0.9c1.9-3.3,3-5.6,3-6.2
				c-0.4-2.6-0.4-16.4-0.3-30.9c0-1.8,0-3.3,0-4.1c0-1.6-1-2.2-3.1-3.6c-2.6-1.7-6.3-4-9.2-10c-3-6.1-7.3-20.4-8.8-31.3
				c-1-7.4-1.7-18.3-2.1-25.6c-0.2-3.3-0.4-6-0.5-7.2c-0.5-4.8-2.6-7.9-4-10c-1-1.5-1.7-2.6-1-3.6c0.5-0.6,1.7-1,8.5-2.9
				c9-2.5,24-6.7,34.1-11.9c6.8-3.5,19.6-15.8,24.2-21c-2.2,1.2-5.4,3.3-8.6,5.4c-5.2,3.4-11,7.2-16.5,10.1
				c-11.4,6-38.4,12.2-44.4,12.8c-5.3,0.5-9.1-0.6-21.8-4.2l-4.7-1.3c-7.3-2.1-45.3-2.5-68.2-1.8c-0.1,0-0.2,0-0.3,0
				c-9.4,0-27.7-10.4-33.1-14.4c-3.9-2.9-4.7-6.8-5.6-10.9c-0.4-2-0.9-4.2-1.7-6.3c-1.1-2.8-2.1-5-3.1-7.2c-1.3-3-2.6-5.8-4-9.9
				C69.2,4.9,61,1.1,51.4,2.1l0,0c-12.4,1.2-13.5,3.2-15,5.6c-0.5,0.9-1.1,1.9-2.2,2.9c-2,1.9-14.1,4-19.4,4.3L14,15
				c-2.1,0.1-5.3,0.2-5.5,1.7c-0.4,4.2,7.3,13.6,9.7,14.7c1.1,0.5,4.5,1.1,8.1,1.7c4,0.7,8.5,1.4,12.1,2.4
				c7.8,2.2,12.2,11.3,12.5,19.2c0.4,8.5,3.1,19.6,4.1,21.8c0.8,1.7,0.9,2.9,1.4,6.3c0.3,2.1,0.6,4.9,1.3,9.1
				c1.5,10,6.3,20.6,9.2,26.9c0.9,2,1.6,3.6,2,4.6c1.5,4.3,3.6,24.5,4.1,28.5c0.2,2.3-0.2,6.9-0.6,11.8c-0.4,5.1-0.9,10.3-0.6,12.5
				c0.6,4.8-1.2,18.5-1.4,19.9c-0.4,2.4-7.2,7.2-10,8.7c-0.3,0.4,0,2.3,0.4,2.9h13.9c0.8-0.2,1.7-3.4,2.5-9.5
				c0.1-0.6,0.2-1.1,0.2-1.5c0.6-3.6,1.9-4.8,2.8-5.7c0.1-0.1,0.1-0.1,0.2-0.2c0.2-0.8,0.3-3.9,0.3-6.6c0.1-6,0.3-13.4,1.6-16.6
				c1.2-3,1.7-10.7,2.1-17.6c0.3-4.5,0.6-8.7,1-11.7c1.1-7.8,1.7-12.7,1.7-12.7l0.1-0.9l0.9,0c0.1,0,5.7-0.2,14.4-0.8
				c12.6-0.8,20.1-4.7,28.9-9.2c3.5-1.8,7.2-3.7,11.4-5.5C151,105.7,162.6,104.3,171.8,104.3z M242.6,207.3L242.6,207.3L242.6,207.3
				z M236.2,197L236.2,197L236.2,197z"/>
		</g>
	</g>
</g>
</svg>
