<?xml version="1.0" encoding="utf-8"?>
<!-- Generator: Adobe Illustrator 23.0.1, SVG Export Plug-In . SVG Version: 6.00 Build 0)  -->
<svg id="Ebene_1" style="enable-background:new 0 0 287 284;" version="1.1" viewBox="0 0 287 284" x="0px"
     xml:space="preserve" xmlns="http://www.w3.org/2000/svg" y="0px">
<style type="text/css">
	.st0 {
    fill: #24B5BC;
  }
</style>
  <title>ideal</title>
  <g>
	<g id="Ebene_1-2">
		<g>
			<path class="st0" d="M233.2,210.4c-2,0-3.7-0.1-4.3-0.2c-1-0.2-2.2-1.6-2.5-2.8c-0.2-1,0.1-1.8,0.9-2.4c3.8-2.7,8.4-6.7,8.9-7.8
				c0-0.3-0.1-0.8-0.1-1.8c-0.1-4.5-0.4-16.5-5.3-23.8c-4.1-6.2-18.1-19.8-24.9-26.4c-1.4-1.3-2.5-2.4-3.1-3
				c-6.8-6.8-10.8-15.9-13.5-21.9c-1.4-3.1-2.5-5.7-3.4-6.5c-0.9-0.8-7.2-2.1-18-2.4c-10.6-0.3-19.7,0.5-24.5,2.2
				c-4.5,1.7-8.4,3.4-12.1,5.1c-8.3,3.8-16.1,7.4-28.8,8.2c-4.2,0.3-8.5,0.4-12.8,0.1c-0.2,1.8-0.8,6-1.6,11.8
				c-0.4,2.6-0.7,6.1-1.1,9.8c-0.7,7.7-1.6,16.4-3,19.9c-1.1,2.9-1.3,10.4-1.4,16c-0.1,6-0.2,7.3-0.8,7.9c-0.1,0.1-0.2,0.2-0.4,0.3
				c-0.8,0.7-1.7,1.6-2.2,4.5c-0.1,0.5-0.1,1-0.2,1.6c-0.9,6.3-1.8,11.2-4.5,11.2H60.4c-1.2,0-1.8-1.7-2-2.7c-0.5-2-0.1-3.5,1-4.1
				c3.6-1.8,8.7-6.1,9-7.2c0.3-2,2-14.9,1.4-19.3c-0.3-2.5-0.1-7.8,0.2-13c0.2-4.6,0.5-9.3,0.2-11.4c-0.3-2.4-2.5-23.9-3.9-28.1
				c-0.3-1-1.2-2.7-2.2-4.9c-3.1-6.3-8.3-17-9.8-27c-0.6-4.1-1-6.9-1.2-8.9c-0.4-3.4-0.6-4.5-1.2-6c-1.3-2.8-3.9-14.3-4.3-22.5
				c-0.2-5.2-1.7-14.4-9.5-16.5c-3.2-0.9-7.3-1.8-10.8-2.6c-4.4-1-8.2-1.8-9.7-2.5C14.6,31.9,6.1,21.8,6.6,16.6
				c0.3-3.2,4.6-3.4,7.4-3.6l0.7,0c6.6-0.4,16.9-2.7,18.1-3.8c0.9-0.9,1.4-1.7,1.9-2.5c2-3.2,3.8-5.3,16.5-6.5
				c10.7-1.1,19.5,3.1,22,10.5c1.3,3.6,2.8,6.2,4.5,9c1.4,2.4,2.9,4.9,4.1,8c0.8,2,1.3,3.8,1.8,5.6c1.1,4.1,2,7.4,5.6,10
				c5.2,3.9,22,13.5,30.6,13.2c22.3-0.6,60,1.7,66.2,2.9c10,1.8,15.5,3.2,19.1,4.2c4,1,5.6,1.5,8.4,1.2c5-0.5,32.1-5.8,43.6-11.8
				c5.4-2.8,11.2-6.6,16.4-10c6.7-4.4,10.3-6.7,12.1-6.8c0.5,0,1,0.3,1.2,0.8c0.8,2.8-20.3,21.7-27,25.1c-10.3,5.3-25.4,9.5-34.5,12
				c-3,0.9-6,1.7-7.1,2.1c0.2,0.3,0.6,0.7,0.9,1.1c1.7,2.1,4.5,5.6,5,11.1c0.1,1.4,0.2,4.3,0.4,7.9c0.2,7.2,0.6,17,1.5,24.1
				c1.4,10.3,5.5,23.8,8.6,29.9c2.7,5.3,5.8,7.9,8.4,9.9c2.4,1.9,4.2,3.4,4.2,6.1c0,0.8,0,2.2,0,4.1c0,8.3-0.1,27.8,0.3,30.6
				c0.2,1.1-0.9,3.6-3.3,7.5C243.4,209.9,237.5,210.4,233.2,210.4z M163.9,109.2c10.8,0,21.5,1.3,23.5,3c1.2,1.1,2.3,3.6,3.9,7.2
				c2.8,6.3,6.5,14.8,13,21.3c0.6,0.6,1.7,1.6,3,3c6.8,6.6,21,20.3,25.2,26.7c5.2,7.8,5.5,20.2,5.6,24.9c0,0.7,0,1.5,0.1,1.6
				c0.5,1.9-5.9,6.9-9.7,9.7c-0.1,0.1-0.1,0.1-0.1,0.3c0.1,0.6,0.7,1.3,1,1.4c2.5,0.5,12,0,13.3-0.9c1.9-3.3,3-5.6,3-6.2
				c-0.4-2.6-0.4-16.4-0.3-30.9c0-1.8,0-3.3,0-4.1c0-1.7-1.1-2.7-3.5-4.6c-2.6-2.1-6-4.9-8.9-10.6c-3.1-6.3-7.4-20-8.8-30.5
				c-0.9-7.2-1.3-17.1-1.5-24.3c-0.1-3.6-0.2-6.4-0.3-7.8c-0.5-4.9-3-8-4.6-10c-1.1-1.4-2-2.5-1.2-3.5c0.5-0.6,1.7-1,8.5-2.9
				c9-2.5,24-6.7,34.1-11.9c6.8-3.5,19.6-15.8,24.2-21c-2.2,1.2-5.4,3.3-8.5,5.4c-5.2,3.4-11.1,7.3-16.6,10.1
				c-11.7,6.1-39.2,11.5-44.4,12c-3.1,0.3-5.1-0.2-9.1-1.2c-3.6-1-9.1-2.4-19-4.2c-6-1.1-44.1-3.4-65.8-2.8
				c-9.3,0.3-26.3-9.5-31.9-13.6c-4.1-3-5.2-6.9-6.3-11.1c-0.5-1.7-1-3.5-1.7-5.4c-1.2-3-2.5-5.3-4-7.7c-1.6-2.7-3.3-5.5-4.7-9.3
				C69.2,4.9,61,1.1,51.5,2.1l0,0c-12.4,1.2-13.5,3.2-15,5.6c-0.5,0.9-1.1,1.9-2.2,2.9c-2,1.9-14.1,4-19.4,4.3l-0.8,0
				c-2.1,0.1-5.3,0.2-5.5,1.7c-0.4,4.2,7.3,13.5,9.7,14.6c1.3,0.6,5.2,1.4,9.3,2.3c3.6,0.8,7.7,1.7,10.9,2.6
				c6.6,1.8,10.6,8.6,11,18.4c0.3,8.5,3,19.5,4.1,21.8c0.8,1.7,0.9,3,1.4,6.5c0.3,2,0.6,4.8,1.2,8.9c1.5,9.7,6.6,20.2,9.6,26.4
				c1.1,2.2,2,4,2.3,5.1c1.5,4.3,3.6,24.5,4.1,28.5c0.2,2.2,0,6.9-0.2,11.7c-0.2,5.1-0.5,10.3-0.2,12.6c0.6,4.8-1.2,18.5-1.4,19.9
				c-0.4,2.3-7.2,7.2-10,8.7c-0.3,0.4,0,2.3,0.4,3h13.9c0.8-0.2,1.6-3.4,2.5-9.5c0.1-0.6,0.2-1.1,0.2-1.6c0.6-3.6,1.9-4.8,2.8-5.7
				c0.1-0.1,0.1-0.1,0.2-0.2c0.2-0.8,0.3-3.9,0.3-6.6c0.1-6,0.3-13.4,1.6-16.6c1.3-3.3,2.1-11.8,2.9-19.4c0.4-3.7,0.7-7.3,1.1-9.9
				c1.1-7.8,1.7-12.7,1.7-12.7l0.1-1l1,0.1c4.5,0.4,9,0.4,13.5,0c12.3-0.8,19.6-4.1,28.1-8c3.8-1.7,7.7-3.5,12.3-5.2
				C147.6,109.9,155.8,109.2,163.9,109.2z M242.6,207.3L242.6,207.3L242.6,207.3z M236.3,197L236.3,197L236.3,197z"/>
		</g>
    <g>
			<path class="st0" d="M133.2,284c-9.3,0-18.5-1.2-27.5-3.5c-0.4-0.1-2,0.4-3.2,0.8c-3.4,1.1-8.6,2.9-13.8,1.6
				c-7.3-1.7-10.8-3.7-13.6-5.2c-1.6-0.9-2.9-1.6-4.7-2.2c-1.7-0.5-3.1-1.1-4.4-1.7c-2.5-1.1-4.3-1.9-6.7-1.5l-1.2,2.4
				c-2.8,5.7-5.5,8.5-8.1,8.2c-4.1-0.5-11.5-3.9-13-5.3c-0.4-0.4-0.8-0.9-1.2-1.4c-0.7-1-1.5-2-2.8-2.4c-2.1-0.7-9.5-3.9-11.6-6.3
				c-0.8-0.9-5.8-1.8-9.5-2.5c-4.1-0.7-7.9-1.4-9.9-2.4C0,261.7,0,259.1,0,257v-0.6c0-2.1,0-4.7,2.1-5.8c2-1,5.8-1.7,9.9-2.4
				c3.7-0.7,8.7-1.6,9.5-2.5c2.2-2.4,9.7-5.6,11.6-6.3c1.3-0.4,2-1.4,2.7-2.3c0.4-0.5,0.8-1,1.3-1.5c1.4-1.3,8.6-4.8,13-5.3
				c2.5-0.3,5.2,2.4,8.1,8.2l1.2,2.4c2.5,0.4,4.3-0.4,6.7-1.5c1.3-0.6,2.7-1.2,4.4-1.7c1.8-0.5,3.1-1.3,4.7-2.2
				c2.8-1.5,6.3-3.5,13.5-5.2c5.2-1.2,10.4,0.5,13.8,1.6c1.3,0.4,2.8,0.9,3.2,0.8c12.3-3.2,25-4.2,37.7-3
				c11.6,1.2,21.9,3.2,29.5,4.7c4.8,0.9,8.6,1.6,10.9,1.8c2,0.2,5.3-0.5,9.2-1.2c7.6-1.4,17-3.1,24-0.8c9.8,3.3,18.1,13.7,19.7,15.8
				c1.6,0.2,7.8,1.1,13.4,1.9c1.6,0.2,4.4,0.5,7.7,0.9c26.1,3,27.2,3.8,27.2,5.3c0,1.4,0,2.5-33.2,4.3l-2.2,0.1
				c-5.6,0.3-11.3,0.5-13,0.6c-1.7,2.2-10,12.5-19.6,15.8c-7,2.3-16.4,0.6-23.9-0.8c-3.9-0.7-7.3-1.3-9.3-1.2
				c-2.3,0.2-6,0.9-10.7,1.8c-7.6,1.5-17.9,3.4-29.6,4.7C140,283.9,136.6,284,133.2,284z M105.6,278.5c0.2,0,0.4,0,0.6,0.1
				c12.1,3.1,24.6,4.1,37,3c11.6-1.2,21.9-3.2,29.4-4.6c4.8-0.9,8.6-1.6,10.9-1.8c2.2-0.2,5.8,0.5,9.8,1.2c7.3,1.3,16.4,3,23,0.8
				c10-3.4,18.9-15.3,18.9-15.4l0.3-0.4l0.5,0c0.1,0,6.9-0.2,13.4-0.6l2.2-0.1c15.5-0.8,25.4-1.6,29.5-2.3
				c-4.9-1.1-17.2-2.5-23.6-3.2c-3.3-0.4-6.2-0.7-7.7-0.9c-6.5-0.9-13.8-1.9-13.8-1.9l-0.4-0.1l-0.3-0.3
				c-0.1-0.1-8.9-12.1-18.9-15.4c-6.6-2.2-15.7-0.5-23,0.8c-4,0.7-7.5,1.4-9.7,1.2c-2.4-0.2-6.2-0.9-11.1-1.9
				c-7.5-1.4-17.8-3.4-29.3-4.6c-12.4-1.2-24.9-0.2-37,3c-1,0.2-2.3-0.2-4.3-0.9c-3.4-1.1-8.1-2.7-12.7-1.6c-7,1.7-10.4,3.5-13,5
				c-1.7,0.9-3.1,1.7-5.1,2.3c-1.6,0.5-2.9,1-4.2,1.6c-2.7,1.2-5.1,2.2-8.4,1.5l-0.5-0.1l-1.6-3.3c-2.7-5.4-4.9-7.2-6-7.1
				c-3.9,0.5-10.7,3.8-11.8,4.8c-0.4,0.3-0.7,0.8-1,1.2c-0.8,1.1-1.8,2.3-3.6,3c-2.4,0.8-9.1,3.9-10.7,5.7c-1.2,1.3-4.8,2-10.6,3.1
				c-3.8,0.7-7.6,1.4-9.4,2.3c-1,0.5-1,1.9-1,4v0.6c0,2.1,0.1,3.5,1,3.9c1.8,0.9,5.6,1.6,9.4,2.3c5.8,1.1,9.5,1.8,10.6,3.1
				c1.6,1.9,8.3,4.9,10.7,5.7c1.9,0.6,2.9,2,3.7,3.1c0.3,0.4,0.6,0.9,1,1.2c1.1,1.1,8.1,4.3,11.8,4.8c1.2,0.2,3.3-1.6,6-7.1l1.6-3.3
				l0.5-0.1c3.4-0.7,5.7,0.3,8.4,1.5c1.3,0.6,2.6,1.1,4.1,1.6c2,0.6,3.4,1.4,5.1,2.3c2.7,1.5,6,3.3,13.1,5c4.7,1.1,9.3-0.4,12.7-1.6
				C103.5,278.9,104.7,278.5,105.6,278.5z"/>
		</g>
	</g>
</g>
</svg>
