<?xml version="1.0" encoding="utf-8"?>
<!-- Generator: Adobe Illustrator 23.0.1, SVG Export Plug-In . SVG Version: 6.00 Build 0)  -->
<svg id="Ebene_1" style="enable-background:new 0 0 287 285.7;" version="1.1" viewBox="0 0 287 285.7" x="0px"
     xml:space="preserve" xmlns="http://www.w3.org/2000/svg" y="0px">
<style type="text/css">
	.st0 {
    fill: #24B5BC;
  }
</style>
  <title>obese</title>
  <g>
	<g id="Ebene_1-2">
		<g>
			<path class="st0" d="M233.1,210.3c-2,0-3.6-0.1-4.2-0.2c-1-0.2-2.2-1.6-2.5-2.8c-0.2-1,0.1-1.9,0.9-2.4c3.7-2.7,8.4-6.7,8.9-7.8
				c0-0.3-0.1-0.8-0.1-1.8c-0.1-4.5-0.4-16.5-5.3-23.8c-3.5-5.3-15.1-15.3-22.8-21.9c-3.1-2.7-5.6-4.8-6.7-5.9
				c-6.8-6.9-12.2-14.9-15.9-23.9c-0.8-2.1-17.1,1-25.8,2.6c-5.7,1.1-11.6,2.2-16.3,2.8c-4.6,0.6-8.3,1.1-12,1.6
				c-8.9,1.3-15.9,2.3-28.7,3.1c-6,0.4-9.2,0.2-10.6,0.1c-0.3,1.1-0.7,3.6-1.5,8.7c-0.3,2-0.6,4.4-0.9,7.1c-1,8.3-2.3,18.6-3.9,22.6
				c-1.1,2.8-1.8,10.2-2.4,15.5c-0.7,6.7-0.9,7.8-1.4,8.3c-0.1,0.1-0.2,0.2-0.4,0.4c-0.8,0.7-1.7,1.6-2.2,4.5
				c-0.1,0.4-0.1,0.9-0.2,1.5c-0.9,6.4-1.8,11.3-4.5,11.3H60.4c-1.2,0-1.8-1.7-2-2.7c-0.5-2-0.1-3.5,1-4.1c3.6-1.8,8.7-6.1,9-7.2
				c0.3-2,2-14.9,1.4-19.3c-0.3-2.5-0.1-7.8,0.2-13c0.2-4.6,0.5-9.3,0.2-11.4c-0.5-5.2-3.4-23.4-4.7-27.3c-0.4-1-1.4-2.9-2.8-5.3
				c-3.7-6.7-9.4-16.7-10.8-26.6c-0.6-4.1-1-6.8-1.2-8.9c-0.4-3.4-0.6-4.5-1.2-6c-1.3-2.8-3.9-14.3-4.2-22.5
				c-0.3-8.1-0.8-13.2-7.2-15c-6.9-2.1-13.8-4.5-20.5-7.3C14.6,32,6.1,21.9,6.6,16.6c0.3-3.2,4.6-3.4,7.4-3.5l0.7,0
				c6.6-0.4,16.9-2.7,18.1-3.8c0.9-0.9,1.4-1.7,1.9-2.5c2-3.2,3.8-5.3,16.5-6.5l0,0C61.9-0.9,72.3,4,74.9,11.4
				c1.3,3.7,2.7,6.4,4.2,9.2c1.2,2.3,2.5,4.7,3.7,7.8c2.6,6.6,3.9,9.5,8.9,13.2c1.9,1.4,18.6,13.5,28.3,13.2
				c21.6-0.6,55.9-0.5,66.1,0.5c13,1.3,18.4,3.5,22,4.9c2.3,0.9,3.6,1.4,5.6,1.2l1.3-0.1c7.9-0.8,31.8-3.1,42.3-8.6
				c5.3-2.8,11.1-6.6,16.2-9.9c6.8-4.5,10.5-6.8,12.3-6.9c0.5,0,1,0.3,1.2,0.8c0.8,2.8-20.3,21.7-27,25.1c-9.7,5-21.1,9-28.7,11.6
				c-3.2,1.1-6.3,2.2-7,2.6c0,0.4,0.3,1.6,0.6,2.8c0.5,2,1.3,5.1,1.8,9.3c0.2,1.5-0.1,4.7-0.3,8.6c-0.5,7-1.1,16.5-0.2,23.3
				c1.4,10.3,5.5,23.8,8.6,29.9c2.7,5.3,5.8,7.9,8.4,9.9c2.3,1.9,4.2,3.4,4.2,6.1c0,0.8,0,2.2,0,4.1c0,8.3-0.1,27.8,0.3,30.6
				c0.2,1.1-0.9,3.6-3.3,7.5C243.4,209.9,237.4,210.3,233.1,210.3z M182,117c3,0,4.7,0.6,5.2,1.9c3.7,8.7,8.9,16.5,15.5,23.2
				c1,1,3.5,3.1,6.6,5.8c7.8,6.7,19.6,16.8,23.2,22.4c5.2,7.8,5.5,20.2,5.6,24.9c0,0.7,0,1.5,0.1,1.6c0.5,1.9-5.9,6.9-9.7,9.7
				c-0.1,0.1-0.1,0.1-0.1,0.3c0.1,0.6,0.7,1.3,1,1.4c2.5,0.5,12,0,13.3-0.9c1.9-3.3,3-5.6,3-6.2c-0.4-2.6-0.4-16.4-0.3-30.9
				c0-1.8,0-3.3,0-4.1c0-1.7-1.1-2.7-3.5-4.6c-2.5-2-6-4.9-8.9-10.6c-3.1-6.3-7.4-20-8.8-30.5c-0.9-7-0.3-16.7,0.2-23.7
				c0.2-3.7,0.5-7,0.3-8.3c-0.4-4.1-1.2-6.9-1.7-9c-0.6-2.3-0.9-3.6-0.2-4.5c0.5-0.6,1.7-1.1,8-3.3c7.5-2.6,18.8-6.6,28.4-11.5
				c6.8-3.5,19.6-15.9,24.3-21.1c-2.3,1.3-5.5,3.4-8.7,5.5c-5.1,3.3-10.9,7.1-16.4,10c-10.8,5.7-35.1,8-43,8.8l-1.3,0.1
				c-2.5,0.2-4.2-0.4-6.5-1.4c-3.5-1.4-8.8-3.5-21.5-4.8c-10.2-1-44.3-1.1-65.9-0.5c-0.1,0-0.3,0-0.4,0c-10.1,0-26-11.3-29.1-13.6
				c-5.7-4.2-7.1-7.7-9.6-14.1c-1.1-2.9-2.4-5.3-3.6-7.6c-1.4-2.8-2.9-5.6-4.3-9.5c-2.3-6.4-12-10.9-21.6-9.9
				c-12.4,1.2-13.6,3.2-15,5.6c-0.5,0.9-1.1,1.9-2.2,2.9c-2,2-14.1,4-19.4,4.3l-0.8,0c-2.1,0.1-5.3,0.2-5.5,1.7
				c-0.4,4.3,7.5,13.7,9.7,14.7c6.6,2.8,13.4,5.2,20.2,7.3c8,2.3,8.3,9.3,8.6,16.8c0.3,8.5,3,19.5,4.1,21.8c0.8,1.7,0.9,3.1,1.4,6.6
				c0.3,2,0.6,4.8,1.2,8.8c1.4,9.5,7,19.3,10.6,25.9c1.4,2.6,2.5,4.5,2.9,5.6c1.4,4.1,4.3,22.3,4.9,27.7c0.2,2.2,0,6.9-0.2,11.7
				c-0.2,5.1-0.5,10.3-0.2,12.6c0.6,4.8-1.2,18.5-1.4,19.9c-0.4,2.3-7.2,7.2-10,8.7c-0.3,0.4,0,2.3,0.4,3h13.9
				c0.8-0.2,1.7-3.5,2.5-9.6c0.1-0.5,0.2-1.1,0.2-1.5c0.6-3.6,1.9-4.8,2.8-5.6c0.1-0.1,0.2-0.1,0.2-0.2c0.3-0.8,0.6-4.2,0.9-7.2
				c0.6-5.8,1.3-12.9,2.5-16c1.5-3.7,2.7-13.9,3.8-22.1c0.3-2.7,0.6-5.2,0.9-7.2c1.1-7.9,1.7-9.8,1.8-9.8l0.3-0.9l0.9,0.2
				c0,0,2.6,0.5,11,0c12.7-0.8,19.7-1.8,28.6-3.1c3.6-0.5,7.4-1.1,12-1.6c4.6-0.6,10.5-1.7,16.1-2.8C170.2,118.3,177.5,117,182,117z
				 M242.6,207.3L242.6,207.3L242.6,207.3z M236.3,197L236.3,197L236.3,197z M285.9,38C285.9,38,285.9,38,285.9,38
				C285.9,38,285.9,38,285.9,38z"/>
		</g>
    <g>
			<path class="st0" d="M129.7,285.8c-8,0-16-0.7-23.9-2.2c-0.6-0.1-2-0.1-3.6,0c-3.4,0.2-8.5,0.5-13.6-0.7
				c-7.6-1.8-11-3.1-13.9-4.2c-1.5-0.6-2.7-1.1-4.4-1.5c-1.7-0.5-3.1-1.1-4.4-1.7c-2.4-1.1-4.4-1.9-6.9-1.4l-1.1,1
				c-2.8,5.6-5.5,8.3-8,8c-4.1-0.5-11.5-3.9-13-5.3c-0.4-0.4-0.8-0.9-1.2-1.4c-0.7-1-1.4-2-2.8-2.4c-2.1-0.7-9.5-3.8-11.6-6.2
				c-0.8-0.9-5.8-1.8-9.4-2.5c-4.1-0.8-8-1.5-10-2.5C0,261.6,0,259.2,0,257v-0.6c0-2.1,0-4.7,2.1-5.8c2-1,5.8-1.7,9.9-2.4
				c3.7-0.7,8.7-1.6,9.5-2.5c2.1-2.4,9.6-5.6,11.6-6.3c1.3-0.4,2-1.4,2.7-2.3c0.4-0.5,0.8-1,1.3-1.5c1.4-1.3,8.6-4.8,13-5.3
				c2.5-0.3,5.2,2.4,8,8l1.1,1c2.6,0.5,4.4-0.3,6.9-1.4c1.3-0.6,2.7-1.2,4.4-1.7c1.6-0.5,2.9-1,4.4-1.6c2.9-1.1,6.3-2.4,13.9-4.2
				c5.1-1.2,10.2-0.9,13.5-0.7c1.6,0.1,3,0.2,3.5,0c12.5-2.3,25.2-2.8,37.7-1.5c12.4,1.3,23.1,0.8,31,0.4c4-0.2,7.2-0.4,9.4-0.2
				c8.7,0.7,24.8,2.4,34.7,5c13.8,3.8,17.6,13.4,18.4,15.9c1.8,0.4,7.8,1.8,13.2,2.5c1.4,0.2,3.9,0.5,6.8,0.8c27,3.1,28,3.8,28,5.4
				c0,1.4,0,2.5-33.2,4.3l-2.1,0.1c-5.3,0.3-10.7,1-12.6,1.2c-0.6,2.8-3.6,12.2-18.5,16.6c-8.8,2.6-22.3,3.5-30.4,4
				c-1.8,0.1-3.2,0.2-4.3,0.3c-2.1,0.2-5.3,0-9.4-0.2c-7.9-0.4-18.6-0.9-31,0.4C138.9,285.5,134.3,285.8,129.7,285.8z M104.8,281.5
				c0.6,0,1.1,0,1.4,0.1c12.2,2.2,24.6,2.7,37,1.4c12.5-1.3,23.4-0.8,31.3-0.4c4,0.2,7.1,0.3,9.1,0.2c1.1-0.1,2.6-0.2,4.4-0.3
				c8-0.5,21.4-1.3,29.9-3.9c15.9-4.8,17.1-15.3,17.2-15.7l0.1-0.8l0.8-0.1c0.1,0,6.9-1,13.5-1.4l2.1-0.1
				c15.5-0.8,25.4-1.6,29.5-2.3c-5-1.1-17.8-2.6-24.5-3.4c-2.9-0.3-5.4-0.6-6.9-0.8c-6.5-0.9-13.9-2.7-13.9-2.7l-0.6-0.1l-0.1-0.6
				c-0.1-0.4-2.7-11.1-17.2-15c-9.7-2.6-25.7-4.2-34.3-5c-2-0.2-5.1,0-9.1,0.2c-7.9,0.4-18.8,0.9-31.3-0.4
				c-12.4-1.3-24.9-0.8-37.1,1.4c-0.8,0.2-2.2,0.1-4.1,0c-3.3-0.2-8.2-0.5-13,0.7c-7.5,1.8-10.7,3-13.6,4.2
				c-1.4,0.6-2.8,1.1-4.5,1.6c-1.6,0.5-2.9,1-4.2,1.6c-2.7,1.2-5.1,2.2-8.4,1.5l-0.3-0.1l-1.7-1.6l-0.1-0.2c-2.7-5.4-4.9-7.2-6-7.1
				c-3.9,0.5-10.7,3.8-11.8,4.8c-0.4,0.3-0.7,0.8-1,1.2c-0.8,1.1-1.8,2.3-3.6,3c-2.5,0.9-9.1,3.9-10.7,5.7
				c-1.2,1.3-4.8,2.1-10.7,3.1c-3.7,0.7-7.6,1.4-9.3,2.3c-1,0.5-1,1.9-1,4v0.6c0,2.1,0.1,3.4,1,3.9c1.7,0.9,5.6,1.6,9.4,2.3
				c5.8,1.1,9.4,1.8,10.6,3.1c1.6,1.8,8.3,4.9,10.7,5.7c1.9,0.6,2.9,2,3.7,3.1c0.3,0.4,0.6,0.9,1,1.2c1.1,1.1,8.1,4.3,11.8,4.8
				c1.5,0.2,3.7-2.5,6-7.1l0.1-0.2l1.8-1.6l0.3-0.1c3.3-0.7,5.7,0.3,8.4,1.5c1.3,0.6,2.6,1.1,4.2,1.6c1.7,0.5,3.1,1,4.5,1.6
				c2.9,1.1,6.1,2.4,13.6,4.2c4.8,1.1,9.7,0.9,13,0.7C103.2,281.6,104.1,281.5,104.8,281.5z"/>
		</g>
	</g>
</g>
</svg>
