<svg xmlns="http://www.w3.org/2000/svg" width="25" height="25" viewBox="0 0 25 25">
  <g id="Gruppe_20897" data-name="Gruppe 20897" transform="translate(-36 -843)">
    <g id="Ellipse_2456" data-name="Ellipse 2456" transform="translate(36 843)" fill="none" stroke="#ffbc00" stroke-width="1.5">
      <circle cx="12.5" cy="12.5" r="12.5" stroke="none"/>
      <circle cx="12.5" cy="12.5" r="11.75" fill="none"/>
    </g>
    <path id="Pfad_20697" data-name="Pfad 20697" d="M2.87-900.017l-.023-.023a1.419,1.419,0,0,0-.377-1.325,1.422,1.422,0,0,0-2.012,0,1.423,1.423,0,0,0,0,2.011,1.361,1.361,0,0,0,.177.144l-3.624,3.624a1.419,1.419,0,0,0-.145-.177,1.423,1.423,0,0,0-2.011,0,1.423,1.423,0,0,0,0,2.012,1.418,1.418,0,0,0,1.357.367,1.417,1.417,0,0,0,.367,1.357,1.423,1.423,0,0,0,2.012,0,1.423,1.423,0,0,0,0-2.011,1.419,1.419,0,0,0-.177-.145l3.624-3.624a1.469,1.469,0,0,0,.145.177,1.423,1.423,0,0,0,2.011,0,1.423,1.423,0,0,0,0-2.012A1.417,1.417,0,0,0,2.87-900.017Z" transform="translate(48.561 1752.297)" fill="#ffbc00"/>
  </g>
</svg>
