<?xml version="1.0" encoding="utf-8"?>
<!-- Generator: Adobe Illustrator 24.3.0, SVG Export Plug-In . SVG Version: 6.00 Build 0)  -->
<svg version="1.1" id="Ebene_1" xmlns="http://www.w3.org/2000/svg" xmlns:xlink="http://www.w3.org/1999/xlink" x="0px" y="0px"
	 viewBox="0 0 25 25" style="enable-background:new 0 0 25 25;" xml:space="preserve">
<style type="text/css">
	.st0{fill:none;}
	.st1{fill:#FFBC00;}
</style>
<g id="Gruppe_21006" transform="translate(-36 -1133)">
	<g id="Ellipse_2456" transform="translate(36 1133)">
		<g>
			<circle class="st0" cx="12.5" cy="12.5" r="12.5"/>
		</g>
		<g>
			<path class="st1" d="M12.5,25C5.6,25,0,19.4,0,12.5S5.6,0,12.5,0S25,5.6,25,12.5S19.4,25,12.5,25z M12.5,1.5c-6.1,0-11,4.9-11,11
				s4.9,11,11,11s11-4.9,11-11S18.6,1.5,12.5,1.5z"/>
		</g>
	</g>
	<path class="st1" d="M54.3,1147.9l-3.2-0.5c0,0,0,0,0-0.1l-0.4-0.4l1.1-1.1c0.2-0.2,0.2-0.5,0-0.7s-0.5-0.2-0.7,0l-1.1,1.1
		l-0.6-0.6l1.5-1.5c0.2-0.2,0.2-0.5,0-0.7s-0.5-0.2-0.7,0l-1.5,1.5l-0.6-0.6l1.7-1.7c0.2-0.2,0.2-0.5,0-0.7s-0.5-0.2-0.7,0l-1.7,1.7
		l-0.7-0.7l1.6-1.6c-1.6-1.6-4.8-0.9-4.8-0.9s-0.8,3.1,0.9,4.8l1.6-1.6l0.7,0.7l-1.7,1.7c-0.2,0.2-0.2,0.5,0,0.7
		c0.1,0.1,0.2,0.1,0.4,0.1s0.3,0,0.4-0.1l1.7-1.7l0.6,0.6l-1.5,1.5c-0.2,0.2-0.2,0.5,0,0.7c0.1,0.1,0.2,0.1,0.4,0.1s0.3,0,0.4-0.1
		l1.5-1.5l0.6,0.6l-1.1,1.1c-0.2,0.2-0.2,0.5,0,0.7c0.1,0.1,0.2,0.1,0.4,0.1s0.3,0,0.4-0.1l1.1-1.1l0.4,0.4c0,0,0,0,0.1,0l0.5,3.2
		L54.3,1147.9z M45.2,1142.1C45.2,1142.1,45.2,1142.1,45.2,1142.1L45.2,1142.1c-0.2-0.2-0.2-0.5,0-0.7c0.2-0.2,0.5-0.2,0.6,0
		c0.2,0.2,0.2,0.5,0,0.6C45.7,1142.2,45.4,1142.2,45.2,1142.1z"/>
</g>
</svg>
