<?xml version="1.0" encoding="utf-8"?>
<!-- Generator: Adobe Illustrator 24.3.0, SVG Export Plug-In . SVG Version: 6.00 Build 0)  -->
<svg version="1.1" id="Ebene_1" xmlns="http://www.w3.org/2000/svg" xmlns:xlink="http://www.w3.org/1999/xlink" x="0px" y="0px"
	 viewBox="0 0 112.1 61.7" style="enable-background:new 0 0 112.1 61.7;" xml:space="preserve">
<style type="text/css">
	.st0{fill:#7C7C7C;}
</style>
<g>
	<path class="st0" d="M21.5,18.8h18c0.6,0,1-0.4,1-1s-0.4-1-1-1h-18c-0.6,0-1,0.4-1,1S21,18.8,21.5,18.8z"/>
	<path class="st0" d="M32.2,12.3h18c0.6,0,1-0.4,1-1s-0.4-1-1-1h-18c-0.6,0-1,0.4-1,1S31.6,12.3,32.2,12.3z"/>
	<path class="st0" d="M106.6,27.1c-1.1-0.8-1.8-1.3-2.5-1.9c-0.3-0.2-0.6-0.5-1-0.7c-0.2-0.3-0.5-1.5-0.7-2.4
		c-0.5-2.1-1-4.4-2.1-5.5c-3.6-3.6-7.2-4.8-10.1-5.1l-2.8-6.6c-0.1-0.3-0.4-0.5-0.8-0.6c-0.3-0.1-0.7,0.1-0.9,0.3l-4.1,4.5l-5.8-4.5
		c-0.2-0.2-0.5-0.3-0.8-0.2c-0.3,0.1-0.5,0.3-0.7,0.5c-0.1,0.3-2.9,6.2-1.8,12.7c-0.1,0-0.1,0-0.2,0c-4.2,1.8-10.2,6.1-15,9.4
		c-2.1,1.5-3.9,2.8-5.1,3.5c-2.6,1.6-9.2,5.5-14.4,6c-0.5,0.1-0.9,0.6-0.9,1.1c0.1,0.5,0.5,0.9,1,0.9c0,0,0.1,0,0.1,0
		c5.4-0.6,11.8-4.2,15.2-6.3c1.3-0.8,3.1-2.1,5.2-3.6c0,0,0.1-0.1,0.1-0.1c3.1,10.1,18.7,22.6,20.4,23.9c-1.5,2.4-3.2,4.7-5.6,6.8
		c-0.4,0.4-0.5,1-0.1,1.4c0.2,0.2,0.5,0.3,0.8,0.3c0.2,0,0.5-0.1,0.7-0.2c3.3-2.9,5.4-6.3,7.3-9.3c2-3.3,3.8-6.1,6.6-7.8
		c0.8,0.2,1.6,0.6,2.4,1c1.6,0.8,3.4,1.6,5.2,1c3.4-1.2,3.6-2.9,3.6-3.3c0-0.3-0.1-0.6-0.4-0.8c-1.3-1.1-2.4-2.5-3.2-4
		c0.7,0,1.7,0.2,2.5,0.3c0.2,0,0.5,0.1,0.7,0.1l0.3,1.6l0.9-1.5c0.5,0.1,1,0.1,1.4,0c1.8-0.2,3.4-1.4,4-3.1c0.8-1.5,1.4-3,1.8-4.6
		C108.1,29.2,107.6,27.8,106.6,27.1z M86.1,7.1l1.9,4.3c-1.3,0.1-2.3,0.3-2.9,0.4l-1.9-1.5L86.1,7.1z M80.2,50.6
		c-0.1,0.1-0.2,0.3-0.3,0.4c-2.2-1.8-17.5-14.2-19.7-23.4c1.2-0.8,2.4-1.7,3.6-2.5c3.2,9.8,16.8,20.4,18.8,21.8
		C81.8,48,81,49.3,80.2,50.6z M104,34.2c0,0.1,0,0.1-0.1,0.2c-0.3,1-1.2,1.7-2.3,1.8c-0.6,0.1-1.7-0.1-2.7-0.3
		c-2.2-0.3-3.9-0.6-4.7,0.4c-0.2,0.3-0.5,0.9-0.1,1.8c0.8,1.7,1.9,3.2,3.3,4.5c-0.3,0.3-0.9,0.7-2.1,1.2c-1.1,0.4-2.3-0.2-3.7-0.9
		c-1.1-0.5-2.2-1.1-3.3-1.2c-0.2,0-0.5,0-0.6,0.1c-1.5,0.9-2.8,2.1-3.9,3.4C82.2,44,68.2,33.1,65.6,23.9c2.6-1.7,5.2-3.3,7.3-4.2
		c0.3,0.9,0.6,1.8,1,2.7c0.2,0.5,0.8,0.7,1.3,0.5c0.5-0.2,0.7-0.8,0.5-1.3c-2.8-5.6-1-11.8-0.1-14.4l8.7,6.7c0.3,0.2,0.6,0.3,1,0.1
		c0.1,0,7.1-2.6,13.7,4.1c0.7,0.7,1.2,2.9,1.6,4.5c0.5,2.1,0.7,3,1.3,3.5c0.3,0.2,0.7,0.5,1,0.8c0.5,0.4,1.1,0.9,1.9,1.4
		c-0.1,0-0.1,0-0.2,0c-1.7,0.1,0,2.4,0.7,3.2C104.9,32.4,104.5,33.3,104,34.2z"/>
	<path class="st0" d="M93.7,24.7c0,2,3.1,1.7,3.1,1.7s0.1-0.2,0.2-1.3c-0.1-0.9-0.5-1.7-1.1-2.3L93.7,24.7z"/>
	<path class="st0" d="M32.5,24.8H1c-0.6,0-1,0.4-1,1s0.4,1,1,1h31.5c0.6,0,1-0.4,1-1S33.1,24.8,32.5,24.8z"/>
</g>
</svg>
