<svg xmlns="http://www.w3.org/2000/svg" width="113.034" height="50.973" viewBox="0 0 113.034 50.973">
  <g id="Gruppe_13920" data-name="Gruppe 13920" transform="translate(-344.893 -386.244)">
    <g id="Gruppe_13919" data-name="Gruppe 13919" transform="translate(390.439 388.559)">
      <path id="Pfad_12950" data-name="Pfad 12950" d="M373.66,390.345a18.912,18.912,0,0,1,6.754-2.354c7.691-1.16,12.771,1.464,16,5.668,5.682.02,10.737.05,14.6.123,2.843.056,4.017.9,3.735,2.639-.324,1.995-2.583,8.982-6.511,10.394-8.017,2.882-15.41-.463-17.072,1.738-2.67,3.532,3.255,8.232,12.143,11.688,1.42.552-2.031,4.728-5.049,3.919a132.612,132.612,0,0,1-12.969-4.059l-15.652,14.857" transform="translate(-348.302 -387.715)" fill="none" stroke="#7c7c7c" stroke-linecap="round" stroke-linejoin="round" stroke-width="2"/>
      <path id="Pfad_12951" data-name="Pfad 12951" d="M391.132,393.388h0a7.989,7.989,0,0,0-9.8-4.527l-14.537,4.815a6.866,6.866,0,0,0-4.279,9.195h0c1.526,3.788,6.157,6.313,9.8,4.527,3.412-1.668,13.111-8.829,14.539-4.815" transform="translate(-361.989 -386.359)" fill="none" stroke="#7c7c7c" stroke-linecap="round" stroke-linejoin="round" stroke-width="2"/>
    </g>
    <circle id="Ellipse_2118" data-name="Ellipse 2118" cx="1.688" cy="1.688" r="1.688" transform="translate(429.746 395.547)" fill="#7c7c7c"/>
    <line id="Linie_3059" data-name="Linie 3059" x1="7.417" y2="2.222" transform="translate(384.445 408.355)" fill="none" stroke="#7c7c7c" stroke-linecap="round" stroke-linejoin="round" stroke-width="2"/>
    <line id="Linie_3060" data-name="Linie 3060" x2="21.632" y2="15.623" transform="translate(399.335 410.716)" fill="none" stroke="#7c7c7c" stroke-linecap="round" stroke-linejoin="round" stroke-width="2"/>
    <path id="Pfad_12952" data-name="Pfad 12952" d="M414.958,422.9l-29.714-21.46-39.152-9.005" transform="translate(0 9.281)" fill="none" stroke="#7c7c7c" stroke-linecap="round" stroke-linejoin="round" stroke-width="2"/>
    <line id="Linie_3061" data-name="Linie 3061" x2="17.996" transform="translate(367.61 393.755)" fill="none" stroke="#7c7c7c" stroke-linecap="round" stroke-linejoin="round" stroke-width="2"/>
    <line id="Linie_3062" data-name="Linie 3062" x2="17.996" transform="translate(378.264 387.244)" fill="none" stroke="#7c7c7c" stroke-linecap="round" stroke-linejoin="round" stroke-width="2"/>
    <path id="Pfad_12953" data-name="Pfad 12953" d="M381.561,395.6s-.413,3.649.232,4.162c.837.667,3-4.74,3-4.74Z" transform="translate(63.244 13.918)" fill="#7c7c7c"/>
    <path id="Pfad_12954" data-name="Pfad 12954" d="M388.014,390.377c-1.838.2-3.78.109-3.735,1.428.039,1.163,2.421,3.758,2.421,3.758S390.516,390.109,388.014,390.377Z" transform="translate(68.337 4.408)" fill="#7c7c7c"/>
  </g>
</svg>
