<svg xmlns="http://www.w3.org/2000/svg" width="14" height="14" viewBox="0 0 14 14">
  <g id="Gruppe_20975" data-name="Gruppe 20975" transform="translate(-283 -150)">
    <path id="Pfad_20721" data-name="Pfad 20721" d="M7,0A7,7,0,1,1,0,7,7,7,0,0,1,7,0Z" transform="translate(283 150)" fill="#00b7ff"/>
    <g id="Gruppe_20997" data-name="Gruppe 20997" transform="translate(286.376 153.849)">
      <path id="Pfad_21479" data-name="Pfad 21479" d="M-56.778,799.77a3.083,3.083,0,0,0-.459,1.623,3.1,3.1,0,0,0,3.095,3.095" transform="translate(57.754 -798.298)" fill="none" stroke="#fff" stroke-width="1"/>
      <path id="Pfad_21480" data-name="Pfad 21480" d="M-48.057,795.4a3.1,3.1,0,0,1,3.1,3.095,3.084,3.084,0,0,1-.4,1.526" transform="translate(51.669 -795.404)" fill="none" stroke="#fff" stroke-width="1"/>
      <path id="Pfad_21481" data-name="Pfad 21481" d="M-58.771,800.118l1.007-.523.184,1.163" transform="translate(58.771 -798.182)" fill="none" stroke="#fff" stroke-width="1"/>
      <path id="Pfad_21482" data-name="Pfad 21482" d="M-39.682,806.828l-.978.472-.144-1.118" transform="translate(46.862 -802.549)" fill="none" stroke="#fff" stroke-width="1"/>
    </g>
  </g>
</svg>
