<svg xmlns="http://www.w3.org/2000/svg" width="33" height="33" viewBox="0 0 33 33">
  <g id="Gruppe_20976" data-name="Gruppe 20976" transform="translate(-222 -150)">
    <circle id="Ellipse_2464" data-name="Ellipse 2464" cx="16.5" cy="16.5" r="16.5" transform="translate(222 150)" fill="#ffbc00"/>
    <g id="Gruppe_20972" data-name="Gruppe 20972" transform="translate(-285.854 702.49)">
      <path id="Pfad_20644" data-name="Pfad 20644" d="M525.47-534.375l-.009-.057c2.15-.88,4.345-5.145,4.345-8.677H519.571c0,3.538,2.2,7.813,4.357,8.681l-.009.053a4.324,4.324,0,0,1-.569,2.866h-2.64v2.211h7.957v-2.211h-2.63A4.325,4.325,0,0,1,525.47-534.375Z" fill="#fff"/>
      <g id="Gruppe_20664" data-name="Gruppe 20664" transform="translate(518.854 -541.493)">
        <path id="Pfad_20645" data-name="Pfad 20645" d="M526.939-533.968c4.49,3.322,8.382-2.516,2.877-5.4" transform="translate(-520.804 539.366)" fill="none" stroke="#fff" stroke-miterlimit="10" stroke-width="1"/>
        <path id="Pfad_20646" data-name="Pfad 20646" d="M525.52-533.968c-4.49,3.322-8.382-2.516-2.877-5.4" transform="translate(-519.939 539.366)" fill="none" stroke="#fff" stroke-miterlimit="10" stroke-width="1"/>
      </g>
    </g>
  </g>
</svg>
