<?xml version="1.0" encoding="utf-8"?>
<!-- Generator: Adobe Illustrator 23.0.1, SVG Export Plug-In . SVG Version: 6.00 Build 0)  -->
<svg id="Ebene_1" style="enable-background:new 0 0 287 283.1;" version="1.1" viewBox="0 0 287 283.1" x="0px"
     xml:space="preserve" xmlns="http://www.w3.org/2000/svg" y="0px">
<style type="text/css">
	.st0 {
    fill: #24B5BC;
  }
</style>
  <title>ultra_thin</title>
  <g>
	<g id="Ebene_1-2">
		<g>
			<path class="st0" d="M50.4,283.1c-0.1,0-0.3,0-0.4,0c-4.2-0.5-11.4-3.8-13-5.3c-0.5-0.5-0.9-1-1.2-1.5c-0.7-1-1.4-1.9-2.7-2.4
				c-1.8-0.6-9.4-3.9-11.6-6.3c-0.8-0.9-5.8-1.8-9.5-2.5c-4.1-0.7-7.9-1.5-9.9-2.4C0,261.7,0,259.1,0,257v-0.6c0-2.2,0-4.7,2.2-5.8
				c2-1,5.8-1.7,9.9-2.4c3.7-0.7,8.7-1.6,9.5-2.5c2.1-2.4,9.5-5.6,11.6-6.3c1.3-0.4,2-1.3,2.8-2.4c0.4-0.5,0.7-1,1.1-1.4
				c1.5-1.5,8.9-4.8,13-5.3c2.5-0.3,5.2,2.4,8.1,8.2l0.1,0.2l1.3,5.4c3.5,0.6,5.7,0,9.6-1.2l1.3-0.4c1.4-0.4,2.5-1.3,3.7-2.3
				c2.1-1.6,4.6-3.7,9.5-4.3c1.8-0.2,4.3-1.2,6.3-2c1.4-0.5,2.5-1,3.3-1.2c5.3-1.3,8.4,0.1,10.5,1.1c0.8,0.3,1.5,0.7,1.8,0.6
				c1.3-0.5,2.7-0.9,4.1-1.1l0.1,0l0.1,0c1.2,0,2.5,0,3.7-0.1c0.3-0.1,0.6-0.2,0.9-0.4c0.6-0.3,1.3-0.7,2.3-0.9c0.7-0.1,1.4,0,2,0.2
				c0.5,0.1,1,0.2,1.4,0.2c0.4,0,0.8-0.2,1.3-0.4c0.5-0.2,1-0.4,1.6-0.6c1.2-0.3,2.1,0.1,2.9,0.3c0.4,0.2,0.8,0.3,1.2,0.3
				c1-0.2,1.9-0.4,2.9-0.7l0.1,0c1.1-0.2,2,0.2,2.8,0.6c0.4,0.2,0.9,0.4,1.2,0.4c0.4,0,0.9,0,1.4-0.2c0.7-0.1,1.4-0.3,2.2-0.2
				c1.2,0.2,2.1,0.6,2.8,0.9c0.5,0.2,0.9,0.4,1.4,0.5c0.9,0.2,2.1,0,3.4,0.2c0.7,0.1,1.4,0.5,2,0.8c0.5,0.2,1,0.5,1.4,0.6
				c0.3,0,0.6,0.1,0.9,0.1c0.8,0.1,1.7,0.2,2.4,0.4c14.3,3.5,22.4,4.5,28.4,5c1.3,0.1,2.1-0.5,3.7-1.8c5.2-4,11.9-7.5,32.5-1.8
				c9.9,2.7,19.4,13,21.2,15c1.5,0.1,6.5,0.4,11.9,1.1l0,0c1.8,0.2,5.3,0.6,9.4,1c24.2,2.3,25.5,3,25.5,4.5c0,1.6-1.1,2.3-28.8,3.3
				c-2.8,0.1-5.2,0.2-6.6,0.3c-3.8,0.2-7.7,0.2-11.5-0.1c-1.9,2.2-11.3,12.3-21.2,14.9c-24.1,6.3-29.5,1.4-33-1.8
				c-1.3-1.2-2-1.8-3.2-1.7l-2.1,0.2c-8.8,0.9-17.7,2.6-26.3,4.8c-0.7,0.2-1.5,0.3-2.3,0.4c-0.3,0-0.7,0.1-1,0.1
				c-0.4,0.1-1,0.3-1.6,0.6c-0.6,0.3-1.2,0.6-1.8,0.7c-0.6,0.1-1.2,0.1-1.8,0.1c-0.6,0-1.1,0-1.6,0.1c-0.5,0.1-0.9,0.3-1.3,0.5
				c-0.8,0.3-1.6,0.7-2.9,0.9c-0.8,0.1-1.6,0-2.2-0.1c-0.5-0.1-1-0.2-1.4-0.2c-0.4,0-0.8,0.2-1.3,0.4c-0.8,0.3-1.6,0.7-2.6,0.6
				l-0.2,0c-0.9-0.3-1.9-0.5-2.9-0.7c-0.4,0-0.8,0.1-1.2,0.3c-0.8,0.2-1.7,0.6-2.8,0.3c-0.6-0.1-1.2-0.4-1.7-0.6
				c-0.4-0.2-0.8-0.4-1.2-0.4c-0.4,0-0.9,0.1-1.5,0.2c-0.6,0.1-1.3,0.3-2,0.2c-1-0.2-1.7-0.6-2.3-0.9c-0.4-0.2-0.7-0.4-0.9-0.4
				c-1.2-0.1-2.5-0.1-3.7-0.1l-0.1,0l-0.1,0c-1.4-0.3-2.7-0.6-4-1.1l0,0c-0.3-0.1-1.1,0.2-1.9,0.6c-2.1,0.9-5.3,2.3-10.5,1.1
				c-0.6-0.1-1.4-0.5-2.4-0.9c-1.9-0.8-4.4-1.8-6.1-1.8c-5.6-0.1-8.4-2.5-10.7-4.5c-1.3-1.1-2.3-2-3.7-2.5l-1.1-0.3
				c-4-1.2-6.3-1.9-9.8-1.3l-1.3,5.6C55.4,280.4,52.8,283.1,50.4,283.1z M50.4,232.3c0,0-0.1,0-0.1,0c-3.8,0.5-10.7,3.7-11.8,4.8
				c-0.3,0.3-0.6,0.7-1,1.2c-0.8,1.1-1.8,2.5-3.8,3.1c-2.3,0.7-9,3.8-10.7,5.7c-1.2,1.4-4.8,2.1-10.6,3.1c-3.8,0.7-7.6,1.4-9.4,2.3
				c-1,0.5-1,1.9-1,4v0.6c0,2.1,0.1,3.5,1,4c1.7,0.9,5.6,1.6,9.4,2.3c5.8,1.1,9.5,1.8,10.6,3.1c1.7,1.8,8.4,4.9,10.7,5.7
				c1.8,0.6,2.8,1.9,3.6,3c0.3,0.5,0.7,0.9,1,1.2c1,1,7.8,4.3,11.8,4.8c1.1,0.1,3.3-1.6,6-7l1.5-6.5l0.6-0.1c4.4-1,7.1-0.2,11.5,1.2
				l1.1,0.3c1.8,0.5,3.1,1.7,4.5,2.9c2.2,1.9,4.5,3.9,9.4,4c2.1,0,4.7,1.1,6.8,2c0.9,0.4,1.7,0.7,2.1,0.8c4.6,1.1,7.3-0.1,9.3-1
				c1.1-0.5,2-0.9,3-0.7h0.1l0.2,0.1c1.2,0.4,2.4,0.8,3.7,1c1.3,0,2.6,0,3.9,0.1l0.1,0c0.6,0.1,1.1,0.4,1.6,0.7
				c0.5,0.3,1,0.6,1.6,0.7c0.3,0.1,0.8,0,1.3-0.1c0.6-0.1,1.3-0.3,2.1-0.2c0.7,0.1,1.2,0.3,1.8,0.6c0.4,0.2,0.8,0.4,1.3,0.5
				c0.6,0.1,1.2,0,1.8-0.3c0.6-0.2,1.2-0.4,1.9-0.4l0.2,0c1,0.2,2.1,0.4,3.1,0.7c0.5,0,0.9-0.2,1.5-0.4c0.6-0.2,1.2-0.5,1.9-0.6
				c0.7-0.1,1.4,0.1,2,0.2c0.6,0.1,1,0.2,1.5,0.1c1-0.2,1.7-0.5,2.4-0.8c0.5-0.2,1-0.4,1.6-0.6c0.7-0.2,1.4-0.2,2.1-0.2
				c0.5,0,1,0,1.4-0.1c0.4-0.1,0.9-0.3,1.4-0.6c0.7-0.3,1.4-0.7,2.1-0.8c0.3-0.1,0.7-0.1,1-0.1c0.8-0.1,1.5-0.2,2.1-0.4
				c8.7-2.3,17.7-3.9,26.6-4.9l2.1-0.2c2.1-0.2,3.4,1,4.7,2.2c3,2.8,8.1,7.4,31.2,1.4c10.2-2.7,20.4-14.6,20.5-14.7l0.3-0.4l0.5,0
				c3.9,0.3,7.9,0.4,11.8,0.2c1.4-0.1,3.8-0.2,6.6-0.3c6.7-0.2,19.3-0.7,24.7-1.4c-4.8-0.9-15.3-1.9-21.5-2.5
				c-4.1-0.4-7.6-0.7-9.4-1l0,0c-6.4-0.9-12.1-1.1-12.2-1.1l-0.4,0l-0.3-0.3c-0.1-0.1-10.3-11.9-20.5-14.7
				c-21.4-5.9-27-1.5-30.8,1.4c-1.6,1.3-3,2.4-5.1,2.2c-6.1-0.5-14.3-1.5-28.7-5c-0.6-0.1-1.4-0.3-2.2-0.4c-0.3,0-0.6-0.1-0.9-0.1
				c-0.7-0.1-1.3-0.4-2-0.7c-0.5-0.3-1.1-0.5-1.5-0.6c-1-0.2-2.2,0-3.5-0.2c-0.7-0.2-1.2-0.4-1.7-0.6c-0.7-0.3-1.4-0.6-2.4-0.7
				c-0.5-0.1-1,0-1.5,0.1c-0.6,0.1-1.3,0.2-2,0.2c-0.6-0.1-1.2-0.3-1.8-0.6c-0.6-0.3-1.1-0.5-1.6-0.4c-1,0.3-2.1,0.5-3.1,0.7l-0.2,0
				c-0.7,0-1.4-0.2-1.9-0.4c-0.7-0.2-1.2-0.4-1.8-0.3c-0.4,0.1-0.8,0.3-1.3,0.5c-0.6,0.3-1.2,0.5-1.9,0.6c-0.7,0.1-1.4-0.1-2-0.2
				c-0.5-0.1-0.9-0.2-1.3-0.1c-0.6,0.1-1.1,0.4-1.6,0.7c-0.5,0.3-1,0.6-1.6,0.7l-0.1,0c-1.3,0.1-2.6,0.2-3.9,0.1
				c-1.3,0.2-2.5,0.6-3.7,1l-0.1,0c-1,0.3-2-0.2-3.2-0.7c-2-0.9-4.6-2.1-9.2-1c-0.7,0.2-1.9,0.6-3.1,1.1c-2.2,0.9-4.8,1.9-6.8,2.1
				c-4.3,0.5-6.5,2.2-8.5,3.8c-1.4,1.1-2.6,2.1-4.4,2.6l-1.3,0.4c-4.2,1.3-6.9,2.1-11.3,1.1l-0.6-0.1l-1.5-6.5
				C53.7,234.1,51.6,232.3,50.4,232.3z"/>
		</g>
    <g>
			<path class="st0" d="M233.2,210.4c-2,0-3.7-0.1-4.3-0.2c-1-0.2-2.2-1.6-2.5-2.8c-0.2-1,0.1-1.9,0.9-2.4c3.7-2.7,8.4-6.7,8.9-7.8
				c0-0.3-0.1-0.8-0.1-1.8c-0.1-4.5-0.4-16.5-5.3-23.8c-4.9-7.5-20.4-24.9-24.1-28.6c-8.7-8.7-16.4-26.6-19.3-33.9
				c-1.7-4.3-4.1-9.3-4.9-10c-4-1.1-21,1-27.9,2.4c-3.2,0.7-6.9,4-11.6,8.2c-10.6,9.5-26.5,23.8-55.8,24.4l-0.6,4.6
				c-0.5,3.2-0.6,7.9-0.8,12.5c-0.2,7.2-0.5,14-1.7,17.2c-1.1,2.9-1.3,10.4-1.4,15.9c-0.1,6.1-0.2,7.3-0.8,7.9
				c-0.1,0.1-0.2,0.2-0.4,0.3c-0.8,0.7-1.7,1.6-2.2,4.5c-0.1,0.4-0.1,0.9-0.2,1.4c-0.9,6.4-1.9,11.4-4.5,11.4H60.4
				c-1.2,0-1.8-1.7-2-2.7c-0.5-2-0.1-3.5,1-4.1c5.7-2.9,9.5-5.6,9.8-6.4l0.1-0.4c2.3-13.5,2.3-18.1,2.1-19.6
				c-0.3-2.4-0.3-7.8-0.2-12.9c0-4.6,0.1-9.4-0.1-11.5c-0.3-2.4-2.5-23.9-3.9-28.1c-0.2-0.7-0.6-1.7-1.1-3
				c-2.4-6.2-6.9-17.8-8.6-28.9c-0.6-4.1-1-6.8-1.2-8.9c-0.4-3.4-0.6-4.5-1.2-6c-1.1-2.6-5.5-14-5.9-22.5
				c-0.3-7.2-4.2-15.4-11.1-17.3c-3.5-1-8-1.7-11.9-2.4c-4-0.7-7.2-1.2-8.6-1.9c-3-1.4-11.3-11.3-10.8-16.7c0.3-3.2,4.6-3.4,7.4-3.6
				l0.7,0c6.6-0.4,16.9-2.7,18.1-3.8c0.9-0.9,1.4-1.7,1.9-2.5c2-3.2,3.8-5.3,16.5-6.5c10.7-1.1,19.5,3.1,22,10.5
				c2.4,6.8,3.7,10.3,6.3,17c0.7,1.8,1.3,3.7,1.9,5.7c1.7,5.4,3.4,11,7.1,13.7c5.8,4.2,21.4,13.4,29.8,13.2c6.2-0.2,13.6-0.6,21.5-1
				c21.1-1.2,42.9-2.4,49.2,0.4c14.8,6.7,18.8,6.3,24.3,5.7l0.3,0c5.7-0.6,32.5-6.8,43.6-12.6c5.4-2.8,11.2-6.6,16.3-10
				c6.7-4.4,10.3-6.7,12.1-6.8c0.5,0,1,0.3,1.2,0.8c0.8,2.8-20.3,21.7-27,25.1c-10.3,5.3-25.4,9.5-34.5,12c-3.3,0.9-6.3,1.8-7.3,2.2
				c0.1,0.4,0.4,1.1,0.7,1.7c0.9,2,2.5,5.4,3,10.4c0.3,2.7,1.5,11.5,2.6,20c0.6,4.2,1.1,8.4,1.6,11.9c1.4,10.3,5.5,23.8,8.6,29.9
				c2.7,5.3,5.8,7.9,8.4,9.9c2.4,1.9,4.2,3.4,4.2,6.1c0,0.8,0,2.2,0,4.1c0,8.3-0.1,27.8,0.3,30.6c0.2,1.1-0.9,3.6-3.3,7.5
				C243.4,209.9,237.5,210.4,233.2,210.4z M178.8,96.6c1.9,0,3.5,0.1,4.4,0.4l0,0c1.2,0.4,3.2,4.1,6,11.2
				c2.9,7.2,10.4,24.8,18.8,33.2c3.7,3.7,19.3,21.3,24.3,28.9c5.2,7.8,5.5,20.2,5.6,24.9c0,0.7,0,1.5,0.1,1.6
				c0.5,1.9-5.9,6.9-9.7,9.7c-0.1,0.1-0.1,0.1-0.1,0.3c0.1,0.6,0.7,1.3,1,1.4c2.5,0.5,12,0,13.3-0.9c1.9-3.3,3-5.6,3-6.2
				c-0.4-2.6-0.4-16.4-0.3-30.9c0-1.8,0-3.3,0-4.1c0-1.7-1.1-2.7-3.5-4.6c-2.6-2.1-6-4.9-8.9-10.6c-3.1-6.3-7.4-20-8.8-30.5
				c-0.5-3.5-1-7.7-1.6-11.9c-1.1-8.5-2.3-17.4-2.6-20.1c-0.5-4.6-1.9-7.7-2.9-9.8c-0.8-1.7-1.3-2.8-0.6-3.8c0.5-0.6,1.7-1,8.5-2.9
				c9-2.5,24-6.7,34.1-11.9c6.8-3.5,19.6-15.8,24.2-21c-2.2,1.2-5.4,3.3-8.5,5.4c-5.2,3.4-11,7.2-16.5,10.1
				c-11.5,6-38.4,12.2-44.4,12.8l-0.3,0c-5.6,0.6-10,1-25.3-5.9c-5.9-2.6-28.4-1.4-48.3-0.3c-7.9,0.4-15.3,0.9-21.6,1
				c-9.9,0.3-27-10.7-31-13.6c-4.3-3.1-6.1-9-7.8-14.7c-0.6-2-1.2-3.9-1.9-5.6c-2.6-6.7-3.9-10.2-6.3-17C69.2,4.9,61,1.1,51.5,2.1
				c-12.4,1.2-13.5,3.2-15,5.6c-0.5,0.9-1.1,1.9-2.2,2.9c-2,1.9-14.1,4-19.4,4.3l-0.8,0c-2.1,0.1-5.3,0.2-5.5,1.7
				c-0.4,4.2,7.3,13.6,9.7,14.7c1.1,0.5,4.5,1.1,8.1,1.7c4,0.7,8.5,1.4,12.1,2.4c7.8,2.2,12.2,11.3,12.5,19.2
				c0.4,8.3,4.6,19.3,5.7,21.8c0.8,1.7,0.9,3.1,1.4,6.6c0.3,2,0.6,4.8,1.2,8.8c1.7,10.9,6.1,22.3,8.5,28.4c0.5,1.3,0.9,2.4,1.2,3.1
				c1.5,4.3,3.6,24.5,4.1,28.5c0.2,2.2,0.2,6.8,0.2,11.7c0,5.1-0.1,10.4,0.2,12.7c0.4,2.9-0.4,9.8-2.1,20.2l-0.1,0.5
				c-0.4,2.2-6.9,5.9-10.8,7.9c-0.3,0.4,0,2.3,0.4,3h13.9c0.8-0.2,1.7-3.5,2.6-9.7c0.1-0.5,0.1-1,0.2-1.4c0.6-3.6,1.9-4.8,2.8-5.7
				c0.1-0.1,0.1-0.1,0.2-0.2c0.2-0.8,0.3-3.9,0.3-6.6c0.1-6,0.3-13.4,1.6-16.6c1.1-2.9,1.3-9.8,1.6-16.5c0.2-4.8,0.3-9.4,0.8-12.7
				l0-0.3l0.8-6.1l0.9,0c29.1-0.4,44.9-14.6,55.4-24c4.9-4.4,8.8-7.9,12.5-8.7C159.2,98.3,171.6,96.6,178.8,96.6z M242.6,207.3
				L242.6,207.3L242.6,207.3z M236.3,197L236.3,197L236.3,197z M182.6,98.9L182.6,98.9L182.6,98.9z"/>
		</g>
	</g>
</g>
</svg>
