<?xml version="1.0" encoding="utf-8"?>
<!-- Generator: Adobe Illustrator 23.0.1, SVG Export Plug-In . SVG Version: 6.00 Build 0)  -->
<svg id="Ebene_1" style="enable-background:new 0 0 287 292.2;" version="1.1" viewBox="0 0 287 292.2" x="0px"
     xml:space="preserve" xmlns="http://www.w3.org/2000/svg" y="0px">
<style type="text/css">
	.st0 {
    fill: #24B5BC;
  }
</style>
  <title>ultra obese</title>
  <g>
	<g id="Ebene_1-2">
		<g>
			<path class="st0" d="M148.8,292.1c-1.8,0-3.7,0-5.5-0.1c-12.7-0.7-25.3-2.7-37.6-6.1c-0.4-0.1-1.9,0-3.4,0.2
				c-4.9,0.4-14.1,1.2-22-1.8c-0.5-0.2-1.8-0.1-3.2-0.1c-2.7,0.1-6.3,0.3-9.5-1.1c-4.3-1.9-10.6-3.7-12.2-3.7
				c-1.9,2.6-3.7,3.8-5.4,3.6c-4.1-0.5-11.5-3.9-13-5.3c-0.4-0.4-0.8-0.9-1.2-1.4c-0.7-1-1.4-2-2.8-2.4c-2.1-0.7-9.5-3.8-11.6-6.2
				c-0.8-0.9-5.8-1.8-9.4-2.5c-4.1-0.8-8-1.5-10-2.5C0,261.6,0,259.2,0,257v-0.6c0-2.1,0-4.7,2.1-5.8c2-1,5.8-1.7,9.9-2.4
				c3.7-0.7,8.7-1.6,9.5-2.5c2.1-2.4,9.6-5.6,11.6-6.3c1.3-0.4,2-1.4,2.7-2.3c0.4-0.5,0.8-1,1.3-1.5c1.4-1.3,8.6-4.8,13-5.3
				c1.9-0.2,3.8,1.2,5.9,4.3c0.8,0.1,3.5-1,5.5-1.7c1.7-0.6,3.5-1.3,5.2-1.8c3.1-0.9,6.6-0.4,9.4,0.1c1.4,0.2,3.3,0.5,3.7,0.3
				c5.9-3.9,16.8-3.9,22.7-3.9c1.5,0,3,0,3.4-0.1c12.2-3.4,24.9-5.3,37.6-5.4c13.5,0,25.9,1.6,34.1,2.6c2.7,0.3,4.9,0.6,6.3,0.7
				c1.8,0.1,4.7,0.1,8.1,0.1c8.1-0.1,19.1-0.2,26.6,1.9c14.3,3.9,19.1,19,20,22.2c3.8,1.1,7.7,2,11.6,2.5c1.4,0.2,3.9,0.5,6.8,0.8
				c27,3.1,28,3.8,28,5.4c0,1.4,0,2.5-33.2,4.3l-2.2,0.1c-3.7,0.2-7.4,0.6-11.1,1.3c-0.7,3.5-4.8,18.3-20,22.9
				c-7.6,2.3-18.7,2.1-26.8,1.9c-3.3-0.1-6.2-0.1-8,0c-1.5,0.1-3.6,0.4-6.2,0.9C170.6,290.6,160.5,292.1,148.8,292.1z M105.3,283.9
				c0.4,0,0.7,0,1,0.1c12.1,3.3,24.6,5.3,37.1,6c13.8,0.6,25.9-1.3,33.9-2.5c2.7-0.4,4.8-0.7,6.4-0.9c1.8-0.2,4.8-0.1,8.2,0
				c8,0.1,18.9,0.4,26.2-1.8c15.9-4.8,18.7-21.8,18.7-22l0.1-0.7l0.7-0.1c4-0.7,8-1.2,12-1.4l2.2-0.1c15.5-0.8,25.4-1.6,29.5-2.3
				c-5-1.1-17.8-2.6-24.5-3.4c-2.9-0.3-5.4-0.6-6.9-0.8c-4.2-0.6-8.4-1.5-12.4-2.7l-0.6-0.2l-0.1-0.6c0-0.2-4.2-17.3-18.7-21.3
				c-7.3-2-18.2-1.9-26.1-1.8c-3.4,0-6.4,0.1-8.2-0.1c-1.5-0.1-3.7-0.4-6.4-0.8c-8.1-1-20.5-2.6-33.8-2.6c-12.5,0.2-25,2-37.1,5.4
				c-0.6,0.2-1.7,0.2-3.9,0.2c-5.6,0-16.2,0-21.6,3.6c-1,0.7-2.7,0.4-5.1,0c-2.6-0.4-5.8-0.9-8.5-0.1c-1.7,0.5-3.4,1.2-5.1,1.8
				c-4.4,1.7-6.8,2.6-7.7,1.1c-1.6-2.4-3.1-3.7-4.1-3.6c-3.9,0.5-10.7,3.8-11.8,4.8c-0.4,0.3-0.7,0.8-1,1.2c-0.8,1.1-1.8,2.3-3.6,3
				c-2.5,0.9-9.1,3.9-10.7,5.7c-1.2,1.3-4.8,2.1-10.7,3.1c-3.7,0.7-7.6,1.4-9.3,2.3c-1,0.5-1,1.9-1,4v0.6c0,2.1,0.1,3.4,1,3.9
				c1.7,0.9,5.6,1.6,9.4,2.3c5.8,1.1,9.4,1.8,10.6,3.1c1.6,1.8,8.3,4.9,10.7,5.7c1.9,0.6,2.9,2,3.7,3.1c0.3,0.4,0.6,0.9,1,1.2
				c1.1,1.1,8.1,4.3,11.8,4.8c1,0.1,2.3-1,3.7-3.1l0,0c1.4-2,14.3,3.3,14.4,3.4c2.8,1.2,6,1.1,8.6,0.9c1.7-0.1,3.1-0.1,4,0.2
				c7.5,2.8,16,2.1,21.1,1.7C103.6,284,104.6,283.9,105.3,283.9z"/>
		</g>
    <g>
			<path class="st0" d="M233.1,210.3c-2,0-3.6-0.1-4.2-0.2c-1-0.2-2.2-1.6-2.5-2.8c-0.2-1,0.1-1.9,0.9-2.4c3.7-2.7,8.4-6.6,8.9-7.8
				c0-0.3-0.1-0.7-0.2-1.4c-0.4-4.1-1.7-16.7-6.8-24.2c-3.2-4.9-12.2-11.2-18.8-15.8c-3.6-2.5-6.4-4.5-7.7-5.8l-0.3-0.3
				c-2.1-2.1-5.9-5.9-9.4-10c-5.6,0.6-29.8,2.9-52.2,2l0,0c-7.1-0.3-21.9,0.2-33.9,0.6c-6.3,0.2-11.9,0.4-15.2,0.4
				c-0.4,4.2-2.2,21.8-3.8,25.8c-1,2.6-2.4,8.7-3.5,14.1c-1.7,7.8-2.1,9.2-2.6,9.7c-0.1,0.1-0.2,0.2-0.3,0.3
				c-0.8,0.7-1.8,1.6-2.2,4.5c-0.1,0.4-0.1,0.9-0.2,1.5c-0.9,6.4-1.8,11.3-4.5,11.3H60.4c-1.2,0-1.8-1.7-2-2.7c-0.5-2-0.1-3.5,1-4.1
				c3.6-1.8,8.7-6.1,9-7.2c0.3-2,2-14.9,1.4-19.3c-0.3-2.5-0.1-7.8,0.2-13c0.2-4.6,0.5-9.3,0.2-11.4c-0.5-5.3-2.6-19.5-3.9-23.4
				c-0.3-0.9-1.3-2.2-2.6-3.9c-4-5.1-11.3-14.7-14.1-31.9c-0.7-4.5-1.1-7.4-1.4-9.5c-0.4-2.9-0.5-4-1.1-5.4
				c-1.3-2.8-3.9-14.3-4.3-22.5c-0.1-1.6,0-3.1,0-4.5c0.1-5.4,0.1-8.4-4.8-9.8c-6.9-1.9-16.3-4.6-18.9-5.8
				C16.3,34.4,6.1,22,6.6,16.6c0.3-3.2,4.6-3.4,7.4-3.5l0.7,0c6.6-0.4,16.9-2.7,18.1-3.8c0.9-0.9,1.4-1.7,1.9-2.5
				c2-3.2,3.8-5.3,16.5-6.5C61.9-0.9,72.3,4,74.9,11.4c1.2,3.5,3.1,5.8,5.1,8.3c1.9,2.3,3.8,4.6,5.1,7.9c1.3,3.4,2.8,4.6,4.3,6
				c1.2,1.1,2.5,2.2,3.6,4.3c1.3,0.6,6,3.1,7.9,6.4c5.4,1.3,8.8,3,10,5.2c0.9,0.6,6,2.9,9.1,3.1c7.9,0.5,17.8-0.2,28.3-0.9
				c12.6-0.8,25.6-1.7,37.7-0.9c14.7,0.9,21.9,4,26.7,6c2.7,1.1,4.5,1.9,6.4,1.7c1.2-0.1,3.1-0.2,5.5-0.3c8.9-0.3,23.9-0.7,32.7-5.3
				c5.3-2.8,11.1-6.5,16.1-9.8c6.9-4.5,10.6-6.9,12.4-7c0.5,0,1,0.3,1.2,0.8c0.7,2.7-19.7,23-27,26.7c-9.7,5-19.7,8.6-26.3,11
				c-3,1.1-5.8,2.1-6.3,2.5c-0.1,0.2-0.1,0.5,0.2,2.1c0.3,1.6,0.8,4.4,1.4,9.1c0.4,3.6,0.1,8.3-0.3,13.3c-0.4,6-0.9,12.8-0.2,18.7
				c1.6,12.3,3.5,24.4,6.2,29.9c2.7,5.3,5.8,7.8,8.4,9.9c2.4,1.9,4.2,3.4,4.2,6.1c0,0.8,0,2.2,0,4.1c0,8.3-0.1,27.8,0.3,30.6
				c0.2,1.1-0.9,3.6-3.3,7.5C243.4,209.9,237.4,210.3,233.1,210.3z M193.6,137.5h0.5l0.3,0.4c3.5,4.1,7.5,8.1,9.6,10.2l0.3,0.3
				c1.1,1.2,4,3.2,7.4,5.6c6.7,4.7,15.8,11.1,19.3,16.3c5.3,8,6.7,20.9,7.1,25.1c0.1,0.6,0.1,1.2,0.2,1.4c0.5,1.9-5.9,6.9-9.7,9.7
				c-0.1,0.1-0.1,0.1-0.1,0.3c0.1,0.6,0.7,1.3,1,1.4c2.5,0.5,12,0,13.3-0.9c1.9-3.3,3-5.6,3-6.2c-0.4-2.6-0.4-16.4-0.3-30.9
				c0-1.8,0-3.3,0-4.1c0-1.7-1.1-2.7-3.5-4.6c-2.6-2-6-4.9-8.9-10.6c-2.9-5.8-4.8-18.1-6.4-30.5c-0.8-6.1-0.3-13,0.1-19.1
				c0.4-4.9,0.7-9.5,0.3-12.9c-0.5-4.7-1-7.4-1.3-9c-0.4-2-0.5-2.8,0.2-3.8c0.5-0.6,1.7-1.1,7.2-3.1c6.6-2.4,16.5-6,26.1-10.9
				c7.1-3.6,20.4-17.5,24.6-22.8c-2.3,1.2-5.8,3.5-9.2,5.7c-5.1,3.3-10.9,7.1-16.3,9.9c-9.2,4.8-24.4,5.3-33.5,5.6
				c-2.3,0.1-4.2,0.1-5.4,0.2c-2.4,0.2-4.5-0.6-7.4-1.9c-4.7-2-11.7-4.9-26.1-5.9c-11.9-0.8-24.9,0.1-37.4,0.9
				c-10.6,0.7-20.6,1.4-28.6,0.9c-3.5-0.2-10.2-2.9-10.7-4c-0.5-0.9-2.2-2.7-8.8-4.3c-0.4-0.1-0.9-0.2-1.1-0.7
				c-1.7-3.2-7.3-5.9-7.4-5.9l-0.3-0.2l-0.2-0.3c-0.9-2-2-2.9-3.3-4c-1.6-1.4-3.4-2.9-4.9-6.7c-1.2-3-2.9-5.1-4.8-7.4
				c-2-2.5-4.1-5.1-5.5-8.9c-2.3-6.4-12-10.9-21.6-9.9c-12.4,1.2-13.5,3.2-15,5.6c-0.5,0.9-1.1,1.9-2.2,2.9c-2,2-14.1,4-19.4,4.3
				l-0.8,0c-2.1,0.1-5.3,0.2-5.5,1.7c-0.2,1.8,1.6,5.5,4.6,9.7c3,4.2,5.8,6.9,6.6,7.3c2.5,1.1,11.9,3.8,18.7,5.7
				c6.4,1.8,6.4,6.2,6.3,11.7c0,1.4,0,2.8,0,4.4c0.3,8.5,3,19.5,4.1,21.8c0.7,1.6,0.9,2.9,1.3,5.9c0.3,2.1,0.6,5,1.3,9.4
				c2.7,16.6,9.6,25.6,13.7,31c1.5,1.9,2.5,3.3,2.9,4.5c1.5,4.2,3.5,18.8,4.1,23.8c0.2,2.2,0,6.9-0.2,11.7
				c-0.2,5.1-0.5,10.3-0.2,12.6c0.6,4.8-1.2,18.5-1.4,19.9c-0.4,2.3-7.2,7.2-10,8.7c-0.3,0.4,0,2.3,0.4,3h13.9
				c0.8-0.2,1.7-3.4,2.5-9.6c0.1-0.5,0.1-1,0.2-1.5c0.6-3.6,1.9-4.9,2.8-5.7c0.1-0.1,0.2-0.1,0.2-0.2c0.4-0.8,1.3-5,2.1-8.7
				c1.2-5.5,2.5-11.6,3.6-14.4c1.7-4.3,3.8-26,3.8-26.2l0.1-0.9H91c3.1,0,9.1-0.2,16-0.4c12-0.4,26.9-0.9,34-0.6
				c22.8,0.9,47.6-1.6,52.3-2.1C193.5,137.5,193.6,137.5,193.6,137.5z M242.6,207.3L242.6,207.3L242.6,207.3z M236.3,197L236.3,197
				L236.3,197z M80.5,190.9C80.5,190.9,80.5,190.9,80.5,190.9C80.5,190.9,80.5,190.9,80.5,190.9z M111,49.6
				C111,49.6,111,49.6,111,49.6C111,49.6,111,49.6,111,49.6z M285.9,38C285.9,38,285.9,38,285.9,38C285.9,38,285.9,38,285.9,38z"/>
		</g>
	</g>
</g>
</svg>
