<?xml version="1.0" encoding="utf-8"?>
<!-- Generator: Adobe Illustrator 23.0.1, SVG Export Plug-In . SVG Version: 6.00 Build 0)  -->
<svg version="1.1" id="Ebene_1" xmlns="http://www.w3.org/2000/svg" x="0px" y="0px"
	 viewBox="0 0 196.4 70.2" style="enable-background:new 0 0 196.4 70.2;" xml:space="preserve">
<style type="text/css">
	.st0{fill:#FFFFFF;}
	.st1{fill:#00A7BE;}
	.st2{fill:#C6C6C5;}
</style>
	<title>ideal</title>
	<g>
	<g id="Ebene_1-2">
		<g>
			<path class="st0" d="M195.7,69.4c-11.7-9.8-30.2-12.8-54.4-18.5c-12-2.9-25.2-1.6-28.9-1.8c-4.7-0.3-8-5.4-14.3-5.4
				s-9.6,5.1-14.3,5.4c-3.7,0.2-17.1-0.9-28.9,1.8c-23.2,5.4-42.7,8.8-54.4,18.6"/>
			<path class="st1" d="M195.1,70.2c-9.7-8.1-24.6-11.5-43.4-15.9c-3.4-0.8-6.9-1.6-10.6-2.5c-9.1-2.2-18.8-2-24.6-1.8
				c-1.8,0-3.2,0.1-4.1,0c-2.3-0.1-4.3-1.3-6.4-2.5c-2.3-1.4-4.7-2.8-7.9-2.8c-3.2,0-5.5,1.4-7.8,2.8c-2.1,1.2-4,2.4-6.4,2.6
				c-0.9,0.1-2.3,0-4.2,0c-5.9-0.1-15.7-0.3-24.6,1.8c-2.7,0.6-5.3,1.2-7.9,1.8C28.1,58,11.4,61.7,1.3,70.2L0,68.7
				c10.5-8.8,27.4-12.6,46.9-17c2.6-0.6,5.2-1.2,7.9-1.8c9.1-2.1,19.1-1.9,25-1.8c1.8,0,3.2,0.1,4,0c1.9-0.1,3.5-1.1,5.4-2.3
				c2.4-1.5,5.2-3.1,8.9-3.1c3.7,0,6.5,1.7,8.9,3.1c1.9,1.2,3.6,2.2,5.4,2.3c0.8,0,2.2,0,4,0c5.9-0.1,15.8-0.4,25.1,1.9
				c3.7,0.9,7.2,1.7,10.6,2.5c19.1,4.4,34.1,7.8,44.2,16.3L195.1,70.2z"/>
		</g>
		<g>
			<path class="st2" d="M137,48.2c-0.9,0-1.8-0.1-2.8-0.2c-11.5-2-22.9-5.2-33.8-9.4c-0.5-0.2-0.8-0.8-0.6-1.3
				c0.2-0.5,0.8-0.8,1.3-0.6c10.8,4.2,22,7.3,33.4,9.3c4.7,0.8,7-0.7,7.4-1.7c0.3-0.8-0.5-1.8-1.9-2.5c-1.5-0.8-3.7-1.9-6.3-3.3
				C121.8,32.4,99.7,21,93.5,19c-3.8-1.3-13-1.4-21.1-1.5c-7.2-0.1-13.4-0.2-16-0.9C51.1,14.9,28.5,2.4,27.5,1.9
				C27,1.6,26.9,1,27.1,0.5C27.4,0,28-0.1,28.5,0.1c0.2,0.1,23.4,13,28.5,14.5c2.3,0.7,8.7,0.8,15.5,0.9c8.7,0.1,17.6,0.2,21.7,1.6
				c6.3,2.1,27.7,13.1,40.4,19.7c2.6,1.4,4.8,2.5,6.3,3.2c2.8,1.4,3.3,3.5,2.9,4.9C143.2,46.7,140.9,48.2,137,48.2z"/>
		</g>
		<g>
			<path class="st0" d="M18.5,28.6c0,0,12.2,3.8,13.3,4.6s8.8,9.1,20.5,12.8c9.7,3,38.3-3.1,43.9-4.8c6.7-2,7-9.6-2.2-9.5
				c-10.3,0.2-25.2-0.3-28.7-2"/>
			<path class="st2" d="M59.7,47.8c-3.1,0-5.8-0.3-7.7-0.9c-10.3-3.2-17.4-9.7-20-12.2c-0.4-0.4-0.7-0.6-0.8-0.7
				c-0.7-0.5-7.2-2.7-13-4.5c-0.5-0.2-0.8-0.7-0.7-1.3c0.2-0.5,0.7-0.8,1.3-0.7c2.9,0.9,12.4,3.9,13.6,4.8c0.2,0.2,0.5,0.4,1,0.9
				c2.6,2.4,9.4,8.7,19.3,11.8c9.2,2.9,37.2-2.9,43.3-4.8c3-0.9,4.4-3,4.1-4.6c-0.3-1.9-2.6-3-6-2.9c-8.3,0.2-25.1-0.1-29.1-2.1
				c-0.5-0.2-0.7-0.8-0.4-1.3c0.2-0.5,0.8-0.7,1.3-0.4c3.1,1.5,16.8,2.1,28.2,1.9c5.4-0.1,7.7,2.3,8.1,4.6c0.4,2.8-1.9,5.7-5.5,6.8
				C92.3,43.4,72.5,47.8,59.7,47.8z"/>
		</g>
	</g>
</g>
</svg>
