<?xml version="1.0" encoding="utf-8"?>
<!-- Generator: Adobe Illustrator 23.0.1, SVG Export Plug-In . SVG Version: 6.00 Build 0)  -->
<svg version="1.1" id="Ebene_1" xmlns="http://www.w3.org/2000/svg" x="0px" y="0px"
	 viewBox="0 0 196.4 78.9" style="enable-background:new 0 0 196.4 78.9;" xml:space="preserve">
<style type="text/css">
	.st0{fill:#FFFFFF;}
	.st1{fill:#00A7BE;}
	.st2{fill:#C6C6C5;}
</style>
	<title>obese</title>
	<g>
	<g id="Ebene_1-2">
		<g>
			<path class="st0" d="M195.7,78.1c-11.7-9.8-30.2-12.8-54.4-18.5c-9.5-2.3-19.2-3.9-28.9-4.8c-4.7-0.3-8-0.4-14.3-0.4
				s-9.6,0.1-14.3,0.4c-9.7,1-19.4,2.6-28.9,4.8c-23.2,5.4-42.7,8.8-54.4,18.6"/>
			<path class="st1" d="M195.1,78.9c-9.7-8.1-24.6-11.5-43.4-15.9c-3.4-0.8-6.9-1.6-10.6-2.5c-9.4-2.2-19.1-3.9-28.8-4.8
				c-4.9-0.3-8.1-0.4-14.2-0.4c-6,0-9.2,0.1-14.2,0.4c-9.6,1-19.3,2.6-28.8,4.7c-2.6,0.6-5.2,1.2-7.8,1.8
				c-19.3,4.4-36,8.1-46.2,16.6L0,77.4c10.5-8.8,27.4-12.6,47-17c2.5-0.6,5.1-1.2,7.8-1.8c9.5-2.2,19.3-3.8,29-4.8
				c5-0.3,8.3-0.4,14.4-0.4c6,0,9.4,0.1,14.3,0.4c9.8,1,19.6,2.6,29.1,4.9c3.6,0.9,7.2,1.7,10.5,2.5c19.1,4.4,34.1,7.8,44.2,16.3
				L195.1,78.9z"/>
		</g>
		<g>
			<path class="st2" d="M143.8,58.2c-1.1,0-2.3-0.1-3.7-0.5c-16.8-4.1-33.6-6.7-33.7-6.8c-0.5-0.1-0.9-0.6-0.8-1.1s0.6-0.9,1.1-0.8
				c0.2,0,17,2.7,33.9,6.8c3.9,1,6.6,0.1,7.1-1.2c0.4-1-0.3-2.1-1.8-3.1c-8-4.9-32.9-16.5-43.7-21.2c-3.8-1.6-16.1-4.7-26-7.2
				c-5.5-1.4-10.2-2.6-12.6-3.3C58.3,18.2,37,2.5,36.1,1.8c-0.4-0.3-0.5-1-0.2-1.4c0.3-0.4,1-0.5,1.4-0.2c7.6,5.6,23,16.5,27,17.8
				c2.3,0.7,7,1.9,12.5,3.2c9.9,2.5,22.3,5.6,26.3,7.3c10.9,4.7,35.9,16.3,44,21.3c2.4,1.5,3.4,3.6,2.6,5.5
				C149,56.8,147.1,58.2,143.8,58.2z"/>
		</g>
		<g>
			<path class="st0" d="M24.9,27.7c0,0,9.8,4.6,10.9,5.5s12.9,14.4,25.1,16.2c14.2,2.1,31.5,2.2,41.1,2.3c7,0.1,7.5-7.5-1.4-9.6
				c-9.5-2.2-22.8-4.6-28.3-6.4"/>
			<path class="st2" d="M102,52.8c0,0-0.1,0-0.1,0l-1.7,0c-9.8-0.1-26.1-0.3-39.6-2.3c-7.4-1.1-15.8-6.4-24.9-15.8
				c-0.3-0.3-0.5-0.6-0.6-0.6c-0.6-0.5-5.9-3.1-10.6-5.4c-0.5-0.2-0.7-0.8-0.5-1.3c0.2-0.5,0.8-0.7,1.3-0.5c1.7,0.8,10,4.7,11.1,5.7
				c0.1,0.1,0.4,0.4,0.7,0.7C46,42.3,54,47.5,60.9,48.5c13.4,2,29.6,2.2,39.3,2.3l1.7,0c0,0,0.1,0,0.1,0c2.3,0,4-1,4.2-2.5
				c0.2-1.7-1.5-4.1-5.9-5.1c-3.6-0.8-7.7-1.7-11.7-2.5c-6.8-1.4-13.2-2.7-16.7-3.9c-0.5-0.2-0.8-0.7-0.6-1.3
				c0.2-0.5,0.7-0.8,1.3-0.6c3.4,1.1,9.7,2.4,16.5,3.8c4,0.8,8.2,1.7,11.8,2.5c5.6,1.3,7.8,4.6,7.4,7.3
				C107.9,50.7,105.9,52.8,102,52.8z"/>
		</g>
	</g>
</g>
</svg>
