<svg xmlns="http://www.w3.org/2000/svg" width="276.976" height="226.091" viewBox="0 0 276.976 226.091">
  <defs>
    <clipPath id="clip-path">
      <circle id="Ellipse_987" data-name="Ellipse 987" cx="54.298" cy="54.298" r="54.298" fill="none" stroke="#707070"
              stroke-width="1"/>
    </clipPath>
  </defs>
  <g id="Gruppe_11902" data-name="Gruppe 11902" transform="translate(-41.997 -119)">
    <g id="Gruppe_4783" data-name="Gruppe 4783" transform="translate(43 183.759)">
      <path id="Pfad_4123" data-name="Pfad 4123"
            d="M239.382,86.822l-1.034,1.692s-1.88-.752-2.82.47c-.94,1.41-1.974,2.632-2.82,2.82-1.128.282-1.41-.564-.846-1.128,1.034-1.128,1.41-2.82.282-2.915-1.41-.188-1.786,1.974-3.667,3.385-1.222.94-2.35.282-1.692-.564.94-1.128,1.6-3.2.094-3.479-1.128-.188-1.692,1.6-3.385,3.385-1.316,1.41-3.1.846-2.068-.564.94-1.222,1.316-3.2.094-3.1-1.5.094-1.786,2.726-3.761,4.043-1.222.752-2.444.47-1.692-.658,1.222-1.786.94-3.1-.188-3.009-1.316.094-1.5,2.632-3.667,3.949-1.786,1.034-2.162,0-1.5-.846,1.6-1.974.94-3.479-.094-3.385-1.41.188-2.444,2.444-4.137,3.385-1.786,1.034-2.726-.188-1.974-1.034,2.726-3.009.658-3.291-.188-2.915-1.41.752-2.35,2.632-4.419,3.573-2.726,1.316-3.009-.282-2.068-1.128,2.35-2.162,2.444-3.479.47-2.726-1.786.752-2.068,2.632-5.171,4.137-2.256,1.034-2.82-.282-1.786-1.222,2.726-2.444,2.068-3.573.752-3.2-1.88.564-2.162,2.726-5.171,4.325-2.256,1.128-2.82-.188-1.786-1.222,2.82-2.82,1.6-3.667,0-3.009s-3.1,3.1-5.265,4.137c-2.256,1.128-2.915-.282-1.786-1.222,3.008-2.538,1.6-3.761,0-2.915-2.256,1.222-2.444,2.726-4.889,4.231-2.162,1.316-2.915.282-2.068-.846,2.632-3.573-1.034-3.009-3.291-1.222-1.88,1.41-2.632,2.068-3.667,1.88-1.786-.282,1.222-2.538-1.316-2.82-1.5-.188-2.35.47-3.385,1.5-1.316,1.316-3.008,1.034-2.726.282.376-.846.846-1.786-.094-2.068-1.5-.47-2.82,1.034-3.479,1.88-1.222,1.316-3.009,1.034-2.726.282.47-1.128.47-1.786,0-2.068-.47-.188-2.068-.094-3.573,2.068-1.034,1.5-3.2,2.35-3.009,1.222.188-.752,1.128-1.974,0-2.256-1.316-.376-2.82.47-3.761,1.6-1.692,2.068-3.008,2.162-2.914,1.41.094-.564.282-1.786-.846-1.692-1.6.094-1.974.94-2.82,2.162-1.034,1.5-2.632,1.786-2.538,1.034a1.057,1.057,0,0,0-1.222-1.222,3.321,3.321,0,0,0-2.068,1.692c-.94,1.6-2.632,1.786-2.538,1.034.094-.846-.188-1.6-1.128-1.41a3.1,3.1,0,0,0-2.068,1.41c-.94,1.5-2.632,1.786-2.538,1.034a1.312,1.312,0,0,0-1.034-1.5,2.941,2.941,0,0,0-2.726,1.316c-1.128,1.41-2.632,1.88-2.538,1.034a1.106,1.106,0,0,0-.752-1.222,2.176,2.176,0,0,0-2.068.846c-1.034,1.5-2.632,1.88-2.538,1.034.188-1.222-.564-1.41-.752-1.5a1.69,1.69,0,0,0-1.974,1.034c-.94,1.5-2.632,1.88-2.538,1.034.188-1.222-.094-1.786-.752-1.88a1.376,1.376,0,0,0-1.41.846c-1.034,1.5-2.726,1.786-2.538,1.034,2.444-7.615-3.385-5.171,3.009-31.872.188-.846.47-1.41,1.128-1.5.188,0,.282-.094.47-.094a1.326,1.326,0,0,1,1.316,1.6c-.282,1.222-4.795,18.521-2.726,18.709,2.256.282,5.077-15.419,5.265-17.017a1.415,1.415,0,0,1,1.786-1.316,1.275,1.275,0,0,1,1.034,1.786c-.47,1.316-5.453,16.359-2.538,16.641,2.632.282,4.983-13.256,5.265-14.949a1.53,1.53,0,0,1,1.786-1.41,1.275,1.275,0,0,1,1.034,1.786c-.564,1.41-5.077,13.914-2.256,14.29,2.35.282,4.7-11.188,4.889-12.786a1.448,1.448,0,0,1,1.786-1.316,1.275,1.275,0,0,1,1.034,1.786c-.564,1.41-4.137,11.94-1.786,12.128,2.162.188,4.325-9.12,4.513-10.718a1.53,1.53,0,0,1,1.786-1.41,1.275,1.275,0,0,1,1.034,1.786c-.564,1.41-3.667,9.778-1.222,9.778,2.256,0,3.385-7.521,3.761-9.026a1.489,1.489,0,0,1,1.88-1.034,1.22,1.22,0,0,1,.846,1.786c-.658,1.222-3.667,8.367-.94,7.991,1.974-.282,3.479-6.017,3.855-7.521a1.489,1.489,0,0,1,1.88-1.034,1.22,1.22,0,0,1,.846,1.786c-.658,1.222-3.2,6.675-.752,6.581,2.068-.094,3.291-4.889,3.667-6.393a1.847,1.847,0,0,1,2.068-1.41,1.717,1.717,0,0,1,1.128,2.256c-.658,1.128-2.444,4.889-.188,4.889,3.385,0,2.444-4.231,2.82-5.735a1.785,1.785,0,0,1,2.256-1.316,1.577,1.577,0,0,1,1.034,2.162c-.564,1.6-1.128,4.983,1.786,4.889,3.009,0,1.316-3.949,1.128-5.453a1.828,1.828,0,0,1,1.88-1.88,1.752,1.752,0,0,1,1.786,1.88c0,1.5-.564,5.359,2.068,5.547,1.786.094,2.632-2.726,1.6-5.171-.564-1.316.094-2.35,2.632-1.692,1.222.282,1.41,1.222,1.6,2.256.282,1.5-.376,5.359,2.162,5.547,1.974.094,2.068-3.667.188-5.453-1.034-.94-.188-2.444,2.538-1.88,1.034.188,1.41,1.034,1.692,1.974.376,1.41-.188,5.735,2.538,4.983,1.88-.564.846-3.2-.094-4.513-.846-1.128.47-2.068,2.444-2.068,1.034,0,1.5.846,1.786,1.88.376,1.034.752,6.111,3.479,4.983,1.6-.658.564-2.726-.47-4.137-.846-1.128.47-2.068,2.444-2.068,1.034,0,1.5.94,1.786,1.88.376,1.034.47,5.077,3.1,4.607,1.786-.282.94-2.632,0-3.949-.846-1.128.47-2.068,2.444-2.068,1.034,0,1.6.846,1.786,1.88.658,2.538,1.128,4.795,3.009,4.513,1.128-.188,1.5-1.6.094-3.573-.752-1.128.47-2.068,2.444-2.068,1.034,0,1.5.94,1.88,1.88.376,1.034-.188,4.231,2.256,3.291,1.128-.47.658-1.88.47-3.1-.094-1.034.376-2.068,2.444-1.786,1.41.094,2.35.658,1.692,2.35-1.034,2.35,0,3.855,1.316,3.479,1.6-.47.846-2.82.846-3.479-.094-.94.376-1.692,2.256-1.6,1.222.094,1.974.658,1.41,2.162-.47,1.316-.94,3.761,1.316,3.291,1.692-.376.94-3.667.94-4.137-.094-.846.376-1.41,2.068-1.222,1.128.094,2.256.564,1.222,2.632-1.692,3.385,3.008,4.419,2.256-1.128-.094-.752.47-1.128,1.974-.846.846.188,1.786.752,1.222,1.786-2.068,3.855,2.82,5.453,2.256-.376-.094-.752.94-1.222,2.256-.94.846.188,1.5.846.94,1.6-2.162,3.385,1.692,5.547,2.162,0,.094-.752.752-1.316,2.068-.752.846.376,1.692.94,1.128,1.786-2.162,3.385,1.41,5.077,2.35.188.188-.752.376-1.222,2.068-.846,1.034.188,1.41.752.752,2.444a.713.713,0,0,1-.188.376c-.188.658-.282,1.316.282,1.6A1.891,1.891,0,0,0,239.382,86.822Z"
            transform="translate(-6.292 -2.441)" fill="#33c5ff" opacity="0.15"/>
      <path id="Pfad_4124" data-name="Pfad 4124" d="M152.5,72.8c21.06-.094,48.982,1.41,63.555,2.632"
            transform="translate(-9.572 -4.904)" fill="none" stroke="#009fe3" stroke-miterlimit="10" stroke-width="2"/>
      <path id="Pfad_4125" data-name="Pfad 4125"
            d="M103.6,169.661c.846-6.393,1.316-10.06,1.316-10.06a105.15,105.15,0,0,0,16.453,0c21.718-1.41,31.025-9.4,49.077-15.983,13.35-4.889,49.076-2.632,52.555.47,2.726,2.444,6.017,14.479,13.35,25.666"
            transform="translate(-6.646 -8.972)" fill="none" stroke="#8e8e8e" stroke-miterlimit="10" stroke-width="2"/>
      <path id="Pfad_4126" data-name="Pfad 4126"
            d="M274.65,161.273c4.889-64.683-13.538-77.187-27.735-82.452-5.829-2.162-5.923-2.256-30.931-6.769-7.051-1.222-52.649-4.231-79.726-3.385-10.718.282-31.213-11.376-37.7-16.171S92.352,41.12,89.25,33.223s-7.427-12.034-10.436-20.59C75.806,3.89,64.994-.435,53.43.787,32.746,2.761,36.695,6.616,31.806,11.317,29.926,13.1,16.481,15.83,9.148,16.206c-3.1.188-8.367.094-8.65,3.2-.564,5.829,9.308,17.581,12.41,18.9,3.1,1.41,15.983,3.573,24.632,6.017,8.555,2.444,12.034,11.47,12.41,21.06.376,10.154,3.667,23.692,4.983,26.795,1.41,3.1,1.034,4.983,3.1,18.239,2.444,16.171,12.786,33.47,14.479,38.265a92.042,92.042,0,0,1,2.256,12.5"
            transform="translate(-0.475 -0.584)" fill="none" stroke="#8e8e8e" stroke-miterlimit="10" stroke-width="2"/>
      <path id="Pfad_4127" data-name="Pfad 4127" d="M225.446,76.373C219.429,75.338,185.3,72.988,158.6,72.8"
            transform="translate(-9.937 -4.905)" fill="none" stroke="#33c5ff" stroke-miterlimit="10" stroke-width="2"/>
      <path id="Pfad_4128" data-name="Pfad 4128"
            d="M282.868,166.994a142.064,142.064,0,0,1-3.479-16.641c-1.692-13.068-1.786-33.846-2.256-38.641-1.034-9.778-8.273-14.1-7.239-15.513"
            transform="translate(-16.59 -6.305)" fill="none" stroke="#8e8e8e" stroke-miterlimit="10" stroke-width="2"/>
    </g>
    <g id="Gruppe_4780" data-name="Gruppe 4780" transform="translate(203.382 119)">
      <g id="Gruppe_maskieren_73" data-name="Gruppe maskieren 73" transform="translate(0 0)"
         clip-path="url(#clip-path)">
        <path id="Pfad_4075" data-name="Pfad 4075"
              d="M.7,41.348c6.077,1.594,22.716,8.17,26.2,9.863s1.395,6.277,3.786,6.974c2.291.7,10.362-1.494,13.948-5.28a19.26,19.26,0,0,0,3.487-4.982s1.3-2.69,7.273-2.69h.1c6.077,0,7.273,2.69,7.273,2.69a19.26,19.26,0,0,0,3.487,4.982c3.587,3.786,11.557,5.978,13.948,5.28,2.291-.7.2-5.38,3.786-6.974s20.125-8.17,26.2-9.863l.2-8.967c-8.07,2.59-31.184,13.45-36.963,10.959-5.779-2.59-15.144-11.856-14.745-19.926S59.182.5,55.3.5h.3c-3.886,0-3.686,14.845-3.387,22.915S43.241,40.751,37.463,43.341,8.57,34.972.5,32.382Z"
              transform="translate(-1.496 27.396)" fill="#33c5ff" opacity="0.15"/>
        <g id="Gruppe_4749" data-name="Gruppe 4749" transform="translate(0 21.309)">
          <path id="Pfad_4065" data-name="Pfad 4065"
                d="M108.7,39.293c-7.975,2.56-30.817,13.292-36.527,10.83C66.459,47.563,57.2,38.407,57.6,30.432S58.09,7.787,54.251,7.787h.3c-3.84,0-3.643,14.67-3.347,22.645S42.338,47.563,36.627,50.123,8.075,41.853.1,39.293V9.264c1.772.1,33.081-2.363,39.678-3.052C46.67,5.523,50.017.6,53.955.6h.2c4.037,0,7.286,4.923,14.178,5.612,6.7.689,37.905,3.151,39.678,3.052Z"
                transform="translate(-0.1 -0.502)" fill="#a9a9a9" opacity="0.15"/>
          <path id="Pfad_4066" data-name="Pfad 4066"
                d="M108.7,39.406C100.722,41.966,77.88,52.7,72.17,50.236,66.459,47.676,57.2,38.52,57.6,30.545S58.09,7.9,54.251,7.9h.3c-3.84,0-3.643,14.67-3.347,22.645S42.338,47.676,36.627,50.236,8.075,41.966.1,39.406"
                transform="translate(-0.1 -0.614)" fill="none" stroke="#a9a9a9" stroke-miterlimit="10"
                stroke-width="2"/>
          <path id="Pfad_4067" data-name="Pfad 4067"
                d="M108.5,48.9c-6.006,1.575-22.448,8.073-25.894,9.747-3.446,1.575-1.378,6.2-3.741,6.892s-10.239-1.477-13.784-5.218A19.032,19.032,0,0,1,61.638,55.4s-1.28-2.658-7.187-2.658h-.1c-6.006,0-7.187,2.658-7.187,2.658a19.032,19.032,0,0,1-3.446,4.923c-3.544,3.741-11.421,5.907-13.784,5.218s-.2-5.317-3.741-6.892S6.306,50.475.3,48.9"
                transform="translate(-0.103 -1.247)" fill="none" stroke="#a9a9a9" stroke-miterlimit="10"
                stroke-width="2"/>
          <path id="Pfad_4068" data-name="Pfad 4068"
                d="M108.2,9.164c-1.772.1-33.081-2.363-39.678-3.052C61.635,5.423,58.287.5,54.349.5h-.2c-4.037,0-7.286,4.923-14.178,5.612C33.181,6.8,1.872,9.361.1,9.164"
                transform="translate(-0.1 -0.5)" fill="none" stroke="#33c5ff" stroke-miterlimit="10" stroke-width="2"/>
          <path id="Pfad_4069" data-name="Pfad 4069"
                d="M66.042,60.8A11.8,11.8,0,1,1,43.2,64.935,10.362,10.362,0,0,1,43.889,61"
                transform="translate(-0.766 -1.431)" fill="none" stroke="#a9a9a9" stroke-miterlimit="10"
                stroke-width="2"/>
          <path id="Pfad_4070" data-name="Pfad 4070"
                d="M35.086,69.4c-1.674.788-7.286,3.151-7.286,8.27,0,5.021,6.1,9.058,6.1,12.11"
                transform="translate(-0.528 -1.564)" fill="none" stroke="#a9a9a9" stroke-miterlimit="10"
                stroke-width="2"/>
          <path id="Pfad_4071" data-name="Pfad 4071"
                d="M75.153,65.4a28.278,28.278,0,0,1-.3,5.218,5.7,5.7,0,0,1,1.575,3.544V96.217a21.3,21.3,0,0,1-21.266,21.266h0A21.3,21.3,0,0,1,33.9,96.217V74.163a5.7,5.7,0,0,1,1.575-3.544,28.278,28.278,0,0,1-.3-5.218"
                transform="translate(-0.622 -1.502)" fill="none" stroke="#a9a9a9" stroke-miterlimit="10"
                stroke-width="2"/>
          <path id="Pfad_4072" data-name="Pfad 4072"
                d="M76,69.4c1.674.788,7.286,3.151,7.286,8.27,0,5.021-6.1,9.058-6.1,12.11"
                transform="translate(-1.272 -1.564)" fill="none" stroke="#a9a9a9" stroke-miterlimit="10"
                stroke-width="2"/>
        </g>
        <g id="Gruppe_4751" data-name="Gruppe 4751" transform="translate(-0.582 -5.99)">
          <path id="Pfad_2056" data-name="Pfad 2056"
                d="M28,105.2s15.732,8.74,19.3,9.816c3.63,1.143,20.1,0,24.943,1.614,5.11,1.681,25.749,12.5,31.33,15.329,3.429,1.748,1.412,4.975-4.1,4.1a119.738,119.738,0,0,1-22.59-6.32"
                transform="translate(-21.186 -105.2)" fill="none" stroke="#dfdfdf" stroke-linecap="round"
                stroke-miterlimit="10" stroke-width="2"/>
          <path id="Pfad_2057" data-name="Pfad 2057"
                d="M0,0S8.2,2.555,8.942,3.093,14.858,9.211,22.724,11.7c6.521,2.017,25.749-2.084,29.514-3.227,4.5-1.345,4.706-6.454-1.479-6.32-6.925.134-16.942-.2-19.3-1.345"
                transform="matrix(0.998, -0.07, 0.07, 0.998, 0, 20.507)" fill="#fff" stroke="#dfdfdf"
                stroke-linecap="round" stroke-miterlimit="10" stroke-width="2"/>
        </g>
      </g>
      <g id="Pfad_4074" data-name="Pfad 4074" transform="translate(0 0)" fill="none">
        <path d="M54.3,0A54.3,54.3,0,1,1,0,54.3,54.3,54.3,0,0,1,54.3,0Z" stroke="none"/>
        <path d="M 54.29834747314453 1.999992370605469 C 47.23723983764648 1.999992370605469 40.38839721679688 3.382469177246094 33.94208526611328 6.109039306640625 C 27.71466827392578 8.743011474609375 22.12145233154297 12.51419067382812 17.31782531738281 17.31782531738281 C 12.51419067382812 22.12145233154297 8.743011474609375 27.71466827392578 6.109039306640625 33.94208526611328 C 3.382469177246094 40.38839721679688 1.999992370605469 47.23723983764648 1.999992370605469 54.29834747314453 C 1.999992370605469 61.35945510864258 3.382469177246094 68.20829772949219 6.109039306640625 74.65460968017578 C 8.743011474609375 80.88202667236328 12.51419067382812 86.4752197265625 17.31782531738281 91.27885437011719 C 22.12145233154297 96.08250427246094 27.71466827392578 99.85366821289062 33.94208526611328 102.4876403808594 C 40.38839721679688 105.2142105102539 47.23723983764648 106.5966873168945 54.29834747314453 106.5966873168945 C 61.35945510864258 106.5966873168945 68.20829772949219 105.2142105102539 74.65460968017578 102.4876403808594 C 80.88202667236328 99.85366821289062 86.4752197265625 96.08250427246094 91.27885437011719 91.27885437011719 C 96.08250427246094 86.4752197265625 99.85366821289062 80.88202667236328 102.4876403808594 74.65460968017578 C 105.2142105102539 68.20829772949219 106.5966873168945 61.35945510864258 106.5966873168945 54.29834747314453 C 106.5966873168945 47.23723983764648 105.2142105102539 40.38839721679688 102.4876403808594 33.94208526611328 C 99.85366821289062 27.71466827392578 96.08250427246094 22.12145233154297 91.27885437011719 17.31782531738281 C 86.4752197265625 12.51419067382812 80.88202667236328 8.743011474609375 74.65460968017578 6.109039306640625 C 68.20829772949219 3.382469177246094 61.35945510864258 1.999992370605469 54.29834747314453 1.999992370605469 M 54.29834747314453 -7.62939453125e-06 C 84.2864990234375 -7.62939453125e-06 108.5966873168945 24.31019592285156 108.5966873168945 54.29834747314453 C 108.5966873168945 84.2864990234375 84.2864990234375 108.5966873168945 54.29834747314453 108.5966873168945 C 24.31019592285156 108.5966873168945 -7.62939453125e-06 84.2864990234375 -7.62939453125e-06 54.29834747314453 C -7.62939453125e-06 24.31019592285156 24.31019592285156 -7.62939453125e-06 54.29834747314453 -7.62939453125e-06 Z"
              stroke="none" fill="#dfdfdf"/>
      </g>
    </g>
  </g>
</svg>
