<?xml version="1.0" encoding="utf-8"?>
<!-- Generator: Adobe Illustrator 23.0.1, SVG Export Plug-In . SVG Version: 6.00 Build 0)  -->
<svg version="1.1" id="Ebene_1" xmlns="http://www.w3.org/2000/svg" x="0px" y="0px"
	 viewBox="0 0 196.4 67.2" style="enable-background:new 0 0 196.4 67.2;" xml:space="preserve">
<style type="text/css">
	.st0{fill:#FFFFFF;}
	.st1{fill:#00A7BE;}
	.st2{fill:#C6C6C5;}
</style>
	<title>thin</title>
	<g>
	<g id="Ebene_1-2">
		<g>
			<path class="st0" d="M195.7,66.5c-11.7-9.8-25.9-12.2-50.4-16.5c-14.2-2.5-32.2,0.4-35.9,0.2c-4.7-0.3-5-10.4-11.3-10.4
				s-6.6,10.1-11.3,10.4c-3.7,0.2-23.1-2.4-35.9-0.2c-23.5,4-38.7,6.8-50.4,16.6"/>
			<path class="st1" d="M195.1,67.2c-11.4-9.6-25.9-12.1-49.7-16.3l-0.2,0c-10.2-1.8-22.4-0.8-29.8-0.2c-2.9,0.2-4.9,0.4-6,0.3
				c-2.7-0.2-4.1-2.7-5.5-5.2c-1.5-2.7-2.9-5.2-5.7-5.2c-2.8,0-4.2,2.5-5.7,5.2c-1.4,2.5-2.8,5-5.5,5.2c-1.1,0.1-3.4-0.1-6.5-0.3
				c-7.6-0.5-20.2-1.5-29.3,0.1C26.9,55,12.6,57.8,1.3,67.2L0,65.7c11.7-9.8,26.2-12.6,50.9-16.8c9.3-1.6,22.1-0.7,29.8-0.1
				c2.9,0.2,5.3,0.4,6.2,0.3c1.6-0.1,2.6-2,3.9-4.2c1.5-2.8,3.5-6.2,7.5-6.2c4,0,5.9,3.5,7.5,6.2c1.2,2.2,2.3,4.1,3.9,4.2
				c1,0,3.1-0.1,5.7-0.3c7.4-0.6,19.9-1.6,30.3,0.2l0.2,0c24.2,4.2,38.8,6.8,50.7,16.7L195.1,67.2z"/>
		</g>
		<g>
			<path class="st2" d="M132.1,47.3c-0.8,0-1.7-0.1-2.7-0.2c-17.2-2.8-33.1-10.3-33.3-10.4c-0.5-0.2-0.7-0.8-0.5-1.3
				c0.2-0.5,0.8-0.7,1.3-0.5c0.2,0.1,15.8,7.5,32.7,10.2c4.2,0.7,6.6-0.4,7.1-1.8c0.3-0.9-0.3-1.8-1.6-2.5c-1.1-0.6-2.6-1.4-4.3-2.4
				c-11.4-6.2-35-19.2-41.5-21.4c-3.7-1.2-12.8-0.8-20.8-0.4c-7.3,0.3-13.5,0.6-16.2-0.2C47.1,14.9,24.5,2.4,23.5,1.9
				C23,1.6,22.9,1,23.1,0.5C23.4,0,24-0.1,24.5,0.1c0.2,0.1,23.4,13,28.5,14.5c2.3,0.7,9,0.4,15.5,0.1c8.6-0.4,17.4-0.8,21.5,0.5
				c6.7,2.2,30.4,15.2,41.8,21.5c1.8,1,3.3,1.8,4.3,2.4c2.1,1.2,3.1,3.1,2.5,4.9C138.1,45.6,136.1,47.3,132.1,47.3z"/>
		</g>
		<g>
			<path class="st0" d="M14.4,28.6c0,0,12.2,3.8,13.3,4.6s8.8,9.1,20.5,12.8c9.7,3,38.2-5,43.7-6.6c6.7-2,7-9.6-2.2-9.5
				c-10.3,0.2-24.8,0.5-29.1-1"/>
			<path class="st2" d="M54,47.7c-2.4,0-4.4-0.2-6-0.7c-10.3-3.2-17.4-9.7-20-12.2c-0.4-0.4-0.7-0.6-0.8-0.7
				c-0.7-0.5-7.2-2.7-13-4.5c-0.5-0.2-0.8-0.7-0.7-1.3s0.7-0.8,1.3-0.7c2.9,0.9,12.4,3.9,13.6,4.8c0.2,0.2,0.5,0.4,1,0.9
				c2.6,2.4,9.4,8.7,19.3,11.8c9.7,3,39.7-5.6,43.1-6.6c3-0.9,4.4-3,4.1-4.6c-0.3-1.9-2.6-3-6-2.9c-12.6,0.2-25.3,0.4-29.5-1.1
				c-0.5-0.2-0.8-0.7-0.6-1.3c0.2-0.5,0.7-0.8,1.3-0.6c4.2,1.4,19.6,1.1,28.8,0.9c5.4-0.1,7.7,2.3,8.1,4.6c0.4,2.9-1.9,5.7-5.5,6.8
				C87.5,41.7,66.5,47.7,54,47.7z"/>
		</g>
	</g>
</g>
</svg>
