<?xml version="1.0" encoding="utf-8"?>
<!-- Generator: Adobe Illustrator 23.0.1, SVG Export Plug-In . SVG Version: 6.00 Build 0)  -->
<svg version="1.1" id="Ebene_1" xmlns="http://www.w3.org/2000/svg" x="0px" y="0px"
	 viewBox="0 0 196.3 64.7" style="enable-background:new 0 0 196.3 64.7;" xml:space="preserve">
<style type="text/css">
	.st0{fill:#FFFFFF;}
	.st1{fill:#00A7BE;}
	.st2{fill:#C6C6C5;}
</style>
	<title>ultra thin</title>
	<g>
	<g id="Ebene_1-2">
		<g>
			<path class="st0" d="M195.7,63.9c-5-3.6-23.7-10.9-46.3-12.5c-12.3-0.9-36.3,2.4-40,2.2c-4.7-0.3-5-18.4-11.3-18.4
				s-6.6,18.1-11.3,18.4c-3.7,0.2-25-4.1-39.7-2.4C23.6,54,4.5,60.9,0.6,63.9"/>
			<path class="st1" d="M195.1,64.7c-4.8-3.5-23.2-10.7-45.7-12.3c-8.1-0.6-21.4,0.7-30.3,1.5c-4.9,0.4-8.4,0.8-9.7,0.7
				c-2.8-0.2-4.1-4.2-5.6-8.9c-1.4-4.4-3-9.5-5.6-9.5s-4.2,5-5.6,9.5c-1.5,4.7-2.8,8.8-5.6,8.9c-1.2,0.1-3.9-0.3-7.7-0.8
				c-8.2-1-21.8-2.8-31.9-1.6C24.1,54.9,5,61.8,1.2,64.7L0,63.1C4,60,23.2,53,47.2,50.2c10.4-1.2,23.6,0.5,32.4,1.6
				c3.5,0.5,6.3,0.8,7.3,0.8c1.5-0.1,2.8-4.2,3.8-7.5c1.7-5.3,3.4-10.9,7.5-10.9c4.1,0,5.8,5.5,7.5,10.9c1,3.3,2.3,7.5,3.8,7.5
				c1.2,0.1,4.8-0.3,9.4-0.7c8.9-0.8,22.4-2.1,30.6-1.5c23,1.7,41.8,9.1,46.8,12.7L195.1,64.7z"/>
		</g>
		<g>
			<path class="st2" d="M128.6,50.3c-1.9,0-4-0.6-6.3-2c-13-8.3-24.4-15.6-24.4-15.6c-0.5-0.3-0.6-0.9-0.3-1.4
				c0.3-0.5,0.9-0.6,1.4-0.3c0,0,11.4,7.3,24.4,15.6c3.8,2.4,7.2,2,8.4,0.5c0.7-0.9,0.6-2-0.5-3.1c-2.5-2.6-30.7-27.9-38.3-28.1
				c-5.7-0.1-14.3,0.1-21.9,0.2c-6.9,0.1-12.9,0.3-15.7,0.2C49.7,16,24.1,2.5,23,1.9c-0.5-0.3-0.7-0.9-0.4-1.4
				c0.3-0.5,0.9-0.7,1.4-0.4C31.2,4,51.1,14.1,55.6,14.3c2.7,0.1,8.9,0,15.5-0.2c7.6-0.2,16.3-0.4,22-0.2c9,0.2,37.9,26.9,39.7,28.7
				c1.7,1.8,2,4,0.6,5.7C132.5,49.5,130.7,50.3,128.6,50.3z"/>
		</g>
		<g>
			<path class="st0" d="M21.1,30.9c0,0,11,3.2,12.4,3.7s11,13.2,23.6,13.5S92.4,35,97.5,32c6.1-3.7,4.4-11.4-4.7-8.8
				C82.6,26,67.9,29.7,64,28.9"/>
			<path class="st2" d="M57.5,49.2c-0.1,0-0.3,0-0.4,0C46.7,48.9,38.2,40.6,34.6,37c-0.7-0.7-1.4-1.4-1.6-1.5
				c-1-0.4-9.2-2.8-12.2-3.7c-0.5-0.2-0.8-0.7-0.7-1.2c0.2-0.5,0.7-0.8,1.2-0.7c0.5,0.1,11.1,3.2,12.5,3.7c0.5,0.2,0.9,0.6,2.2,1.9
				C39.5,39,47.5,47,57.1,47.2c7.9,0.2,22.1-5.5,39.9-16c2.8-1.7,3.6-4.1,2.9-5.6c-0.8-1.8-3.4-2.3-6.8-1.3
				c-16.5,4.6-26.1,6.4-29.3,5.8c-0.5-0.1-0.9-0.6-0.8-1.2c0.1-0.5,0.6-0.9,1.2-0.8c2,0.4,8.5-0.3,28.4-5.7c5.3-1.5,8.2,0.3,9.2,2.5
				c1.2,2.7-0.4,6.1-3.7,8.2C80,43.5,66,49.2,57.5,49.2z"/>
		</g>
	</g>
</g>
</svg>
