<?xml version="1.0" encoding="utf-8"?>
<!-- Generator: Adobe Illustrator 23.0.1, SVG Export Plug-In . SVG Version: 6.00 Build 0)  -->
<svg version="1.1" id="Ebene_1" xmlns="http://www.w3.org/2000/svg" x="0px" y="0px"
	 viewBox="0 0 196.4 79.2" style="enable-background:new 0 0 196.4 79.2;" xml:space="preserve">
<style type="text/css">
	.st0{fill:#FFFFFF;}
	.st1{fill:#00A7BE;}
	.st2{fill:#C6C6C5;}
</style>
	<title>ultra obese</title>
	<g>
	<g id="Ebene_1-2">
		<g>
			<path class="st0" d="M195.7,78.4c-11.7-9.8-30.2-15.8-54.4-21.5c-12-2.8-16.2-3.8-19.9-3.8c-9.5,0-17,4.6-23.3,4.6
				S84.1,53,74.9,53c-3.7,0-8.1,1-19.9,3.8C31.8,62.1,12.3,68.6,0.6,78.4"/>
			<path class="st1" d="M195.1,79.1c-12.4-10.4-33.3-16.4-54-21.3l-0.7-0.2C129.2,55,125,54,121.4,54c-5.1,0-9.7,1.4-13.8,2.6
				c-3.4,1-6.6,2-9.5,2c-3,0-6.3-1-9.7-2c-4.1-1.2-8.7-2.6-13.5-2.6c-3.6,0-7.9,1-19.7,3.7C28.1,64,11.5,70.6,1.3,79.1L0,77.6
				c10.4-8.7,27.3-15.5,54.8-21.8C66.8,53,71.1,52,74.9,52c5.2,0,9.9,1.4,14.1,2.7c3.3,1,6.5,1.9,9.1,1.9c2.7,0,5.6-0.9,8.9-1.9
				c4.2-1.3,8.9-2.7,14.3-2.7c3.8,0,7.7,0.9,19.4,3.7l0.7,0.2c20.9,5,42.1,11.1,54.8,21.7L195.1,79.1z"/>
		</g>
		<g>
			<path class="st2" d="M144.8,55c-1.1,0-2.3-0.1-3.7-0.4c-16.9-3.8-33.4-6.1-33.6-6.1c-0.5-0.1-0.9-0.6-0.9-1.1
				c0.1-0.5,0.6-0.9,1.1-0.9c0.2,0,16.8,2.3,33.7,6.1c4.7,1,7.1-0.2,7.5-1.3c0.3-0.8-0.4-1.8-1.7-2.6c-6.5-3.9-25.9-11.6-38.8-16.7
				c-2.9-1.1-5.4-2.2-7.4-3c-3.9-1.6-16.3-4.6-26.2-6.9c-4.9-1.2-9.2-2.2-11.4-2.8c-5.4-1.5-27.1-16.8-28-17.5
				c-0.5-0.3-0.6-0.9-0.2-1.4c0.3-0.4,0.9-0.6,1.4-0.2C44.4,5.6,60,16.2,64.1,17.4c2.2,0.6,6.4,1.6,11.3,2.8c10,2.4,22.4,5.4,26.5,7
				c2,0.8,4.6,1.8,7.4,3c12.9,5.1,32.4,12.9,39,16.9c2.7,1.6,3.1,3.7,2.6,5C150.3,53.7,148.2,55,144.8,55z"/>
		</g>
		<g>
			<path class="st0" d="M24.8,28c0,0,9.9,4.4,11,5.3S49,47.4,61.2,49c14.3,1.8,31.5,1.5,41.2,1.5c7-0.1,7.4-7.7-1.6-9.6
				c-9.5-2-22.9-4.1-28.5-5.8"/>
			<path class="st2" d="M92.1,51.5c-9.3,0-20.9-0.2-31-1.5c-7.4-1-15.9-6.1-25.2-15.2c-0.4-0.4-0.6-0.6-0.7-0.7
				c-0.6-0.5-6-3-10.8-5.2c-0.5-0.2-0.7-0.8-0.5-1.3c0.2-0.5,0.8-0.7,1.3-0.5c1.7,0.7,10.1,4.5,11.2,5.4c0.1,0.1,0.4,0.4,0.8,0.8
				c9,8.8,17.1,13.8,24,14.7c13.4,1.7,29.7,1.6,39.4,1.5l1.6,0c2.4,0,4-1,4.2-2.6c0.2-1.7-1.6-4-6-5c-3.6-0.7-7.7-1.5-11.7-2.3
				C82,38.3,75.5,37.1,72,36.1c-0.5-0.2-0.8-0.7-0.7-1.2c0.2-0.5,0.7-0.8,1.2-0.7c3.4,1,9.8,2.2,16.6,3.5c4,0.7,8.2,1.5,11.8,2.3
				c5.6,1.2,7.9,4.4,7.6,7.1c-0.2,2.2-2.2,4.4-6.2,4.4l-1.6,0C98.3,51.5,95.3,51.5,92.1,51.5z"/>
		</g>
	</g>
</g>
</svg>
