<svg id="ic_settings_24px" xmlns="http://www.w3.org/2000/svg" width="27.881" height="27.881" viewBox="0 0 27.881 27.881">
  <path id="Pfad_1076" data-name="Pfad 1076" d="M0,0H27.881V27.881H0Z" fill="none"/>
  <g id="Gruppe_14374" data-name="Gruppe 14374" transform="translate(-334.853 277.346)">
    <g id="Gruppe_14370" data-name="Gruppe 14370" transform="translate(342.279 -266.038)">
      <g id="Gruppe_14369" data-name="Gruppe 14369" transform="translate(0 0)">
        <path id="Pfad_13157" data-name="Pfad 13157" d="M356.526-264.553l-.737,11.864h-12.24l-.732-11.795" transform="translate(-342.817 264.553)" fill="none" stroke="#00b7ff" stroke-linecap="round" stroke-linejoin="round" stroke-width="1.5"/>
      </g>
    </g>
    <path id="Pfad_13158" data-name="Pfad 13158" d="M339.853-263.9l9.28-8.833,9.28,8.833" transform="translate(0)" fill="none" stroke="#00b7ff" stroke-linecap="round" stroke-linejoin="round" stroke-width="1.5"/>
    <path id="Pfad_13165" data-name="Pfad 13165" d="M3.2,0A3.2,3.2,0,0,1,6.4,3.2C6.4,4.967,0,4.967,0,3.2A3.2,3.2,0,0,1,3.2,0Z" transform="translate(345.933 -262.306)" fill="none" stroke="#00b7ff" stroke-linecap="round" stroke-width="1.5"/>
    <g id="Gruppe_14373" data-name="Gruppe 14373" transform="translate(346.795 -269.099)">
      <path id="Pfad_13159" data-name="Pfad 13159" d="M352.742-263.907c-.3.336-.9.048-1.309.048s-1.019.314-1.309-.048c-.4-.5.586-2.035,1.309-2.035S353.171-264.384,352.742-263.907Z" transform="translate(-349.123 267.785)" fill="#00b7ff"/>
      <g id="Gruppe_14371" data-name="Gruppe 14371" transform="translate(0 1.394)">
        <ellipse id="Ellipse_2136" data-name="Ellipse 2136" cx="0.461" cy="0.626" rx="0.461" ry="0.626" fill="#00b7ff"/>
        <ellipse id="Ellipse_2137" data-name="Ellipse 2137" cx="0.461" cy="0.626" rx="0.461" ry="0.626" transform="translate(3.706)" fill="#00b7ff"/>
      </g>
      <g id="Gruppe_14372" data-name="Gruppe 14372" transform="translate(0.974 0)">
        <ellipse id="Ellipse_2138" data-name="Ellipse 2138" cx="0.57" cy="0.822" rx="0.57" ry="0.822" fill="#00b7ff"/>
        <ellipse id="Ellipse_2139" data-name="Ellipse 2139" cx="0.57" cy="0.822" rx="0.57" ry="0.822" transform="translate(1.541)" fill="#00b7ff"/>
      </g>
    </g>
  </g>
</svg>
