<svg xmlns="http://www.w3.org/2000/svg" width="30.763" height="27.445" viewBox="0 0 30.763 27.445">
  <g id="ic_settings_24px" transform="translate(1.404)">
    <path id="Pfad_1076" data-name="Pfad 1076" d="M0,0H27.445V27.445H0Z" fill="none"/>
    <g id="Gruppe_14361" data-name="Gruppe 14361" transform="translate(794.517 -365.523)">
      <path id="Pfad_13154" data-name="Pfad 13154" d="M-782.919,377.48l-1.754-2.395a1.4,1.4,0,0,1,1.031-2.247h4.535a1.4,1.4,0,0,1,1.031,2.247l-1.754,2.395A1.885,1.885,0,0,1-782.919,377.48Z" transform="translate(0.836 0.226)" fill="none" stroke="#8e8e8e" stroke-linecap="round" stroke-linejoin="round" stroke-width="1.5"/>
      <line id="Linie_3071" data-name="Linie 3071" y1="5.094" transform="translate(-780.539 378.657)" fill="none" stroke="#8e8e8e" stroke-linecap="round" stroke-linejoin="round" stroke-width="1.5"/>
      <g id="Gruppe_14361-2" data-name="Gruppe 14361" transform="translate(-790.573 382.845)">
        <path id="Pfad_13155" data-name="Pfad 13155" d="M-780.881,381.873a5.3,5.3,0,0,1-5.018,5.54,5.3,5.3,0,0,1-5.018-5.54" transform="translate(790.916 -381.873)" fill="none" stroke="#8e8e8e" stroke-linecap="round" stroke-linejoin="round" stroke-width="1.5"/>
        <path id="Pfad_13156" data-name="Pfad 13156" d="M-771.614,381.873a5.3,5.3,0,0,1-5.018,5.54,5.3,5.3,0,0,1-5.018-5.54" transform="translate(791.681 -381.873)" fill="none" stroke="#8e8e8e" stroke-linecap="round" stroke-linejoin="round" stroke-width="1.5"/>
      </g>
      <g id="Gruppe_14362" data-name="Gruppe 14362" transform="translate(-795.071 370.097)">
        <line id="Linie_3072" data-name="Linie 3072" y1="2.794" x2="7.413" transform="translate(21.084)" fill="none" stroke="#8e8e8e" stroke-linecap="round" stroke-linejoin="round" stroke-width="1.5"/>
        <line id="Linie_3073" data-name="Linie 3073" x2="7.841" y2="1.13" transform="translate(21.223 5.923)" fill="none" stroke="#8e8e8e" stroke-linecap="round" stroke-linejoin="round" stroke-width="1.5"/>
        <line id="Linie_3074" data-name="Linie 3074" x1="7.413" y1="2.794" transform="translate(0.568)" fill="none" stroke="#8e8e8e" stroke-linecap="round" stroke-linejoin="round" stroke-width="1.5"/>
        <line id="Linie_3075" data-name="Linie 3075" x1="7.841" y2="1.13" transform="translate(0 5.923)" fill="none" stroke="#8e8e8e" stroke-linecap="round" stroke-linejoin="round" stroke-width="1.5"/>
      </g>
    </g>
  </g>
</svg>
