<?xml version="1.0" encoding="utf-8"?>
<!-- Generator: Adobe Illustrator 19.2.0, SVG Export Plug-In . SVG Version: 6.00 Build 0)  -->
<svg version="1.1" xmlns="http://www.w3.org/2000/svg" xmlns:xlink="http://www.w3.org/1999/xlink" x="0px" y="0px"
	 viewBox="0 0 155.9 123.3" style="enable-background:new 0 0 155.9 123.3;" xml:space="preserve">
<style type="text/css">
	.st0{display:none;}
	.st1{display:inline;fill:#FFBC00;}
	.st2{display:inline;fill:none;stroke:#4F4F4F;stroke-width:2;stroke-linecap:round;stroke-linejoin:round;stroke-miterlimit:10;}
	
		.st3{display:inline;fill:#FFFFFF;stroke:#4F4F4F;stroke-width:2;stroke-linecap:round;stroke-linejoin:round;stroke-miterlimit:10;}
	
		.st4{display:inline;fill:#FFBC00;stroke:#4F4F4F;stroke-width:2;stroke-linecap:round;stroke-linejoin:round;stroke-miterlimit:10;}
	.st5{fill:#FFBC00;}
	.st6{fill:none;stroke:#4F4F4F;stroke-width:2;stroke-linecap:round;stroke-linejoin:round;stroke-miterlimit:10;}
	
		.st7{display:inline;fill:#FFBC00;stroke:#565656;stroke-width:2;stroke-linecap:round;stroke-linejoin:round;stroke-miterlimit:10;}
	.st8{display:inline;fill:none;stroke:#565656;stroke-width:2;stroke-linecap:round;stroke-linejoin:round;stroke-miterlimit:10;}
	.st9{display:inline;fill:none;stroke:#8E8E8E;stroke-width:2;stroke-linecap:round;stroke-linejoin:round;stroke-miterlimit:10;}
</style>
<g id="fröhlich" class="st0">
	<path class="st1" d="M78.5,23.3c-1.6,5-5,30.7,6.7,44.7c8.3,10,28.7,6.3,33.3,5l-4-23.7l5-3.7l-3.7-29L100.1,22c0,0-1.5,4-2.7,3.5
		C93.3,23.7,78.5,23.3,78.5,23.3z"/>
	<path class="st2" d="M41.5,45.2c0.8,6.8-5,26.3-6.4,36.1c-1.4,9.8,2.4,17.1,7.7,22c4.3,4,21.8,7.8,29.3,0.3
		c7.4-7.4,5.4-14.7,5.4-14.7"/>
	<path class="st2" d="M113.4,42.1c-0.8,6.8,5.7,29.5,7.1,39.2s-2.4,17.1-7.7,22c-4.3,4-21.8,7.8-29.3,0.3C76.1,96.2,78,88.9,78,88.9
		"/>
	<path class="st2" d="M65.1,48.5c-5.8-4.5-16,2.2-17.7,11.2C45.9,68.2,54,72.1,60.1,69C70.8,63.7,71.1,53.2,65.1,48.5z"/>
	<path class="st2" d="M63.6,66.8c1.7-3.5,2.3-8.5-1.3-11.2c-2.7-2-6.5-1.3-8.2,5c-1.6,6.2,2.2,8.8,4.3,8.8"/>
	<path class="st2" d="M77.8,88.3c-1.3-1.3-6.3-3.8-8-9.5c-1.5-5.2,1.3-8.2,7-8.3c5.9-0.2,8.9,2.7,8.2,6.5
		C84,82.5,77.8,88.3,77.8,88.3z"/>
	<path class="st2" d="M34.8,83.8c0,0,0,6.5-6.2,6.2c-7.2-0.3-5.6-11.7-9-18.5C15.9,64.1,6.9,56.1,7,46c0.1-11.5,9.4-9.6,27.3-23
		c8.7-6.5,12.8-3.5,16.3,3.2c0,0,27.5-6.8,48,0"/>
	<path class="st3" d="M88.8,48.5c5.8-4.5,16,2.2,17.7,11.2c1.6,8.5-6.5,12.4-12.7,9.3C83.2,63.7,82.8,53.2,88.8,48.5z"/>
	<path class="st2" d="M90.3,66.8c-1.5-3.3-2.3-8.5,1.3-11.2c2.7-2,6.5-1.3,8.2,5c1.6,6.2-2.2,8.8-4.3,8.8"/>
	<path class="st2" d="M118.6,46.8c-1.5,0.5-3.8,3.3-4.3,4.3"/>
	<path class="st2" d="M71.1,104.7c-1.3,8.3,1.7,16.8,9,15c6.7-1.7,5-14.3,5-14.3"/>
	<path class="st2" d="M78.5,111.7c-0.7-4.7-0.7-17-0.7-17"/>
	<path class="st4" d="M98.8,25.7c1.7-7,10.8-22.8,18.3-22.1c6.8,0.7,7.4,4.6,10.7,8.6c4.7,5.8,14.3,4.4,17.8,14.2
		c2.2,6,0.8,10.3-5,16c-7.5,7.3-4,12.8-8,15.8c-5,3.8-8,0.2-11.5-7.1c-5.6-11.4-5.7-21.7-4.7-30.7"/>
</g>
<g id="schlapp" class="st0">
	<path class="st1" d="M78.5,23.3c-1.6,5-5.6,31.6,6,45.7c9.3,11.3,28.3,6.3,34,4l-4-23.7l5-3.7l-7.3-26.3l-6.7,8c0,0-6.9-1.3-8-1.8
		C93.3,23.7,78.5,23.3,78.5,23.3z"/>
	<path class="st4" d="M120.8,84.3c0,0,0.5,6.7,6.6,5.7c6.1-1,4.7-9.6,8.2-16.3c3.8-7.4,14-18,10.3-28.5c-4.2-12-10.5-6.8-21.7-20.2
		c-9-10.8-15.3-4.3-18.8,2.3"/>
	<path class="st2" d="M41.5,45.2c0.8,6.8-5,26.3-6.4,36.1c-1.4,9.8,2.4,17.1,7.7,22c4.3,4,12.8,9.3,29.3-0.3
		c7.7-4.4,5.4-14.2,5.4-14.2"/>
	<path class="st2" d="M78,88.3c-1.4-1.1-6.5-3.3-8.2-8.2c-1.5-4.4,1.4-7,7.1-7.2c6-0.1,9,2.3,8.3,5.6C84.3,83.3,78,88.3,78,88.3z"/>
	<path class="st2" d="M34.8,83.8c0,0,0,6.6-6.2,6.2c-4.8-0.3-4.7-9.6-8.2-16.3c-3.8-7.4-14-18-10.3-28.5c4.2-12,10.5-6.8,21.7-20.2
		c9-10.8,15.3-4.3,18.8,2.3c0,0,32.5-9,54.3,0"/>
	<path class="st3" d="M107.3,56.9c0.6,1.2,1,2.5,1.2,3.8c1.6,8.5-6.3,11.9-12.7,9.3c-11.2-4.4-11-15.8-5-20.5"/>
	<path class="st2" d="M92.1,67.6c-1.5-3.3-1.7-6.1,2-8.8c2.7-2,8.5,0,8.3,5.8c-0.2,3.8-2.7,5.9-4.9,5.9"/>
	<path class="st2" d="M91.1,49.6c2.5,0.3,5.6,5.3,15.8,7.1"/>
	<path class="st2" d="M47.4,56.9c-0.6,1.2-1,2.5-1.2,3.8c-1.6,8.5,6.2,11.8,12.7,9.3c11.6-4.4,11-15.8,5-20.5"/>
	<path class="st2" d="M62.6,67.6c1.5-3.3,1.5-6.1-2.1-8.8c-2.7-2-7.9,0-8.3,5.8c-0.2,3.8,2.7,5.9,4.9,5.9"/>
	<path class="st2" d="M63.5,49.6c-2.5,0.3-6.5,5.2-15.9,7.1"/>
	<path class="st2" d="M113.4,42.3c-0.8,6.8,5.6,29.2,7,39c1.4,9.8-2.4,17.1-7.7,22c-4.3,4-13.7,10.7-29.3-0.3
		C77.1,98.7,78,88.9,78,88.9"/>
</g>
<g id="krank" class="st0">
	<path class="st4" d="M115.1,101c0,0,1.1,6.7,7.5,4.3c5.7-2.1,9.5-13,12.9-24c3-9.7,9.7-11.3,10-21.7c0.5-15.4-8.2-16.3-15.9-28.3
		c-7.6-11.9-14-10.7-20.3-3.7"/>
	<path class="st3" d="M114.2,45.2c-0.7,13.4,5,26.3,6.4,36.1c1.4,9.8-2.4,17.1-7.7,22c-4.3,4-11.2,7.4-29.4,1.7
		c-2.7-0.9-8.7-0.7-11.4,0c-18.4,4.9-24.9,2.3-29.2-1.7c-5.3-4.9-9.1-12.2-7.7-22c1.4-9.8,7.7-19.7,6.4-36.1"/>
	<path class="st1" d="M79.1,21.3c-1.6,5-6.2,33.6,5.3,47.7c9.3,11.3,28.3,6.3,34,4l-4-23.7l5-3.7l-3.6-23.1l-7.3,5.8
		c0,0-7.9-2.5-9-3C95.5,23.5,79.1,21.3,79.1,21.3z"/>
	<path class="st2" d="M78,88.3c-1.4-1.1-6.5-3.3-8.2-8.2c-1.5-4.4,1.4-7,7.1-7.2c6-0.1,9,2.3,8.3,5.6C84.3,83.3,78,88.3,78,88.3z"/>
	<path class="st2" d="M39.8,100.7c0,0-0.7,5.8-7.3,4.7c-8-1.3-10-11.9-13-23c-3-11-12-12.3-11.3-24c0.9-15.3,9.7-15,17.3-27
		c7.6-11.9,14-10.7,20.3-3.7c0,0,28.6-15.1,63,0.7"/>
	<path class="st2" d="M68.6,61.6c-4.8,8.2-14.8,9.7-21.5,7.2"/>
	<path class="st2" d="M67.1,98.8c4.4-6.3,16.1-6.3,21.5-3.5c3.3,1.8,4.8,6.8,0.8,7.5c-4,0.7-7-10-19.5-1
		C68.6,102.7,64.9,102.1,67.1,98.8z"/>
	<line class="st2" x1="77.9" y1="93.1" x2="78" y2="88.3"/>
	<line class="st2" x1="90.1" y1="17.8" x2="90.1" y2="35.3"/>
	<line class="st2" x1="95" y1="13.8" x2="95" y2="44.3"/>
	<line class="st2" x1="99.9" y1="13.8" x2="99.9" y2="40.3"/>
	<path class="st2" d="M87.1,61.6c4.8,8.2,14.8,9.7,21.5,7.2"/>
	<path class="st2" d="M72.6,39.6c-3.5,1.5-4,7.5-5.8,8.3"/>
	<path class="st2" d="M82.6,39.3c1.5,1,3.5,4.5,3.5,4.5"/>
</g>
<g id="Notfall">
	<circle class="st5" cx="65.9" cy="59.1" r="28.8"/>
	<path class="st6" d="M94.1,30.8c10,5.6,16.7,16.2,16.7,28.5V93"/>
	<path class="st6" d="M45.5,93V59.3c0-18,14.6-32.6,32.6-32.6h0c3.5,0,6.9,0.6,10.1,1.6"/>
	<polyline class="st6" points="50.9,104.3 37.8,104.3 37.8,93.7 118.5,93.7 118.5,104.3 55.6,104.3 	"/>
	<line class="st6" x1="78.1" y1="3" x2="78.1" y2="15.3"/>
	<line class="st6" x1="119.1" y1="59" x2="134.1" y2="59"/>
	<line class="st6" x1="23.1" y1="59" x2="34.5" y2="59"/>
	<line class="st6" x1="36.5" y1="17.3" x2="48.5" y2="29"/>
	<line class="st6" x1="116.1" y1="21" x2="105.3" y2="31.8"/>
	<line class="st6" x1="31.1" y1="109" x2="124.5" y2="109"/>
</g>
<g id="fröhlich_1_" class="st0">
	<path class="st7" d="M66.8,30.4C59.2,14.7,41.3,6.6,33.2,5.6c0,0-8.2,17.3-3.8,39.8"/>
	<path class="st1" d="M32.6,43.1c-13.3,13.8-6.4,27.2-5.8,27.8C39,82.6,76.1,71.1,73.1,30.1c0-0.6-12.6,2.1-12.7,1.8"/>
	<path class="st8" d="M78.1,79.4c-2.6-2.3-7.7-6.3,0-6.2C86.6,73.2,81,76.9,78.1,79.4z"/>
	<path class="st8" d="M69.9,83.8c4.3,4.3,8.5-1.5,8.5-4.3"/>
	<path class="st8" d="M89.8,30.4c7.6-15.7,25.5-23.9,33.5-24.8c0,0,8.2,17.3,3.8,39.8"/>
	<path class="st7" d="M119.4,52.6c-3.1-14.2-31.6-18.8-32.3,14.5C107.9,78,121.6,62.7,119.4,52.6z"/>
	<path class="st8" d="M98.9,43.8c9.3,14.3,5,26.3,5,26.3"/>
	<path class="st8" d="M34.2,42.4c-15,11.8-10.8,28-2,35c23.4,18.6,69.2,19.4,92.3,0c8.6-7.3,13-23.3-2-35"/>
	<path class="st8" d="M60.1,32.6c0,0,19.3-7.3,37.3,0.8"/>
	<path class="st8" d="M78.4,80.3c2.5,4.2,7,6,12.8-2.5"/>
	<path class="st7" d="M36.6,52.6c3.1-14.2,31.6-18.8,32.3,14.5C48,78,34.3,62.7,36.6,52.6z"/>
	<path class="st8" d="M57.1,43.8c-9.3,14.3-5,26.3-5,26.3"/>
</g>
<g id="schlapp_1_" class="st0">
	<path class="st7" d="M61.6,31.3c-14.3-12.5-49-8-56.5-5.5c2.5,9,11.5,17.2,20.5,25"/>
	<path class="st1" d="M32.6,43.1c-13.3,13.8-4.8,30.1-4.2,30.6C46,87.4,74.8,69.3,68.1,31c-0.1-0.6-7.6,1.2-7.7,0.8"/>
	<path class="st8" d="M78.1,80.4c-2.6-2.3-7.7-6.3,0-6.2C86.6,74.2,81,77.9,78.1,80.4z"/>
	<path class="st8" d="M92.6,30.8c12.5-13.8,38.9-16,47-17c0,0,0.5,22.5-11,33.5"/>
	<path class="st8" d="M34.2,42.4c-15,11.8-10.8,28-2,35c23.4,18.6,69.2,19.4,92.3,0c8.6-7.3,13-23.3-2-35"/>
	<path class="st8" d="M60.1,32.6c0,0,19.3-7.3,37.3,0.8"/>
	<path class="st8" d="M78.1,80.4c-0.7,8.2-6,5.3-9.3,7.3"/>
	<path class="st7" d="M70.4,54.8c-6-2.3-24.6-0.5-35.5,8.5c-1.7,1.4,6.7,11.3,21,7.5S70.4,54.8,70.4,54.8z"/>
	<path class="st8" d="M53.5,55.7c-2.3,5-1.3,11.7,2.7,14.9"/>
	<path class="st7" d="M85.4,54.8c10.4-3.5,29.8,5.2,35.5,8.5c1.9,1.1-6.7,11.3-21,7.5S85.4,54.8,85.4,54.8z"/>
	<path class="st8" d="M102.8,56.7c1.3,4.7,0.8,10.7-3.2,13.9"/>
	<path class="st8" d="M86.1,49.8c3-3.5,8-3,8-3"/>
	<path class="st8" d="M78.1,80.4c0.7,8.2,6,5.3,9.3,7.3"/>
</g>
<g id="krank_1_" class="st0">
	<path class="st7" d="M61.6,31.3c-15.5-10.7-51.3-4.2-58.8-1.7c2.5,9,15.3,14.6,24.3,22.3"/>
	<path class="st1" d="M33.5,47c-15.7,15.7-5.6,26.2-5,26.7C46,87.4,73.1,66,65.1,31.7C65,31,60.8,32,60.8,32"/>
	<path class="st8" d="M78.1,80.4c-2.6-2.3-7.7-6.3,0-6.2C86.6,74.2,81,77.9,78.1,80.4z"/>
	<path class="st8" d="M96.5,32.7c17.3-11.3,49.2-3.3,56.7,1.2c0,0-14.7,10.8-25.3,16.2"/>
	<path class="st8" d="M34.2,46.4c-15,10.8-10.8,25.7-2,32.2c23.4,17.1,69.2,17.9,92.3,0c8.6-6.7,13-21.4-2-32.2"/>
	<path class="st8" d="M57.8,32.7c0,0,24.6-6.4,42.7,1.7"/>
	<path class="st8" d="M36.5,67.6c0,0,17.2,9.1,31-6.3"/>
	<path class="st8" d="M118.5,67.6c0,0-17.2,9.1-31-6.3"/>
	<line class="st8" x1="80.8" y1="13.3" x2="80.8" y2="41"/>
	<line class="st8" x1="86.8" y1="13" x2="86.8" y2="50.7"/>
	<line class="st8" x1="91.5" y1="19" x2="91.5" y2="40.7"/>
	<path class="st8" d="M73.5,88.3c-1.4-0.4-0.6-2.6,1.5-3.9c1.3-0.8,5.1-1.2,6.8,0.5c1.7,1.7,1.9,3.9-0.3,4.2
		c-2.4,0.3-2.2-1.9-4.1-1.8C75.9,87.5,75.1,88.8,73.5,88.3z"/>
	<line class="st8" x1="78.1" y1="83.3" x2="78.1" y2="80.4"/>
</g>
</svg>
