<svg xmlns="http://www.w3.org/2000/svg" width="344" height="210" viewBox="0 0 344 210">
    <g id="Gruppe_11894" data-name="Gruppe 11894" transform="translate(-8 -110)">
        <path id="Pfad_12334" data-name="Pfad 12334" d="M0,0H344V210H0Z" transform="translate(8 110)" fill="#fff"/>
        <g id="Gruppe_4760" data-name="Gruppe 4760" transform="translate(47.017 115.03)">
            <path id="Pfad_4097" data-name="Pfad 4097"
                  d="M42.7,1.122c9.136-.937,17.686,2.46,20.028,9.37,2.342,6.676,5.739,9.955,8.2,16.163s2.225,11.478,7.262,15.226,21.316,13,29.749,12.766c21.316-.586,57.273,1.757,62.778,2.694,19.677,3.514,21.082,5.622,26.47,5.153,5.388-.586,31.038-5.622,41.813-11.361s23.893-15.694,26.7-15.929c1.874-.117-16.749,18.623-25.064,22.956-14.523,7.5-39.353,12.766-40.173,13.821s4.919,4.568,5.739,12.181c.351,3.748.468,20.145,1.757,30.452s5.388,23.073,8.2,28.812c4.919,9.955,11.829,10.307,11.829,14.875s-.234,29.866.234,33.146c.117,1.171-2.225,5.153-2.928,6.559-.82,1.405-11.244,1.64-13.7,1.171-.7-.117-2.577-2.342-1.171-3.279,2.928-2.108,9.136-7.145,8.9-8.2s.468-16.163-5.271-24.947c-4.8-7.262-23.307-24.713-26.7-28.11-9.838-9.838-13.352-24.713-16.046-27.055-2.694-2.46-30.92-4.216-41.344-.351-14.172,5.153-21.551,11.478-38.651,12.649a74.24,74.24,0,0,1-13,0s-.586,4.568-1.64,12.181-1.874,23.19-3.748,28.11c-1.874,4.8-1.054,21.551-1.874,22.37s-2.108,1.64-2.694,5.153-1.405,11.361-3.514,11.361H51.249c-.7,0-1.874-3.865-.586-4.568,2.928-1.523,8.784-5.973,9.018-7.5s1.874-14.289,1.288-18.623.82-18.974.468-23.19c-.468-4.919-2.46-23.19-3.865-26.938S48.086,100.794,46.1,88.028c-1.64-10.541-1.288-11.947-2.46-14.406S40,60.5,39.654,52.539c-.351-7.613-3.045-14.757-9.721-16.631S12.95,32.277,10.607,31.223.534,20.565,1,15.88C1.237,13.42,5.454,13.42,7.8,13.3c5.739-.351,16.4-2.46,17.8-3.865C29.581,5.807,26.419,2.762,42.7,1.122Z"
                  transform="translate(0 0)" fill="none" stroke="#8e8e8e" stroke-miterlimit="10" stroke-width="2"/>
            <path id="Pfad_4098" data-name="Pfad 4098"
                  d="M156.534,92.282c-2.694-2.46-30.92-4.216-41.344-.351-10.658,3.865-17.451,8.433-27.29,10.892"
                  transform="translate(14.883 15.188)" fill="none" stroke="#ffb03b" stroke-miterlimit="10"
                  stroke-width="2"/>
        </g>
    </g>
</svg>
