<svg xmlns="http://www.w3.org/2000/svg" width="344" height="210" viewBox="0 0 344 210">
    <g id="Gruppe_11900" data-name="Gruppe 11900" transform="translate(-8 -110)">
        <g id="Gruppe_11896" data-name="Gruppe 11896">
            <path id="Pfad_12334" data-name="Pfad 12334" d="M0,0H344V210H0Z" transform="translate(8 110)" fill="#fff"/>
            <path id="Pfad_4132" data-name="Pfad 4132"
                  d="M106.3,132.858c7.5-6.011,12.319-15.733,8.831-51.356a84.34,84.34,0,0,1,29.982,2.969c9.87,2.969,14.843,3.34,15.956,6.382,3.636,9.648,4.675,15.659-.148,22.709-3.117,4.453-12.987,14.843-38.591,19C110.9,134.342,106.3,132.858,106.3,132.858Z"
                  transform="translate(23.309 96.235)" fill="#fff" opacity="0.15"/>
            <path id="Pfad_4133" data-name="Pfad 4133"
                  d="M42.2.652C51.33-.239,59.864,3.175,62.239,10c2.375,6.753,5.789,10.019,8.238,16.253S72.7,37.684,77.824,41.469s21.3,13.062,29.76,12.765c21.448-.594,57.367,1.707,62.933,2.672,19.741,3.488,21.077,5.714,26.494,5.121,5.418-.519,31.1-5.714,41.931-11.355,10.835-5.714,23.9-15.733,26.791-15.956,1.855-.148-16.7,18.628-25.158,22.932-14.62,7.5-39.482,12.765-40.3,13.8-.816,1.113,4.972,4.527,5.714,12.245.371,3.785.445,20.186,1.781,30.5s5.418,23.155,8.238,28.795c4.9,9.945,11.874,10.316,11.874,14.843,0,4.6-.223,29.908.3,33.173.148,1.113-2.152,5.195-2.969,6.531s-11.28,1.707-13.655,1.187c-.742-.148-2.523-2.3-1.113-3.265,2.894-2.152,9.2-7.124,8.906-8.238s.52-16.179-5.343-24.936c-4.824-7.273-23.377-24.713-26.791-28.127-9.8-9.8-13.358-24.713-16.1-27.162s-30.947-4.23-41.485-.371c-14.249,5.195-21.6,11.577-38.739,12.616a83,83,0,0,1-12.987,0s-.519,4.6-1.633,12.171-1.93,23.229-3.785,28.127c-1.93,4.9-1.113,21.6-1.93,22.412a7.126,7.126,0,0,0-2.672,5.121c-.519,3.488-1.41,11.355-3.562,11.355H50.736c-.742,0-1.93-3.933-.519-4.6,2.969-1.558,8.757-5.937,9.054-7.57s1.855-14.323,1.336-18.628.891-18.924.445-23.229c-.519-4.972-2.523-23.155-3.859-26.94s-9.5-17.514-11.429-30.2c-1.633-10.538-1.336-12.023-2.449-14.4-1.113-2.449-3.636-13.136-3.933-21.151-.223-7.5-2.894-14.694-9.648-16.55-6.753-1.93-16.995-3.636-19.444-4.75S.048,20.1.494,15.494c.223-2.449,4.379-2.449,6.828-2.523,5.789-.3,16.4-2.449,17.885-3.859C29.066,5.327,25.949,2.284,42.2.652Z"
                  transform="translate(50.598 115.047)" fill="#fff" stroke="#8e8e8e" stroke-miterlimit="10"
                  stroke-width="2"/>
            <path id="Pfad_4134" data-name="Pfad 4134" d="M180.365,115.235c4.3-6.16,2.82-12.171-.965-22.635"
                  transform="translate(4.459 93.301)" fill="#fff" stroke="#ffb03b" stroke-miterlimit="10"
                  stroke-width="2" opacity="0.45"/>
            <path id="Pfad_4135" data-name="Pfad 4135" d="M172.774,122.018c4.675-5.566,5.343-13.358-.074-31.318"
                  transform="translate(6.187 93.791)" fill="#fff" stroke="#ffb03b" stroke-miterlimit="10"
                  stroke-width="2" opacity="0.45"/>
            <path id="Pfad_4136" data-name="Pfad 4136" d="M164.6,125.116c3.711-3.859,7.124-12.1,1.336-36.216"
                  transform="translate(8.276 94.255)" fill="#fff" stroke="#ffb03b" stroke-miterlimit="10"
                  stroke-width="2" opacity="0.45"/>
            <path id="Pfad_4137" data-name="Pfad 4137" d="M155.4,127.885c8.015-5.863,8.683-22.116,2.746-41.485"
                  transform="translate(10.648 94.899)" fill="#fff" stroke="#ffb03b" stroke-miterlimit="10"
                  stroke-width="2" opacity="0.45"/>
            <path id="Pfad_4138" data-name="Pfad 4138" d="M150.717,84.4c6.16,23.6,4.675,39.185-3.117,44.751"
                  transform="translate(12.659 95.416)" fill="#fff" stroke="#ffb03b" stroke-miterlimit="10"
                  stroke-width="2" opacity="0.45"/>
            <path id="Pfad_4139" data-name="Pfad 4139" d="M136.6,131.171c6.6-5.566,12.765-16.624,5.566-47.571"
                  transform="translate(15.496 95.622)" fill="#fff" stroke="#ffb03b" stroke-miterlimit="10"
                  stroke-width="2" opacity="0.45"/>
            <path id="Pfad_4140" data-name="Pfad 4140" d="M125.8,132.668c7.57-5.047,12.765-18.108,6.6-50.168"
                  transform="translate(18.281 95.905)" fill="#fff" stroke="#ffb03b" stroke-miterlimit="10"
                  stroke-width="2" opacity="0.45"/>
            <path id="Pfad_4141" data-name="Pfad 4141" d="M115.8,133.795c7.05-6.753,11.726-17.218,8.238-52.395"
                  transform="translate(20.86 96.189)" fill="#fff" stroke="#ffb03b" stroke-miterlimit="10"
                  stroke-width="2" opacity="0.45"/>
            <path id="Pfad_4142" data-name="Pfad 4142" d="M106.3,132.956c7.5-6.011,12.319-15.733,8.831-51.356"
                  transform="translate(23.309 96.138)" fill="#fff" stroke="#ffb03b" stroke-miterlimit="10"
                  stroke-width="2" opacity="0.45"/>
        </g>
    </g>
</svg>
