<svg xmlns="http://www.w3.org/2000/svg" width="344" height="210" viewBox="0 0 344 210">
    <g id="Gruppe_11895" data-name="Gruppe 11895" transform="translate(-8 -110)">
        <path id="Pfad_12334" data-name="Pfad 12334" d="M0,0H344V210H0Z" transform="translate(8 110)" fill="#fff"/>
        <g id="Gruppe_5630" data-name="Gruppe 5630" transform="translate(87.525 129.417)">
            <path id="Pfad_5971" data-name="Pfad 5971"
                  d="M103.6,171.5c.9-6.8,1.4-10.7,1.4-10.7a111.843,111.843,0,0,0,17.5,0,77.6,77.6,0,0,0,22.9-4.7"
                  fill="none" stroke="#8e8e8e" stroke-miterlimit="10" stroke-width="2"/>
            <path id="Pfad_5972" data-name="Pfad 5972"
                  d="M144.9,73c-11.4.3-33.2-12.1-40.1-17.2s-6.6-12.1-9.9-20.5S87,22.5,83.8,13.4C80.6,4.1,69.1-.5,56.8.8,34.8,2.9,39,7,33.8,12c-2,1.9-16.3,4.8-24.1,5.2-3.3.2-8.9.1-9.2,3.4-.6,6.2,9.9,18.7,13.2,20.1,3.3,1.5,17,3.8,26.2,6.4C49,49.7,52.7,59.3,53.1,69.5,53.5,80.3,57,94.7,58.4,98c1.5,3.3,1.1,5.3,3.3,19.4,2.6,17.2,13.6,35.6,15.4,40.7a97.9,97.9,0,0,1,2.4,13.3"
                  fill="none" stroke="#8e8e8e" stroke-miterlimit="10" stroke-width="2"/>
            <g id="Gruppe_5631" data-name="Gruppe 5631" transform="translate(99.454 67.183) rotate(43)">
                <path id="Pfad_5973" data-name="Pfad 5973"
                      d="M13.174,45.759c1.09-5.27-2.908-9.45-6-13.085C1,25.405.271,24.315.635,18.863c.545-8.541.727-12.721,3.271-14.72S11.9-.219,14.991.69C22.624,3.234,25.713,3.78,25.168,7.6c-.727,6.542-2.726,9.45-3.271,14.175-.727,5.815-1.09,15.992,1.454,18.537,2.726,2.726-.909,1.272-4,2.181C15.355,43.76,12.629,48.485,13.174,45.759Z"
                      transform="translate(0 0)" fill="none" stroke="#ffb03b" stroke-miterlimit="10" stroke-width="2"/>
                <path id="Pfad_5974" data-name="Pfad 5974" d="M12.924,34.087C9.471,26.272,6.2,12.1,6.2,6.1"
                      transform="translate(4.611 4.585)" fill="none" stroke="#ffb03b" stroke-miterlimit="10"
                      stroke-width="2"/>
            </g>
        </g>
    </g>
</svg>
