<svg xmlns="http://www.w3.org/2000/svg" width="344" height="210" viewBox="0 0 344 210">
    <defs>
        <clipPath id="clip-path">
            <ellipse id="Ellipse_987" data-name="Ellipse 987" cx="48.529" cy="48.529" rx="48.529" ry="48.529"
                     fill="none" stroke="#707070" stroke-width="1"/>
        </clipPath>
    </defs>
    <g id="Gruppe_11891" data-name="Gruppe 11891" transform="translate(-8 -110)">
        <path id="Pfad_12334" data-name="Pfad 12334" d="M0,0H344V210H0Z" transform="translate(8 110)" fill="#fff"/>
        <g id="Gruppe_5116" data-name="Gruppe 5116">
            <g id="Gruppe_4784" data-name="Gruppe 4784" transform="translate(52 168.418)">
                <path id="Pfad_4123" data-name="Pfad 4123"
                      d="M229.6,85.219l-.963,1.575s-1.751-.7-2.626.438c-.875,1.313-1.838,2.451-2.626,2.626-1.05.263-1.313-.525-.788-1.05.963-1.05,1.313-2.626.263-2.713-1.313-.175-1.663,1.838-3.414,3.151-1.138.875-2.188.263-1.576-.525.875-1.05,1.488-2.976.088-3.239-1.05-.175-1.576,1.488-3.151,3.151-1.225,1.313-2.888.788-1.926-.525.875-1.138,1.225-2.976.088-2.888-1.4.088-1.663,2.538-3.5,3.764-1.138.7-2.276.438-1.575-.613,1.138-1.663.875-2.888-.175-2.8-1.225.088-1.4,2.451-3.414,3.676-1.663.963-2.013,0-1.4-.788,1.488-1.838.875-3.239-.088-3.151-1.313.175-2.276,2.276-3.851,3.151-1.663.963-2.538-.175-1.838-.963,2.538-2.8.613-3.063-.175-2.713-1.313.7-2.188,2.451-4.114,3.326-2.538,1.225-2.8-.263-1.926-1.05,2.188-2.013,2.276-3.239.438-2.538-1.663.7-1.926,2.451-4.814,3.851-2.1.963-2.626-.263-1.663-1.138,2.538-2.276,1.926-3.326.7-2.976-1.751.525-2.013,2.538-4.814,4.026-2.1,1.05-2.626-.175-1.663-1.138,2.626-2.626,1.488-3.414,0-2.8s-2.888,2.888-4.9,3.851c-2.1,1.05-2.713-.263-1.663-1.138,2.8-2.363,1.488-3.5,0-2.713-2.1,1.138-2.276,2.538-4.551,3.939-2.013,1.225-2.713.263-1.926-.788,2.451-3.326-.963-2.8-3.063-1.138-1.751,1.313-2.451,1.926-3.414,1.751-1.663-.263,1.138-2.363-1.225-2.626-1.4-.175-2.188.438-3.151,1.4-1.225,1.225-2.8.963-2.538.263.35-.788.788-1.663-.088-1.926-1.4-.438-2.626.963-3.239,1.751-1.138,1.225-2.8.963-2.538.263.438-1.05.438-1.663,0-1.926-.438-.175-1.926-.088-3.326,1.926-.963,1.4-2.976,2.188-2.8,1.138.175-.7,1.05-1.838,0-2.1a3.645,3.645,0,0,0-3.5,1.488c-1.575,1.926-2.8,2.013-2.713,1.313.088-.525.263-1.663-.788-1.575-1.488.088-1.838.875-2.626,2.013-.963,1.4-2.451,1.663-2.363.963a.984.984,0,0,0-1.138-1.138,3.092,3.092,0,0,0-1.926,1.576c-.875,1.488-2.451,1.663-2.363.963.088-.788-.175-1.488-1.05-1.313a2.886,2.886,0,0,0-1.926,1.313c-.875,1.4-2.451,1.663-2.363.963a1.221,1.221,0,0,0-.963-1.4,2.738,2.738,0,0,0-2.538,1.225c-1.05,1.313-2.451,1.751-2.363.963a1.029,1.029,0,0,0-.7-1.138,2.026,2.026,0,0,0-1.926.788c-.963,1.4-2.451,1.751-2.363.963.175-1.138-.525-1.313-.7-1.4a1.573,1.573,0,0,0-1.838.963c-.875,1.4-2.451,1.751-2.363.963.175-1.138-.088-1.663-.7-1.751a1.281,1.281,0,0,0-1.313.788c-.963,1.4-2.538,1.663-2.363.963,2.276-7.09-3.151-4.814,2.8-29.672.175-.788.438-1.313,1.05-1.4.175,0,.263-.088.438-.088a1.235,1.235,0,0,1,1.225,1.488c-.263,1.138-4.464,17.243-2.538,17.418,2.1.263,4.726-14.354,4.9-15.842a1.317,1.317,0,0,1,1.663-1.225,1.187,1.187,0,0,1,.963,1.663c-.438,1.225-5.077,15.23-2.363,15.492,2.451.263,4.639-12.341,4.9-13.917a1.424,1.424,0,0,1,1.663-1.313,1.187,1.187,0,0,1,.963,1.663c-.525,1.313-4.726,12.954-2.1,13.3,2.188.263,4.376-10.416,4.551-11.9a1.348,1.348,0,0,1,1.663-1.225,1.187,1.187,0,0,1,.963,1.663c-.525,1.313-3.851,11.116-1.663,11.291,2.013.175,4.026-8.49,4.2-9.978a1.424,1.424,0,0,1,1.663-1.313,1.187,1.187,0,0,1,.963,1.663c-.525,1.313-3.414,9.1-1.138,9.1,2.1,0,3.151-7,3.5-8.4a1.387,1.387,0,0,1,1.751-.963,1.136,1.136,0,0,1,.788,1.663c-.613,1.138-3.414,7.79-.875,7.44,1.838-.263,3.239-5.6,3.589-7a1.387,1.387,0,0,1,1.751-.963,1.136,1.136,0,0,1,.788,1.663c-.613,1.138-2.976,6.214-.7,6.127,1.926-.088,3.063-4.551,3.414-5.952a1.719,1.719,0,0,1,1.926-1.313,1.6,1.6,0,0,1,1.05,2.1c-.613,1.05-2.276,4.551-.175,4.551,3.151,0,2.276-3.939,2.626-5.339a1.662,1.662,0,0,1,2.1-1.225,1.469,1.469,0,0,1,.963,2.013c-.525,1.488-1.05,4.639,1.663,4.551,2.8,0,1.225-3.676,1.05-5.077a1.7,1.7,0,0,1,1.751-1.751,1.631,1.631,0,0,1,1.663,1.751c0,1.4-.525,4.989,1.926,5.164,1.663.088,2.451-2.538,1.488-4.814-.525-1.225.088-2.188,2.451-1.575,1.138.263,1.313,1.138,1.488,2.1.263,1.4-.35,4.989,2.013,5.164,1.838.088,1.926-3.414.175-5.077-.963-.875-.175-2.276,2.363-1.751.963.175,1.313.963,1.576,1.838.35,1.313-.175,5.339,2.363,4.639,1.751-.525.788-2.976-.088-4.2-.788-1.05.438-1.926,2.276-1.926.963,0,1.4.788,1.663,1.751.35.963.7,5.689,3.239,4.639,1.488-.613.525-2.538-.438-3.851-.788-1.05.438-1.926,2.276-1.926.963,0,1.4.875,1.663,1.751.35.963.438,4.726,2.888,4.289,1.663-.263.875-2.451,0-3.676-.788-1.05.438-1.926,2.276-1.926.963,0,1.488.788,1.663,1.751.613,2.363,1.05,4.464,2.8,4.2,1.05-.175,1.4-1.488.088-3.326-.7-1.05.438-1.926,2.276-1.926.963,0,1.4.875,1.751,1.751.35.963-.175,3.939,2.1,3.063,1.05-.438.613-1.751.438-2.888-.088-.963.35-1.926,2.276-1.663,1.313.088,2.188.613,1.575,2.188-.963,2.188,0,3.589,1.225,3.239,1.488-.438.788-2.626.788-3.239-.088-.875.35-1.576,2.1-1.488,1.138.088,1.838.613,1.313,2.013-.438,1.225-.875,3.5,1.225,3.063,1.576-.35.875-3.414.875-3.851-.088-.788.35-1.313,1.926-1.138,1.05.088,2.1.525,1.138,2.451-1.576,3.151,2.8,4.114,2.1-1.05-.088-.7.438-1.05,1.838-.788.788.175,1.663.7,1.138,1.663-1.926,3.589,2.626,5.077,2.1-.35-.088-.7.875-1.138,2.1-.875.788.175,1.4.788.875,1.488-2.013,3.151,1.576,5.164,2.013,0,.088-.7.7-1.225,1.926-.7.788.35,1.576.875,1.05,1.663-2.013,3.151,1.313,4.726,2.188.175.175-.7.35-1.138,1.926-.788.963.175,1.313.7.7,2.276a.664.664,0,0,1-.175.35c-.175.613-.263,1.225.263,1.488A1.76,1.76,0,0,0,229.6,85.219Z"
                      transform="translate(-12.6 -6.662)" fill="#fff" opacity="0.15"/>
                <path id="Pfad_4124" data-name="Pfad 4124" d="M152.5,72.8c19.606-.088,45.6,1.313,59.169,2.451"
                      transform="translate(-19.437 -9.59)" fill="none" stroke="#009fe3" stroke-miterlimit="10"
                      stroke-width="2"/>
                <path id="Pfad_4125" data-name="Pfad 4125"
                      d="M103.6,167.668c.788-5.952,1.225-9.365,1.225-9.365a97.893,97.893,0,0,0,15.317,0c20.219-1.313,28.884-8.753,45.689-14.88,12.429-4.551,45.689-2.451,48.928.438,2.538,2.276,5.6,13.479,12.429,23.9"
                      transform="translate(-13.338 -18.069)" fill="none" stroke="#8e8e8e" stroke-miterlimit="10"
                      stroke-width="2"/>
                <path id="Pfad_4126" data-name="Pfad 4126"
                      d="M255.727,150.182c4.551-60.219-12.6-71.86-25.821-76.762-5.427-2.013-5.514-2.1-28.8-6.3-6.565-1.138-49.015-3.939-74.223-3.151-9.978.263-29.059-10.591-35.1-15.055S86.011,38.322,83.123,30.97s-6.915-11.2-9.716-19.169C70.606,3.661,60.541-.365,49.775.773c-19.256,1.838-15.58,5.427-20.131,9.8-1.751,1.663-14.267,4.2-21.094,4.551C5.661,15.3.76,15.215.5,18.1-.028,23.53,9.162,34.471,12.051,35.7c2.888,1.313,14.88,3.326,22.932,5.6,7.965,2.276,11.2,10.678,11.554,19.606.35,9.453,3.414,22.057,4.639,24.945,1.313,2.888.963,4.639,2.888,16.98,2.276,15.055,11.9,31.16,13.479,35.624a85.69,85.69,0,0,1,2.1,11.641"
                      transform="translate(-0.475 -0.584)" fill="none" stroke="#8e8e8e" stroke-miterlimit="10"
                      stroke-width="2"/>
                <path id="Pfad_4127" data-name="Pfad 4127" d="M220.832,76.126c-5.6-.963-37.374-3.151-62.232-3.326"
                      transform="translate(-20.198 -9.591)" fill="none" stroke="#ffb03b" stroke-miterlimit="10"
                      stroke-width="2"/>
                <path id="Pfad_4128" data-name="Pfad 4128"
                      d="M281.965,162.108a132.258,132.258,0,0,1-3.238-15.492c-1.576-12.166-1.663-31.51-2.1-35.974-.963-9.1-7.7-13.129-6.74-14.442"
                      transform="translate(-34.066 -12.509)" fill="none" stroke="#8e8e8e" stroke-miterlimit="10"
                      stroke-width="2"/>
            </g>
            <line id="Linie_642" data-name="Linie 642" y1="35.617" x2="16.028" transform="translate(208.271 200.029)"
                  fill="none" stroke="#dfdfdf" stroke-width="2"/>
            <g id="Gruppe_4785" data-name="Gruppe 4785" transform="translate(200.703 110.54)">
                <g id="Gruppe_maskieren_73" data-name="Gruppe maskieren 73" transform="translate(0 0)"
                   clip-path="url(#clip-path)">
                    <path id="Pfad_4075" data-name="Pfad 4075"
                          d="M.678,37.008c5.432,1.425,20.3,7.3,23.418,8.815s1.247,5.61,3.384,6.233c2.048.623,9.261-1.336,12.466-4.719a17.213,17.213,0,0,0,3.117-4.452s1.158-2.4,6.5-2.4h.089c5.432,0,6.5,2.4,6.5,2.4a17.213,17.213,0,0,0,3.117,4.452c3.206,3.384,10.329,5.343,12.466,4.719,2.048-.623.178-4.808,3.384-6.233s17.987-7.3,23.418-8.815l.178-8.014C91.5,31.309,70.844,41.015,65.68,38.789,60.515,36.474,52.145,28.193,52.5,20.98S52.947.5,49.474.5h.267c-3.473,0-3.295,13.267-3.027,20.48S38.7,36.474,33.535,38.789,7.713,31.309.5,28.994Z"
                          transform="translate(-1.39 24.432)" fill="#fff" opacity="0.15"/>
                    <g id="Gruppe_4749" data-name="Gruppe 4749" transform="translate(0 19.045)">
                        <path id="Pfad_4065" data-name="Pfad 4065"
                              d="M97.157,35.182C90.03,37.47,69.615,47.061,64.512,44.861c-5.1-2.288-13.375-10.471-13.023-17.6S51.928,7.024,48.5,7.024h.264c-3.432,0-3.256,13.111-2.992,20.239s-7.919,15.311-13.023,17.6S7.228,37.47.1,35.182V8.343c1.584.088,29.566-2.112,35.462-2.728C41.721,5,44.713.6,48.233.6h.176C52.016.6,54.92,5,61.08,5.616c5.984.616,33.878,2.816,35.462,2.728Z"
                              transform="translate(-0.1 -0.512)" fill="#fff" opacity="0.15"/>
                        <path id="Pfad_4066" data-name="Pfad 4066"
                              d="M97.157,36.058c-7.128,2.288-27.542,11.879-32.646,9.679-5.1-2.288-13.375-10.471-13.023-17.6S51.928,7.9,48.5,7.9h.264c-3.432,0-3.256,13.111-2.992,20.239s-7.919,15.311-13.023,17.6S7.228,38.346.1,36.058"
                              transform="translate(-0.1 -1.388)" fill="none" stroke="#a9a9a9" stroke-miterlimit="10"
                              stroke-width="2"/>
                        <path id="Pfad_4067" data-name="Pfad 4067"
                              d="M97.005,48.9c-5.368,1.408-20.063,7.216-23.142,8.711-3.08,1.408-1.232,5.544-3.344,6.16s-9.151-1.32-12.319-4.664a17.01,17.01,0,0,1-3.08-4.4s-1.144-2.376-6.424-2.376h-.088c-5.368,0-6.424,2.376-6.424,2.376a17.01,17.01,0,0,1-3.08,4.4c-3.168,3.344-10.207,5.28-12.319,4.664s-.176-4.752-3.344-6.16S5.668,50.308.3,48.9"
                              transform="translate(-0.124 -6.311)" fill="none" stroke="#a9a9a9" stroke-miterlimit="10"
                              stroke-width="2"/>
                        <path id="Pfad_4068" data-name="Pfad 4068"
                              d="M96.717,8.243c-1.584.088-29.566-2.112-35.462-2.728C55.1,4.9,52.1.5,48.585.5h-.176C44.8.5,41.9,4.9,35.738,5.516,29.666,6.132,1.684,8.419.1,8.243"
                              transform="translate(-0.1 -0.5)" fill="none" stroke="#ffb03b" stroke-miterlimit="10"
                              stroke-width="2"/>
                        <path id="Pfad_4069" data-name="Pfad 4069"
                              d="M63.615,60.8A10.545,10.545,0,1,1,43.2,64.5a9.261,9.261,0,0,1,.616-3.52"
                              transform="translate(-5.275 -7.74)" fill="none" stroke="#a9a9a9" stroke-miterlimit="10"
                              stroke-width="2"/>
                        <path id="Pfad_4070" data-name="Pfad 4070"
                              d="M34.312,69.4c-1.5.7-6.512,2.816-6.512,7.391,0,4.488,5.456,8.1,5.456,10.823"
                              transform="translate(-3.426 -8.772)" fill="none" stroke="#a9a9a9" stroke-miterlimit="10"
                              stroke-width="2"/>
                        <path id="Pfad_4071" data-name="Pfad 4071"
                              d="M70.769,65.4a25.273,25.273,0,0,1-.264,4.664,5.1,5.1,0,0,1,1.408,3.168V92.942a19.04,19.04,0,0,1-19.007,19.007h0A19.04,19.04,0,0,1,33.9,92.942V73.231a5.1,5.1,0,0,1,1.408-3.168,25.273,25.273,0,0,1-.264-4.664"
                              transform="translate(-4.158 -8.292)" fill="none" stroke="#a9a9a9" stroke-miterlimit="10"
                              stroke-width="2"/>
                        <path id="Pfad_4072" data-name="Pfad 4072"
                              d="M76,69.4c1.5.7,6.512,2.816,6.512,7.391,0,4.488-5.456,8.1-5.456,10.823"
                              transform="translate(-9.213 -8.772)" fill="none" stroke="#a9a9a9" stroke-miterlimit="10"
                              stroke-width="2"/>
                    </g>
                </g>
                <g id="Pfad_4074" data-name="Pfad 4074" transform="translate(0 0)" fill="none">
                    <path d="M48.529,0A48.529,48.529,0,1,1,0,48.529,48.529,48.529,0,0,1,48.529,0Z" stroke="none"/>
                    <path d="M 48.5286979675293 2 C 42.24648284912109 2 36.15324020385742 3.229927062988281 30.41824340820312 5.6556396484375 C 24.87788391113281 7.999008178710938 19.90169525146484 11.35417938232422 15.62793731689453 15.62795257568359 C 11.35418701171875 19.90171051025391 7.999015808105469 24.87789916992188 5.655624389648438 30.41826629638672 C 3.229927062988281 36.15326690673828 2 42.24650955200195 2 48.52873992919922 C 2 54.81097030639648 3.229927062988281 60.90421295166016 5.655624389648438 66.63921356201172 C 7.999015808105469 72.17958068847656 11.35418701171875 77.15576934814453 15.62793731689453 81.42952728271484 C 19.90169525146484 85.70329284667969 24.87788391113281 89.0584716796875 30.41824340820312 91.40184020996094 C 36.15324020385742 93.82755279541016 42.24648284912109 95.05747985839844 48.5286979675293 95.05747985839844 C 54.8109130859375 95.05747985839844 60.90415573120117 93.82755279541016 66.63915252685547 91.40184020996094 C 72.17951202392578 89.0584716796875 77.15570068359375 85.70329284667969 81.42945861816406 81.42952728271484 C 85.70320892333984 77.15576934814453 89.05838012695312 72.17958068847656 91.40177154541016 66.63921356201172 C 93.82746887207031 60.90421295166016 95.05739593505859 54.81097030639648 95.05739593505859 48.52873992919922 C 95.05739593505859 42.24650955200195 93.82746887207031 36.15326690673828 91.40177154541016 30.41826629638672 C 89.05838012695312 24.87789916992188 85.70320892333984 19.90171051025391 81.42945861816406 15.62795257568359 C 77.15570068359375 11.35417938232422 72.17951202392578 7.999008178710938 66.63915252685547 5.6556396484375 C 60.90415573120117 3.229927062988281 54.8109130859375 2 48.5286979675293 2 M 48.5286979675293 0 C 75.33035278320312 0 97.05739593505859 21.72705078125 97.05739593505859 48.52873992919922 C 97.05739593505859 75.33042907714844 75.33035278320312 97.05747985839844 48.5286979675293 97.05747985839844 C 21.72704315185547 97.05747985839844 0 75.33042907714844 0 48.52873992919922 C 0 21.72705078125 21.72704315185547 0 48.5286979675293 0 Z"
                          stroke="none" fill="#dfdfdf"/>
                </g>
            </g>
        </g>
    </g>
</svg>
