<?xml version="1.0" encoding="utf-8"?>
<!-- Generator: Adobe Illustrator 23.0.1, SVG Export Plug-In . SVG Version: 6.00 Build 0)  -->
<svg version="1.1" id="Ebene_1" xmlns="http://www.w3.org/2000/svg" x="0px" y="0px"
     viewBox="0 0 19.5 18.5" style="enable-background:new 0 0 19.5 18.5;" xml:space="preserve">
<style type="text/css">
	.st0{fill:#8E8E8E;}
	.st1{enable-background:new    ;}
	.st2{fill:#FFB03B;}
</style>
    <g id="Gruppe_8891" transform="translate(310.5 600.5)">
	<g id="Pfad_9181">
		<path class="st0" d="M-300.75-582c-5.1,0-9.25-4.15-9.25-9.25s4.15-9.25,9.25-9.25s9.25,4.15,9.25,9.25S-295.65-582-300.75-582z
			 M-300.75-599c-4.27,0-7.75,3.48-7.75,7.75s3.48,7.75,7.75,7.75s7.75-3.48,7.75-7.75S-296.48-599-300.75-599z"/>
	</g>
        <g id="Gruppe_8890" transform="translate(8.58 4.13)">
		<g id="Pfad_9180">
			<path class="st0" d="M-308.37-590.22h-1.93v-6.72h1.93C-308.37-596.93-308.37-590.22-308.37-590.22z M-309.33-598.39
				c-0.59,0-1.08-0.48-1.08-1.08c0-0.59,0.48-1.08,1.08-1.08s1.08,0.48,1.08,1.08C-308.26-598.88-308.74-598.39-309.33-598.39z"/>
		</g>
	</g>
</g>
</svg>
