<svg xmlns="http://www.w3.org/2000/svg" width="272.994" height="274.01" viewBox="0 0 272.994 274.01">
    <g id="Gruppe_4472" data-name="Gruppe 4472" transform="translate(-44.008 -118.99)">
        <g id="Gruppe_3749" data-name="Gruppe 3749" transform="translate(44.326 119.488)">
            <path id="Pfad_2013" data-name="Pfad 2013"
                  d="M50.617.651c9.11-.889,17.627,2.518,20,9.332,2.37,6.74,5.777,10,8.221,16.22s2.222,11.406,7.332,15.183,21.256,13.035,29.7,12.739c21.4-.593,57.251,1.7,62.806,2.666,19.7,3.481,21.034,5.7,26.441,5.11,5.407-.518,31.033-5.7,41.846-11.332,10.813-5.7,23.849-15.7,26.737-15.924,1.852-.148-16.664,18.59-25.108,22.886-14.591,7.48-39.4,12.739-40.217,13.776-.815,1.111,4.962,4.518,5.7,12.221.37,3.777.444,20.145,1.778,30.44s5.407,23.108,8.221,28.737c4.888,9.925,11.85,10.295,11.85,14.813,0,4.592-.222,29.848.3,33.107.148,1.111-2.148,5.184-2.963,6.518s-11.258,1.7-13.628,1.185c-.741-.148-2.518-2.3-1.111-3.259,2.888-2.148,9.184-7.11,8.888-8.221s.518-16.146-5.333-24.885c-4.814-7.258-23.33-24.663-26.737-28.07-9.776-9.776-13.331-24.663-16.072-27.107-2.666-2.444-30.885-4.222-41.4-.37-14.22,5.184-21.553,11.554-38.661,12.591a82.835,82.835,0,0,1-12.961,0s-.518,4.592-1.629,12.146-1.926,23.182-3.777,28.07-1.111,21.553-1.926,22.367a7.111,7.111,0,0,0-2.666,5.11c-.518,3.481-1.407,11.332-3.555,11.332H59.135c-.741,0-1.926-3.925-.518-4.592,2.963-1.555,8.74-5.925,9.036-7.555s1.852-14.294,1.333-18.59.889-18.886.444-23.182c-.518-4.962-2.518-23.108-3.851-26.885S56.1,99.749,54.172,87.084c-1.629-10.517-1.333-12-2.444-14.368C50.617,70.271,48.1,59.606,47.8,51.607c-.3-7.555-3.037-14.739-9.776-16.59-6.74-1.926-16.961-3.629-19.4-4.74S8.549,20.056,8.993,15.464c.222-2.444,4.37-2.444,6.814-2.518,5.777-.3,16.368-2.444,17.849-3.851C37.508,5.317,34.4,2.281,50.617.651Z"
                  transform="translate(-2.153 0)" fill="#fafafa" stroke="#8e8e8e" stroke-miterlimit="10"
                  stroke-width="2"/>
            <g id="Gruppe_3618" data-name="Gruppe 3618" transform="translate(0.674 218.794)">
                <path id="Pfad_2014" data-name="Pfad 2014"
                      d="M54.019,337.129c-1.555,3.111-4.222,7.555-6.666,7.258-3.851-.518-10.591-3.629-11.776-4.814s-1.926-3.111-4.074-3.851-8.814-3.7-10.591-5.629S6.026,327.13,2.175,325.2c-1.481-.741-1.555-2.666-1.481-4.666v-.518c0-1.926,0-3.851,1.481-4.666,3.851-1.926,16.961-2.888,18.738-4.888s8.443-4.962,10.591-5.629c2.148-.741,2.888-2.666,4.074-3.851s7.925-4.37,11.776-4.814c2.518-.3,5.184,4.148,6.666,7.258l1.333,2.74c4.3.963,6.74-1.481,11.48-2.963s6.444-4.37,17.331-6.962c7.184-1.7,14.368,2.814,16.22,2.3a104.652,104.652,0,0,1,35.551-2.814c18,1.926,32.736,5.7,38.439,6.147s21.4-5.184,31.329-1.926,18.516,15.035,18.516,15.035,6.962.963,13.183,1.852c6.3.815,32.366,3.407,32.366,4.962,0,1.629-26.441,2.888-32.736,3.185-6.3.37-12.813.592-12.813.592s-8.517,11.7-18.516,15.035-25.7-2.37-31.329-1.926-20.368,4.3-38.439,6.147a104.368,104.368,0,0,1-35.551-2.814c-1.852-.444-9.11,4-16.22,2.3-10.887-2.592-12.591-5.555-17.331-6.962s-7.184-3.851-11.48-2.963Z"
                      transform="translate(-0.674 -295.233)" fill="#fafafa" stroke="#8e8e8e" stroke-miterlimit="10"
                      stroke-width="2"/>
            </g>
        </g>
        <g id="Gruppe_5067" data-name="Gruppe 5067" transform="translate(0 1)">
            <path id="Pfad_4386" data-name="Pfad 4386" d="M12,0A12,12,0,1,1,0,12,12,12,0,0,1,12,0Z"
                  transform="translate(120 188)" fill="#ffb03b" opacity="0.25"/>
            <circle id="Ellipse_720" data-name="Ellipse 720" cx="6.667" cy="6.667" r="6.667"
                    transform="translate(125.333 193.333)" fill="#ffb03b"/>
        </g>
        <g id="Gruppe_5068" data-name="Gruppe 5068" transform="translate(45 -27)">
            <path id="Pfad_4386-2" data-name="Pfad 4386" d="M12,0A12,12,0,1,1,0,12,12,12,0,0,1,12,0Z"
                  transform="translate(120 188)" fill="#ffb03b" opacity="0.25"/>
            <circle id="Ellipse_720-2" data-name="Ellipse 720" cx="6.667" cy="6.667" r="6.667"
                    transform="translate(125.333 193.333)" fill="#ffb03b"/>
        </g>
        <g id="Gruppe_5069" data-name="Gruppe 5069" transform="translate(92 -24)">
            <path id="Pfad_4386-3" data-name="Pfad 4386" d="M12,0A12,12,0,1,1,0,12,12,12,0,0,1,12,0Z"
                  transform="translate(120 188)" fill="#ffb03b" opacity="0.25"/>
            <circle id="Ellipse_720-3" data-name="Ellipse 720" cx="6.667" cy="6.667" r="6.667"
                    transform="translate(125.333 193.333)" fill="#ffb03b"/>
        </g>
        <g id="Gruppe_5070" data-name="Gruppe 5070" transform="translate(124 4)">
            <path id="Pfad_4386-4" data-name="Pfad 4386" d="M12,0A12,12,0,1,1,0,12,12,12,0,0,1,12,0Z"
                  transform="translate(120 188)" fill="#ffb03b" opacity="0.25"/>
            <circle id="Ellipse_720-4" data-name="Ellipse 720" cx="6.667" cy="6.667" r="6.667"
                    transform="translate(125.333 193.333)" fill="#ffb03b"/>
        </g>
        <g id="Gruppe_5071" data-name="Gruppe 5071" transform="translate(50 26)">
            <path id="Pfad_4386-5" data-name="Pfad 4386" d="M12,0A12,12,0,1,1,0,12,12,12,0,0,1,12,0Z"
                  transform="translate(120 188)" fill="#ffb03b" opacity="0.25"/>
            <circle id="Ellipse_720-5" data-name="Ellipse 720" cx="6.667" cy="6.667" r="6.667"
                    transform="translate(125.333 193.333)" fill="#ffb03b"/>
        </g>
        <g id="Gruppe_5072" data-name="Gruppe 5072" transform="translate(39 138)">
            <path id="Pfad_4386-6" data-name="Pfad 4386" d="M12,0A12,12,0,1,1,0,12,12,12,0,0,1,12,0Z"
                  transform="translate(120 188)" fill="#ffb03b" opacity="0.25"/>
            <circle id="Ellipse_720-6" data-name="Ellipse 720" cx="6.667" cy="6.667" r="6.667"
                    transform="translate(125.333 193.333)" fill="#ffb03b"/>
        </g>
        <g id="Gruppe_5073" data-name="Gruppe 5073" transform="translate(87 181)">
            <path id="Pfad_4386-7" data-name="Pfad 4386" d="M12,0A12,12,0,1,1,0,12,12,12,0,0,1,12,0Z"
                  transform="translate(120 188)" fill="#ffb03b" opacity="0.25"/>
            <circle id="Ellipse_720-7" data-name="Ellipse 720" cx="6.667" cy="6.667" r="6.667"
                    transform="translate(125.333 193.333)" fill="#ffb03b"/>
        </g>
    </g>
</svg>
