<svg xmlns="http://www.w3.org/2000/svg" width="262.435" height="48.694" viewBox="0 0 262.435 48.694">
    <g id="Gruppe_3755" data-name="Gruppe 3755" transform="translate(0.992 1.002)">
        <g id="Gruppe_1030" data-name="Gruppe 1030">
            <path id="Pfad_577" data-name="Pfad 577"
                  d="M610.6,48.2s6.738.932,12.76,1.792c6.093.789,31.325,3.3,31.325,4.8,0,1.577-25.591,2.8-31.684,3.082-6.093.358-12.4.573-12.4.573"
                  transform="translate(-394.243 -29.979)" fill="none" stroke="#8e8e8e" stroke-miterlimit="10"
                  stroke-width="2"/>
            <path id="Pfad_578" data-name="Pfad 578"
                  d="M361.695,59.783l-1.29,2.652c-1.505,3.011-4.086,7.312-6.451,7.025-3.728-.5-10.251-3.512-11.4-4.659s-1.864-3.011-3.943-3.728-8.53-3.584-10.251-5.448c-1.72-1.935-14.408-2.867-18.136-4.731-1.434-.717-1.505-2.581-1.434-4.516v-.5c0-1.864,0-3.728,1.434-4.516,3.728-1.864,16.415-2.8,18.136-4.731s8.172-4.8,10.251-5.448,2.8-2.581,3.943-3.728,7.67-4.229,11.4-4.659c2.437-.287,5.018,4.014,6.451,7.025l1.29,2.652"
                  transform="translate(-308.774 -22.781)" fill="none" stroke="#8e8e8e" stroke-miterlimit="10"
                  stroke-width="2"/>
        </g>
    </g>
</svg>
