<svg xmlns="http://www.w3.org/2000/svg" width="289.536" height="217.04" viewBox="0 0 289.536 217.04">
    <g id="Gruppe_4865" data-name="Gruppe 4865" transform="translate(-34.998 -148.989)">
        <path id="Pfad_4086" data-name="Pfad 4086"
              d="M106.3,137.167c8.121-6.513,13.347-17.046,9.568-55.641a91.378,91.378,0,0,1,32.484,3.216c10.694,3.216,16.081,3.618,17.287,6.915,3.94,10.453,5.066,16.966-.161,24.6-3.377,4.824-14.071,16.081-41.811,20.584C111.285,138.775,106.3,137.167,106.3,137.167Z"
              transform="translate(14.79 133.674)" fill="#33c5ff" opacity="0.15"/>
        <path id="Pfad_4076" data-name="Pfad 4076"
              d="M45.684.663C55.574-.3,64.82,3.4,67.393,10.794c2.573,7.317,6.272,10.855,8.925,17.609s2.412,12.383,7.96,16.483,23.077,14.152,32.243,13.83c23.237-.643,62.154,1.849,68.185,2.895,21.388,3.779,22.835,6.191,28.705,5.548,5.87-.563,33.69-6.191,45.43-12.3,11.739-6.191,25.891-17.046,29.027-17.287,2.01-.161-18.091,20.182-27.258,24.846-15.84,8.121-42.776,13.83-43.661,14.956-.884,1.206,5.387,4.9,6.191,13.267.4,4.1.482,21.871,1.93,33.047s5.87,25.087,8.925,31.2c5.307,10.774,12.865,11.176,12.865,16.081,0,4.985-.241,32.4.322,35.942.161,1.206-2.332,5.628-3.216,7.076s-12.222,1.849-14.795,1.287c-.8-.161-2.734-2.493-1.206-3.538,3.136-2.332,9.97-7.719,9.649-8.925s.563-17.529-5.789-27.017c-5.226-7.88-25.328-26.775-29.027-30.474-10.614-10.614-14.473-26.775-17.448-29.429s-33.529-4.583-44.947-.4c-15.438,5.628-23.4,12.543-41.972,13.669a89.93,89.93,0,0,1-14.071,0s-.563,4.985-1.769,13.187-2.091,25.167-4.1,30.474c-2.091,5.307-1.206,23.4-2.091,24.283s-2.332,1.769-2.895,5.548-1.528,12.3-3.86,12.3H54.93c-.8,0-2.091-4.262-.563-4.985,3.216-1.689,9.488-6.433,9.81-8.2s2.01-15.518,1.447-20.182.965-20.5.482-25.167c-.563-5.387-2.734-25.087-4.181-29.188S51.634,108.247,49.543,94.5C47.774,83.08,48.1,81.472,46.89,78.9c-1.206-2.653-3.94-14.232-4.262-22.916-.241-8.121-3.136-15.92-10.453-17.931-7.317-2.091-18.413-3.94-21.066-5.146S.013,21.73.5,16.745c.241-2.653,4.744-2.653,7.4-2.734,6.272-.322,17.77-2.653,19.378-4.181C31.452,5.729,28.075,2.432,45.684.663Z"
              transform="translate(35.525 149.488)" fill="none" stroke="#8e8e8e" stroke-miterlimit="10"
              stroke-width="2"/>
        <path id="Pfad_4077" data-name="Pfad 4077" d="M180.445,117.124c4.664-6.674,3.055-13.187-1.045-24.524"
              transform="translate(0.467 131.445)" fill="none" stroke="#33c5ff" stroke-miterlimit="10" stroke-width="2"
              opacity="0.45"/>
        <path id="Pfad_4078" data-name="Pfad 4078" d="M172.78,124.632c5.066-6.03,5.789-14.473-.08-33.932"
              transform="translate(1.78 131.817)" fill="none" stroke="#33c5ff" stroke-miterlimit="10" stroke-width="2"
              opacity="0.45"/>
        <path id="Pfad_4079" data-name="Pfad 4079" d="M164.6,128.138c4.02-4.181,7.719-13.106,1.447-39.238"
              transform="translate(3.367 132.17)" fill="none" stroke="#33c5ff" stroke-miterlimit="10" stroke-width="2"
              opacity="0.45"/>
        <path id="Pfad_4080" data-name="Pfad 4080" d="M155.4,131.347c8.684-6.352,9.408-23.961,2.975-44.947"
              transform="translate(5.17 132.659)" fill="none" stroke="#33c5ff" stroke-miterlimit="10" stroke-width="2"
              opacity="0.45"/>
        <path id="Pfad_4081" data-name="Pfad 4081" d="M150.977,84.4c6.674,25.569,5.066,42.455-3.377,48.485"
              transform="translate(6.698 133.051)" fill="none" stroke="#33c5ff" stroke-miterlimit="10" stroke-width="2"
              opacity="0.45"/>
        <path id="Pfad_4082" data-name="Pfad 4082" d="M136.6,135.141c7.156-6.03,13.83-18.011,6.03-51.541"
              transform="translate(8.853 133.208)" fill="none" stroke="#33c5ff" stroke-miterlimit="10" stroke-width="2"
              opacity="0.45"/>
        <path id="Pfad_4083" data-name="Pfad 4083" d="M125.8,136.855c8.2-5.468,13.83-19.619,7.156-54.355"
              transform="translate(10.969 133.424)" fill="none" stroke="#33c5ff" stroke-miterlimit="10" stroke-width="2"
              opacity="0.45"/>
        <path id="Pfad_4084" data-name="Pfad 4084" d="M115.8,138.167c7.639-7.317,12.7-18.654,8.925-56.767"
              transform="translate(12.929 133.639)" fill="none" stroke="#33c5ff" stroke-miterlimit="10" stroke-width="2"
              opacity="0.45"/>
        <path id="Pfad_4085" data-name="Pfad 4085" d="M106.3,137.241c8.121-6.513,13.347-17.046,9.568-55.641"
              transform="translate(14.79 133.6)" fill="none" stroke="#33c5ff" stroke-miterlimit="10" stroke-width="2"
              opacity="0.45"/>
    </g>
</svg>
