<svg xmlns="http://www.w3.org/2000/svg" width="111.094" height="42.344" viewBox="0 0 111.094 42.344">
    <g id="Gruppe_4735" data-name="Gruppe 4735" transform="translate(110.019 1.344) rotate(90)">
        <path id="Pfad_2855" data-name="Pfad 2855"
              d="M.5,107.948S12.181,84.939,12.181,79.983,6.518,55.2,6.518,46c0-7.08,15.575-40.354,16.991-42.832,2.478-4.248,7.434-3.54,6.726,3.894C29.173,17.329,24.571,36.09,24.571,36.09"
              transform="translate(-0.5 -0.564)" fill="none" stroke="#33c5ff" stroke-linecap="round"
              stroke-miterlimit="10" stroke-width="2"/>
        <path id="Pfad_2856" data-name="Pfad 2856"
              d="M14.027,84.281s2.478-9.558,2.832-10.619S28.186,63.75,28.186,53.131s-12.035-35.4-14.867-39.646c-3.186-5.31-9.912-3.54-7.434,4.248,2.832,8.85,6.018,21.593,5.31,25.133"
              transform="translate(11.814 24.519)" fill="none" stroke="#33c5ff" stroke-linecap="round"
              stroke-miterlimit="10" stroke-width="2"/>
    </g>
</svg>
