<svg xmlns="http://www.w3.org/2000/svg" width="289.504" height="217.436" viewBox="0 0 289.504 217.436">
    <g id="Gruppe_5098" data-name="Gruppe 5098" transform="translate(0.02 0.042)">
        <path id="Pfad_4097" data-name="Pfad 4097"
              d="M46.266,1.135c9.917-1.017,19.2,2.67,21.741,10.171,2.543,7.247,6.23,10.807,8.9,17.545s2.416,12.46,7.883,16.528,23.139,14.112,32.293,13.858c23.139-.636,62.171,1.907,68.147,2.924,21.359,3.814,22.885,6.1,28.734,5.594,5.848-.636,33.692-6.1,45.389-12.333s25.936-17.037,28.988-17.291c2.034-.127-18.181,20.215-27.208,24.919-15.765,8.137-42.719,13.858-43.609,15s5.34,4.958,6.23,13.222c.381,4.068.509,21.868,1.907,33.056s5.848,25.046,8.9,31.276C239.9,166.417,247.4,166.8,247.4,171.757s-.254,32.421.254,35.98c.127,1.271-2.416,5.594-3.178,7.12-.89,1.526-12.205,1.78-14.875,1.271-.763-.127-2.8-2.543-1.271-3.56,3.178-2.289,9.917-7.756,9.663-8.9s.509-17.545-5.721-27.081c-5.213-7.883-25.3-26.826-28.988-30.513-10.68-10.68-14.494-26.826-17.418-29.369-2.924-2.67-33.565-4.577-44.88-.381-15.384,5.594-23.394,12.46-41.956,13.731a80.588,80.588,0,0,1-14.112,0s-.636,4.958-1.78,13.223-2.034,25.174-4.068,30.513c-2.034,5.213-1.144,23.394-2.034,24.284s-2.289,1.78-2.924,5.594S72.584,216,70.3,216H55.548c-.763,0-2.034-4.2-.636-4.958,3.178-1.653,9.535-6.484,9.79-8.137s2.034-15.511,1.4-20.215.89-20.6.509-25.174c-.509-5.34-2.67-25.174-4.2-29.242s-10.3-18.944-12.46-32.8c-1.78-11.443-1.4-12.968-2.67-15.638S43.342,65.6,42.961,56.95c-.381-8.264-3.306-16.02-10.553-18.054S13.973,34.955,11.43,33.81.5,22.241,1,17.155c.254-2.67,4.831-2.67,7.374-2.8,6.23-.381,17.8-2.67,19.325-4.2C32.027,6.221,28.594,2.915,46.266,1.135Z"
              transform="translate(0 0)" fill="none" stroke="#8e8e8e" stroke-miterlimit="10" stroke-width="2"/>
        <path id="Pfad_4098" data-name="Pfad 4098"
              d="M162.4,92.5c-2.924-2.67-33.565-4.577-44.88-.381-11.57,4.2-18.944,9.154-29.623,11.824"
              transform="translate(23.589 24.073)" fill="none" stroke="#33c5ff" stroke-miterlimit="10"
              stroke-width="2"/>
    </g>
</svg>
