<?xml version="1.0" encoding="utf-8"?>
<!-- Generator: Adobe Illustrator 23.0.1, SVG Export Plug-In . SVG Version: 6.00 Build 0)  -->
<svg version="1.1" id="Ebene_1" xmlns="http://www.w3.org/2000/svg" x="0px" y="0px"
     viewBox="0 0 202 151.7" style="enable-background:new 0 0 202 151.7;" xml:space="preserve">
<style type="text/css">
	.st0{fill:#8C8C8C;}
</style>
    <title>dog_body_normal_chest</title>
    <g>
	<g id="Ebene_1-2">
		<g>
			<path class="st0" d="M163.3,151.6c-1.6,0-3-0.1-3.4-0.2c-0.8-0.2-1.8-1.3-2-2.3c-0.2-0.8,0.1-1.5,0.8-2c2.8-2,5.8-4.6,6.3-5.4
				c0-0.2,0-0.6,0-1.2c-0.1-3.2-0.3-11.8-3.8-17c-3-4.5-13-14.2-17.9-18.9c-1-0.9-1.7-1.7-2.2-2.1c-4.9-4.9-7.8-11.5-9.8-15.9
				c-0.9-2.1-1.8-4-2.3-4.5l1.3-1.5c0.9,0.8,1.7,2.5,2.8,5.2c1.9,4.2,4.7,10.6,9.3,15.3c0.4,0.4,1.2,1.2,2.1,2.1
				c4.9,4.7,15.1,14.6,18.2,19.3c3.8,5.7,4,14.7,4.1,18.1c0,0.5,0,1,0,1.1c0.3,1.1-2.1,3.6-7.1,7.2c0,0.1,0.3,0.6,0.5,0.7
				c1.8,0.3,8.1,0,9.2-0.6c1.3-2.1,2-3.8,2-4.2c-0.3-1.8-0.3-11.8-0.2-22.2c0-1.3,0-2.3,0-2.9c0-1.1-0.8-1.8-2.4-3
				c-1.9-1.5-4.4-3.5-6.5-7.7c-2.2-4.5-5.3-14.2-6.3-22c-0.7-5.2-0.9-12.3-1.1-17.5c-0.1-2.6-0.2-4.6-0.2-5.5
				c-0.3-3.4-2.1-5.6-3.2-7.1c-0.8-1-1.5-1.9-0.9-2.9c0.4-0.5,0.9-0.7,6.2-2.2c6.4-1.8,17.2-4.8,24.5-8.5c4.3-2.2,12-9.5,16-13.6
				c-1.4,0.9-3,1.9-4.5,2.9c-3.7,2.4-7.9,5.2-11.8,7.2c-8.3,4.3-27.9,8.3-32,8.7c-2.3,0.2-3.8-0.2-6.6-0.9c-2.6-0.7-6.5-1.7-13.6-3
				c-4.1-0.7-31-2.4-47.2-2c-6.7,0.2-19-6.9-23-9.8c-3-2.2-3.8-5.1-4.7-8.1c-0.3-1.2-0.7-2.5-1.2-3.8c-0.8-2.1-1.8-3.7-2.8-5.4
				c-1.2-2-2.4-4-3.4-6.9C45,4,39.4,1.4,32.5,2.1C23.8,3,23,4.3,22,6c-0.4,0.6-0.8,1.4-1.6,2.2c-1.5,1.5-10.3,3-14.1,3.2l-0.5,0
				c-1.2,0.1-3.6,0.2-3.7,1c-0.3,3,5.3,9.6,6.8,10.2c0.9,0.4,3.7,1,6.6,1.6c2.6,0.6,5.5,1.2,7.9,1.9c4.9,1.4,7.8,6.3,8.1,13.5
				c0.3,6,2.2,13.9,2.9,15.6c0.6,1.3,0.7,2.2,1,4.7c0.2,1.5,0.4,3.4,0.9,6.4c1.1,7,4.7,14.5,6.9,19c0.8,1.7,1.4,2.8,1.7,3.6
				c0.9,2.5,2.1,12.6,3,20.5c0.2,1.6,0,5-0.2,8.5c-0.2,3.6-0.4,7.4-0.2,9c0.4,3.5-0.9,13.5-1,14.3c-0.3,1.9-5.5,5.5-7.3,6.4
				c-0.1,0.3,0.1,1.2,0.3,1.6h9.8c0.8-0.6,1.4-5.1,1.6-6.6c0.1-0.4,0.1-0.8,0.2-1.2c0.1-1.6,0.9-3.2,2.1-4.3
				c0.1-0.7,0.2-2.7,0.2-4.6c0.1-4.3,0.2-9.7,1.1-12c0.9-2.4,1.6-9,2.1-14.2c0.2-2.5,0.5-4.9,0.7-6.7c0.8-5.7,1.2-9.2,1.2-9.2l2,0.3
				c0,0-0.5,3.5-1.2,9.2c-0.2,1.8-0.5,4.1-0.7,6.7c-0.5,5.7-1.2,12.1-2.2,14.8c-0.8,2-0.9,7.4-1,11.4c-0.1,4.6-0.2,5.3-0.7,5.8
				l-0.1,0.1c-1,0.8-1.6,1.9-1.6,3.2c-0.1,0.4-0.1,0.8-0.2,1.2c-0.7,4.7-1.3,8.3-3.5,8.3H39c-1,0-1.5-1.1-1.7-2.1
				c-0.4-1.6-0.1-2.8,0.9-3.3c2.4-1.2,6-4.2,6.3-5c0.2-1.2,1.4-10.7,1-13.7c-0.2-1.8,0-5.5,0.1-9.4c0.2-3.3,0.3-6.7,0.2-8.2
				c-1.6-15-2.5-19-2.8-20.1c-0.2-0.7-0.8-1.9-1.6-3.4c-2.2-4.6-6-12.3-7.1-19.5c-0.5-3-0.7-5-0.9-6.4C33,57.8,32.9,57,32.5,56
				c-0.9-2.1-2.8-10.3-3.1-16.3c-0.1-3.7-1.2-10.1-6.6-11.6c-2.3-0.6-5.2-1.3-7.8-1.9c-3.3-0.7-5.9-1.3-6.9-1.8
				c-2.1-0.9-8.3-8.3-8-12.3c0.2-2.6,3.6-2.7,5.6-2.8l0.5,0c4.5-0.2,11.9-1.9,12.8-2.6c0.6-0.6,1-1.2,1.3-1.8
				c1.5-2.4,3-3.9,12.1-4.8c7.8-0.8,14.3,2.3,16.2,7.7c0.9,2.7,2.1,4.5,3.2,6.5c1,1.7,2.1,3.4,3,5.7c0.6,1.4,0.9,2.7,1.3,4
				c0.8,2.9,1.5,5.2,3.9,7c3.7,2.8,15.6,9.6,21.8,9.4c16.3-0.5,43.5,1.3,47.6,2c7.2,1.3,11.2,2.3,13.8,3c2.8,0.7,4,1,5.9,0.9
				c4-0.4,23.2-4.2,31.2-8.5c3.8-2,8-4.7,11.6-7.1c5-3.2,7.6-4.9,9-5c0.5,0,1,0.3,1.1,0.8c0.1,0.5,0.4,1.4-7.4,8.8
				c-2.4,2.2-8.3,7.6-12.1,9.6c-7.4,3.8-18.3,6.9-24.9,8.7c-1.9,0.5-3.7,1-4.7,1.4c0.1,0.2,0.3,0.3,0.4,0.5c1.2,1.5,3.3,4.1,3.7,8.1
				c0.1,1,0.2,3,0.3,5.6c0.2,5.2,0.4,12.2,1.1,17.3c1,7.4,4,17,6.1,21.4c1.9,3.8,4.1,5.6,6,7c1.7,1.3,3.1,2.5,3.1,4.6
				c0,0.6,0,1.6,0,2.9c0,6-0.1,20,0.2,22c0,0.3,0.2,1.3-2.4,5.6C170.6,151.3,166.4,151.6,163.3,151.6z M152.3,55.3L152.3,55.3
				L152.3,55.3z"/>
		</g>
	</g>
</g>
</svg>
