<?xml version="1.0" encoding="utf-8"?>
<!-- Generator: Adobe Illustrator 23.0.1, SVG Export Plug-In . SVG Version: 6.00 Build 0)  -->
<svg version="1.1" id="Ebene_1" xmlns="http://www.w3.org/2000/svg" x="0px" y="0px"
	 viewBox="0 0 72.9 13.9" style="enable-background:new 0 0 72.9 13.9;" xml:space="preserve">
<style type="text/css">
	.st0{fill:#8C8C8C;}
	.st1{fill:#24B5BC;}
</style>
	<title>ideal</title>
	<g>
	<g id="Ebene_1-2">
		<g>
			<path class="st0" d="M2,13.9l-2-0.3c0.1-1,0.2-1.5,0.2-1.5l0.1-1l1,0.1c3.2,0.3,6.4,0.3,9.6,0c8.7-0.6,13.9-2.9,19.9-5.7
				c2.7-1.3,5.6-2.5,9-3.8c8.1-3,29.8-1.8,32.3,0.5c0.3,0.3,0.6,0.7,0.8,1l-1.7,1c-0.1-0.2-0.3-0.4-0.5-0.6
				c-1.7-1.3-22.2-3-30.2-0.1c-3.3,1.2-6.1,2.5-8.8,3.7c-5.9,2.7-11.6,5.3-20.6,5.8c-3,0.2-6,0.3-9,0.1C2.1,13.5,2.1,13.7,2,13.9z"
			/>
		</g>
		<g>
			<path class="st1" d="M24.6,10.4l-0.7-1.9c2.4-0.9,4.7-1.9,7-3c2.7-1.2,5.5-2.5,8.8-3.7c8.1-3,29.8-1.8,32.3,0.5l-1.3,1.5
				c-1.7-1.4-22.2-3-30.2-0.1c-3.3,1.2-6,2.4-8.7,3.7C29.4,8.4,27.1,9.5,24.6,10.4z"/>
		</g>
	</g>
</g>
</svg>
