<?xml version="1.0" encoding="utf-8"?>
<!-- Generator: Adobe Illustrator 23.0.1, SVG Export Plug-In . SVG Version: 6.00 Build 0)  -->
<svg version="1.1" id="Ebene_1" xmlns="http://www.w3.org/2000/svg" x="0px" y="0px"
	 viewBox="0 0 74.3 10.9" style="enable-background:new 0 0 74.3 10.9;" xml:space="preserve">
<style type="text/css">
	.st0{fill:#8C8C8C;}
	.st1{fill:#24B5BC;}
</style>
	<title>obese</title>
	<g>
	<g id="Ebene_1-2">
		<g>
			<path class="st0" d="M6.1,10.9c-1.4,0-2.8,0-4.1-0.1c0,0,0,0,0,0.1l-0.4-0.1c-0.1,0-0.3,0-0.4,0l0-0.1L0,10.4
				c0.2-0.8,0.2-1,0.2-1l0.2-0.7l0.8,0.1C4.5,9,7.7,9,10.9,8.8c9.4-0.6,14.5-1.3,21-2.2c2.4-0.3,5-0.7,8.1-1.1
				c3.7-0.5,8.8-1.5,13.7-2.6C67.5-0.1,73.3-1,74.3,1.4l-1.9,0.8c0,0.1,0,0.1,0.1,0.1c-1.3-1.1-11.6,1.1-18.4,2.5
				c-4.9,1-10,2.1-13.8,2.6c-3.1,0.4-5.7,0.8-8.1,1.1c-6.5,0.9-11.7,1.7-21.1,2.3C9.4,10.9,7.8,10.9,6.1,10.9z"/>
		</g>
		<g>
			<path class="st1" d="M25.3,9.4l-0.2-2c2.4-0.3,4.7-0.6,7.2-1c2.3-0.3,4.9-0.7,7.8-1.1c3.7-0.5,8.8-1.5,13.7-2.6
				C67.5-0.1,73.3-1,74.3,1.4l-1.9,0.8c0,0.1,0,0.1,0.1,0.1c-1.3-1.1-11.6,1.1-18.4,2.5c-4.9,1-10,2.1-13.8,2.6
				c-2.9,0.4-5.5,0.7-7.8,1.1C30,8.8,27.7,9.1,25.3,9.4z"/>
		</g>
	</g>
</g>
</svg>
