<?xml version="1.0" encoding="utf-8"?>
<!-- Generator: Adobe Illustrator 23.0.1, SVG Export Plug-In . SVG Version: 6.00 Build 0)  -->
<svg version="1.1" id="Ebene_1" xmlns="http://www.w3.org/2000/svg" x="0px" y="0px"
	 viewBox="0 0 72.7 17.2" style="enable-background:new 0 0 72.7 17.2;" xml:space="preserve">
<style type="text/css">
	.st0{fill:#8C8C8C;}
	.st1{fill:#24B5BC;}
</style>
	<title>thin</title>
	<g>
	<g id="Ebene_1-2">
		<g>
			<path class="st0" d="M2,17.2l-2-0.4c0.1-0.8,0.2-1.2,0.2-1.2l0-0.9l0.9,0c0,0,3.5-0.2,9.8-0.6c9-0.6,14.3-3.3,20.6-6.6
				c2.5-1.3,5.2-2.7,8.2-4c10.9-4.6,28.2-4.2,30.8-1.8l0.1,0.1c0.9,1.2,1.6,2.5,2.1,3.9l-1.9,0.7c-0.4-1.2-1-2.3-1.8-3.3
				c-1.7-1.2-17.6-2.5-28.6,2.2c-3,1.3-5.6,2.6-8.1,3.9c-6.2,3.2-12,6.2-21.3,6.8c-4.5,0.3-7.5,0.4-8.9,0.5C2.1,16.8,2.1,17,2,17.2z
				"/>
		</g>
		<g>
			<path class="st1" d="M23.6,13.4l-0.7-1.9c3.1-1.1,5.8-2.6,8.8-4.1c2.5-1.3,5.1-2.6,8.1-3.9c10.9-4.6,28.2-4.2,30.8-1.8l-1.3,1.5
				c-1.4-1.3-17.5-2.6-28.6,2.2C37.6,6.6,35,8,32.6,9.2C29.6,10.8,26.7,12.2,23.6,13.4z"/>
		</g>
	</g>
</g>
</svg>
