<?xml version="1.0" encoding="utf-8"?>
<!-- Generator: Adobe Illustrator 23.0.1, SVG Export Plug-In . SVG Version: 6.00 Build 0)  -->
<svg version="1.1" id="Ebene_1" xmlns="http://www.w3.org/2000/svg" x="0px" y="0px"
	 viewBox="0 0 72.5 20.9" style="enable-background:new 0 0 72.5 20.9;" xml:space="preserve">
<style type="text/css">
	.st0{fill:#8C8C8C;}
	.st1{fill:#24B5BC;}
</style>
	<title>ultra_thin</title>
	<g>
	<g id="Ebene_1-2">
		<g>
			<path class="st0" d="M2,20.9l-2-0.2c0.2-1.5,0.2-2.4,0.2-2.4l0.1-0.9l0.9,0c3.2,0.1,6.4-0.1,9.6-0.6c14.9-1.9,20-5.3,24.5-8.4
				c2.7-1.8,5.2-3.6,9.4-4.7l1.6-0.4c9.5-2.6,21.3-5.7,23.4,0.1c0.1,0.3,1.1,3,2.7,6.8l-1.8,0.8C69,7,68,4.3,67.9,4
				c-1.5-4.1-13.2-1-21,1.1l-1.6,0.4c-3.9,1.1-6.2,2.6-8.8,4.4c-4.6,3.2-9.9,6.8-25.3,8.7c-2.9,0.4-6,0.6-9,0.6
				C2.1,19.7,2.1,20.2,2,20.9z"/>
		</g>
		<g>
			<path class="st1" d="M22.4,16.6l-0.5-1.9c6.9-1.8,10.2-4.1,13.5-6.3c2.7-1.8,5.3-3.6,9.5-4.7l2-0.5c9.7-2.6,20.8-5.6,22.9,0.2
				L67.9,4C66.4,0,55,3,47.4,5.1l-2,0.5c-3.9,1-6.3,2.6-8.9,4.4C33.2,12.2,29.6,14.7,22.4,16.6z"/>
		</g>
	</g>
</g>
</svg>
