<?xml version="1.0" encoding="utf-8"?>
<!-- Generator: Adobe Illustrator 23.0.1, SVG Export Plug-In . SVG Version: 6.00 Build 0)  -->
<svg version="1.1" id="Ebene_1" xmlns="http://www.w3.org/2000/svg" x="0px" y="0px"
	 viewBox="0 0 77.3 6.2" style="enable-background:new 0 0 77.3 6.2;" xml:space="preserve">
<style type="text/css">
	.st0{fill:#8C8C8C;}
	.st1{fill:#24B5BC;}
</style>
	<title>Element 13</title>
	<g>
	<g id="Ebene_1-2">
		<g>
			<path class="st0" d="M2,6.2L0,5.9c0.2-1.2,0.3-2.1,0.3-2.1L0.4,3l0.9,0c3.4,0.1,6.8,0.1,10.2-0.2c7.3-0.5,14.8-0.3,22-0.2
				c5.6,0.1,10.8,0.2,15.8,0C58.5,2.2,67.8,1.4,77,0l0.3,2c-9.2,1.4-18.6,2.3-28,2.6c-5,0.2-10.3,0.1-15.9,0
				c-7.1-0.1-14.5-0.2-21.8,0.2C8.5,5.1,5.3,5.1,2.1,5C2.1,5.4,2,5.7,2,6.2z"/>
		</g>
		<g>
			<path class="st1" d="M42,4.7c-3,0-6.1-0.1-9.4-0.1c-2.3,0-4.6-0.1-7-0.1l0-2c2.3,0,4.7,0.1,7,0.1c5.8,0.1,11.3,0.2,16.5,0
				C58.5,2.2,67.8,1.4,77,0l0.3,2c-9.2,1.4-18.6,2.3-28,2.6C46.9,4.7,44.5,4.7,42,4.7z"/>
		</g>
	</g>
</g>
</svg>
