<?xml version="1.0" encoding="utf-8"?>
<!-- Generator: Adobe Illustrator 23.1.1, SVG Export Plug-In . SVG Version: 6.00 Build 0)  -->
<svg id="Ebene_1" style="enable-background:new 0 0 205 155;" version="1.1" viewBox="0 0 205 155" x="0px"
     xml:space="preserve" xmlns="http://www.w3.org/2000/svg" y="0px">
<style type="text/css">
	.st0 {
    fill: none;
    stroke: #8C8C8C;
    stroke-width: 2;
    stroke-miterlimit: 10;
  }

  .st1 {
    fill: none;
    stroke: #24B5BC;
    stroke-width: 2;
    stroke-miterlimit: 10;
  }
</style>
  <g>
	<g>
		<path class="st0" d="M133,85.1c-1.2-2.9-22.4,3.2-33.2,4.6c-11.3,1.5-16.2,2.6-29.2,3.4c-6.3,0.4-9.8,0-9.8,0s-0.3,2.7-1.1,8.4
			c-0.8,5.7-1.4,17.5-2.9,21.2c-1.4,3.7-0.8,16.2-1.4,16.9c-0.6,0.6-1.6,1.2-2,3.9s-1,8.6-2.7,8.6c-2.6,0-7.7,0-10.2,0
			c-0.5,0-1.4-2.9-0.4-3.5c2.2-1.2,6.6-4.5,6.8-5.7c0.2-1.2,1.4-10.8,1-14c-0.4-3.3,0.7-14.3,0.3-17.5c-0.4-3.8-1.9-17.5-2.9-20.3
			c-1-2.9-7.2-13.2-8.6-22.8c-1.2-7.9-1-9-1.8-10.9c-0.8-1.8-2.7-9.9-3-15.9c-0.2-5.7-2.3-11.1-7.4-12.6S11.7,26,9.9,25.2
			s-7.7-7.8-7.4-11.3c0.2-1.9,3.3-1.8,5.2-1.9C12,11.8,20,10.2,21.1,9.1C24,6.3,21.7,4,34,2.8c6.9-0.7,13.3,1.9,15.1,7.1
			c1.8,5.1,4.4,7.5,6.2,12.2s1.7,8.6,5.5,11.5s16,9.8,22.4,9.6c16.1-0.5,43.2,1.3,47.4,2c14.9,2.6,15.9,4.3,20,3.9
			c4.1-0.4,23.4-4.3,31.6-8.6c8.2-4.3,18-11.9,20.2-12c1.4-0.1-12.6,14-18.9,17.3c-11,5.7-29.7,9.6-30.3,10.4
			c-0.6,0.8,3.7,3.4,4.3,9.2c0.3,2.8,0.3,15.2,1.3,23c1,7.7,4.1,17.4,6.2,21.7c3.7,7.5,9,7.7,9,11.2s-0.2,22.5,0.2,25
			c0.1,0.8-1.6,3.9-2.3,4.9c-0.6,1-8.5,1.3-10.3,0.9c-0.6-0.1-1.9-1.7-0.9-2.5c2.2-1.6,6.9-5.4,6.7-6.2c-0.2-0.8,0.4-12.2-4-18.8
			c-3.6-5.5-17.4-18.8-20.2-21.2C135.8,96.9,133,85.1,133,85.1z"/>
	</g>
    <g>
		<path class="st1" d="M133,85.1c-1.2-2.9-22.4,3.2-33.2,4.6c-6.1,0.8-10.3,1.5-15,2.1"/>
	</g>
</g>
</svg>
