<?xml version="1.0" encoding="utf-8"?>
<!-- Generator: Adobe Illustrator 23.1.1, SVG Export Plug-In . SVG Version: 6.00 Build 0)  -->
<svg id="Ebene_1" style="enable-background:new 0 0 178 100;" version="1.1" viewBox="0 0 178 100" x="0px"
		 xml:space="preserve" xmlns="http://www.w3.org/2000/svg" y="0px">
<style type="text/css">
	.st0 {
		fill: #33c5ff;
	}
</style>
	<g>
	<path class="st0" d="M164.8,17.7c-0.3-1-1.2-1.9-2.7-2.6c-1.4-0.7-2.5-1.2-3.7-1.7c-1.3-0.6-2.9-1.3-5.6-2.6
		c-1.6-5.2-5.6-8.7-11.7-10.2c-3.8-0.9-7.7-0.6-11.3,0.9c0,0,0,0,0,0c-2.4-0.7-5.1-0.3-7.2,1.3L111,11.3c-1.3,0.9-2.2,2.1-2.7,3.5
		c-5.5,1.5-11.4,2.2-16.1,2.8c-2.8,0.4-5.2,0.7-7.2,1C53.2,25.1,50.9,43.4,50.7,47c-6.2,6.4-22.7,10.7-32.3,6.6
		c-1.9-0.8-4.2,0.1-5,2c-0.8,1.9,0.1,4.2,2,5c9.5,4,25.7,3.5,37-4.2c1.9,3,8.6,11.8,21.1,12.8l-7.9,12.5l0,0.2
		c-0.1,1,0.2,2.1,0.9,2.9l12.1,13.8c0.7,0.9,1.8,1.4,2.9,1.4c0.6,0,1.3-0.2,1.9-0.5l3.1-1.7c1-0.6,1.7-1.5,1.9-2.6
		c0.2-1.1-0.1-2.3-0.8-3.1l-7.1-8.3c2.2-2.3,9.2-10.2,12.2-16.8c3.2-7,3.9-13,2.1-17.9c-1.5-3.9-4.7-6.9-9.4-9
		c-0.5-0.2-1.1,0-1.3,0.5c-0.2,0.5,0,1.1,0.5,1.3c4.2,1.8,7,4.5,8.3,7.9c1.6,4.3,0.9,9.9-2,16.3C87.3,73.4,78.3,82.9,78.2,83
		l-0.6,0.7l8.3,9.6c0.3,0.4,0.5,1,0.4,1.5c-0.1,0.5-0.4,1-0.9,1.2l-3.1,1.7c-0.8,0.4-1.7,0.3-2.3-0.4L68,83.5
		c-0.3-0.3-0.4-0.7-0.4-1.2L77,67.3l-1.8,0c-15-0.3-21.6-12.7-21.6-12.8l-0.5-1l-0.9,0.7c-10.8,7.9-26.7,8.5-35.9,4.6
		c-0.9-0.4-1.3-1.5-1-2.4c0.4-0.9,1.5-1.3,2.4-1c10.7,4.6,28.4-0.3,34.8-7.3l0.3-0.3l0-0.4c0-2.1,0.9-20.3,32.7-26.7
		c1.8-0.4,4.2-0.7,7-1c4.5-0.6,10.1-1.3,15.4-2.6c-0.1,1.9,0.5,3.7,1.8,5.2c1.5,1.8,3.9,3,6.3,3.1c0.1,0,0.3,0,0.4,0
		c1.9,0,3.6-0.7,4.8-1.9c0.6-0.6,1.3-1.4,2.2-2.4c2-2.3,5.7-6.5,7.4-6.5c0.2,0,0.3,0.1,0.5,0.3c0.3,0.4,1,0.5,1.4,0.2
		c0.4-0.3,0.5-1,0.2-1.4c-0.5-0.7-1.2-1-2-1c-2.5-0.1-5.5,3.2-9,7.1c-0.8,1-1.6,1.8-2.1,2.3c-0.9,0.9-2.3,1.4-3.7,1.3
		c-1.8-0.1-3.7-1-4.9-2.4c-1-1.2-1.5-2.7-1.3-4.2c0.2-1.5,1-2.9,2.3-3.8l11.6-8.5c2.7-2,6.6-1.5,8.7,1c0.4,0.4,1,0.5,1.4,0.1
		c0.4-0.4,0.5-1,0.1-1.4c-0.5-0.6-1-1.1-1.6-1.5c2.7-0.8,5.5-0.9,8.3-0.2c5.6,1.4,9.1,4.5,10.4,9.3l0.1,0.4l0.4,0.2
		c3,1.4,4.7,2.2,6.1,2.8c1.2,0.5,2.2,1,3.6,1.6c0.9,0.5,1.5,1,1.6,1.4c0,0.1,0.1,0.4-0.2,1c-1.1,1.8-2.6,3.6-3.7,5
		c-1.8,2.2-4.1,2.5-6.2,2.4c-3.5-0.1-5.9-0.4-9.3-0.8c-0.9-0.1-2-0.2-3.1-0.4l-0.5-0.1l-16.8,15.8l-0.1,0.2
		c-3.5,8.8-12.9,16.4-14.2,17.1l-0.5,0.2l-5,34.6c-0.1,0.5-0.3,0.9-0.7,1.2c-0.4,0.3-0.9,0.4-1.4,0.3l-2.1-0.1
		c-0.9-0.1-1.5-0.9-1.5-1.8l0.1-28c0-0.6-0.4-1-1-1c0,0,0,0,0,0c-0.6,0-1,0.4-1,1l-0.1,28c0,1.9,1.4,3.5,3.3,3.7l2.1,0.1
		c0.2,0,0.4,0,0.6,0c0.8,0,1.6-0.3,2.3-0.8c0.8-0.6,1.3-1.5,1.5-2.5l4.9-33.6c2.4-1.6,11.1-9,14.6-17.6l15.8-14.8
		c1,0.1,1.8,0.2,2.6,0.3c3.4,0.4,5.8,0.7,9.5,0.8c2.5,0,5.4-0.3,7.8-3.2c1.2-1.4,2.7-3.3,3.9-5.2C164.8,19.4,165,18.5,164.8,17.7z"
	/>
		<path class="st0" d="M144.4,13.8c0.1,0.1,0.3,0.1,0.4,0.1c0.4,0,0.8-0.2,0.9-0.6c0.2-0.5,0-1.1-0.5-1.3L143,11
		c-0.5-0.2-1.1,0-1.3,0.5c-0.2,0.5,0,1.1,0.5,1.3L144.4,13.8z"/>
</g>
</svg>
