<?xml version="1.0" encoding="utf-8"?>
<!-- Generator: Adobe Illustrator 23.0.1, SVG Export Plug-In . SVG Version: 6.00 Build 0)  -->
<svg id="Ebene_1" style="enable-background:new 0 0 178 100;" version="1.1" viewBox="0 0 178 100" x="0px"
     xml:space="preserve" xmlns="http://www.w3.org/2000/svg" y="0px">
<style type="text/css">
	.st0 {
    fill: #33c5ff;
  }
</style>
  <g>
	<path class="st0" d="M88.29,74.99c-0.3-0.98-0.64-1.96-1.01-2.9c-0.2-0.51-0.78-0.77-1.29-0.57c-0.51,0.2-0.77,0.78-0.57,1.29
		c0.35,0.9,0.67,1.83,0.96,2.76c0.13,0.43,0.53,0.71,0.96,0.71c0.1,0,0.2-0.01,0.29-0.04C88.16,76.08,88.45,75.52,88.29,74.99z"/>
    <path class="st0" d="M76.73,57.04c-0.45-0.33-1.07-0.23-1.4,0.21c-0.33,0.44-0.23,1.07,0.21,1.4c0.01,0.01,0.86,0.64,2.11,1.91
		c0.2,0.2,0.46,0.3,0.71,0.3c0.25,0,0.51-0.09,0.7-0.29c0.39-0.39,0.4-1.02,0.01-1.41C77.71,57.77,76.77,57.07,76.73,57.04z"/>
    <path class="st0" d="M82.99,63.94c-0.31-0.46-0.93-0.57-1.39-0.26c-0.46,0.31-0.57,0.93-0.26,1.39c0.55,0.8,1.07,1.63,1.56,2.47
		c0.19,0.32,0.52,0.5,0.87,0.5c0.17,0,0.34-0.04,0.5-0.13c0.48-0.28,0.64-0.89,0.37-1.37C84.12,65.66,83.57,64.78,82.99,63.94z"/>
    <path class="st0" d="M89.07,85.1c0.03,0,0.06,0,0.1,0c0.55-0.05,0.95-0.54,0.9-1.09c-0.1-1.02-0.23-2.04-0.39-3.04
		c-0.09-0.54-0.6-0.92-1.15-0.83c-0.55,0.09-0.92,0.6-0.83,1.15c0.15,0.95,0.28,1.93,0.37,2.91C88.12,84.71,88.56,85.1,89.07,85.1z"
    />
    <path class="st0" d="M89.29,89.09c-0.55-0.02-1.01,0.42-1.02,0.97c-0.02,0.96-0.08,1.95-0.16,2.94c-0.04,0.55,0.37,1.03,0.92,1.08
		c0.03,0,0.05,0,0.08,0c0.52,0,0.95-0.4,1-0.92c0.08-1.02,0.14-2.05,0.16-3.05C90.28,89.57,89.84,89.11,89.29,89.09z"/>
    <path class="st0" d="M176.91,71.78c-1.57-3.35-3.71-7.78-6.92-14.33c3.05-6.53,2.24-13.39-2.35-19.85c-3.53-4.97-8-8-13.29-9
		l-1.62-0.96c-0.02-0.01-0.03-0.02-0.05-0.03c-3.57-3.25-6.88-6.35-9.79-9.09C131.23,7.56,123.53,0.34,116.21-0.11
		c-12.34-0.75-48.11,2.04-69.64,8.85c-1.04,0.06-7.62,0.47-13.42,2C5.68,17.98,0.6,43.76-0.31,51.48c-0.16,1.29,0.19,2.56,0.98,3.59
		s1.94,1.68,3.23,1.84c1.29,0.16,2.56-0.19,3.59-0.98c1.03-0.79,1.68-1.94,1.84-3.23c1.91-15.12,10.47-26.19,23.5-30.5
		c-8.18,12.08-4.88,26.74-3.87,30.4L13.7,60.07c-2.69,1.31-3.91,4.41-2.84,7.2c9.06,23.7,11.09,29.02,11.19,29.3
		c0.47,1.33,1.31,3.09,3.3,3.09c0.05,0,0.1,0,0.15,0c1.81-0.08,6.85-0.79,7.95-1.35c2.39-1.21,3.13-3.19,2.18-5.87
		c-0.93-2.64-4.14-13.1-5.24-16.7c3.48-0.19,13.2-0.73,18.46-1.05c8.7-0.54,15.88-4.89,20.21-12.26c2.14-3.64,3.4-7.8,3.78-12.01
		c0.12-0.03,0.24-0.08,0.35-0.16c5.83-4.2,14.48-2.03,22.85,0.07c3,0.75,6.1,1.53,9.05,2.01l-2.12,13.48l4.07,29.64
		c0.41,2.63,2.65,4.54,5.31,4.54H116c2.96,0,5.37-2.41,5.37-5.37V65.54l6.44-13.56l6.51,5.18c0.07,0.05,0.15,0.08,0.22,0.11
		c0.1,2,0.79,3.89,2.02,5.47c1.65,2.11,4.07,3.41,6.81,3.65c0.32,0.03,0.64,0.04,0.96,0.04c0.62,0,1.23-0.06,1.85-0.16
		c1.25,1.13,9.51,8.59,13.62,12.68c1.86,1.85,3.84,2.4,6.61,1.82c1.69-0.35,5.94-1.29,9.04-2.39c1.06-0.38,1.78-1,2.14-1.87
		C178.08,75.32,177.87,73.81,176.91,71.78z M127.08,48.85l-7.71,16.25v29.54c0,1.86-1.51,3.37-3.37,3.37h-3.65
		c-1.67,0-3.07-1.2-3.33-2.83l-4.03-29.33l2.39-15.19l-1.01-0.14c-3.14-0.44-6.55-1.29-9.84-2.12c-8.41-2.11-17.08-4.27-23.57-0.35
		c0.04-4.24-0.81-8.45-2.59-12.19c-0.24-0.5-0.84-0.71-1.33-0.47c-0.5,0.24-0.71,0.84-0.47,1.33c3.62,7.58,3.14,17.28-1.23,24.71
		C63.35,68.2,56.74,72.2,48.72,72.7c-6.43,0.4-19.58,1.12-19.72,1.12c-0.31,0.02-0.59,0.17-0.76,0.42s-0.23,0.57-0.14,0.86
		c0.18,0.6,4.5,14.78,5.64,18c0.84,2.38-0.34,2.98-1.22,3.43c-0.62,0.3-5.05,1.04-7.11,1.12c-0.32,0.01-0.86,0.04-1.48-1.75
		c-0.15-0.43-3.92-10.31-11.21-29.36c-0.69-1.82,0.1-3.83,1.85-4.68l16.03-7.83c0.45-0.22,0.67-0.74,0.51-1.21
		c-0.06-0.19-5.93-18.66,5.08-31.75c0.28-0.33,0.31-0.81,0.08-1.18c-0.23-0.37-0.68-0.54-1.1-0.43l-2.12,0.57
		C18.78,24.41,9.41,36.22,7.36,52.45c-0.1,0.76-0.48,1.43-1.09,1.9c-0.6,0.47-1.35,0.67-2.11,0.58c-0.76-0.1-1.43-0.48-1.9-1.09
		c-0.47-0.6-0.67-1.35-0.58-2.12c0.87-7.41,5.74-32.13,31.98-39.06c5.98-1.58,13.07-1.94,13.14-1.94c0.09,0,0.17-0.02,0.25-0.05
		c21.31-6.76,56.82-9.54,69.04-8.79c6.6,0.4,14.09,7.43,25.43,18.07c2.12,1.99,4.45,4.17,6.93,6.46c-0.92,0.01-1.86,0.15-2.83,0.46
		c-4.26,1.36-7.57,5.21-8.05,9.33l-2.88,18.69L127.08,48.85z M166,78.81c-2.11,0.44-3.41,0.1-4.79-1.28
		c-3.55-3.53-10.12-9.51-12.74-11.88c1.3-0.5,2.51-1.23,3.55-2.16c1.96-1.76,3.06-4.04,3.1-6.44c0.02-1.08-0.08-2.6-0.2-4.36
		c-0.29-4.37-0.78-11.69,1.03-13.38c0.26-0.25,0.56-0.33,0.97-0.28c0.56,0.07,1.05-0.31,1.12-0.86c0.07-0.55-0.31-1.05-0.86-1.12
		c-1-0.13-1.9,0.15-2.6,0.8c-2.31,2.17-2.12,8.07-1.66,14.98c0.11,1.72,0.21,3.2,0.2,4.19c-0.03,1.83-0.9,3.6-2.44,4.98
		c-1.9,1.71-4.64,2.63-7.13,2.4c-2.19-0.2-4.11-1.22-5.42-2.89c-1.31-1.68-1.85-3.81-1.51-5.99l2.93-19.03
		c0.4-3.4,3.14-6.57,6.68-7.7c1.94-0.62,3.74-0.48,5.16,0.34c0.01,0.01,0.02,0.02,0.03,0.03c0.05,0.05,0.1,0.09,0.16,0.12l0.17,0.1
		c0.32,0.23,0.63,0.48,0.9,0.78c0.25,0.27,0.61,0.36,0.95,0.29c0.07,0.03,0.13,0.06,0.21,0.08c4.84,0.87,8.94,3.64,12.2,8.23
		c4.3,6.06,4.96,12.2,1.97,18.25c-0.14,0.28-0.14,0.6,0,0.88c3.32,6.78,5.52,11.33,7.12,14.74c0.05,0.11,0.09,0.21,0.14,0.32
		c-0.05,0-0.1-0.02-0.15-0.02c-1.25,0-2.26,1.01-2.26,2.26c0,0.68,0.31,1.29,0.79,1.7C170.8,77.77,167.44,78.51,166,78.81z"/>
    <path class="st0" d="M162.8,48.86c-0.55,0-1,0.45-1,1v1.93l-1.38-1.11c-0.43-0.34-1.06-0.27-1.41,0.16
		c-0.34,0.43-0.27,1.06,0.16,1.41l4.63,3.71v-6.09C163.8,49.31,163.36,48.86,162.8,48.86z"/>
</g>
</svg>
