<svg xmlns="http://www.w3.org/2000/svg" width="87.41" height="101.997" viewBox="0 0 87.41 101.997">
  <g id="Gruppe_14392" data-name="Gruppe 14392" transform="translate(76.676 -242.466)">
    <circle id="Ellipse_2754" data-name="Ellipse 2754" cx="9.849" cy="9.849" r="9.849" transform="translate(-9.965 300.247)" fill="none" stroke="#7c7c7c" stroke-linecap="round" stroke-linejoin="round" stroke-width="2"/>
    <g id="Gruppe_14392-2" data-name="Gruppe 14392" transform="translate(-75.676 243.466)">
      <path id="Pfad_13457" data-name="Pfad 13457" d="M-25.27,243.466h6.116A3.533,3.533,0,0,1-15.631,247l.057,3.207v22.534A30.138,30.138,0,0,1-45.622,302.79h0a30.139,30.139,0,0,1-30.054-30.054V250.2l.038-3.207a3.539,3.539,0,0,1,3.529-3.529h6.116" transform="translate(75.676 -243.466)" fill="none" stroke="#7c7c7c" stroke-linecap="round" stroke-linejoin="round" stroke-width="2"/>
    </g>
    <path id="Pfad_13458" data-name="Pfad 13458" d="M-25.8,269.942A22.6,22.6,0,0,1-48.325,292.47h0a22.6,22.6,0,0,1-22.528-22.528v-16.9" transform="translate(25.68 50.993)" fill="none" stroke="#7c7c7c" stroke-linecap="round" stroke-linejoin="round" stroke-width="2"/>
  </g>
</svg>
