<?xml version="1.0" encoding="utf-8"?>
<!-- Generator: Adobe Illustrator 23.0.1, SVG Export Plug-In . SVG Version: 6.00 Build 0)  -->
<svg version="1.1" id="Ebene_1" xmlns="http://www.w3.org/2000/svg" x="0px" y="0px"
     viewBox="0 0 262 48.7" style="enable-background:new 0 0 262 48.7;" xml:space="preserve">
<style type="text/css">
	.st0{fill:#8C8C8C;}
</style>
    <title>dog_body_top_view</title>
    <g>
	<g id="Ebene_1-2">
		<g>
			<path class="st0" d="M46.5,48.7c-0.1,0-0.3,0-0.4,0c-3.9-0.5-10.6-3.6-12-4.9c-0.4-0.4-0.7-0.8-1.1-1.3c-0.7-0.9-1.3-1.8-2.6-2.2
				c-2.2-0.7-8.8-3.6-10.7-5.8c-0.7-0.8-5.2-1.6-8.5-2.2C7.5,31.6,3.9,30.9,2,30c-2-1-2-3.3-2-5.4v-0.5c0-2,0-4.4,2-5.4
				c1.8-0.9,5.4-1.6,9.2-2.3c3.4-0.6,7.9-1.5,8.6-2.2c2-2.3,9.1-5.2,10.7-5.8c1.1-0.4,1.8-1.2,2.5-2.1c0.4-0.5,0.7-0.9,1.2-1.4
				c1.4-1.4,8.1-4.5,11.9-4.9c2.4-0.3,4.9,2.2,7.5,7.6l1.3,2.7l-1.8,0.9l-1.4-2.7c-2-4.1-4.1-6.6-5.5-6.5c-3.6,0.5-9.8,3.5-10.8,4.4
				c-0.3,0.3-0.6,0.7-0.9,1.1c-0.8,1-1.7,2.2-3.4,2.8c-2.3,0.8-8.3,3.5-9.8,5.2c-1.1,1.2-4.4,1.9-9.8,2.9c-3.5,0.6-7,1.3-8.6,2.1
				C2.1,20.9,2,22.2,2,24.1v0.5c0,1.9,0.1,3.2,0.9,3.6c1.6,0.8,5.3,1.5,8.8,2.1c5.3,1,8.5,1.6,9.6,2.8c1.5,1.7,7.6,4.4,9.8,5.2
				c1.8,0.6,2.7,1.9,3.5,2.9c0.3,0.4,0.6,0.8,0.9,1.1c0.9,0.9,7.1,3.9,10.8,4.4c0.6,0.1,2.4-0.4,5.5-6.5l1.3-2.6l1.8,0.9l-1.3,2.6
				C51,46.2,48.8,48.7,46.5,48.7z"/>
		</g>
        <g>
			<path class="st0" d="M217.1,30.4l-0.1-2c0.1,0,6.3-0.2,12.3-0.6l2-0.1c13.8-0.7,22.7-1.4,26.7-2.1c-5.1-1.1-17.4-2.5-23.3-3.1
				c-2.2-0.3-4-0.5-5.2-0.6c-5.9-0.8-12.7-1.8-12.7-1.8l0.3-2c0.1,0,6.8,1,12.7,1.8c1.1,0.1,2.9,0.3,5.1,0.6c25.9,2.9,27,3.7,27,5.2
				c0,1.4,0,2.4-30.5,4l-2,0.1C223.4,30.2,217.1,30.4,217.1,30.4z"/>
		</g>
	</g>
</g>
</svg>
