<?xml version="1.0" encoding="utf-8"?>
<!-- Generator: Adobe Illustrator 23.0.1, SVG Export Plug-In . SVG Version: 6.00 Build 0)  -->
<svg version="1.1" id="Ebene_1" xmlns="http://www.w3.org/2000/svg" x="0px" y="0px"
	 viewBox="0 0 164.1 50.4" style="enable-background:new 0 0 164.1 50.4;" xml:space="preserve">
<style type="text/css">
	.st0{fill:#8C8C8C;}
	.st1{fill:#24B5BC;}
</style>
	<title>ideal</title>
	<g>
	<g id="Ebene_1-2">
		<g>
			<path class="st0" d="M68.8,50.4c-8.5,0-17-1.1-25.3-3.2c-0.4-0.1-1.8,0.4-2.9,0.8c-3.1,1-7.9,2.6-12.8,1.5
				c-6.7-1.6-9.9-3.3-12.5-4.8c-1.5-0.8-2.7-1.5-4.3-2c-1.6-0.5-2.9-1-4-1.5c-2.4-1-4.1-1.8-6.5-1.3l-0.4-2c3.1-0.7,5.3,0.3,7.8,1.4
				c1.2,0.5,2.4,1,3.8,1.5c1.8,0.5,3.1,1.3,4.7,2.2c2.5,1.4,5.5,3.1,11.9,4.6c4.3,1,8.6-0.4,11.7-1.4c1.9-0.6,3.2-1,4.1-0.8
				c11.1,2.9,22.6,3.8,34,2.7c10.5-1.1,20-3,26.9-4.3c4.5-0.9,8-1.5,10.2-1.7c2.1-0.2,5.3,0.4,9,1.1c6.7,1.2,15.1,2.8,21.1,0.8
				c9.2-3.1,17.3-14,17.4-14.2l1.6,1.2c-0.3,0.5-8.6,11.6-18.4,14.9c-6.5,2.2-15.1,0.6-22.1-0.7c-3.6-0.7-6.7-1.2-8.5-1.1
				c-2.1,0.2-5.6,0.8-10,1.7c-6.9,1.3-16.4,3.2-27,4.3C75,50.3,71.9,50.4,68.8,50.4z"/>
		</g>
		<g>
			<path class="st0" d="M162.5,20.7c-0.1-0.1-8.2-11.1-17.4-14.1c-5.9-2-14.2-0.4-20.9,0.8c-3.8,0.7-7.1,1.3-9.2,1.1
				c-2.1-0.2-5.4-0.8-9.7-1.7c-7-1.4-16.6-3.2-27.4-4.3C66.5,1.4,55.1,2.3,44,5.2c-0.9,0.2-2.1-0.2-4-0.8C37,3.4,32.6,1.9,28.2,3
				c-6.4,1.5-9.5,3.2-12,4.6c-1.6,0.9-2.9,1.6-4.7,2.1c-1.4,0.4-2.6,1-3.8,1.5c-2.4,1.1-4.7,2.1-7.8,1.4l0.4-2
				c2.5,0.5,4.2-0.2,6.6-1.2c1.2-0.5,2.5-1.1,4-1.6c1.6-0.5,2.8-1.2,4.3-2c2.6-1.4,5.8-3.2,12.5-4.8c4.9-1.2,9.7,0.4,12.8,1.5
				c1.1,0.4,2.5,0.8,2.9,0.8c11.3-2.9,23-3.8,34.7-2.8c10.9,1.1,20.6,3,27.6,4.4c4.2,0.8,7.5,1.4,9.5,1.6c1.8,0.2,5-0.4,8.6-1.1
				c6.9-1.3,15.5-2.8,21.9-0.7c9.8,3.2,18,14.3,18.4,14.8L162.5,20.7z"/>
		</g>
		<g>
			<path class="st1" d="M86,49l-0.3-2c7.4-1,13.8-2.3,19.1-3.3c4.5-0.9,8-1.5,10.2-1.7c2.1-0.2,5.4,0.4,9.2,1.1l0.1,0l-0.4,2l-0.1,0
				c-3.6-0.7-6.8-1.2-8.6-1.1c-2.1,0.2-5.6,0.8-10,1.7C99.9,46.7,93.4,47.9,86,49z"/>
		</g>
		<g>
			<path class="st1" d="M115.9,8.5c-0.3,0-0.5,0-0.8,0c-2.2-0.2-5.6-0.8-10-1.7c-5.3-1-11.8-2.3-19.3-3.3l0.3-2
				c7.5,1.1,14.1,2.3,19.4,3.3c4.3,0.8,7.7,1.5,9.8,1.7c1.8,0.1,4.8-0.4,8.3-1l0.4-0.1l0.4,2L124,7.4C120.6,8,117.9,8.5,115.9,8.5z"
			/>
		</g>
	</g>
</g>
</svg>
