<?xml version="1.0" encoding="utf-8"?>
<!-- Generator: Adobe Illustrator 23.0.1, SVG Export Plug-In . SVG Version: 6.00 Build 0)  -->
<svg version="1.1" id="Ebene_1" xmlns="http://www.w3.org/2000/svg" x="0px" y="0px"
	 viewBox="0 0 164.3 53.6" style="enable-background:new 0 0 164.3 53.6;" xml:space="preserve">
<style type="text/css">
	.st0{fill:#8C8C8C;}
	.st1{fill:#24B5BC;}
</style>
	<title>obese</title>
	<g>
	<g id="Ebene_1-2">
		<g>
			<path class="st0" d="M162.3,21.2c0,0-0.6-2.6-2.8-5.5c-3-4-7.3-6.7-12.9-8.3C137.7,5,123,3.5,115.1,2.9c-1.8-0.2-4.7,0-8.4,0.2
				C99.4,3.4,89.5,3.8,78,2.6C66.6,1.5,55.1,1.9,43.9,4c-0.7,0.2-1.9,0.1-3.6,0c-3-0.2-7.6-0.5-12.1,0.6c-6.9,1.6-9.8,2.8-12.5,3.8
				c-1.3,0.5-2.6,1-4.2,1.5c-1.4,0.4-2.6,1-3.8,1.5c-2.4,1.1-4.7,2.1-7.8,1.4l0.4-2c2.5,0.5,4.2-0.2,6.5-1.3C8.1,9,9.5,8.4,11,7.9
				c1.5-0.5,2.7-0.9,4-1.4c2.7-1,5.8-2.2,12.7-3.9c4.8-1.1,9.5-0.8,12.7-0.6C41.8,2,43,2.1,43.5,2C55-0.1,66.6-0.5,78.2,0.6
				C89.5,1.8,99.4,1.4,106.6,1c3.7-0.2,6.7-0.3,8.6-0.2c8,0.7,22.8,2.2,31.9,4.6c14.5,3.9,17,14.8,17.1,15.3L162.3,21.2z"/>
		</g>
		<g>
			<path class="st0" d="M65.5,53.6c-7.3,0-14.7-0.7-21.9-2c-0.6-0.1-1.9-0.1-3.3,0c-3.1,0.2-7.8,0.4-12.4-0.7
				c-7-1.7-10.1-2.9-12.8-3.9c-1.3-0.5-2.5-1-4-1.4c-1.6-0.5-2.9-1-4-1.6c-2.4-1-4.1-1.8-6.5-1.3l-0.4-2c3.1-0.7,5.4,0.3,7.8,1.4
				c1.2,0.5,2.4,1,3.8,1.5c1.6,0.5,2.8,1,4.2,1.5c2.6,1,5.6,2.2,12.5,3.8c4.4,1,8.9,0.8,11.9,0.6c1.8-0.1,3-0.2,3.8,0
				c11.2,2,22.6,2.5,34,1.3c11.5-1.2,21.5-0.7,28.8-0.4c3.6,0.2,6.5,0.3,8.3,0.2c1-0.1,2.3-0.2,3.9-0.3c7.4-0.5,19.7-1.2,27.6-3.6
				c14.6-4.4,15.7-14.3,15.7-14.4l2,0.2c0,0.5-1.2,11.3-17.1,16.1c-8.1,2.4-20.6,3.2-28,3.7c-1.6,0.1-2.9,0.2-3.9,0.3
				c-1.9,0.2-4.9,0-8.6-0.2c-7.2-0.3-17.1-0.8-28.5,0.4C73.9,53.4,69.7,53.6,65.5,53.6z"/>
		</g>
		<g>
			<path class="st1" d="M124,3.7c-3.7-0.4-6.9-0.7-8.9-0.9c-1.8-0.1-4.7,0-8.3,0.2c-5.3,0.3-12.6,0.6-20.9,0.2l0.1-2
				c8.1,0.4,15.4,0,20.7-0.2c3.7-0.2,6.6-0.3,8.6-0.2c2,0.2,5.2,0.4,9,0.9L124,3.7z"/>
		</g>
		<g>
			<path class="st1" d="M113.1,52.8c-1.8,0-4-0.1-6.5-0.2c-5.3-0.2-12.5-0.6-20.6-0.2l-0.1-2c8.2-0.4,15.5,0,20.8,0.2
				c3.7,0.2,6.6,0.3,8.4,0.2c1-0.1,2.3-0.2,3.9-0.3c1.5-0.1,3.2-0.2,5.1-0.3l0.1,2c-1.9,0.1-3.6,0.2-5.1,0.3
				c-1.5,0.1-2.9,0.2-3.9,0.3C114.6,52.8,113.9,52.8,113.1,52.8z"/>
		</g>
	</g>
</g>
</svg>
