<?xml version="1.0" encoding="utf-8"?>
<!-- Generator: Adobe Illustrator 23.0.1, SVG Export Plug-In . SVG Version: 6.00 Build 0)  -->
<svg version="1.1" id="Ebene_1" xmlns="http://www.w3.org/2000/svg" x="0px" y="0px"
	 viewBox="0 0 165.5 49.9" style="enable-background:new 0 0 165.5 49.9;" xml:space="preserve">
<style type="text/css">
	.st0{fill:#8C8C8C;}
	.st1{fill:#24B5BC;}
</style>
	<title>thin</title>
	<g>
	<g id="Ebene_1-2">
		<g>
			<path class="st0" d="M164,21.1c-0.1-0.1-9.5-12-18.8-14.9c-13.8-4.3-19.8-0.7-24.2,1.9c-2.1,1.2-3.8,2.3-5.8,2.1
				c-2.5-0.2-6.5-1.1-12.1-2.4C97.9,6.8,91.6,5.3,84.5,4C84.1,4,83.7,4,83.3,4c-0.5,0-1.1,0-1.6-0.1c-0.9-0.2-1.9-0.5-2.8-0.8
				c-1.1-0.2-2.2-0.2-3.3-0.2l-0.1,0l-0.1,0c-0.5-0.1-1.1-0.2-1.7-0.3c-0.7-0.2-1.4-0.3-1.9-0.4c-0.6,0-1.1,0-1.7,0.1
				c-0.5,0.1-1.1,0.1-1.7,0.1c-0.6,0-1.3-0.1-1.9-0.2C65.9,2.1,65.2,2,64.7,2c-0.7,0-1.4,0.1-2.1,0.3c-0.6,0.1-1.3,0.3-2,0.3
				c-0.7,0-1.5,0-2.4-0.1c-0.9-0.1-1.9-0.1-2.5-0.1C55,2.6,54.3,2.8,53.6,3c-0.6,0.2-1.3,0.4-2,0.5c-0.7,0.1-1.3,0.1-2,0.2
				c-0.7,0-1.4,0.1-1.9,0.2l-1.5,0.4c-0.9,0.2-1.8,0.5-2.2,0.6C43.2,5.1,42,5,40.2,4.7c-3-0.4-7.5-1-12,0.1
				C21.8,6.3,18.7,8,16.3,9.4c-1.6,0.9-2.9,1.6-4.7,2.1C10.2,12,9,12.5,7.8,13c-2.5,1.1-4.7,2.1-7.8,1.4l0.4-2
				C2.9,13,4.6,12.2,7,11.2c1.2-0.5,2.5-1.1,4-1.6c1.6-0.5,2.9-1.2,4.3-2c2.6-1.4,5.8-3.2,12.4-4.8c4.8-1.1,9.6-0.5,12.7-0.1
				c1.3,0.2,2.6,0.3,3.1,0.2c0.3-0.1,1.2-0.3,2.2-0.6L47.2,2c0.7-0.2,1.5-0.2,2.3-0.3c0.6,0,1.2-0.1,1.8-0.1
				c0.5-0.1,1.1-0.3,1.6-0.5c0.7-0.3,1.6-0.5,2.6-0.7c0.8-0.1,1.9,0,2.9,0.1c0.8,0.1,1.6,0.1,2.1,0.1c0.5,0,1.1-0.2,1.7-0.3
				C63,0.2,63.8,0,64.7,0c0.7,0,1.5,0.1,2.2,0.2c0.6,0.1,1.2,0.2,1.6,0.2c0.5,0,0.9,0,1.4-0.1c0.6-0.1,1.3-0.2,2.1-0.1
				c0.6,0,1.4,0.2,2.2,0.4c0.5,0.1,1.1,0.2,1.5,0.3c1.2,0,2.4,0,3.6,0.2l0.2,0c0.8,0.3,1.7,0.6,2.6,0.7C82.4,2,82.9,2,83.3,2
				c0.5,0,1,0,1.5,0.1C92,3.4,98.4,4.8,103.5,6c5.3,1.2,9.4,2.1,11.8,2.3c1.4,0.1,2.8-0.7,4.7-1.8c4.5-2.6,11.2-6.6,25.8-2.1
				c9.9,3.1,19.4,15.1,19.8,15.6L164,21.1z"/>
		</g>
		<g>
			<path class="st0" d="M64.6,49.9c-0.9,0-1.6-0.2-2.4-0.3c-0.6-0.1-1.2-0.3-1.8-0.3c-0.6,0-1.5,0-2.3,0.1c-1,0.1-2,0.2-2.7,0.1
				c-1-0.1-1.9-0.4-2.6-0.7c-0.6-0.2-1.1-0.4-1.6-0.5c-0.6-0.1-1.2-0.1-1.8-0.2c-0.8,0-1.6-0.1-2.3-0.3c-0.9-0.3-2.1-0.6-3.7-1
				c-0.4-0.1-1.8,0.1-3.1,0.2c-3.1,0.4-7.8,1-12.5-0.1c-6.7-1.6-9.9-3.4-12.5-4.8c-1.4-0.8-2.7-1.5-4.3-2c-1.5-0.5-2.9-1-4-1.6
				c-2.4-1-4.1-1.8-6.6-1.3l-0.4-2c3.1-0.7,5.4,0.3,7.8,1.4c1.2,0.5,2.4,1,3.8,1.5c1.8,0.5,3.1,1.3,4.7,2.1c2.5,1.4,5.5,3,12,4.6
				c4.4,1,8.9,0.5,11.8,0.1c1.8-0.2,3-0.4,3.9-0.2c1.6,0.4,2.8,0.7,3.7,1c0.4,0.1,1.1,0.2,1.8,0.2c0.7,0,1.4,0.1,2,0.2
				c0.7,0.1,1.3,0.3,1.9,0.5c0.7,0.2,1.4,0.5,2.2,0.6c0.6,0.1,1.5,0,2.3-0.1c0.9-0.1,1.8-0.1,2.6-0.1c0.7,0.1,1.4,0.2,2.1,0.3
				c0.7,0.1,1.3,0.3,2,0.3c0.5,0,1.1-0.1,1.8-0.2c0.6-0.1,1.3-0.2,1.9-0.2c0.7,0,1.3,0,1.8,0.1c0.5,0.1,1,0.1,1.6,0.1
				c0.5,0,1.1-0.2,1.8-0.3c0.6-0.1,1.3-0.3,1.9-0.4l0.1,0l0.1,0c1.1,0,2.2,0,3.3-0.2c0.9-0.3,1.9-0.6,2.8-0.8
				c0.6-0.1,1.1-0.1,1.6-0.1c0.5,0,0.9,0,1.2-0.1c7.1-1.3,13.4-2.7,18.5-3.9c5.6-1.3,9.6-2.2,12.1-2.4c0.4,0,0.8,0,1.2,0
				c1.5,0.2,2.7,1,4.1,2c2.3,1.6,5.2,3.5,10.7,3.8c4.1,0.4,8.7-0.2,14.1-1.8c9.4-2.5,18.7-14.7,18.8-14.9l1.6,1.2
				c-0.4,0.5-9.8,12.9-19.8,15.6c-5.7,1.7-10.5,2.4-14.8,1.9c-6-0.4-9.3-2.5-11.7-4.2c-1.2-0.8-2.2-1.5-3.2-1.7c-0.2,0-0.5,0-0.7,0
				c-2.4,0.2-6.6,1.1-11.9,2.3c-5.1,1.2-11.4,2.6-18.6,3.9c-0.5,0.1-1.1,0.1-1.6,0.1c-0.4,0-0.8,0-1.2,0.1c-0.8,0.2-1.7,0.5-2.6,0.8
				l-0.2,0.1C78,49,76.8,49,75.6,49c-0.4,0.1-1,0.2-1.6,0.3c-0.7,0.2-1.5,0.3-2.1,0.4c-0.7,0-1.3,0-1.9-0.1c-0.5-0.1-1-0.1-1.5-0.1
				c-0.5,0-1.1,0.1-1.7,0.2C66,49.8,65.3,49.9,64.6,49.9z"/>
		</g>
		<g>
			<path class="st1" d="M115.5,10.3c-0.1,0-0.3,0-0.4,0c-2.5-0.2-6.5-1.1-12-2.4c-4.8-1.1-10.7-2.4-17.3-3.7l0.4-2
				c6.6,1.2,12.6,2.6,17.4,3.7c5.2,1.2,9.4,2.1,11.8,2.3c1.4,0.1,2.8-0.7,4.6-1.8c1.1-0.7,2.3-1.4,3.8-2.1l0.8,1.8
				c-1.4,0.6-2.6,1.3-3.6,2C119,9.3,117.3,10.3,115.5,10.3z"/>
		</g>
		<g>
			<path class="st1" d="M86.1,47.6l-0.4-2c6.6-1.2,12.5-2.6,17.2-3.6c5.6-1.3,9.6-2.2,12.1-2.4c0.4,0,0.8,0,1.2,0
				c1.5,0.2,2.7,1.1,4.1,2c1.1,0.8,2.4,1.6,4.1,2.3l-0.8,1.8c-1.8-0.8-3.2-1.7-4.4-2.5c-1.2-0.8-2.2-1.5-3.2-1.7c-0.2,0-0.5,0-0.7,0
				c-2.4,0.2-6.6,1.1-11.9,2.3C98.6,45,92.7,46.3,86.1,47.6z"/>
		</g>
	</g>
</g>
</svg>
