<?xml version="1.0" encoding="utf-8"?>
<!-- Generator: Adobe Illustrator 23.0.1, SVG Export Plug-In . SVG Version: 6.00 Build 0)  -->
<svg version="1.1" id="Ebene_1" xmlns="http://www.w3.org/2000/svg" x="0px" y="0px"
	 viewBox="0 0 169.3 64.6" style="enable-background:new 0 0 169.3 64.6;" xml:space="preserve">
<style type="text/css">
	.st0{fill:#8C8C8C;}
	.st1{fill:#24B5BC;}
</style>
	<title>ultra_obese</title>
	<g>
	<g id="Ebene_1-2">
		<g>
			<path class="st0" d="M86.6,64.7c-1.7,0-3.3,0-5.1-0.1C69.9,63.9,58.3,62,47,58.9c-0.3-0.1-1.8,0.1-3,0.2
				c-4.5,0.4-13,1.1-20.3-1.6c-0.5-0.2-1.7-0.1-2.9-0.1c-2.5,0.1-5.8,0.3-8.8-1c-3.3-1.4-7.9-2.4-10.4-3C0.8,53.2,0.3,53,0,53
				L0.6,51c0.2,0.1,0.8,0.2,1.5,0.3c2.6,0.5,7.3,1.6,10.8,3.1c2.5,1.1,5.5,1,7.9,0.9c1.6-0.1,2.8-0.1,3.7,0.2
				c6.9,2.6,15,1.9,19.4,1.5c2.1-0.2,3.1-0.3,3.7-0.1c11.2,3.1,22.6,5,34.2,5.6c12.7,0.5,23.8-1.2,31.1-2.3c2.5-0.4,4.4-0.7,5.9-0.8
				c1.7-0.1,4.4-0.1,7.5,0c7.3,0.1,17.3,0.3,24-1.7c14.6-4.4,17.1-20,17.2-20.2l2,0.3c0,0.2-2.7,17-18.6,21.8
				c-7,2.1-17.2,1.9-24.6,1.8c-3.1-0.1-5.7-0.1-7.3,0c-1.4,0.1-3.3,0.4-5.7,0.8C106.6,63.2,97.4,64.7,86.6,64.7z"/>
		</g>
		<g>
			<path class="st0" d="M167.3,26.3c0-0.2-3.8-15.9-17.1-19.5c-6.7-1.8-16.7-1.7-23.9-1.6c-3.2,0-5.9,0.1-7.6-0.1
				c-1.4-0.1-3.4-0.4-5.9-0.7C105.2,3.4,93.9,2,81.6,2c-11.5,0.1-23,1.8-34.1,4.9C47,7,46,7,44,7c-5.2,0-14.8,0.1-19.8,3.3
				c-1,0.6-2.6,0.4-4.8,0C17,10,14,9.6,11.7,10.3c-1.5,0.4-2.9,0.9-4.3,1.3c-3.1,1-5.5,1.7-6.8,1.7v-2c1,0,3.5-0.8,6.2-1.6
				c1.4-0.4,2.8-0.9,4.3-1.3c2.8-0.8,6-0.3,8.6,0.1c1.3,0.2,3,0.5,3.4,0.3C28.5,5.1,38.6,5,44,5c1.3,0,2.7,0,3.1-0.1
				C58.3,1.8,69.9,0.1,81.6,0C94,0,105.4,1.5,113,2.4c2.5,0.3,4.5,0.6,5.8,0.7c1.6,0.1,4.3,0.1,7.4,0.1c7.4-0.1,17.5-0.2,24.5,1.7
				c14.5,3.9,18.4,20.3,18.6,21L167.3,26.3z"/>
		</g>
		<g>
			<path class="st1" d="M86.5,64.6c-0.2,0-0.4,0-0.6,0l0-2c10.9,0.1,20.5-1.4,26.8-2.4c2.5-0.4,4.4-0.7,5.8-0.8
				c1.4-0.1,3.3-0.1,5.6-0.1v2c-2.2,0-4.2,0-5.4,0.1c-1.3,0.1-3.2,0.4-5.7,0.8C106.8,63.2,97.4,64.6,86.5,64.6z"/>
		</g>
		<g>
			<path class="st1" d="M122.5,5.2c-1.5,0-2.8,0-3.9-0.1c-1.5-0.1-3.6-0.4-6.3-0.7c-6.4-0.8-16-2-26.3-2.3l0.1-2
				c10.5,0.3,20.2,1.5,26.5,2.3c2.7,0.3,4.8,0.6,6.2,0.7c1.3,0.1,3.4,0.1,5.4,0.1l0,2C123.6,5.2,123.1,5.2,122.5,5.2z"/>
		</g>
	</g>
</g>
</svg>
