<?xml version="1.0" encoding="utf-8"?>
<!-- Generator: Adobe Illustrator 23.0.1, SVG Export Plug-In . SVG Version: 6.00 Build 0)  -->
<svg version="1.1" id="Ebene_1" xmlns="http://www.w3.org/2000/svg" x="0px" y="0px"
	 viewBox="0 0 165.5 47.3" style="enable-background:new 0 0 165.5 47.3;" xml:space="preserve">
<style type="text/css">
	.st0{fill:#8C8C8C;}
	.st1{fill:#24B5BC;}
</style>
	<title>ultra_thin</title>
	<g>
	<g id="Ebene_1-2">
		<g>
			<path class="st0" d="M164,20.7c-0.1-0.1-9.5-10.9-18.8-13.5c-19.6-5.4-24.8-1.4-28.2,1.3c-1.5,1.2-2.8,2.2-4.8,2
				C106.6,10,99,9.1,85.8,5.8c-0.5-0.1-1.3-0.2-2.1-0.3c-0.3,0-0.6-0.1-0.9-0.1c-0.7-0.1-1.3-0.4-1.9-0.7c-0.5-0.2-0.9-0.5-1.3-0.5
				C79.2,4,78.7,4,78.2,4c-0.6,0-1.1,0-1.7-0.1l-0.2,0c-1.2-0.5-2.4-0.9-3.7-1.2c-0.3,0-0.8,0-1.3,0.1C70.8,2.9,70.2,3,69.5,3
				c-0.6-0.1-1.2-0.3-1.7-0.6c-0.5-0.2-1-0.4-1.4-0.4c-0.9,0.3-1.9,0.5-2.8,0.7l-0.2,0c-0.7,0-1.3-0.2-1.8-0.4
				C61,2.1,60.6,1.9,60,2.1c-0.4,0.1-0.8,0.3-1.2,0.5c-0.5,0.2-1,0.5-1.6,0.6c-0.7,0.1-1.4-0.1-2-0.2c-0.4-0.1-0.9-0.2-1.2-0.1
				c-0.6,0.1-1,0.3-1.5,0.6c-0.4,0.2-0.9,0.5-1.4,0.6l-0.1,0c-1.2,0.1-2.4,0.1-3.6,0.1c-1.2,0.2-2.3,0.5-3.4,0.9
				c-1.1,0.3-2-0.1-3-0.6c-1.8-0.8-4.2-1.9-8.5-0.9c-0.6,0.1-1.7,0.6-2.8,1c-2,0.8-4.4,1.7-6.3,2c-4,0.5-5.9,2-7.8,3.5
				c-1.2,1-2.4,1.9-4.1,2.4l-1.1,0.3C6.6,14,4,14.8,0,13.9l0.4-2c3.5,0.8,5.6,0.1,9.5-1l1.1-0.3c1.3-0.4,2.2-1.2,3.4-2.1
				c1.9-1.5,4.2-3.4,8.8-3.9c1.7-0.2,4-1.1,5.9-1.8c1.2-0.5,2.3-0.9,3-1.1c4.9-1.2,7.8,0.1,9.7,1c0.7,0.3,1.4,0.6,1.7,0.5
				c1.1-0.4,2.4-0.8,3.7-1l0.1,0l0.1,0c1.1,0,2.3,0,3.4-0.1c0.2-0.1,0.5-0.2,0.8-0.4c0.5-0.3,1.2-0.7,2.1-0.8c0.7-0.1,1.3,0,1.9,0.1
				C56.1,1,56.6,1.1,57,1.1c0.3,0,0.6-0.2,1-0.4c0.5-0.2,1-0.5,1.6-0.6c1.1-0.2,2,0.1,2.7,0.3c0.4,0.1,0.7,0.2,1.1,0.3
				C64.2,0.5,65.1,0.3,66,0l0.2,0c1-0.1,1.8,0.3,2.5,0.6C69,0.8,69.4,0.9,69.7,1c0.4,0,0.8,0,1.2-0.1c0.6-0.1,1.3-0.3,2.1-0.1
				c1.4,0.4,2.7,0.8,3.9,1.3C77.3,2,77.7,2,78.2,2c0.6,0,1.2,0,1.8,0.1c0.6,0.1,1.2,0.4,1.8,0.7c0.5,0.2,1,0.5,1.3,0.5
				c0.3,0,0.5,0.1,0.8,0.1c0.8,0.1,1.6,0.2,2.3,0.4c13.1,3.2,20.6,4.1,26.1,4.6c1.1,0.1,1.9-0.5,3.4-1.6c3.7-2.9,9.4-7.3,30-1.6
				c9.9,2.8,19.4,13.7,19.8,14.1L164,20.7z"/>
		</g>
		<g>
			<path class="st0" d="M66.5,47.4c-0.1,0-0.3,0-0.4,0l-0.2,0c-0.9-0.3-1.7-0.5-2.6-0.6c-0.3,0-0.7,0.1-1.1,0.3
				c-0.7,0.2-1.6,0.5-2.7,0.3c-0.6-0.2-1.1-0.4-1.5-0.6c-0.4-0.2-0.8-0.4-1.1-0.4c-0.4,0-0.8,0.1-1.3,0.2c-0.6,0.1-1.2,0.3-1.8,0.2
				c-0.9-0.2-1.6-0.5-2.1-0.8c-0.3-0.2-0.6-0.3-0.8-0.4c-1.1-0.1-2.3-0.1-3.4-0.1l-0.1,0l-0.1,0c-1.2-0.2-2.5-0.6-3.7-1l-0.1,0
				c-0.3-0.1-1,0.2-1.7,0.5c-1.9,0.9-4.8,2.2-9.7,1c-0.5-0.1-1.2-0.4-2.1-0.8c-1.7-0.7-4.1-1.7-5.6-1.7c-5.2-0.1-7.8-2.3-9.9-4.1
				c-1.2-1-2.1-1.9-3.4-2.3l-1-0.3c-3.9-1.2-6-1.8-9.5-1.1l-0.4-2c4.1-0.9,6.6-0.1,10.6,1.1l1,0.3c1.7,0.5,2.9,1.6,4.2,2.7
				c2,1.7,4.1,3.6,8.6,3.6c2,0,4.5,1.1,6.4,1.9c0.8,0.3,1.5,0.6,1.8,0.7c4.2,1,6.6-0.1,8.4-0.9c1-0.5,1.9-0.9,2.8-0.7h0.1l0.2,0.1
				c1.1,0.4,2.2,0.7,3.3,0.9c1.2,0,2.4,0,3.6,0.1l0.1,0c0.6,0.1,1,0.4,1.5,0.6c0.5,0.3,0.9,0.5,1.4,0.6c0.3,0,0.7,0,1.1-0.1
				c0.6-0.1,1.2-0.3,2-0.2c0.6,0.1,1.2,0.3,1.7,0.6c0.4,0.2,0.8,0.3,1.2,0.4c0.5,0.1,1-0.1,1.6-0.2c0.5-0.2,1.1-0.4,1.8-0.4l0.2,0
				c1,0.2,1.9,0.4,2.8,0.7c0.4,0,0.8-0.2,1.4-0.4c0.5-0.2,1.1-0.5,1.8-0.6c0.7-0.1,1.3,0.1,1.9,0.2c0.5,0.1,0.9,0.2,1.3,0.1
				c1.2-0.3,2.4-0.7,3.6-1.2l0.1,0c0.6-0.2,1.3-0.2,1.9-0.1c0.5,0,0.9,0,1.3-0.1c0.3-0.1,0.8-0.3,1.3-0.5c0.6-0.3,1.3-0.6,2-0.7
				c0.3-0.1,0.7-0.1,1-0.1c0.7-0.1,1.4-0.2,1.9-0.3c8-2.1,16.2-3.6,24.5-4.5l1.9-0.2c2-0.2,3.2,0.9,4.4,2c2.9,2.7,7.4,6.8,28.6,1.2
				c9.4-2.5,18.7-13.4,18.8-13.5l1.5,1.3c-0.4,0.5-9.8,11.5-19.8,14.1c-22.2,5.8-27.2,1.3-30.4-1.7c-1.2-1.1-1.8-1.6-2.9-1.5
				l-1.9,0.2c-8.1,0.9-16.2,2.4-24.2,4.5c-0.7,0.2-1.4,0.3-2.1,0.4c-0.3,0-0.7,0.1-1,0.1c-0.4,0.1-0.9,0.3-1.4,0.6
				c-0.6,0.3-1.1,0.5-1.7,0.7c-0.6,0.1-1.2,0.1-1.7,0.1c-0.5,0-1,0-1.3,0.1c-1.2,0.5-2.5,0.9-3.8,1.3c-0.8,0.1-1.5,0-2.1-0.1
				c-0.5-0.1-0.9-0.2-1.3-0.1c-0.3,0-0.7,0.2-1.1,0.4C68,47.1,67.3,47.4,66.5,47.4z"/>
		</g>
		<g>
			<path class="st1" d="M112.6,10.5c-0.1,0-0.3,0-0.4,0C106.6,10,99,9.1,85.8,5.8l0.5-1.9c13.1,3.2,20.6,4.1,26.1,4.6
				c1.1,0.1,1.9-0.5,3.4-1.6c1.7-1.3,4-3.1,8.1-3.9l0.4,2c-3.7,0.7-5.7,2.3-7.3,3.5C115.6,9.5,114.4,10.5,112.6,10.5z"/>
		</g>
		<g>
			<path class="st1" d="M124,44.6c-4.9-0.7-7.1-2.7-8.7-4.2c-1.2-1.1-1.8-1.6-2.9-1.5l-1.9,0.2c-8.1,0.9-16.3,2.4-24.2,4.4l-0.5-1.9
				c8-2.1,16.3-3.6,24.5-4.5l1.9-0.2c2-0.2,3.2,0.9,4.4,2c1.5,1.4,3.4,3.1,7.6,3.7L124,44.6z"/>
		</g>
	</g>
</g>
</svg>
